<svg width="46" height="28" viewBox="0 0 46 28" fill="none" xmlns="http://www.w3.org/2000/svg">
<path d="M25.0442 5.47989L28.537 6.65628L25.0442 7.83266L23.8678 13.3126L22.6903 7.83266L19.1986 6.65628L22.6903 5.47989L23.8678 0L25.0442 5.47989Z" fill="#FFEEDB"/>
<path d="M45.522 0.445312C45.8337 1.95765 46 3.52286 46 5.12442C46 17.7574 35.7584 28.0001 23.1243 28.0001C10.4903 28.0001 0.248691 17.7585 0.248691 5.12442C0.248691 3.52286 0.415024 1.95875 0.726746 0.445311C2.88456 10.8323 12.0919 18.6418 23.1232 18.6418C34.1546 18.6418 43.363 10.8334 45.5198 0.445312L45.522 0.445312Z" fill="#FFEEDB"/>
</svg>
