<svg width="68" height="168" viewBox="0 0 68 168" fill="none" xmlns="http://www.w3.org/2000/svg">
<path d="M25.2543 124.771C25.024 124.771 24.7869 124.757 24.5566 124.743C24.7937 124.764 25.0308 124.771 25.2543 124.771ZM67.9458 51.6575C67.9187 50.795 67.3429 49.8911 66.9161 49.2218C66.2387 48.1799 65.3445 47.1172 64.2403 46.5238C64.1048 46.4548 63.9829 46.4893 63.9084 46.5721C61.0361 47.5382 58.2993 48.4076 55.4405 48.9665C52.0669 45.7855 47.772 43.543 42.7658 42.8185C41.3026 42.6046 39.8055 42.4873 38.2948 42.3907C38.3151 42.3217 38.3287 42.2527 38.3355 42.1768C38.3693 41.5213 38.41 40.8589 38.4438 40.1896C39.25 33.1377 39.0535 25.4786 38.0306 18.482C38.3829 18.1576 38.4777 17.3917 38.4845 16.9984C38.4913 16.474 38.3829 15.6667 37.9358 15.3217C38.3829 11.0989 39.1145 7.49704 41.2958 3.5433C41.3432 3.4536 41.3365 3.36389 41.2958 3.28799C41.2958 3.25349 41.2958 3.21899 41.2823 3.18449C40.2458 0.389964 35.6664 -0.0792411 33.1938 0.0518603C31.1412 0.155361 27.0495 0.590067 26.3382 2.97059C26.2976 3.10169 26.3992 3.21899 26.5076 3.25349C28.4179 7.21413 29.3663 10.9816 30.0302 15.1975C29.6305 15.6805 29.5086 16.5016 29.5357 17.0536C29.5492 17.3503 29.6373 17.8471 29.8202 18.2335C28.4247 25.7891 27.9911 33.945 29.3189 41.5006C28.1063 41.2591 26.9208 40.9348 25.7624 40.4932C23.1204 39.472 19.9636 36.1392 20.0381 33.0066C20.072 31.5024 21.2033 30.8745 22.2533 30.0948C23.4524 29.1978 24.1163 27.8246 24.455 26.3825C24.4956 26.1962 24.5227 26.0168 24.5498 25.8374L24.7192 25.7546C25.7895 25.1888 26.3924 23.9675 26.2569 22.6496C26.135 21.4421 25.4101 20.483 24.4143 20.2001L24.1975 20.138C23.9266 18.4613 23.7843 16.9708 23.6895 15.4114C23.6217 14.3143 23.3643 13.7623 22.382 13.4035C23.0527 12.1822 23.195 10.7884 22.0366 8.67695C21.5827 7.84204 21.2304 7.02783 21.2982 6.30332C21.4269 4.93021 22.8698 4.1022 22.7682 3.8607C22.6937 3.6882 22.1382 4.3782 21.9214 4.2471C21.7114 4.116 22.0636 3.27419 21.9824 3.20519C21.8943 3.13619 21.0407 4.96471 20.8578 5.75132C20.6275 6.76563 20.6749 7.67644 21.5353 9.25656C22.5243 11.0575 22.2127 12.0235 21.3862 13.1413C19.4962 12.8308 19.0152 13.99 18.1481 15.6391C17.5723 16.7431 16.9762 17.8402 16.3191 18.896H16.2852C16.1429 18.8615 15.9939 18.8477 15.8516 18.8477C14.8423 18.8477 13.8464 19.5308 13.3181 20.5934C12.7558 21.7181 12.8303 22.9532 13.5077 23.9054L13.6094 24.0434L13.6568 24.0641C13.169 26.4377 13.9887 28.6113 15.33 29.9016C15.872 30.426 16.1362 31.1712 16.1158 31.9302C16.0955 32.8065 16.1565 33.7035 16.3326 34.5936C17.0033 38.0437 18.4665 41.0935 21.3185 43.2256C23.6692 44.9851 26.7176 46.0063 29.5289 46.8481C29.4747 47.5174 29.556 48.1799 29.6983 48.8354C29.7457 49.0562 29.7999 49.2908 29.8676 49.5323C25.5321 49.5461 21.2033 49.8911 16.8678 49.5668C12.3968 49.2356 8.35929 48.0212 4.13214 46.5997C4.06439 46.5169 3.95601 46.4686 3.83407 46.5307C2.72986 47.1241 1.81533 48.1868 1.13113 49.2356C0.690805 49.9187 0.121765 50.8157 0.0946682 51.6851C0.0472483 51.7127 0.0133775 51.7541 0.00660321 51.8093C-0.0814624 52.7132 0.731451 53.6861 1.2463 54.3416C1.84921 55.1213 2.6418 56.1287 3.52923 56.66C3.54277 56.7083 3.5631 56.7428 3.59019 56.7773C3.67149 56.9429 3.85439 57.0533 4.06439 56.9361C11.2519 53.003 18.5207 52.6442 25.7556 54.8177C23.0256 54.9074 20.3227 55.2869 18.0533 56.1563C15.5874 57.1361 13.3519 58.4817 11.3467 60.1446C9.34156 61.8144 7.55315 63.8016 6.11023 66.189C1.18533 74.4484 3.40051 85.523 10.6896 91.5744C12.7626 93.2994 14.9913 94.5345 17.2404 95.4591C20.2143 96.6736 23.6827 97.2739 27.2595 97.3843C27.3069 100.42 27.3611 103.456 27.4424 106.492C26.5482 106.237 25.6472 106.051 24.7801 105.996C22.4362 105.851 19.6317 106.051 17.2133 106.941C14.6661 107.928 11.9361 109.618 10.229 111.75C9.68027 112.426 9.17897 113.179 8.73865 113.972C9.56511 113.475 11.1977 112.357 12.539 111.971C12.688 111.93 12.81 111.833 12.8777 111.681C13.4061 110.487 14.2597 108.735 14.9371 108.183C15.6823 108.383 17.0846 108.673 18.2362 109.142C18.7375 109.349 19.3133 109.218 19.7062 108.838C20.641 107.948 21.9146 106.975 22.5582 106.699C23.2559 107.113 24.2992 107.81 25.1392 108.611C25.383 108.845 25.7353 108.9 26.0401 108.762C27.246 108.224 28.9192 107.707 29.6644 107.679C30.186 108.335 30.9515 109.383 31.4596 110.467C31.6154 110.798 31.9676 110.984 32.3199 110.929C33.5257 110.75 35.1312 110.694 35.7951 110.846C36.0932 111.536 36.5132 112.613 36.7164 113.668C36.8045 114.117 37.2042 114.441 37.6513 114.393C38.7622 114.269 40.0358 114.248 40.6116 114.379C40.8894 115.014 41.2619 115.98 41.4855 116.953C40.9368 117.532 40.3745 118.112 39.8529 118.602C38.5387 118.83 37.658 118.768 37.4954 118.768C37.2516 117.519 36.8112 116.532 36.5809 115.607C36.4725 115.166 36.039 114.897 35.5987 114.973C34.0473 115.235 32.618 115.49 32.4283 115.49C32.2318 114.469 32.0625 113.441 31.8796 112.599C31.7644 112.054 31.1818 111.764 30.6873 111.992C29.1089 112.723 27.6253 113.434 27.4289 113.489C26.975 112.551 26.5482 111.605 26.1485 110.805C25.8843 110.274 25.1934 110.17 24.7801 110.584C23.6353 111.75 22.6124 112.813 22.4498 112.923C21.8401 112.337 21.244 111.736 20.6952 111.212C20.0178 110.557 18.9136 110.736 18.453 111.564C17.7484 112.84 17.1523 113.938 17.0439 114.076C16.0481 113.544 15.0726 112.985 14.2461 112.558C13.7923 112.323 13.2842 112.751 13.4197 113.248C13.8735 114.883 14.3071 116.387 14.3274 116.587C13.2368 116.939 12.1393 117.25 11.2519 117.56C10.798 117.719 10.7167 118.333 11.1096 118.609C12.749 119.775 14.2732 120.838 14.4426 121.01C13.6906 122.183 12.9116 123.322 12.3155 124.288C11.9632 124.86 12.3697 125.599 13.0335 125.606C15.0116 125.612 16.8271 125.606 17.0575 125.647C17.0846 126.799 17.0913 127.938 17.1184 128.938C17.132 129.504 17.7213 129.87 18.2226 129.615C20.4581 128.497 22.5785 127.413 22.8562 127.324C23.7166 128.897 24.5024 130.491 25.2137 131.657C25.5321 132.188 26.2772 132.216 26.6295 131.705C27.185 130.898 27.7405 130.098 28.2215 129.394C28.3299 131.084 28.4518 132.775 28.5873 134.458C27.8015 134.148 27.0224 133.789 26.3992 133.368C26.1282 133.189 25.7827 133.182 25.505 133.347C23.9604 134.279 21.7994 135.473 20.6546 135.576C19.9297 134.762 18.4665 133.313 17.4978 131.871C17.3284 131.616 17.0371 131.457 16.7323 131.484C15.2284 131.602 13.169 131.685 12.268 131.305C11.9903 130.194 11.279 127.972 11.2655 126.289C11.2655 125.999 11.1029 125.737 10.8522 125.592C9.55156 124.819 7.85799 123.708 7.33637 122.887C7.7496 121.769 8.44735 119.361 9.44995 117.995C9.56511 117.836 9.59898 117.643 9.53801 117.457C9.11123 116.27 8.64381 114.745 8.7251 113.965C7.79702 115.642 7.15347 117.567 7.01798 119.706C6.78088 122.88 7.64799 127.013 9.53124 129.401C11.4145 131.795 14.4697 134.017 16.8068 135.024C20.8578 136.784 24.8614 137.191 28.7702 136.687C28.9463 138.812 29.136 140.924 29.3121 143.028C29.9895 150.943 30.7889 158.96 32.6789 166.689C32.7196 166.854 32.828 166.944 32.9499 166.985C33.1125 167.068 33.3089 167.047 33.4106 166.875C33.458 166.82 33.4851 166.744 33.4851 166.661C35.1109 159.975 35.8764 153.075 36.5132 146.23C36.8925 142.207 37.2787 138.143 37.5767 134.065C39.8664 133.023 42.1155 131.767 44.2968 130.353C45.1436 129.801 45.9633 129.214 46.7627 128.607C48.2936 131.174 49.4724 133.996 50.1498 136.998C51.3217 141.973 51.2201 147.361 49.8314 152.488C49.662 153.116 50.5427 153.44 50.8069 152.84C52.9882 147.817 53.9637 142.145 53.4556 136.466C53.1373 132.671 52.1008 128.911 50.4682 125.405C51.7824 124.129 53.0153 122.77 54.1534 121.341C60.3993 113.51 65.69 101.317 64.4232 91.1466C64.0845 88.428 63.5629 85.73 62.8719 83.0804C62.6551 82.2455 61.097 78.8507 61.4357 78.0434C64.6535 70.3498 63.8677 61.9179 60.1893 55.2041C61.4222 55.6733 62.6483 56.2253 63.8745 56.9015C64.0506 56.9981 64.2335 56.9429 64.3487 56.8256C64.4164 56.798 64.4706 56.7359 64.4774 56.6531C65.3716 56.1218 66.1642 55.1006 66.7739 54.314C67.2887 53.6516 68.0813 52.6925 67.9932 51.7886C67.9932 51.7334 67.9526 51.6989 67.9052 51.6782L67.9458 51.6575ZM22.7682 114.414C22.9714 114.414 23.1746 114.414 23.3846 114.427C22.3956 114.634 21.5149 114.959 20.7494 115.387C20.6749 115.304 20.6004 115.214 20.553 115.104C20.4852 114.959 20.4581 114.807 20.4514 114.648C21.2236 114.476 22.023 114.414 22.7749 114.414H22.7682ZM20.1398 114.724C20.1533 115.035 20.2481 115.366 20.4243 115.6C20.0381 115.849 19.6723 116.118 19.3607 116.428C19.2252 116.242 19.0017 116.125 18.8459 115.945C18.7036 115.773 18.6088 115.587 18.5275 115.387C19.0288 115.09 19.5707 114.876 20.1398 114.724ZM18.2362 115.559C18.3107 115.766 18.4123 115.952 18.5478 116.132C18.6901 116.318 18.9204 116.58 19.1643 116.642C18.812 117.022 18.5072 117.436 18.2633 117.891C17.7417 117.643 17.3217 117.353 16.9423 116.891C17.2946 116.339 17.7281 115.897 18.2294 115.559H18.2362ZM16.1768 119.126C16.2716 118.367 16.4816 117.726 16.7729 117.187C17.1049 117.643 17.5858 118.022 18.1142 118.202C18.0736 118.285 18.0262 118.367 17.9923 118.457C17.8162 118.885 17.7078 119.306 17.6536 119.72C17.1049 119.782 16.6645 119.658 16.1768 119.375C16.1633 119.292 16.17 119.209 16.1768 119.126ZM16.1362 119.685C16.5494 119.996 17.1049 120.12 17.6129 120.051C17.5858 120.479 17.6265 120.893 17.7281 121.293C17.3555 121.507 17.01 121.679 16.6104 121.783C16.2716 121.148 16.1158 120.444 16.1362 119.678V119.685ZM18.331 123.591C17.8771 123.294 17.4775 122.956 17.1591 122.59C17.0168 122.432 16.9016 122.259 16.7865 122.087C17.1591 122.011 17.5249 121.859 17.823 121.631C17.9313 121.928 18.0668 122.218 18.2497 122.494C18.4055 122.735 18.5952 122.956 18.7917 123.163C18.663 123.342 18.5139 123.487 18.3242 123.591H18.331ZM18.6359 123.784C18.7984 123.687 18.9407 123.57 19.0559 123.418C19.7672 124.06 20.6749 124.55 21.6504 124.895C20.5123 124.66 19.4826 124.281 18.6359 123.784ZM26.3043 124.715L25.7489 124.764H25.2543C22.084 124.764 16.9694 122.921 18.663 118.733C19.8214 115.87 23.0053 114.91 26.0198 114.91C26.6702 114.91 27.3137 114.959 27.9234 115.035C27.8353 118.147 27.876 121.272 28.0047 124.412L26.2976 124.702L26.3043 124.715ZM28.3705 115.117C28.7837 115.186 29.1834 115.262 29.556 115.359C29.6644 115.387 29.766 115.421 29.8744 115.449C29.9218 116.684 29.9625 117.946 30.0166 119.285C30.7618 138.702 31.9541 156.442 32.7535 162.914C29.617 147.161 29.9896 131.057 28.3773 115.124L28.3705 115.117ZM39.1687 2.88779C38.3016 3.6951 37.089 8.92535 36.669 12.5134C36.2083 12.4099 35.7341 12.334 35.2464 12.2926C35.3006 8.64935 35.1041 3.16379 34.9551 1.76998C36.5132 1.76998 38.62 2.32888 39.1687 2.88779ZM34.7315 36.0564C34.7315 35.9391 34.7315 35.8218 34.7315 35.6976C35.4564 35.7459 36.1677 35.8287 36.8858 35.9046C36.8858 36.0219 36.8858 36.1461 36.8858 36.2634C36.1948 36.1392 35.4699 36.0702 34.7315 36.0564ZM36.8654 37.0914C36.8654 37.188 36.8654 37.2915 36.8654 37.3881C36.8383 37.4778 36.818 37.5745 36.7909 37.6642C36.1135 37.5676 35.4225 37.4916 34.7248 37.4571C34.7248 37.2846 34.7248 37.1121 34.7248 36.9396C35.4428 36.9741 36.1541 37.0431 36.8654 37.0914ZM34.7248 34.8489C34.7248 34.6902 34.7248 34.5384 34.7248 34.3797C35.4496 34.4142 36.1745 34.4901 36.8925 34.566C36.8925 34.7454 36.8925 34.9179 36.8925 35.0973C36.2016 34.9731 35.4699 34.8903 34.7248 34.8558V34.8489ZM34.7112 33.5448C34.7112 33.3999 34.7112 33.255 34.7112 33.117C35.4428 33.1929 36.1677 33.2964 36.8993 33.3654C36.8993 33.4965 36.8993 33.6345 36.8993 33.7656C36.1948 33.6483 35.4632 33.5724 34.718 33.5448H34.7112ZM36.6893 21.9596C36.6893 21.9596 36.7367 22.0286 36.7571 22.0631C36.7571 22.2701 36.7571 22.484 36.7571 22.691C36.2354 22.6358 35.707 22.5944 35.1719 22.5599C35.1786 22.3322 35.1922 22.1045 35.199 21.8768C35.6935 21.8906 36.188 21.9182 36.6825 21.9596H36.6893ZM35.2057 21.0626C35.2057 20.9798 35.2057 20.897 35.2057 20.8142C35.4699 20.8763 35.7206 20.966 35.9374 21.104C35.6935 21.0833 35.4496 21.0695 35.2057 21.0626ZM36.5606 13.5829C36.1474 13.4449 35.7003 13.3483 35.2261 13.2931C35.2261 13.1896 35.2261 13.0861 35.2328 12.9757C35.6799 13.0033 36.1338 13.0585 36.6012 13.1482C36.5877 13.3 36.5742 13.4449 36.5606 13.5829ZM36.5267 14.1832C36.5267 14.335 36.5132 14.4799 36.5132 14.611C36.0932 14.4661 35.6461 14.3695 35.1786 14.3005C35.1854 14.197 35.1922 14.0935 35.199 13.9831C35.6393 14.0521 36.0796 14.128 36.5267 14.1832ZM36.7638 23.4845C36.7638 23.726 36.7638 23.9675 36.7638 24.209C36.2151 24.1469 35.6596 24.0986 35.0974 24.0641C35.1109 23.8433 35.1245 23.6225 35.138 23.4086C35.6799 23.4224 36.2219 23.45 36.7638 23.4914V23.4845ZM36.7774 25.0232C36.7774 25.2371 36.7774 25.4579 36.7842 25.6718C36.2151 25.5614 35.619 25.4855 35.0025 25.4579C35.0161 25.2785 35.0296 25.0922 35.0432 24.9128C35.619 24.9335 36.1948 24.968 36.7774 25.0232ZM34.9348 26.3756C35.558 26.4239 36.1812 26.486 36.7977 26.5205C36.7977 26.7137 36.7977 26.9 36.8045 27.0932C36.1745 27.0035 35.5309 26.9345 34.8941 26.8862C34.9077 26.7137 34.9212 26.5481 34.9348 26.3756ZM34.8399 27.7211C35.497 27.7694 36.1609 27.8315 36.8248 27.9074C36.8248 28.1282 36.8316 28.3422 36.8383 28.563C36.1677 28.5078 35.4835 28.4595 34.7993 28.4181C34.8128 28.1835 34.8264 27.9488 34.8467 27.7142L34.8399 27.7211ZM34.7519 29.2944C35.4496 29.3013 36.1474 29.322 36.8451 29.3496C36.8451 29.5359 36.8451 29.7222 36.8519 29.9016C36.1677 29.7912 35.4564 29.7153 34.7315 29.6739C34.7315 29.5497 34.7451 29.4186 34.7519 29.2944ZM34.7112 30.5088C35.4293 30.5571 36.1474 30.633 36.8654 30.702C36.8654 30.8538 36.8654 31.0125 36.8654 31.1643C36.1541 31.0746 35.4293 31.0125 34.6977 30.9849C34.6977 30.8262 34.6977 30.6675 34.7044 30.5088H34.7112ZM36.879 31.944C36.879 32.151 36.879 32.3649 36.8858 32.5719C36.2016 32.4063 35.4632 32.3028 34.6977 32.2614C34.6977 32.1096 34.6977 31.9578 34.6977 31.7991C35.4225 31.8129 36.1474 31.8612 36.879 31.944ZM34.6909 38.3335C35.3074 38.3473 35.9306 38.3887 36.5538 38.4508C36.3777 38.5819 36.2219 38.7268 36.0593 38.8648C35.6054 38.8096 35.1448 38.7613 34.6774 38.7337C34.6774 38.6026 34.6841 38.4646 34.6909 38.3335ZM32.076 24.8921C32.0625 25.106 32.0557 25.3268 32.0422 25.5407C31.7847 25.5683 31.5341 25.5959 31.2834 25.6304C31.3038 25.3889 31.3173 25.1405 31.3376 24.899C31.5883 24.899 31.8322 24.899 32.076 24.899V24.8921ZM31.3851 24.1745C31.4122 23.8985 31.446 23.6225 31.4731 23.3465C31.7102 23.3465 31.9541 23.3534 32.1912 23.3603C32.1709 23.6018 32.1438 23.8502 32.1234 24.0917C31.8728 24.1124 31.6289 24.14 31.3851 24.1745ZM32.0015 34.4694C32.0015 34.635 32.0151 34.8006 32.0151 34.9662C31.6831 35.0076 31.3647 35.0628 31.0463 35.1318C31.0463 34.9455 31.0463 34.7523 31.0463 34.566C31.3647 34.5315 31.6831 34.5039 32.0015 34.4694ZM31.0396 33.8139C31.0396 33.6069 31.0396 33.393 31.0396 33.186C31.3444 33.1584 31.6492 33.1308 31.9541 33.1101C31.9541 33.2964 31.9676 33.4827 31.9744 33.669C31.6628 33.7104 31.3512 33.7587 31.0463 33.8139H31.0396ZM32.0422 35.7804C32.0422 35.9322 32.0557 36.0771 32.0625 36.222C31.7238 36.2703 31.3918 36.3186 31.0667 36.3807C31.0667 36.2151 31.0599 36.0426 31.0531 35.877C31.3783 35.8425 31.7102 35.808 32.0354 35.7735L32.0422 35.7804ZM32.0015 26.3549C32.0015 26.5136 31.9812 26.6654 31.9812 26.8241C31.717 26.8379 31.4528 26.8517 31.1954 26.8793C31.2021 26.7137 31.2225 26.555 31.2292 26.3894C31.4867 26.3756 31.7441 26.3687 32.0083 26.3549H32.0015ZM31.9541 27.59C31.9473 27.8522 31.9473 28.1144 31.9405 28.3766C31.6696 28.3836 31.3986 28.3974 31.1276 28.4181C31.1412 28.1352 31.148 27.8522 31.1615 27.5693C31.4257 27.5693 31.6899 27.5831 31.9541 27.59ZM31.927 29.2392C31.927 29.3979 31.927 29.5635 31.9202 29.7222C31.6289 29.7498 31.3512 29.7843 31.0734 29.8326C31.0734 29.6256 31.087 29.4117 31.0938 29.2047C31.3715 29.2185 31.6492 29.2323 31.927 29.2392ZM31.9202 30.5088C31.9202 30.702 31.9202 30.8883 31.927 31.0815C31.6357 31.116 31.3444 31.1574 31.0531 31.2057C31.0531 30.9849 31.0531 30.7572 31.0599 30.5364C31.3444 30.5295 31.6289 30.5226 31.9134 30.5088H31.9202ZM31.9338 31.8612C31.9338 32.0268 31.9338 32.1924 31.9338 32.358C31.6289 32.3925 31.3241 32.4408 31.026 32.496C31.026 32.3028 31.0328 32.1096 31.0328 31.9164C31.3309 31.8957 31.6289 31.875 31.927 31.8612H31.9338ZM31.2834 41.7904C31.2834 41.7904 31.2834 41.8111 31.2834 41.8249C31.1886 41.8111 31.087 41.8042 30.9921 41.7835C31.0938 41.7835 31.1886 41.7835 31.2902 41.7835L31.2834 41.7904ZM31.0938 37.6572C31.0938 37.4847 31.0938 37.3053 31.0802 37.1328C31.4189 37.0914 31.7576 37.0569 32.0963 37.0224C32.1031 37.188 32.1099 37.3467 32.1234 37.5123C31.778 37.5468 31.4325 37.5951 31.0938 37.6572ZM32.1709 38.368C32.1776 38.4991 32.1844 38.6371 32.1912 38.7682C32.076 38.7751 31.9676 38.7958 31.8525 38.8027C31.7509 38.7682 31.656 38.7337 31.5544 38.6923C31.4731 38.5957 31.3986 38.4991 31.3173 38.4025C31.6018 38.3887 31.8864 38.3749 32.1641 38.368H32.1709ZM31.5544 22.6082C31.5815 22.3667 31.6018 22.1321 31.6357 21.8906C31.866 21.8906 32.0964 21.8837 32.3267 21.8768C32.2996 22.1045 32.286 22.3253 32.2657 22.553C32.0286 22.5668 31.7915 22.5806 31.5544 22.6082ZM32.1167 14.3557C31.9609 14.3833 31.8051 14.4109 31.6493 14.4454C31.6425 14.335 31.6289 14.2177 31.6086 14.0866C31.7712 14.0659 31.9338 14.0452 32.0963 14.0245C32.1031 14.1418 32.1099 14.2591 32.1167 14.3557ZM32.0489 13.5415C31.8796 13.5898 31.7102 13.645 31.5544 13.7071C31.5273 13.5415 31.5002 13.3621 31.4663 13.1689C31.6492 13.1413 31.8254 13.1206 32.0083 13.0999C32.0286 13.2517 32.0422 13.3966 32.0557 13.5415H32.0489ZM28.5466 2.79119C28.5466 2.79119 29.4612 2.23228 30.1928 2.23228C30.4096 2.90159 31.507 9.09095 31.9405 12.5617C31.7509 12.6169 31.568 12.679 31.3851 12.7549C30.7212 9.37386 29.0615 3.5502 28.5466 2.79119ZM23.1543 23.1809C23.1543 23.1257 23.1543 23.0705 23.1611 23.0153C23.1679 22.9532 23.1882 22.8842 23.2017 22.8152C23.2153 22.76 23.222 22.7048 23.2356 22.6427C23.2559 22.5737 23.283 22.4978 23.3101 22.4219C23.3304 22.3598 23.344 22.3046 23.3711 22.2425C23.405 22.1597 23.4456 22.0769 23.4862 21.9941C23.5133 21.932 23.5404 21.8768 23.5743 21.8147C23.6285 21.7181 23.6895 21.6215 23.7572 21.5249C23.7911 21.4697 23.8182 21.4214 23.8588 21.3662C23.9672 21.2144 24.0892 21.0557 24.2246 20.897C25.8098 21.3524 26.1011 24.1607 24.3872 25.0715C24.3669 25.0715 24.3398 25.0715 24.3127 25.0646C24.2924 25.0646 24.2721 25.0646 24.2517 25.0577C24.2314 25.0577 24.2043 25.037 24.1772 25.0301C24.1501 25.0232 24.1298 25.0163 24.1027 25.0025C24.0756 24.9887 24.0485 24.9749 24.0214 24.9611C23.9943 24.9473 23.9672 24.9335 23.9401 24.9128C23.913 24.8921 23.8859 24.8714 23.8588 24.8507C23.8317 24.83 23.8046 24.8093 23.7775 24.7886C23.7504 24.761 23.7233 24.7334 23.6962 24.7058C23.6692 24.6782 23.6421 24.6575 23.6217 24.6299C23.5946 24.6023 23.5743 24.5678 23.5472 24.5333C23.5201 24.4988 23.4998 24.4712 23.4727 24.4367C23.4524 24.4022 23.4321 24.3608 23.405 24.3263C23.3846 24.2918 23.3575 24.2573 23.344 24.2159C23.3237 24.1745 23.3101 24.1262 23.2898 24.0848C23.2762 24.0434 23.2559 24.002 23.2424 23.9606C23.2288 23.9123 23.2153 23.864 23.2017 23.8088C23.1882 23.7605 23.1746 23.7191 23.1679 23.6708C23.1611 23.6156 23.1543 23.5604 23.1543 23.5052C23.1543 23.4569 23.1408 23.4086 23.1408 23.3534C23.1408 23.2982 23.1408 23.2361 23.1475 23.174L23.1543 23.1809ZM22.172 24.761C22.3075 25.3268 22.7546 25.7477 22.8969 26.2859C23.2017 27.4313 20.9052 28.425 20.0517 27.9005C19.5775 27.6107 19.4488 26.969 19.4488 26.4101C19.4488 25.8581 19.5436 25.313 19.713 24.7886L20.7291 23.3327C21.034 23.105 21.3523 22.9118 21.6911 22.7462C21.9214 22.6358 22.172 22.8359 22.1449 23.0912C22.0772 23.7053 22.1246 24.5609 22.172 24.761ZM20.6817 19.7102C20.8172 18.5371 21.1898 17.0329 21.5623 16.3981C21.8672 16.4464 21.962 17.6815 22.0501 18.3646C22.0975 18.7373 22.1382 19.1237 22.0366 19.4894C21.8198 20.2622 20.5259 21.0419 20.6817 19.7102ZM18.6833 18.7994C18.9678 17.9299 20.0923 16.4188 20.4107 16.336C20.5936 16.7224 20.0991 18.4336 19.6385 19.4756C19.1033 20.6762 18.3513 19.7585 18.6833 18.8063V18.7994ZM14.9981 23.3948C14.9439 23.4155 14.8965 23.4293 14.8423 23.4431C14.8219 23.4431 14.8084 23.4569 14.7881 23.4569C14.7203 23.4707 14.6526 23.4845 14.5916 23.4914C14.5781 23.4914 14.5645 23.4914 14.5442 23.4914C14.4968 23.4914 14.4561 23.4914 14.4155 23.4914C14.3748 23.4914 14.3342 23.4914 14.3003 23.4776C14.28 23.4776 14.2597 23.4776 14.2461 23.4776C14.1919 23.4638 14.1513 23.45 14.1106 23.4293C14.0294 23.312 13.9616 23.1947 13.9074 23.0705C13.1893 21.5387 14.4087 19.5584 15.8652 19.5584C15.9803 19.5584 16.0752 19.5722 16.1633 19.586C16.2174 19.7861 16.2513 19.9793 16.2852 20.1656C16.292 20.2277 16.2987 20.2829 16.3055 20.3381C16.3191 20.4554 16.3394 20.5796 16.3462 20.69C16.3462 20.7521 16.3462 20.8142 16.3462 20.8763C16.3462 20.9729 16.3462 21.0695 16.3462 21.1661C16.3462 21.2282 16.3462 21.2834 16.3326 21.3386C16.3258 21.4283 16.3123 21.5111 16.2987 21.5939C16.292 21.6422 16.2852 21.6974 16.2716 21.7457C16.2513 21.8285 16.231 21.9044 16.2107 21.9803C16.1971 22.0217 16.1903 22.0631 16.1768 22.0976C16.1429 22.1873 16.1091 22.277 16.0684 22.3529C16.0616 22.3667 16.0549 22.3874 16.0481 22.4012C16.0007 22.4978 15.9465 22.5875 15.8855 22.6634C15.8652 22.691 15.8516 22.7117 15.8313 22.7324C15.7907 22.7876 15.7432 22.8428 15.7026 22.8842C15.6755 22.9118 15.6552 22.9325 15.6281 22.9601C15.5874 23.0015 15.5468 23.036 15.4994 23.0705C15.4723 23.0912 15.4452 23.1119 15.4181 23.1326C15.3774 23.1602 15.33 23.1947 15.2894 23.2154C15.2623 23.2292 15.2352 23.2499 15.2081 23.2637C15.1607 23.2913 15.12 23.312 15.0726 23.3327C15.0455 23.3465 15.0184 23.3534 14.9981 23.3672V23.3948ZM15.2894 24.8576C15.6416 24.4298 16.2242 24.2366 16.5765 23.7812C16.7052 23.6225 17.1049 22.8635 17.2946 22.277C17.3758 22.0286 17.6875 21.9596 17.85 22.1597C18.0871 22.4495 18.3039 22.7669 18.4801 23.0981C18.5749 23.2775 18.663 23.4638 18.7239 23.657C18.8391 24.0434 18.8391 24.4574 18.7984 24.8576L18.3649 26.4446C18.1346 26.9552 17.7552 27.4796 17.2065 27.5417C16.2107 27.6521 14.5374 25.7684 15.2894 24.8576ZM27.5169 43.9432C27.2934 43.7155 26.9818 43.612 26.6702 43.6603C25.5389 43.8328 23.913 44.0191 23.7166 44.0122C22.9917 42.9634 22.5582 42.094 22.2398 41.5213C22.0975 41.266 21.8604 41.0866 21.5759 41.0245C20.614 40.8106 19.2997 40.0102 18.8594 39.7273C18.5681 38.6233 18.7307 37.4433 18.7713 36.7326C18.7849 36.4566 18.7036 36.1875 18.5207 35.9874C17.8771 35.256 16.9287 34.152 16.8339 33.9864C17.1523 33.4206 17.6875 32.5029 18.0126 31.8612C18.1684 31.5576 18.1617 31.1988 17.9991 30.8952C17.7146 30.3708 17.3758 29.736 17.342 29.6325C17.7417 29.184 18.3988 28.5975 18.5139 28.3491C18.751 29.046 19.0762 29.2461 19.3743 29.8119C19.2794 29.9844 19.0355 30.357 18.7375 30.771C18.5004 31.0953 18.4801 31.53 18.6765 31.875C19.0626 32.5719 19.3878 33.1998 19.8756 33.7725C19.7875 34.0968 19.5504 34.7109 19.2185 35.4561C19.0084 35.9184 19.1778 36.4704 19.6046 36.7464C20.2888 37.1811 20.8985 37.6365 21.6301 37.954C21.6978 38.3335 21.7453 39.0304 21.874 40.0102C21.9349 40.5208 22.3685 40.9003 22.8698 40.9003C23.8046 40.9003 24.7327 40.8865 25.5321 40.7485C25.7827 41.0383 26.135 41.473 26.6702 42.3562C26.9005 42.7357 27.3476 42.922 27.7744 42.8116C28.865 42.5287 29.8744 42.2872 30.7957 41.8525C31.1886 42.1147 32.2183 42.6805 33.397 43.6396C33.7696 43.9432 34.2844 43.9984 34.7112 43.7914C35.4564 43.4326 36.1677 43.0531 36.7503 42.6391C37.2177 42.8737 38.3829 43.5085 39.819 44.5435C40.2187 44.8264 40.7065 44.7781 41.1603 44.6056C42.4542 44.1088 43.7413 43.8535 44.9336 43.5499C45.4485 43.9225 46.1733 44.9575 47.7111 46.6549C47.9549 46.924 48.3072 47.0689 48.6662 47.062C50.1972 47.0344 51.7553 47.2345 53.2998 47.7797C53.4015 48.0488 53.5166 48.5525 53.6453 49.2149C53.8418 49.2011 54.0179 49.1942 54.2008 49.1804C53.3947 49.3115 52.575 49.415 51.7418 49.484C50.6579 49.5737 49.574 49.6151 48.4969 49.6358C48.4495 49.4219 48.3411 49.0838 48.3072 48.9182C48.1649 48.173 47.413 47.7313 46.7017 47.9522C44.473 48.656 43.5855 49.2839 43.3281 49.3529C42.61 48.1868 41.621 47.0551 40.8555 46.303C40.4761 45.9304 39.9003 45.8407 39.4329 46.0822C37.6038 47.0137 36.9129 47.683 36.6961 47.7728C35.6799 47.1172 34.8399 46.3996 34.1761 45.8269C33.8238 45.5164 33.3293 45.4405 32.8957 45.6199C31.3376 46.2616 30.457 46.5859 30.0437 46.5583C29.3257 45.8545 28.2892 44.7091 27.5169 43.9294V43.9432ZM41.1807 49.553C40.2661 49.5323 39.3448 49.5116 38.4235 49.5116C38.4642 49.3115 38.4913 49.1114 38.5048 48.9251C39.4193 49.1183 40.3135 49.3253 41.1807 49.553ZM38.4709 52.6511C38.6403 52.1336 38.7961 51.6161 38.9451 51.0848C39.0535 51.1469 39.1551 51.2021 39.2703 51.2573C38.979 52.0577 38.708 52.8719 38.4438 53.6861C38.4303 53.7344 38.4438 53.7758 38.4709 53.8034C37.99 54.1553 37.5429 54.5486 37.15 54.9833C37.3735 54.4934 37.5496 53.9897 37.6987 53.5274C37.9967 52.6304 38.3016 51.6023 38.2271 50.6363C38.3626 50.7329 38.5048 50.8226 38.6539 50.9123C38.5048 51.4712 38.3761 52.0301 38.2542 52.5959C38.2271 52.7201 38.4303 52.7684 38.4642 52.6442L38.4709 52.6511ZM39.6497 52.5545C39.7784 52.244 39.9139 51.9266 40.029 51.6092C40.1306 51.6506 40.2323 51.692 40.3406 51.7334C40.1916 52.1198 40.0764 52.52 39.9613 52.9133C39.5345 53.1203 39.1281 53.3549 38.7351 53.624C39.0264 52.8857 39.311 52.1474 39.5684 51.4022C39.6361 51.4367 39.7039 51.4712 39.7716 51.4988C39.6429 51.8162 39.5345 52.1405 39.4261 52.4648C39.3719 52.6166 39.5887 52.6925 39.6497 52.5476V52.5545ZM48.4969 53.5619C51.8027 56.5979 53.9027 60.8898 53.896 65.6094C53.5979 65.292 53.2998 64.9746 53.0018 64.671C51.2947 62.9943 49.4182 61.5315 47.4401 60.2343C44.6288 58.4886 41.5871 57.1016 38.3761 56.2046C41.7429 54.7763 45.1233 53.8655 48.4969 53.5688V53.5619ZM40.991 52.4717C41.0858 52.3337 41.1671 52.1819 41.2552 52.037C41.472 52.0922 41.6955 52.1405 41.9123 52.175C41.6007 52.2578 41.2958 52.3613 40.991 52.4717ZM40.7132 52.5752C40.5845 52.6304 40.449 52.6787 40.3203 52.7339C40.4355 52.4441 40.5439 52.1474 40.6319 51.8438C40.7336 51.8783 40.8352 51.9059 40.9368 51.9335C40.8487 52.106 40.7742 52.2785 40.6929 52.4579C40.6726 52.4993 40.6861 52.5338 40.7065 52.5614L40.7132 52.5752ZM34.5961 49.7324C34.6909 49.7393 34.7925 49.7531 34.8874 49.76C34.8874 50.0429 34.8874 50.3258 34.9551 50.5949C34.9348 50.6087 34.9212 50.6156 34.9009 50.6225C34.8128 50.6225 34.7248 50.6225 34.6367 50.6225C34.6841 50.3327 34.6367 50.0291 34.5961 49.7324ZM34.8603 51.4091C34.9551 51.4091 35.0567 51.4091 35.1448 51.4022C35.9983 51.3677 36.9467 51.3401 37.6716 50.9192C37.6716 52.5338 36.9603 54.2381 36.2287 55.6802C35.6732 55.5698 35.1177 55.4732 34.5554 55.3904C34.718 54.3209 34.867 52.2302 34.8535 51.416L34.8603 51.4091ZM35.3615 49.8221C35.4022 49.8221 35.4428 49.8359 35.4835 49.8428C35.4496 49.9118 35.409 49.9808 35.3751 50.0498C35.3751 49.9739 35.3683 49.898 35.3615 49.8221ZM33.8848 49.691C33.9525 49.691 34.027 49.691 34.0948 49.691C34.1083 49.9946 34.1286 50.312 34.2235 50.5949C34.1219 50.5949 34.0202 50.5811 33.9119 50.5742C33.966 50.2775 33.9254 49.9808 33.878 49.6841L33.8848 49.691ZM33.2547 49.7117C33.3022 49.7117 33.3564 49.7117 33.4038 49.7048C33.4241 49.9946 33.4512 50.2913 33.5596 50.5535C33.4512 50.5466 33.336 50.5328 33.2209 50.5259C33.2344 50.5052 33.248 50.4845 33.2547 50.4569C33.3022 50.2154 33.2818 49.967 33.2412 49.7186L33.2547 49.7117ZM32.9499 50.4914C32.8551 50.4845 32.767 50.4707 32.6722 50.4638C32.6654 50.4293 32.6451 50.3948 32.618 50.3741C32.5909 50.1809 32.5638 49.9877 32.5367 49.7945C32.6044 49.7807 32.6722 49.7738 32.7399 49.7669C32.7738 50.0291 32.8347 50.2775 32.9499 50.4914ZM28.5602 51.3677C28.6957 51.2987 28.8379 51.2366 28.9666 51.1676C29.0141 51.485 29.0818 51.8024 29.1495 52.1198C29.2173 52.4579 29.2512 52.8374 29.4205 53.141C29.4883 53.2583 29.6712 53.2445 29.6847 53.0927C29.7186 52.7201 29.5831 52.3337 29.5086 51.9749C29.4341 51.6506 29.3663 51.3194 29.2715 50.9951C29.4679 50.8778 29.6508 50.7674 29.8202 50.6432C29.7457 51.6023 30.0573 52.6304 30.3486 53.5205C30.4976 53.969 30.6602 54.4658 30.8702 54.935C30.3079 54.3485 29.6712 53.8448 28.9802 53.4101C28.8786 52.7201 28.7228 52.037 28.5534 51.3677H28.5602ZM28.567 53.1548C28.4044 53.0651 28.2282 52.9823 28.0589 52.8995C28.0386 52.8305 28.0115 52.7615 27.9979 52.6925C27.9302 52.3544 27.8963 52.0094 27.8692 51.6644C27.9979 51.6161 28.1266 51.5678 28.2553 51.5126C28.3366 52.0577 28.4382 52.6097 28.567 53.1479V53.1548ZM30.3825 50.6501C30.667 50.8157 30.9718 50.9399 31.2902 51.0434C31.3105 51.8438 31.6154 53.8862 32.0489 55.0454C31.8593 55.0247 31.6763 55.004 31.4867 54.9902C30.8431 53.624 30.3215 52.106 30.3825 50.6501ZM31.2089 50.1464C31.2089 50.1464 31.2428 50.174 31.2496 50.1947C31.236 50.174 31.2225 50.1671 31.2089 50.1464ZM31.9676 50.4017C31.9676 50.243 31.9405 50.0843 31.9067 49.9256C31.9609 49.9118 32.0151 49.898 32.0693 49.8842C32.0963 50.0567 32.1167 50.2361 32.1438 50.4086C32.0896 50.4086 32.0286 50.4017 31.9744 50.3948L31.9676 50.4017ZM3.5631 55.8734C3.2718 55.556 2.96696 55.2524 2.66212 54.9419C1.43598 52.9271 1.40888 51.1538 2.1134 48.9872C2.60115 48.3731 3.14987 47.8349 3.73246 47.2966C3.67149 48.9113 4.94505 50.6294 6.36087 51.3194C4.75537 52.0715 3.746 54.0794 3.5631 55.8665V55.8734ZM24.6921 51.8714C24.6921 51.8714 24.6446 51.8714 24.6243 51.8714C18.7713 51.4712 12.8439 51.2849 6.99088 51.1676C6.95701 51.1676 6.93669 51.1883 6.90959 51.1952C6.16442 50.7398 5.50054 50.2223 5.01279 49.4702C4.5115 48.7043 4.39633 47.9315 4.19311 47.0689C11.6855 51.2504 21.8333 50.8157 30.0437 49.9532C30.0844 50.0429 30.125 50.1326 30.1725 50.2223C30.1318 50.1671 30.0573 50.1326 29.9895 50.1602C29.1428 50.4845 28.3637 50.9537 27.5034 51.2573C26.5618 51.5954 25.6472 51.6713 24.6921 51.8576V51.8714ZM27.6253 52.6856C27.4763 52.6235 27.3273 52.5683 27.1782 52.5131C27.1444 52.3268 27.1037 52.1405 27.0495 51.9542C27.2256 51.899 27.4018 51.8507 27.5779 51.7886C27.5711 52.0784 27.5779 52.382 27.6321 52.6856H27.6253ZM26.826 52.382C26.5956 52.3061 26.3721 52.2371 26.1418 52.175C26.3585 52.1405 26.5753 52.0991 26.7921 52.037C26.8056 52.1543 26.8124 52.2647 26.826 52.382ZM27.1715 82.9148C27.1715 83.3978 27.1715 83.8808 27.1715 84.3569C24.0553 83.7083 20.2685 82.2731 19.2997 78.8162C17.7078 73.1512 22.5311 70.0876 27.395 69.1699C26.8531 73.6687 27.1579 78.3953 27.1647 82.9079L27.1715 82.9148ZM19.9027 68.3005C20.072 68.68 20.2752 69.0526 20.4852 69.4114C20.7562 69.8737 21.0475 70.4326 21.4472 70.8052C21.0543 71.095 20.6817 71.4124 20.343 71.7643C19.9162 71.1571 19.4149 70.6189 19.0152 69.9772C18.8323 69.6805 18.6562 69.37 18.4733 69.0664C18.663 68.9491 18.8391 68.8387 19.0084 68.7421C19.293 68.5765 19.5978 68.4316 19.9027 68.2936V68.3005ZM25.1256 68.9836C24.5634 69.163 24.0146 69.3769 23.4795 69.6253C23.2762 69.0388 22.9375 68.5075 22.7072 67.9417C22.6462 67.7968 22.5988 67.645 22.5514 67.4932C23.1475 67.3828 23.7708 67.3138 24.4211 67.2862C24.543 67.9141 24.7598 68.542 25.1324 68.9836H25.1256ZM24.9292 67.2724C25.0105 67.2724 25.085 67.2724 25.1663 67.2724C25.7082 67.2724 26.2569 67.3069 26.8124 67.3621C26.8937 67.7899 27.0495 68.1901 27.2256 68.4661C26.6092 68.5834 25.986 68.7283 25.3763 68.9146C25.3018 68.4454 25.0918 68.0038 24.9834 67.5415C24.963 67.4518 24.9495 67.369 24.9359 67.2793L24.9292 67.2724ZM23.1882 69.7564C22.6937 69.9979 22.2127 70.2739 21.7656 70.5844C21.5285 70.0738 21.1085 69.6046 20.824 69.1285C20.6275 68.8042 20.4514 68.473 20.2685 68.1487C20.8307 67.921 21.4201 67.7416 22.0366 67.6036C22.1178 67.7899 22.2059 67.9762 22.2804 68.1487C22.5243 68.7007 22.7885 69.3079 23.195 69.7564H23.1882ZM18.7646 70.4464C19.1846 70.9639 19.6249 71.5435 20.1398 71.9713C19.9501 72.1783 19.7739 72.3853 19.6114 72.613C19.4894 72.7786 19.381 72.9511 19.2794 73.1236C18.7375 72.6958 18.121 72.3784 17.5926 71.9092C17.1862 71.5504 16.8136 71.1502 16.4274 70.7707C16.9558 70.2118 17.5113 69.7495 18.0262 69.3838C18.2497 69.7633 18.5072 70.1221 18.7713 70.4464H18.7646ZM17.2404 72.2266C17.7891 72.6544 18.453 73.1512 19.1236 73.3789C18.8391 73.8826 18.6359 74.4139 18.4936 74.9728C17.6875 74.7658 16.9355 74.4346 16.2174 74.0068C15.7432 73.7239 15.33 73.3306 14.8694 73.0339C15.2149 72.3163 15.6416 71.6815 16.1023 71.1364C16.4342 71.5435 16.8339 71.9161 17.2404 72.2266ZM18.4055 75.3247C18.331 75.6835 18.2836 76.0492 18.2633 76.4218C16.8475 76.4218 15.5197 76.2493 14.131 76.0354C14.1445 75.7111 14.1648 75.3868 14.1987 75.0487C14.3071 74.4553 14.4765 73.9033 14.6932 73.3927C15.5129 74.4691 17.1523 75.0418 18.4055 75.3247ZM18.2768 76.7668C18.2768 77.1326 18.3039 77.4983 18.3649 77.8778C17.7078 78.1538 17.0778 78.4436 16.3665 78.5747C15.7026 78.6989 15.0455 78.6644 14.3816 78.692C14.2258 77.9882 14.1445 77.2568 14.1445 76.4977C15.452 76.9324 16.9355 76.9876 18.2836 76.7668H18.2768ZM18.4055 78.209C18.453 78.4781 18.5139 78.7472 18.5952 79.0232C18.6291 79.1474 18.6765 79.2716 18.7172 79.3958C18.182 79.7546 17.6604 80.1272 17.0778 80.4239C16.5087 80.7068 15.8923 80.9207 15.3232 81.2105C14.9371 80.5274 14.6458 79.796 14.4426 79.0301C15.7094 79.3061 17.3081 78.9404 18.4055 78.209ZM18.8255 79.6856C19.0491 80.2445 19.3472 80.7689 19.713 81.2519C18.9746 82.1558 18.0194 82.8389 16.9694 83.3219C16.7662 83.1218 16.5629 82.9355 16.38 82.7216C16.0752 82.3697 15.8178 81.9971 15.5739 81.6107C16.7323 81.3623 17.9855 80.5205 18.8255 79.6856ZM19.923 81.521C20.1939 81.8453 20.5056 82.142 20.8443 82.4318C20.6072 82.901 20.4243 83.3771 20.0991 83.8049C19.7875 84.2189 19.3946 84.5708 18.9814 84.8813C18.3581 84.4949 17.7688 84.0809 17.2539 83.6117C18.3581 83.2184 19.2523 82.487 19.9297 81.521H19.923ZM21.122 82.6526C21.5556 82.9838 22.0298 83.2874 22.5582 83.5703C22.2804 84.488 21.8401 85.247 21.2846 86.0129C20.5598 85.7369 19.8756 85.4126 19.2455 85.0469C20.0788 84.5018 20.8714 83.6255 21.122 82.6526ZM22.8766 83.7359C23.3575 83.9705 23.8656 84.1844 24.4211 84.3845C24.2924 84.7709 24.245 85.1987 24.0959 85.5851C23.9401 85.9784 23.7233 86.351 23.4862 86.696C22.8156 86.5373 22.1788 86.3441 21.5623 86.1164C22.2059 85.4816 22.653 84.6122 22.8833 83.7359H22.8766ZM24.7598 84.4949C25.1188 84.6122 25.4847 84.7226 25.8708 84.8261C25.8708 85.1849 25.9182 85.5437 25.864 85.9094C25.803 86.3096 25.6811 86.6823 25.5118 87.048C24.9292 86.979 24.3601 86.8893 23.8046 86.7719C24.2992 86.1371 24.7801 85.2746 24.7598 84.5018V84.4949ZM26.2095 84.9089C26.3856 84.9503 26.5618 84.9986 26.7514 85.04L26.8734 87.1722C26.5211 87.1515 26.1756 87.1101 25.8301 87.0756C26.1553 86.42 26.3585 85.6058 26.2095 84.9089ZM27.4627 68.4109C27.4221 68.0728 27.3273 67.7485 27.2731 67.4104C27.7879 67.4725 28.3095 67.5553 28.8311 67.6588C28.8311 67.852 28.8379 68.0521 28.926 68.2177C28.4518 68.2591 27.9573 68.3281 27.4627 68.4109ZM27.2595 66.6444C27.2595 66.6444 27.3069 66.6444 27.334 66.6513C27.3069 66.6513 27.2866 66.6514 27.2595 66.6444ZM27.8421 69.1009C27.9234 69.0871 27.9979 69.0802 28.0792 69.0664C27.9979 69.0871 27.9234 69.1009 27.8421 69.1285C27.8421 69.1216 27.8421 69.1147 27.8421 69.1009ZM28.2824 106.706C28.2824 106.706 28.296 106.658 28.296 106.63C28.1131 98.5711 27.9708 90.5187 27.9437 82.4594C27.9302 78.1952 28.2011 73.8136 27.8827 69.5494C28.3434 69.6046 28.8108 69.6253 29.2783 69.6253C29.2783 69.7426 29.2783 69.8668 29.2783 70.0048C29.0276 70.0186 28.777 70.0255 28.5263 70.0393C28.3434 70.0462 28.3569 70.3567 28.5399 70.3705C28.7837 70.3843 29.0276 70.3912 29.2715 70.405C29.2715 70.5223 29.2715 70.6396 29.2715 70.7707C28.987 70.7914 28.7092 70.8121 28.4382 70.8328C28.2553 70.8466 28.2757 71.1433 28.4518 71.1571C28.7228 71.1847 28.9937 71.2054 29.2715 71.233C29.2715 71.3296 29.2715 71.4262 29.2715 71.5297C29.1495 71.5435 29.0208 71.5504 28.8989 71.5642C28.7431 71.5849 28.777 71.7988 28.9124 71.8264C29.0276 71.8471 29.1495 71.8678 29.2715 71.8816C29.2715 71.9989 29.2715 72.13 29.2715 72.2473C29.2105 72.2542 29.1428 72.2611 29.0818 72.268C28.8989 72.2956 28.9328 72.544 29.0953 72.5785C29.1495 72.5923 29.2105 72.5923 29.2715 72.5992C29.2444 79.0646 29.2444 92.6025 29.6034 106.23C29.6102 106.554 29.6237 106.865 29.6305 107.182C29.197 107.024 28.7499 106.865 28.3028 106.72L28.2824 106.706ZM30.5315 68.1349C30.1183 68.1349 29.6847 68.1556 29.2308 68.1901C29.285 68.0452 29.2782 67.8934 29.2647 67.7416C29.7931 67.8589 30.3147 67.99 30.8431 68.1418C30.7415 68.1418 30.6399 68.1418 30.5315 68.1418V68.1349ZM35.9374 107.458C35.9103 108.245 35.8764 109.032 35.8493 109.825C35.0228 109.383 34.1828 108.969 33.3089 108.59V72.7165C33.3902 72.7165 33.4783 72.7165 33.5664 72.7165C33.8441 72.7165 33.8848 72.2887 33.607 72.2749C33.5122 72.2749 33.4106 72.268 33.3089 72.2611V72.061C33.546 72.061 33.7831 72.061 34.0135 72.0748C34.0744 72.0817 34.1151 72.0748 34.149 72.0334C34.3048 71.9299 34.2912 71.6332 34.0609 71.6263C33.8102 71.6194 33.5596 71.6056 33.3089 71.5918V71.3572C33.6951 71.3365 34.0744 71.3089 34.447 71.2606C34.718 71.2261 34.6841 70.8259 34.4267 70.7845C34.0609 70.7293 33.6815 70.6948 33.3089 70.6741V70.4878C33.668 70.4878 34.0202 70.4947 34.3793 70.5016C34.7654 70.5016 34.8196 69.8875 34.4335 69.8944C34.0541 69.8944 33.6815 69.9082 33.3089 69.9082V69.6667C34.1422 69.7219 34.9686 69.7909 35.8019 69.8461C36.0458 69.9289 36.2964 70.0117 36.5403 70.1083C36.8112 74.6968 36.5606 90.2703 35.9374 107.451V107.458ZM36.8654 110.398C36.8993 109.459 36.94 108.521 36.9738 107.589C37.6445 89.7183 37.8951 73.8481 37.8477 70.6879C37.8951 70.7086 37.9493 70.7293 37.9967 70.75C38.3219 70.9018 38.6403 71.0674 38.9587 71.2399C38.9316 84.5156 37.7529 97.819 37.9697 111.067C37.6106 110.839 37.2448 110.619 36.8722 110.398H36.8654ZM38.4168 111.364C39.0671 106.313 39.2771 101.159 39.3855 96.0042C41.4516 95.4867 43.4094 94.8381 45.1639 94.0722C47.1488 93.2097 49.0591 92.1402 50.8611 90.8913C51.2743 95.6523 50.6375 100.634 49.0795 105.154C47.7856 108.811 45.7872 112.288 43.2807 115.283C43.0571 115.069 42.8336 114.848 42.6033 114.641C41.2958 113.441 39.8935 112.351 38.41 111.371L38.4168 111.364ZM39.7919 71.7091C39.9477 71.7988 40.1035 71.8816 40.2594 71.9782C41.472 72.7648 42.6439 73.6342 43.6804 74.6278C44.7101 75.649 45.6381 76.6633 46.451 77.9123C46.8033 78.3746 47.0811 78.8852 47.3791 79.3889C46.3494 80.2307 45.2384 80.9828 44.0529 81.6314C42.5626 82.4525 41.2416 82.7285 39.6361 83.177C39.7377 79.3544 39.8258 75.5248 39.7987 71.7022L39.7919 71.7091ZM42.0139 83.2943C41.4313 83.8394 40.7471 84.2465 39.9274 84.6467L39.941 83.8739C40.1442 83.8187 40.3406 83.7635 40.5371 83.7152C41.0384 83.5841 41.5261 83.453 42.0139 83.2943ZM40.3068 86.5235C41.9123 86.9376 45.2926 87.9657 46.9388 87.8001C48.6188 85.4195 48.9101 84.212 49.2014 83.1149C49.9195 85.0055 50.5088 87.1584 50.8137 89.0007C50.1362 88.9593 49.4859 88.6488 48.673 88.3314C47.8262 88.0071 46.8778 88.4073 46.4985 89.2353C45.9701 90.4014 45.3197 91.4295 44.5813 92.7957C44.3307 93.258 43.87 93.5478 43.362 93.603C42.3458 93.6996 41.1265 93.6306 39.4329 93.3615C39.46 91.7883 39.4803 90.2151 39.5074 88.6488C39.9477 87.4551 40.1781 86.7029 40.3135 86.5166L40.3068 86.5235ZM38.6132 119.665C38.6132 119.665 38.6742 119.713 38.7013 119.734C38.498 119.892 38.2948 120.044 38.0916 120.196C38.0916 119.899 38.0916 119.602 38.0848 119.306C38.2609 119.43 38.4439 119.54 38.62 119.665H38.6132ZM33.4986 162.928C33.4377 163.245 33.3767 163.563 33.3089 163.887L33.3089 116.649C34.0609 116.974 34.8061 117.339 35.5377 117.739C34.7451 137.198 33.7628 156.456 33.4986 162.928ZM37.6919 119.106C36.1812 132.706 36.3167 146.458 34.0406 159.947C34.8806 151.136 35.8154 134.734 36.5335 118.305C36.9332 118.547 37.3261 118.802 37.7122 119.057C37.7122 119.071 37.6919 119.078 37.6919 119.099V119.106ZM51.2743 127.531C51.105 128.221 50.7527 129.359 50.2243 130.16C50.8814 130.505 51.8298 131.202 52.1211 131.567C51.9924 132.078 51.7418 132.878 51.3759 133.513C51.9382 133.81 52.7376 134.396 52.9814 134.707C52.8663 135.169 52.6292 135.928 52.2769 136.48C52.6292 136.846 53.0424 137.37 53.1576 137.632C52.9679 137.97 52.6292 138.509 52.2363 138.861C52.514 139.143 52.8392 139.557 52.9272 139.764C52.7714 140.047 52.4734 140.523 52.1414 140.786C51.6943 140.337 51.1659 139.827 51.1185 139.771C51.4505 139.399 51.7824 139.054 51.9653 138.798C51.4301 138.26 50.8543 137.715 50.8069 137.639C51.2134 137.191 51.6198 136.763 51.8637 136.439C51.0779 135.997 50.2785 135.562 50.1972 135.493C50.5224 134.838 50.8679 134.21 51.0576 133.741C50.0617 133.182 48.9575 132.582 48.8559 132.499C49.2962 131.622 49.7569 130.794 49.933 130.236C48.7001 129.539 47.3249 128.793 47.1962 128.69C47.2707 128.545 47.3385 128.407 47.413 128.262C48.1311 127.655 48.9372 126.923 49.6756 126.247C50.3395 126.682 51.0169 127.22 51.2811 127.544L51.2743 127.531ZM63.4748 86.7513C62.838 87.7311 61.8964 89.0697 60.5077 90.9051C60.2502 91.2501 60.2909 91.7538 60.6228 92.0229C62.0454 93.1752 63.4071 95.6178 63.9829 96.8668C63.4883 97.5292 61.8625 99.061 59.8235 100.434C59.4577 100.682 59.3289 101.207 59.5593 101.593C60.5483 103.249 61.3138 106.044 61.4696 107.1C60.0877 108.086 58.2112 109.032 56.6125 109.749C56.2128 109.929 56.0028 110.384 56.1179 110.812C56.6599 112.785 57.2086 115.221 57.0121 116.442C55.7386 117.132 53.4082 118.333 51.3692 118.802C50.9221 118.906 50.6037 119.285 50.563 119.747C50.4004 121.748 50.0753 124.35 49.4588 125.44C48.192 125.599 45.9633 125.84 44.08 125.64C43.3823 125.564 42.7455 126.054 42.6033 126.751C42.2849 128.379 41.8242 130.201 41.2687 130.995C40.4287 131.015 39.1213 131.029 37.8274 130.898C37.9764 128.407 38.0713 125.923 38.0984 123.446C39.1416 123.812 40.1984 124.17 41.0926 124.467C41.9258 124.743 42.7929 124.177 42.8945 123.294C43.2333 120.375 43.3687 117.332 43.4704 117.022C45.1301 117.622 47.0675 118.119 48.5849 118.333C49.3504 118.436 49.9804 117.712 49.7975 116.946C49.0524 113.875 48.0091 110.791 47.9956 110.425C49.8992 110.377 52.1482 110.287 53.7808 109.984C54.3634 109.873 54.6818 109.225 54.4311 108.68C53.2863 106.216 51.8772 103.546 51.8163 103.208C54.106 102.546 56.4025 101.662 57.6963 101.048C58.1909 100.814 58.3196 100.144 57.9402 99.7372C55.935 97.5706 54.0653 95.7558 53.9231 95.4246C55.5692 94.0239 56.9444 93.3822 58.3738 92.4714C58.8547 92.1678 58.848 91.4502 58.3738 91.1535C55.7724 89.5389 53.1508 88.2417 52.9205 87.9588C54.7089 86.1233 55.6505 84.6881 56.5244 83.2736C56.9038 82.6595 56.6463 81.8591 55.9892 81.59C53.4015 80.5343 50.0753 80.2652 49.8111 80.0375C50.0821 78.899 51.1727 76.3321 51.6401 74.7037C51.9179 73.7308 51.5114 73.1581 50.5292 73.0132C48.0701 72.6406 45.191 73.0063 44.8997 72.8476C45.3062 70.3774 45.313 68.8801 45.103 67.4311C44.981 66.5478 44.2088 65.8923 43.3417 65.9613C39.8935 66.2442 37.6445 68.7007 37.2922 68.6386C37.8342 65.7888 36.9874 63.7947 36.0661 62.1663C35.6122 61.3728 34.6028 61.1106 33.8238 61.5867C31.087 63.2496 30.1521 65.3886 29.827 65.5128C28.777 62.3664 26.9344 61.2486 25.2001 60.5517C24.665 60.3378 24.0485 60.4413 23.5946 60.807C22.2533 62.1939 20.7833 64.4364 20.1059 65.5542C18.6765 64.4364 17.2878 63.4566 15.5874 62.9736C14.5239 62.67 13.4671 63.5187 13.5077 64.6434C13.6229 67.7485 14.0971 69.0871 14.0903 69.4459C13.4806 69.5563 12.8235 69.784 12.1597 70.0669C11.1909 70.8121 9.91059 71.8678 8.98252 72.7303C8.49477 73.1857 8.39993 73.9309 8.76574 74.4898C10.5812 77.2361 12.0851 77.9675 12.2545 78.2849C11.2113 78.83 9.97834 80.8724 9.1451 82.6043C8.76574 83.3909 9.21284 84.3362 10.0529 84.5294C13.0674 85.2194 14.5984 84.7502 14.9303 84.8606C14.8355 85.8887 14.9913 88.3728 15.5332 90.2289C15.75 90.9672 16.5223 91.3881 17.2336 91.1397C20.4581 90.0081 21.5624 88.6488 21.9214 88.5522C22.1991 89.7666 23.9808 91.5882 25.4576 92.844C25.9656 93.2787 26.6702 93.3615 27.2595 93.0855C27.2595 93.5754 27.2663 94.0653 27.2731 94.5621C26.8327 94.3689 26.3382 94.3551 25.8979 94.5552C24.604 95.1348 23.1543 95.466 21.7249 95.9974C20.9594 96.2803 20.0991 96.1974 19.4488 95.6937C18.5952 95.0313 17.6604 94.086 16.4478 92.6508C16.2107 92.3679 15.8787 92.2092 15.5197 92.1678C13.9481 91.9884 12.3968 91.3674 10.7167 90.9741C9.93769 90.7947 9.30091 90.2358 9.02994 89.4699C8.63703 88.3521 8.34574 86.8962 8.08831 84.7433C8.05444 84.4604 7.93251 84.1913 7.74283 83.9705C6.49636 82.5353 5.58183 80.7551 4.26762 79.106C4.55214 78.3263 5.4328 76.2769 7.09927 73.7929C7.28895 73.5169 7.37024 73.1788 7.31605 72.8476C7.04508 71.0743 6.86895 68.0176 7.03153 67.0929C7.03153 66.741 7.03153 66.396 7.03153 66.0579C7.71573 65.4852 10.1748 64.1949 13.1013 62.6217C13.3113 62.5113 13.4942 62.3526 13.6364 62.1663C14.9168 60.4896 16.5155 58.4472 18.0939 56.8394C18.8797 57.0464 20.9933 58.0677 23.6217 59.3856C24.1975 59.6754 24.8817 59.5995 25.383 59.1855C26.3721 58.3713 27.6592 57.4398 29.7186 56.1839C30.3079 56.4323 30.9041 56.7014 31.4934 56.9843C31.5612 57.0188 31.6154 56.9843 31.656 56.9429C32.5028 57.633 33.5935 58.5714 34.8332 59.6547C35.2667 60.0342 35.8696 60.1584 36.4116 59.9721C38.2677 59.3373 40.3881 59.1165 41.9191 58.8888C42.6981 59.8065 43.8294 62.2077 44.7507 64.4778C45.0149 65.1402 45.672 65.5473 46.3765 65.4921C48.7069 65.3058 50.6104 65.2989 52.1753 65.6025C52.4463 67.1964 52.5547 69.4183 52.5547 71.3227C52.5547 72.0886 53.056 72.7579 53.7808 72.9442C55.4541 73.3651 57.1544 73.9171 58.7125 74.5174C59.0647 74.6554 59.3018 74.9935 59.3086 75.3799C59.3493 77.0359 58.8886 79.2785 58.2112 80.9828C58.0012 81.521 58.2044 82.1489 58.6854 82.4525C60.5754 83.6531 62.9735 85.5299 63.4951 86.7375L63.4748 86.7513ZM13.6094 74.338C13.5619 74.5381 13.5145 74.7382 13.4806 74.9452C13.5213 74.7382 13.5619 74.5381 13.6094 74.338ZM62.7296 66.8583C62.3774 67.7347 60.6838 70.2256 58.726 73.1857C56.6192 68.9698 55.1153 67.2586 54.9257 66.8791C56.1112 65.4576 57.317 64.1259 58.0418 62.4009C58.2857 61.8144 58.1841 61.4349 57.6421 61.1175C55.0747 59.6202 53.7605 59.3511 53.4895 59.1855C53.8486 57.7227 53.9637 56.0804 53.9637 54.8936C53.9637 54.3416 53.5979 53.8586 53.0763 53.693C52.8527 53.624 52.6427 53.5619 52.4395 53.4998C53.5708 53.5688 54.6953 53.7068 55.8266 53.9207C56.9444 54.245 58.0351 54.7073 59.0851 55.3697C59.1867 56.0735 59.0647 58.1436 58.9225 60.7035C58.9022 61.0761 59.0512 61.4349 59.3086 61.6971C60.6635 63.0771 61.8287 65.0712 62.7364 66.8514L62.7296 66.8583ZM61.1106 51.1745C55.2373 51.2918 49.2962 51.4781 43.4229 51.8783C42.5084 51.6989 41.6278 51.6092 40.7471 51.3263C40.72 51.2711 40.6455 51.2573 40.5845 51.278C40.571 51.278 40.5574 51.2711 40.5439 51.2642C39.7919 50.9951 39.101 50.6087 38.3693 50.2982C38.4371 50.1947 38.4235 50.0843 38.3626 50.0015C46.4578 50.8295 56.5447 51.1952 63.8745 47.0827C63.6916 47.8901 63.5832 48.6353 63.1293 49.3736C62.6348 50.174 61.9506 50.7191 61.1715 51.2021C61.1512 51.1952 61.1377 51.1745 61.1174 51.1745H61.1106ZM61.2867 51.4919C61.2867 51.4919 61.3341 51.4712 61.3612 51.4643C61.3883 51.4919 61.4222 51.5195 61.4493 51.5471C61.3951 51.5264 61.3409 51.5057 61.2867 51.4919ZM66.7332 52.0094C66.6045 53.0513 66.1168 53.8586 65.5951 54.7418C65.2293 55.1282 64.8432 55.4939 64.4909 55.8803C64.3013 54.0794 63.3054 52.0853 61.6864 51.3194C63.109 50.6225 64.3826 48.9251 64.3216 47.2966C65.0803 47.9936 65.7916 48.6905 66.3742 49.5737C66.6113 50.3948 66.8416 51.1124 66.7332 52.0025V52.0094Z" fill="#FFEEDB"/>
</svg>
