<svg width="92" height="39" viewBox="0 0 92 39" fill="none" xmlns="http://www.w3.org/2000/svg">
<path d="M68.9744 21.2272C68.9856 21.3554 68.9896 21.4881 68.9932 21.617C68.993 21.484 68.9853 21.3516 68.9744 21.2272ZM26.7705 0.971419C26.2984 1.02792 25.8304 1.39187 25.4839 1.6616C24.9451 2.08874 24.4055 2.63757 24.1336 3.28076C24.1023 3.3595 24.1272 3.42573 24.1763 3.46324C24.8463 5.01585 25.4567 6.49768 25.9027 8.0623C24.3213 10.0931 23.2998 12.5917 23.146 15.4134C23.0999 16.2383 23.1084 17.0774 23.129 17.923C23.0901 17.915 23.0516 17.9108 23.0096 17.9106C22.6482 17.9232 22.2827 17.9324 21.9137 17.9457C18.0044 17.8355 13.8106 18.3126 10.0207 19.218C9.82555 19.0375 9.4006 19.0215 9.18442 19.0366C8.8963 19.058 8.45852 19.1571 8.29096 19.4225C5.95168 19.3764 3.93935 19.142 1.66329 18.1176C1.61176 18.0955 1.56286 18.1035 1.52318 18.1298C1.50425 18.1315 1.48531 18.1331 1.46704 18.1423C-0.0161218 18.8535 -0.0505836 21.4254 0.141793 22.7956C0.298566 23.9333 0.736416 26.1902 2.0775 26.4719C2.15142 26.4882 2.21085 26.426 2.22451 26.364C4.30507 25.1104 6.32645 24.4015 8.60784 23.8295C8.89238 24.0288 9.34894 24.0573 9.65057 24.0157C9.81274 23.9939 10.0811 23.921 10.2842 23.8007C14.4987 24.2148 18.9958 24.0645 23.0777 22.9626C23.0042 23.6492 22.8839 24.3248 22.698 24.9908C22.2662 26.5107 20.591 28.4281 18.8682 28.537C18.041 28.5904 17.6413 27.9907 17.1623 27.4436C16.6116 26.8192 15.8257 26.5155 15.0177 26.3962C14.9135 26.3825 14.8137 26.376 14.714 26.3696L14.6603 26.2793C14.2976 25.7106 13.598 25.4336 12.8813 25.5723C12.2246 25.6982 11.7335 26.1477 11.6268 26.7157L11.6032 26.8393C10.6963 27.0707 9.88524 27.2214 9.03405 27.3491C8.43525 27.4395 8.14485 27.6093 7.99578 28.1734C7.29286 27.8587 6.521 27.8464 5.41867 28.5926C4.98257 28.8854 4.55289 29.1206 4.15198 29.1177C3.39214 29.1119 2.86746 28.3484 2.73987 28.4166C2.64883 28.4664 3.05456 28.7425 2.99317 28.8694C2.93145 28.9926 2.45231 28.837 2.4184 28.8855C2.38482 28.9379 3.42989 29.3253 3.87049 29.3893C4.43836 29.4688 4.9359 29.3987 5.76117 28.8439C6.70135 28.2068 7.24667 28.3339 7.90038 28.7403C7.82203 29.8074 8.48163 30.0195 9.42891 30.423C10.0628 30.6906 10.694 30.9698 11.3053 31.2849L11.307 31.3038C11.295 31.3846 11.2947 31.4682 11.3016 31.5474C11.3508 32.1093 11.7742 32.6309 12.3831 32.874C13.0277 33.1331 13.7019 33.0323 14.1915 32.6094L14.2623 32.5462L14.2713 32.5188C15.5977 32.6764 16.7506 32.1157 17.3934 31.3071C17.6548 30.9802 18.0509 30.7973 18.4685 30.7722C18.9504 30.7414 19.4397 30.6644 19.9196 30.5236C21.7803 29.9846 23.3828 29.0236 24.414 27.3336C25.2651 25.9405 25.6771 24.1944 26.0022 22.5889C26.3721 22.587 26.7317 22.5099 27.0845 22.3992C27.2034 22.3622 27.3295 22.3208 27.4587 22.2715C27.6775 24.6844 28.0776 27.0776 28.1108 29.5068C28.1468 32.0117 27.677 34.3177 27.1028 36.7392C27.0607 36.7808 27.0394 36.8435 27.0794 36.9084C27.4589 37.4946 28.0866 37.9527 28.6955 38.2832C29.0918 38.4956 29.6118 38.7693 30.0903 38.7426C30.1077 38.7677 30.1321 38.7846 30.1627 38.7857C30.6631 38.7913 31.1574 38.2921 31.4921 37.974C31.8906 37.6009 32.4049 37.1113 32.6533 36.5918C32.6791 36.5819 32.6971 36.5689 32.7147 36.5522C32.8016 36.499 32.8533 36.3919 32.7787 36.2806C30.2702 32.4682 29.7192 28.4389 30.5597 24.3068C30.7419 25.8223 31.0818 27.3088 31.6694 28.5304C32.3273 29.8561 33.1746 31.036 34.1848 32.0725C35.1989 33.1086 36.3766 34.0088 37.7571 34.6974C42.5297 37.0425 48.4996 35.2776 51.4656 30.9292C52.3113 29.6924 52.8806 28.3923 53.2785 27.0959C53.8001 25.382 53.9606 23.4223 53.847 21.4258C55.5109 21.2537 57.1744 21.0777 58.8367 20.8867C58.7401 21.3968 58.6817 21.9073 58.6937 22.3926C58.7283 23.7044 58.9747 25.2561 59.581 26.5597C60.2466 27.9303 61.3073 29.3689 62.5605 30.2169C62.9584 30.4899 63.3956 30.7329 63.8525 30.9399C63.5396 30.5037 62.8466 29.6485 62.5692 28.9203C62.5392 28.8394 62.4803 28.7761 62.3937 28.7457C61.7128 28.5088 60.7094 28.1178 60.3735 27.7672C60.447 27.3428 60.5378 26.5482 60.7392 25.8846C60.8283 25.5956 60.7284 25.2813 60.5009 25.0808C59.9669 24.6031 59.371 23.9408 59.1881 23.5958C59.3814 23.1875 59.713 22.5733 60.1114 22.0672C60.2282 21.9202 60.2414 21.7214 60.1508 21.5583C59.7967 20.9129 59.4312 20.0063 59.3798 19.5928C59.7141 19.2709 60.2524 18.7944 60.8222 18.4595C60.9964 18.3569 61.0814 18.1519 61.034 17.9584C60.8768 17.2957 60.7683 16.4046 60.8193 16.0277C61.1834 15.8287 61.7537 15.5432 62.3232 15.3794C62.5651 15.3088 62.7236 15.0707 62.6753 14.8241C62.553 14.2116 62.4796 13.5036 62.5235 13.1768C62.8584 12.9917 63.3704 12.7379 63.8934 12.5667C64.2382 12.8444 64.5837 13.1295 64.878 13.3964C65.067 14.1171 65.0758 14.6103 65.0837 14.7008C64.4102 14.8966 63.8901 15.1891 63.3939 15.3617C63.1568 15.4432 63.0302 15.6975 63.0933 15.939C63.3128 16.79 63.5225 17.5735 63.5318 17.6791C62.9809 17.8375 62.4249 17.9811 61.9718 18.1234C61.6783 18.2136 61.5476 18.5519 61.6967 18.8162C62.1749 19.6598 62.6372 20.4516 62.6771 20.5583C62.1842 20.856 61.6862 21.139 61.2664 21.3999C60.9877 21.5725 60.9645 21.9622 61.2119 22.1723C61.9076 22.7537 62.5406 23.2721 62.6091 23.3573C62.3169 23.7249 62.0165 24.0856 61.7554 24.4162C61.4287 24.8248 61.5809 25.4309 62.0578 25.6476C62.7926 25.9785 63.4238 26.2577 63.5048 26.3114C63.2617 26.8913 63.0025 27.4612 62.8079 27.9418C62.7013 28.2058 62.9608 28.4681 63.2269 28.3688C64.1022 28.0376 64.9066 27.724 65.0155 27.7031C65.2617 28.2934 65.4856 28.8894 65.6992 29.3685C65.8084 29.6136 66.1494 29.6293 66.2817 29.3974C66.8418 28.4287 67.3508 27.5292 67.4372 27.4266C68.1175 27.7889 68.7803 28.1679 69.3395 28.4534C69.671 28.622 70.0563 28.3603 70.0278 27.9904C69.9352 26.8889 69.843 25.8785 69.8545 25.7483C70.4856 25.6779 71.1101 25.6194 71.6578 25.5563C71.9677 25.5216 72.1397 25.176 71.9752 24.9091C71.2528 23.7183 70.555 22.5899 70.4923 22.4396C71.3138 21.8851 72.1502 21.3712 72.7556 20.9192C73.0316 20.7164 73.0105 20.3003 72.7131 20.1287C72.243 19.8582 71.7767 19.5874 71.367 19.3534C72.2895 19.2119 73.2113 19.0629 74.1287 18.9066C73.9965 19.359 73.8376 19.8099 73.6369 20.1771C73.5517 20.3365 73.5647 20.5292 73.6691 20.6759C74.2556 21.491 75.0159 22.6367 75.1285 23.269C74.717 23.7117 73.993 24.5958 73.2487 25.2043C73.1169 25.3109 73.044 25.4807 73.074 25.649C73.2116 26.4806 73.3573 27.6231 73.1929 28.1429C72.5968 28.3508 71.4121 28.8535 70.4888 28.9419C70.3297 28.9558 70.1938 29.0589 70.1265 29.2054C69.7657 29.9666 69.2385 30.9627 68.8133 31.2925C68.1797 31.1161 66.8241 30.8433 66.0255 30.3508C65.9328 30.2943 65.8251 30.2847 65.7259 30.3276C65.0953 30.6222 64.2812 30.9556 63.8493 30.9478C64.8147 31.3839 65.9026 31.6498 67.0831 31.6225C68.8366 31.6021 71.0626 30.9209 72.2811 29.7579C73.5034 28.5945 74.5739 26.787 75.013 25.4376C75.7813 23.0979 75.8097 20.8496 75.3429 18.6978C76.5006 18.4977 77.6502 18.2907 78.7965 18.0916C83.107 17.3345 87.4683 16.5045 91.6174 15.0813C91.7063 15.0507 91.7503 14.9861 91.767 14.9162C91.8046 14.8217 91.7836 14.7133 91.684 14.6651C91.6514 14.6413 91.6084 14.6299 91.563 14.6338C87.8144 14.0498 83.9904 13.9549 80.2029 13.9291C77.9767 13.911 75.7275 13.8912 73.475 13.9211C72.7917 12.6964 71.9929 11.5047 71.1104 10.3583C70.7662 9.91338 70.4044 9.48522 70.0323 9.06937C71.3664 8.09383 72.8578 7.30214 74.472 6.7809C77.1452 5.88961 80.1076 5.68744 82.9888 6.21438C83.3417 6.27851 83.4767 5.77268 83.1344 5.65443C80.2714 4.68128 77.1112 4.41055 74.0194 4.96606C71.9522 5.32552 69.9389 6.08307 68.0947 7.16023C67.3302 6.48991 66.5241 5.86881 65.6848 5.30383C61.0826 2.20279 54.1337 -0.157126 48.6137 1.03642C47.1382 1.35552 45.683 1.77544 44.2626 2.28732C43.8149 2.44809 42.0277 3.47847 41.5682 3.32867C37.1892 1.90674 32.6 2.74905 29.0947 5.11918C29.2921 4.41029 29.5353 3.70119 29.8467 2.98614C29.8911 2.88345 29.8519 2.78427 29.782 2.7258C29.7635 2.68941 29.7268 2.66222 29.681 2.66242C29.3459 2.19013 28.7468 1.79793 28.2855 1.49629C27.8969 1.24148 27.3319 0.846299 26.8401 0.938725C26.8098 0.941376 26.7929 0.965662 26.7838 0.993056L26.7705 0.971419ZM63.4115 23.1085C63.4016 22.9954 63.3917 22.8822 63.3891 22.7647C63.5508 23.3053 63.7717 23.78 64.0438 24.1856C64.002 24.2311 63.9564 24.2769 63.8981 24.3086C63.8219 24.3532 63.7399 24.3756 63.6531 24.387C63.5208 23.9654 63.4478 23.5233 63.4112 23.1047L63.4115 23.1085ZM63.7099 24.5568C63.8797 24.5344 64.0568 24.4657 64.177 24.3564C64.3321 24.5594 64.4976 24.7501 64.6832 24.9087C64.5876 24.9931 64.5341 25.1231 64.4432 25.2185C64.3555 25.306 64.2579 25.3677 64.152 25.4226C63.9648 25.1578 63.821 24.8663 63.7099 24.5568ZM64.2609 25.5765C64.3708 25.525 64.4681 25.4595 64.56 25.3755C64.6553 25.2873 64.788 25.1465 64.8102 25.0078C65.0356 25.1857 65.2777 25.3355 65.5395 25.4494C65.4285 25.7517 65.29 25.9994 65.0547 26.2328C64.7346 26.0632 64.4712 25.8431 64.2612 25.5802L64.2609 25.5765ZM66.3189 26.5516C65.8977 26.5353 65.5354 26.4492 65.2258 26.3129C65.4596 26.1062 65.6444 25.8202 65.7171 25.5175C65.7646 25.5361 65.8123 25.5585 65.8632 25.5731C66.1065 25.6506 66.3428 25.6907 66.5727 25.701C66.6335 26.0035 66.5867 26.2546 66.4552 26.5397C66.4105 26.5512 66.3647 26.5514 66.3189 26.5516ZM66.6276 26.5474C66.7779 26.3025 66.819 25.9873 66.7564 25.7077C66.9925 25.7023 67.2177 25.6598 67.4324 25.584C67.5679 25.7811 67.6794 25.9652 67.7557 26.1827C67.4238 26.4018 67.0452 26.5223 66.6238 26.5478L66.6276 26.5474ZM68.664 25.138C68.5233 25.4049 68.3572 25.6437 68.172 25.8385C68.0919 25.9253 68.0028 25.9977 67.9138 26.0701C67.8539 25.8663 67.7528 25.67 67.6133 25.515C67.7709 25.4404 67.9233 25.351 68.0659 25.236C68.1909 25.1376 68.3028 25.0214 68.4068 24.9021C68.5116 24.9652 68.5983 25.0412 68.6644 25.1418L68.664 25.138ZM68.7552 24.9591C68.6943 24.8732 68.623 24.7996 68.5341 24.7428C68.8516 24.316 69.0762 23.7871 69.2181 23.2275C69.1447 23.8723 68.9866 24.4638 68.7552 24.9591ZM68.8929 20.6453L68.9465 20.9522L68.9706 21.2275C69.125 22.9925 68.363 25.9282 65.982 25.1865C64.3541 24.6791 63.6726 22.9527 63.5258 21.2745C63.4941 20.9124 63.4893 20.5519 63.5013 20.2088C65.2134 20.1084 66.9268 19.9357 68.6435 19.7133L68.8857 20.6497L68.8929 20.6453ZM63.5249 19.9559C63.5427 19.7226 63.5648 19.4964 63.5997 19.2844C63.6096 19.2227 63.6236 19.1645 63.6334 19.1028C64.309 19.0171 65 18.9339 65.7319 18.8394C76.3516 17.4923 86.0294 15.9768 89.5424 15.221C81.05 17.7235 72.1935 18.2893 63.5284 19.9518L63.5249 19.9559ZM1.40715 19.3332C1.89243 19.7771 4.82187 20.2011 6.81144 20.2626C6.77708 20.524 6.75852 20.7916 6.75955 21.0652C4.7575 21.2099 1.75658 21.5827 0.998915 21.7326C0.923029 20.8652 1.12715 19.6655 1.40715 19.3332ZM19.8263 20.2108C19.7619 20.2164 19.6975 20.222 19.6294 20.228C19.6206 19.8222 19.6314 19.4222 19.638 19.0188C19.7024 19.0132 19.7706 19.0072 19.835 19.0016C19.8004 19.3922 19.7979 19.7991 19.8263 20.2108ZM20.2904 18.9731C20.3434 18.9685 20.4002 18.9635 20.4532 18.9589C20.5037 18.9697 20.5577 18.9764 20.6083 18.9871C20.5883 19.3689 20.5803 19.7572 20.5953 20.1473C20.5006 20.1556 20.406 20.1639 20.3113 20.1721C20.2953 19.7707 20.2985 19.3714 20.2904 18.9731ZM19.1639 20.2725C19.0768 20.2801 18.9935 20.2874 18.9064 20.2951C18.89 19.8899 18.8964 19.4827 18.9031 19.0793C19.0015 19.0707 19.0962 19.0624 19.1947 19.0538C19.1602 19.4444 19.1503 19.8557 19.1677 20.2722L19.1639 20.2725ZM18.4489 20.3427C18.3694 20.3496 18.2898 20.3566 18.2141 20.3632C18.2201 19.9523 18.2416 19.5438 18.2438 19.1332C18.3158 19.1269 18.3915 19.1203 18.4635 19.114C18.4334 19.5118 18.4274 19.9228 18.4485 20.3389L18.4489 20.3427ZM11.9945 19.7977C11.9945 19.7977 12.0301 19.768 12.048 19.7551C12.1616 19.7451 12.279 19.7349 12.3926 19.7249C12.3878 20.0179 12.3908 20.3141 12.3979 20.6137C12.2726 20.6208 12.147 20.6242 12.0217 20.6314C12.0052 20.3554 11.9962 20.0788 11.9949 19.8015L11.9945 19.7977ZM11.5745 20.6667C11.5291 20.6707 11.4836 20.6747 11.4382 20.6786C11.4594 20.5286 11.4964 20.3847 11.5616 20.2574C11.5621 20.3942 11.5664 20.5306 11.5745 20.6667ZM7.40367 20.2716C7.34806 20.5083 7.31682 20.7618 7.30963 21.0284C7.25282 21.0334 7.19602 21.0384 7.1351 21.0399C7.12848 20.7897 7.13666 20.5344 7.16313 20.2698C7.2471 20.2701 7.32728 20.2707 7.40367 20.2716ZM7.73477 20.2616C7.81808 20.2543 7.89826 20.2549 7.97021 20.2486C7.91114 20.4894 7.87991 20.7429 7.8648 21.0065C7.80767 21.0077 7.75054 21.0089 7.68962 21.0104C7.70604 20.762 7.72625 20.5132 7.73477 20.2616ZM12.8278 19.683C12.9603 19.6714 13.0929 19.6599 13.2254 19.6483C13.218 19.9567 13.2186 20.2683 13.227 20.5829C13.1052 20.586 12.9834 20.589 12.8653 20.5918C12.8465 20.2894 12.8353 19.9864 12.8316 19.6827L12.8278 19.683ZM13.6716 19.6016C13.789 19.5913 13.9101 19.5807 14.0272 19.5667C13.9943 19.8888 13.9817 20.2243 13.9966 20.5688C13.8975 20.5699 13.7946 20.5713 13.6955 20.5724C13.6788 20.2508 13.6697 19.9286 13.6716 19.6016ZM14.5035 20.5625C14.4997 20.2132 14.5034 19.8632 14.4923 19.5184C14.5984 19.5091 14.7006 19.5002 14.8063 19.4871C14.7878 19.8422 14.7812 20.2038 14.7857 20.5606C14.6904 20.5613 14.5989 20.5617 14.5035 20.5625ZM15.2466 20.5506C15.2411 20.1825 15.2428 19.81 15.2521 19.4367C15.3733 19.4261 15.4904 19.4121 15.6112 19.3977C15.6136 19.7737 15.6204 20.1569 15.631 20.5398C15.5016 20.5435 15.3722 20.5473 15.2425 20.5472L15.2466 20.5506ZM16.1142 20.5241C16.084 20.1354 16.0614 19.7459 16.0426 19.3562C16.1448 19.3472 16.2471 19.3383 16.3452 19.3259C16.3179 19.7121 16.3109 20.1117 16.3235 20.5172C16.2553 20.5232 16.1827 20.5219 16.1142 20.5241ZM16.7827 20.4885C16.7742 20.0864 16.7809 19.683 16.7838 19.2799C16.8671 19.2726 16.9542 19.265 17.0375 19.2577C17.0229 19.658 17.0242 20.0645 17.0446 20.4731C16.9575 20.4808 16.8705 20.4884 16.783 20.4922L16.7827 20.4885ZM17.4648 19.2128C17.5784 19.2028 17.6958 19.1925 17.809 19.1788C17.7515 19.5677 17.7306 19.9837 17.7452 20.4118C17.6619 20.4191 17.5786 20.4264 17.4915 20.434C17.4638 20.0299 17.455 19.624 17.4648 19.2128ZM21.0779 20.1241C21.0554 19.7802 21.0478 19.4313 21.0515 19.0814C21.1321 19.1731 21.2192 19.2529 21.3028 19.3368C21.2946 19.5921 21.2906 19.8509 21.2982 20.1124C21.2262 20.1187 21.1502 20.1216 21.0779 20.1241ZM13.8286 22.2251C13.9467 22.2224 14.0682 22.2156 14.1862 22.2129C14.2139 22.3548 14.2413 22.493 14.2724 22.6309C14.1389 22.6312 14.0019 22.6356 13.8684 22.6359C13.8562 22.4963 13.8443 22.3606 13.8324 22.2248L13.8286 22.2251ZM13.4684 22.6443C13.3157 22.6424 13.1625 22.6368 13.0097 22.635C12.9982 22.503 12.9901 22.3669 12.9823 22.2346C13.1159 22.2343 13.2535 22.2375 13.387 22.2372C13.4106 22.3757 13.4376 22.5102 13.4684 22.6443ZM19.0883 21.8068C19.1792 21.7988 19.2694 21.7833 19.3603 21.7754C19.3992 21.9582 19.445 22.1328 19.4983 22.3067C19.3961 22.3157 19.2901 22.3249 19.1878 22.3339C19.1534 22.1583 19.1227 21.9824 19.0883 21.8068ZM18.7754 22.3738C18.6618 22.3837 18.5444 22.394 18.4308 22.4039C18.4008 22.2355 18.3708 22.0672 18.3446 21.8984C18.4468 21.8895 18.5484 21.873 18.6503 21.8603C18.6882 22.0318 18.7299 22.2029 18.7751 22.37L18.7754 22.3738ZM19.8058 21.7212C19.8891 21.7139 19.968 21.6994 20.0471 21.6887C20.0902 21.8749 20.1328 22.0574 20.1827 22.2354C20.0919 22.2434 19.9975 22.2554 19.907 22.2672C19.8722 22.0878 19.8371 21.9047 19.8023 21.7253L19.8058 21.7212ZM14.635 22.1964C14.7221 22.1888 14.8064 22.1928 14.8935 22.1852C14.914 22.3316 14.9344 22.478 14.9621 22.62C14.8709 22.6242 14.7828 22.6205 14.6916 22.6246C14.6715 22.482 14.6551 22.339 14.6347 22.1926L14.635 22.1964ZM15.3152 22.1635C15.4594 22.1547 15.6033 22.1421 15.7475 22.1333C15.7645 22.2838 15.7853 22.434 15.8098 22.5838C15.6539 22.5899 15.4983 22.5997 15.3424 22.6057C15.3296 22.4586 15.3243 22.3109 15.3152 22.1635ZM16.2215 22.0994C16.3086 22.0918 16.3995 22.0838 16.4869 22.08C16.5163 22.2408 16.5487 22.3938 16.5888 22.5461C16.4752 22.556 16.3571 22.5587 16.2432 22.5649C16.2372 22.4096 16.2313 22.2543 16.2215 22.0994ZM16.9186 22.0422C17.0247 22.0329 17.1269 22.024 17.2326 22.0109C17.2657 22.1714 17.3026 22.3316 17.3433 22.4915C17.2222 22.5021 17.0972 22.513 16.9757 22.5198C16.958 22.3618 16.9404 22.2037 16.919 22.046L16.9186 22.0422ZM17.6602 21.9697C17.7511 21.9618 17.8419 21.9538 17.9328 21.9459C17.9666 22.1139 18.008 22.2813 18.0528 22.4446C17.9467 22.4539 17.8404 22.4594 17.7344 22.4686C17.7085 22.3037 17.6826 22.1388 17.6605 21.9735L17.6602 21.9697ZM23.141 21.855C23.141 21.855 23.1524 21.854 23.16 21.8534C23.157 21.9068 23.1582 21.9637 23.1514 22.0175C23.1465 21.9609 23.1418 21.9081 23.1369 21.8516L23.141 21.855ZM20.882 22.1591C20.7873 22.1673 20.6889 22.176 20.5948 22.1918C20.5556 22.0052 20.5202 21.8183 20.4848 21.6314C20.5753 21.6197 20.6621 21.6083 20.7523 21.5928C20.7881 21.7835 20.8314 21.9735 20.882 22.1591ZM21.2196 21.5253C21.2912 21.5152 21.3666 21.5049 21.4382 21.4948C21.4476 21.5586 21.4642 21.6179 21.4736 21.6817C21.4596 21.7399 21.4453 21.7944 21.4276 21.8529C21.3785 21.9028 21.3291 21.9489 21.2801 21.9988C21.2586 21.8411 21.2372 21.6834 21.2199 21.5291L21.2196 21.5253ZM12.6006 22.6252C12.4667 22.6217 12.337 22.6216 12.2028 22.6144C12.1916 22.4862 12.1766 22.3583 12.1616 22.2304C12.2879 22.2345 12.4097 22.2315 12.5357 22.2319C12.5548 22.3632 12.5739 22.4945 12.6006 22.6252ZM8.04423 22.7084C8.06697 22.7938 8.0897 22.8792 8.11623 22.9643C8.05597 22.9734 7.99225 22.9866 7.92129 23.0042C7.90201 22.9147 7.88274 22.8251 7.86346 22.7356C7.9275 22.7262 7.99155 22.7168 8.04423 22.7084ZM7.60069 22.7852C7.63545 22.8772 7.67399 22.9688 7.71566 23.0526C7.6261 23.0756 7.52896 23.0993 7.42458 23.1274C7.40052 23.0269 7.38059 22.9299 7.36032 22.829C7.44264 22.8104 7.5215 22.7959 7.60036 22.7814L7.60069 22.7852ZM1.87148 25.2511C1.87148 25.2511 1.52021 24.7688 1.48458 24.3615C1.84133 24.2087 5.18462 23.3006 7.06825 22.8926C7.10778 22.9955 7.15077 23.0944 7.20133 23.1926C5.37815 23.7245 2.26295 24.928 1.87148 25.2511ZM13.324 27.274C13.2937 27.2766 13.2634 27.2793 13.2328 27.2782C13.1984 27.2774 13.1595 27.2694 13.121 27.2652C13.0901 27.2603 13.0594 27.2591 13.0247 27.2546C12.9858 27.2466 12.9429 27.2351 12.8999 27.2237C12.8648 27.2154 12.8339 27.2105 12.7985 27.1984C12.7514 27.1835 12.704 27.1648 12.6565 27.1462C12.6211 27.1341 12.5895 27.1217 12.5538 27.1058C12.4981 27.0802 12.4421 27.0509 12.3858 27.0179C12.3539 27.0017 12.3261 26.9889 12.2938 26.9689C12.2052 26.9159 12.1122 26.8556 12.0185 26.7878C12.1912 25.8835 13.7182 25.5865 14.3015 26.4969C14.3025 26.5082 14.3039 26.5233 14.3014 26.5387C14.3024 26.55 14.3034 26.5613 14.3006 26.5729C14.3016 26.5843 14.2915 26.6003 14.2891 26.6158C14.2866 26.6312 14.2838 26.6428 14.2775 26.6586C14.2713 26.6743 14.265 26.6901 14.2588 26.7058C14.2525 26.7216 14.2463 26.7373 14.2362 26.7534C14.2262 26.7695 14.2161 26.7855 14.2061 26.8016C14.1961 26.8177 14.186 26.8338 14.176 26.8499C14.1622 26.8663 14.1483 26.8827 14.1345 26.8991C14.1207 26.9155 14.1106 26.9316 14.0965 26.9442C14.0827 26.9606 14.0647 26.9736 14.0471 26.9903C14.0295 27.0071 14.0153 27.0197 13.9977 27.0365C13.9798 27.0494 13.958 27.0627 13.9404 27.0795C13.9225 27.0924 13.9049 27.1092 13.8828 27.1187C13.8611 27.132 13.8352 27.1419 13.8135 27.1552C13.7914 27.1647 13.7697 27.178 13.7476 27.1875C13.7218 27.1974 13.6959 27.2073 13.6663 27.2175C13.6405 27.2273 13.6184 27.2368 13.5922 27.2429C13.5623 27.2494 13.5323 27.2558 13.502 27.2584C13.4755 27.2607 13.4496 27.2706 13.4194 27.2733C13.3891 27.2759 13.355 27.2789 13.3206 27.2781L13.324 27.274ZM14.239 27.745C14.543 27.6424 14.7522 27.3733 15.0406 27.2682C15.6544 27.0435 16.3115 28.2743 16.0653 28.7746C15.9293 29.0525 15.5834 29.155 15.2767 29.1818C14.9738 29.2083 14.67 29.1817 14.3739 29.1126L13.5254 28.6168C13.3856 28.458 13.2641 28.2901 13.1567 28.1095C13.0849 27.9865 13.1825 27.8374 13.324 27.8402C13.6643 27.8484 14.1315 27.781 14.239 27.745ZM11.5397 28.8171C10.8894 28.798 10.0457 28.6628 9.67916 28.4859C9.69082 28.3139 10.364 28.2018 10.7346 28.12C10.9368 28.0757 11.1469 28.0345 11.3525 28.0735C11.7872 28.1571 12.2781 28.8399 11.5397 28.8171ZM11.1372 29.9734C10.6462 29.8567 9.76212 29.3033 9.70117 29.13C9.90432 29.0096 10.8675 29.2028 11.4618 29.4092C12.1467 29.6495 11.6797 30.1121 11.141 29.973L11.1372 29.9734ZM13.8387 31.8043C13.8527 31.8335 13.8625 31.8592 13.8728 31.8887C13.8737 31.9 13.882 31.9069 13.883 31.9182C13.8938 31.9553 13.9047 31.9923 13.9115 32.0259C13.9121 32.0335 13.9128 32.041 13.9138 32.0523C13.9161 32.0787 13.9181 32.1013 13.92 32.124C13.922 32.1466 13.924 32.1692 13.9181 32.1887C13.9191 32.2 13.9201 32.2114 13.9207 32.2189C13.9158 32.2497 13.9102 32.273 13.9008 32.2967C13.8404 32.3475 13.7793 32.3909 13.7138 32.427C12.9081 32.9003 11.7619 32.3166 11.691 31.5058C11.6854 31.4417 11.6883 31.3882 11.6916 31.3385C11.7988 31.2987 11.9032 31.2706 12.0038 31.2428C12.0375 31.236 12.0675 31.2296 12.0974 31.2232C12.1612 31.21 12.2283 31.1927 12.2886 31.1837C12.3227 31.1807 12.3567 31.1777 12.3908 31.1747C12.4438 31.1701 12.4969 31.1655 12.5499 31.1608C12.584 31.1578 12.6142 31.1552 12.6452 31.1601C12.6948 31.1595 12.7409 31.1631 12.787 31.1667C12.8138 31.1681 12.8444 31.1692 12.8716 31.1745C12.918 31.1818 12.9607 31.1895 13.0033 31.1971C13.0267 31.2027 13.0497 31.2045 13.0693 31.2104C13.1202 31.2249 13.1711 31.2395 13.2147 31.2584C13.2226 31.2616 13.2343 31.2643 13.2422 31.2674C13.2975 31.2892 13.3494 31.3151 13.394 31.3454C13.4102 31.3554 13.4222 31.3619 13.4345 31.3722C13.4668 31.3922 13.4994 31.4159 13.5241 31.4366C13.5406 31.4503 13.5529 31.4607 13.5694 31.4744C13.5941 31.4951 13.615 31.516 13.6363 31.5408C13.6489 31.5549 13.6616 31.569 13.6743 31.5831C13.6914 31.6044 13.7127 31.6291 13.726 31.6507C13.7349 31.6652 13.7476 31.6792 13.7565 31.6937C13.7739 31.7187 13.7873 31.7404 13.8009 31.7658C13.8098 31.7802 13.8149 31.795 13.8235 31.8056L13.8387 31.8043ZM14.6273 31.5719C14.3753 31.3963 14.2409 31.0813 13.9738 30.907C13.8805 30.843 13.4445 30.6569 13.1134 30.5795C12.9731 30.5462 12.92 30.376 13.0219 30.2759C13.1694 30.13 13.3331 29.9941 13.5062 29.8801C13.6001 29.8187 13.698 29.7607 13.8011 29.7175C14.0075 29.6349 14.2347 29.615 14.4564 29.6184L15.3484 29.7835C15.6399 29.8873 15.9461 30.0733 16.0069 30.3757C16.116 30.9248 15.1637 31.9468 14.6273 31.5719ZM24.5059 23.8485C24.3919 23.9838 24.3502 24.1623 24.3919 24.3334C24.5417 24.9549 24.7231 25.8511 24.7289 25.9608C24.1886 26.4147 23.7326 26.6978 23.4338 26.9025C23.3006 26.994 23.2137 27.1346 23.1935 27.296C23.123 27.8417 22.7477 28.6118 22.6139 28.8705C22.0222 29.0857 21.3667 29.0518 20.9747 29.0633C20.8226 29.069 20.6789 29.1272 20.5779 29.2386C20.2079 29.632 19.6482 30.213 19.5619 30.2737C19.2359 30.1237 18.7062 29.8698 18.3382 29.7196C18.164 29.6474 17.9674 29.6684 17.8087 29.7735C17.5348 29.9571 17.2029 30.1761 17.1477 30.1999C16.8821 29.999 16.5283 29.6613 16.3863 29.6091C16.7572 29.4437 16.8512 29.2531 17.1472 29.06C17.2465 29.1045 17.4629 29.2223 17.7046 29.3684C17.8941 29.4848 18.1337 29.4753 18.3134 29.3493C18.6771 29.1009 19.0059 28.8897 19.2964 28.5907C19.4787 28.6242 19.8272 28.7267 20.2524 28.8757C20.5163 28.9704 20.811 28.8496 20.9417 28.5988C21.1469 28.197 21.3672 27.8357 21.5057 27.4132C21.7107 27.3573 22.0909 27.2974 22.6223 27.1787C22.8996 27.1203 23.0867 26.8607 23.0623 26.5816C23.0168 26.0612 22.964 25.5452 22.8493 25.1068C22.9962 24.9534 23.2176 24.7364 23.6762 24.3961C23.8733 24.2496 23.9537 23.9918 23.8724 23.7595C23.664 23.1659 23.4823 22.6156 23.1989 22.1236C23.3236 21.8922 23.584 21.2919 24.0529 20.5896C24.2014 20.3676 24.2066 20.0784 24.0722 19.8507C23.839 19.4531 23.5961 19.0753 23.3405 18.7709C23.4465 18.4994 23.7381 17.8203 24.2362 16.9711C24.372 16.735 24.3217 16.4658 24.205 16.2214C23.8693 15.525 23.6665 14.8207 23.4418 14.1715C23.6212 13.867 24.1539 13.4138 25.0106 12.4762C25.1464 12.3276 25.2088 12.1245 25.1875 11.925C25.0978 11.074 25.1317 10.197 25.3556 9.31099C25.4984 9.2415 25.7692 9.1532 26.1265 9.04975C26.1093 8.94104 26.0969 8.84332 26.0805 8.74216C26.1917 9.18464 26.2884 9.63599 26.3669 10.0965C26.4689 10.6956 26.5444 11.297 26.6082 11.8957C26.4931 11.9323 26.3128 12.0089 26.2236 12.0357C25.8216 12.1507 25.6158 12.5905 25.7717 12.9759C26.2665 14.1828 26.6543 14.6467 26.7047 14.7867C26.0997 15.2424 25.5268 15.8474 25.1514 16.3096C24.9654 16.5387 24.9442 16.8636 25.0995 17.1122C25.6998 18.0857 26.1007 18.4382 26.1605 18.5546C25.8503 19.1517 25.4974 19.6538 25.2154 20.0509C25.0621 20.2619 25.0446 20.5409 25.1642 20.7736C25.5922 21.6102 25.8131 22.0849 25.8181 22.3162C25.4668 22.7498 24.8887 23.3818 24.4984 23.8491L24.5059 23.8485ZM26.9191 15.9726C26.9523 16.4827 26.9858 16.9965 27.0307 17.5094C26.9189 17.4964 26.8077 17.4909 26.7048 17.4923C26.7663 16.9739 26.8364 16.4662 26.9191 15.9726ZM28.7513 17.3323C28.4591 17.2629 28.1675 17.201 27.8686 17.1435C27.8974 17.0802 27.9228 17.021 27.9475 16.9542C28.4009 17.0779 28.861 17.1897 29.3207 17.2977C29.3478 17.3029 29.3699 17.2934 29.3837 17.277C29.6003 17.5278 29.8379 17.7578 30.0956 17.9557C29.8159 17.8548 29.5308 17.7809 29.2699 17.7201C28.7631 17.5973 28.184 17.4769 27.6575 17.5648C27.7039 17.4847 27.7462 17.4012 27.7882 17.314C28.1021 17.3701 28.4151 17.4149 28.7316 17.4556C28.8011 17.4647 28.8177 17.3493 28.7479 17.3364L28.7513 17.3323ZM28.6409 16.6807C28.4642 16.624 28.2834 16.5638 28.1036 16.5149C28.1214 16.4564 28.1392 16.3978 28.1566 16.3355C28.3759 16.3999 28.6012 16.4448 28.8226 16.49C28.957 16.7177 29.1056 16.9327 29.2724 17.1385C28.853 17.0118 28.434 16.8888 28.0125 16.7813C28.0281 16.742 28.0437 16.7026 28.0556 16.6635C28.2361 16.72 28.4193 16.7647 28.6026 16.8095C28.6885 16.8324 28.7196 16.7081 28.6371 16.6811L28.6409 16.6807ZM28.7629 11.7072C30.268 9.72103 32.5211 8.34588 35.1116 8.12304C34.9519 8.30422 34.7923 8.48539 34.6402 8.6659C33.8031 9.69675 33.0917 10.8116 32.4762 11.9751C31.655 13.624 31.042 15.3838 30.7061 17.2145C29.7583 15.4087 29.0938 13.5706 28.7667 11.7068L28.7629 11.7072ZM28.5301 15.938C28.4498 15.8918 28.3625 15.8539 28.2787 15.8118C28.2984 15.6885 28.3141 15.5617 28.3224 15.4394C28.3831 15.6089 28.4547 15.7736 28.5301 15.938ZM28.6005 16.0877C28.637 16.1567 28.6701 16.2298 28.7067 16.2988C28.542 16.2486 28.3739 16.2025 28.203 16.168C28.217 16.1098 28.2272 16.0519 28.2374 15.994C28.3364 16.0348 28.4347 16.068 28.5371 16.1046C28.5608 16.1139 28.5791 16.1047 28.5932 16.0921L28.6005 16.0877ZM27.3383 19.6296C27.3374 19.5764 27.34 19.5192 27.3392 19.4661C27.4945 19.4525 27.6497 19.4389 27.7941 19.3883C27.8027 19.3989 27.8071 19.4061 27.8119 19.4171C27.8162 19.4662 27.8205 19.5152 27.8248 19.5642C27.6634 19.5517 27.4991 19.5927 27.3383 19.6296ZM28.2456 19.402C28.241 19.3492 28.236 19.2926 28.2279 19.2439C28.1674 18.7704 28.1061 18.2438 27.8398 17.8605C28.7259 17.7829 29.6959 18.0971 30.5229 18.4351C30.4894 18.7497 30.4634 19.0635 30.4454 19.3805C29.8505 19.3414 28.6959 19.3588 28.2497 19.4054L28.2456 19.402ZM27.3502 19.1991C27.3482 19.1765 27.3538 19.1532 27.3556 19.1302C27.3951 19.1458 27.435 19.1651 27.4745 19.1806C27.4328 19.1843 27.3915 19.1917 27.3502 19.1991ZM27.3502 20.0275C27.3469 19.9898 27.3432 19.9483 27.3399 19.9106C27.5059 19.8885 27.6791 19.862 27.8297 19.7956C27.8347 19.8521 27.8321 19.9094 27.8336 19.97C27.6681 19.9541 27.5072 19.991 27.3467 20.0316L27.3502 20.0275ZM27.3922 20.3773C27.3899 20.3509 27.3873 20.3207 27.3812 20.2946C27.5392 20.2694 27.7007 20.2401 27.8394 20.1671C27.8409 20.2278 27.8389 20.2926 27.8407 20.357C27.8287 20.3505 27.8167 20.3439 27.8012 20.3415C27.6663 20.3267 27.531 20.3499 27.3967 20.3845L27.3922 20.3773ZM27.835 20.5095C27.8358 20.5627 27.8325 20.6123 27.8334 20.6655C27.8147 20.6709 27.7968 20.6839 27.7868 20.7C27.6821 20.7243 27.5773 20.7487 27.4726 20.773C27.4618 20.736 27.4547 20.6986 27.4476 20.6612C27.5898 20.6298 27.7232 20.5839 27.835 20.5095ZM28.5297 22.9112C28.4852 22.8391 28.4442 22.7629 28.4001 22.6945C28.572 22.6529 28.7429 22.6 28.9137 22.547C29.096 22.4931 29.3026 22.456 29.461 22.3471C29.5221 22.3038 29.5056 22.2026 29.4216 22.2024C29.2155 22.2014 29.01 22.2954 28.8167 22.3541C28.6424 22.4111 28.4639 22.4648 28.2906 22.5331C28.2166 22.4294 28.1471 22.3329 28.0707 22.2445C28.6007 22.24 29.1498 22.0171 29.6241 21.8122C29.8629 21.7077 30.1277 21.5934 30.3749 21.4539C30.0805 21.7951 29.835 22.1738 29.6301 22.5793C29.2564 22.669 28.8891 22.7886 28.53 22.915L28.5297 22.9112ZM29.5101 22.8216C29.4688 22.9164 29.432 23.0185 29.3948 23.1167C29.3579 23.1314 29.3213 23.1498 29.2841 23.1606C29.1019 23.2146 28.9142 23.25 28.7262 23.2816C28.6934 23.2123 28.6606 23.143 28.6241 23.074C28.9193 23.0025 29.2173 22.9195 29.5064 22.822L29.5101 22.8216ZM28.0471 21.9312C28.1241 21.7649 28.1775 21.5892 28.2188 21.407C28.657 21.3572 29.7631 21.0895 30.3781 20.7924C30.376 20.899 30.3735 21.0018 30.3752 21.1081C29.6568 21.532 28.8491 21.8952 28.0471 21.9312ZM27.7304 21.4953C27.7304 21.4953 27.7439 21.4751 27.755 21.4704C27.7443 21.4789 27.7411 21.4868 27.7304 21.4953ZM27.8336 21.0607C27.7465 21.0683 27.6607 21.091 27.5753 21.1175C27.5651 21.088 27.5548 21.0585 27.5446 21.0289C27.638 21.0056 27.7354 20.9857 27.8288 20.9623C27.8314 20.9925 27.8306 21.0267 27.8295 21.0572L27.8336 21.0607ZM32.2199 36.6107C32.0599 36.7881 31.9082 36.9724 31.7526 37.157C30.7066 37.9363 29.7347 38.0365 28.5113 37.7483C28.1506 37.5063 27.8285 37.2267 27.5047 36.9282C28.3938 36.8846 29.2747 36.0931 29.5844 35.2718C30.0753 36.1295 31.2265 36.595 32.2161 36.611L32.2199 36.6107ZM28.9945 25.0404C28.9945 25.0404 28.9968 25.0668 28.9978 25.0781C29.0633 28.3556 29.2497 31.6644 29.4704 34.9284C29.4721 34.9472 29.4844 34.9576 29.4895 34.9723C29.2759 35.409 29.0242 35.8034 28.6352 36.1111C28.2393 36.4269 27.8208 36.5281 27.3573 36.6827C29.2872 32.3109 28.5544 26.6825 27.6811 22.1532C27.7284 22.1263 27.7756 22.0994 27.8226 22.0687C27.7942 22.0939 27.7789 22.1371 27.7974 22.1735C28.0166 22.6293 28.3121 23.0404 28.5206 23.5048C28.752 24.0128 28.8382 24.5183 28.9869 25.041L28.9945 25.0404ZM29.2985 23.3684C29.2717 23.4543 29.2486 23.5399 29.2256 23.6255C29.125 23.6533 29.0247 23.6849 28.9251 23.724C28.8863 23.6286 28.8512 23.5329 28.8085 23.4378C28.9679 23.4277 29.1342 23.4093 29.2982 23.3646L29.2985 23.3684ZM29.1708 23.8279C29.1404 23.9598 29.1134 24.0876 29.0905 24.2188C29.061 24.0997 29.0278 23.9811 28.9831 23.8634C29.0468 23.8502 29.1071 23.8411 29.1708 23.8279ZM45.9105 22.1696C46.1755 22.1464 46.4406 22.1232 46.7019 22.1004C46.4977 23.8663 45.8945 26.0433 44.0445 26.7486C41.0131 27.9068 39.0969 25.3688 38.3563 22.7051C40.8517 22.7908 43.4308 22.3941 45.907 22.1737L45.9105 22.1696ZM38.2441 26.9178C38.4441 26.8053 38.6387 26.6743 38.8254 26.5402C39.0659 26.3671 39.3584 26.1781 39.5435 25.9377C39.7216 26.1425 39.914 26.3347 40.1236 26.5064C39.8112 26.7731 39.5402 27.078 39.2075 27.3313C39.0536 27.4474 38.8917 27.5604 38.734 27.6768C38.6604 27.5768 38.5913 27.4841 38.53 27.3944C38.4253 27.244 38.3309 27.0812 38.2403 26.9181L38.2441 26.9178ZM38.3646 23.9774C38.4904 24.2818 38.6346 24.577 38.7969 24.863C38.485 25.0043 38.2099 25.2184 37.9106 25.3738C37.834 25.4147 37.753 25.4483 37.672 25.482C37.5824 25.1555 37.5142 24.8118 37.4674 24.4511C37.806 24.3531 38.1401 24.2023 38.3643 23.9736L38.3646 23.9774ZM37.435 24.1689C37.4311 24.1237 37.4275 24.0822 37.4235 24.0369C37.3971 23.7352 37.3893 23.4281 37.3926 23.1162C37.6234 23.0504 37.8354 22.9445 37.9783 22.8332C38.0727 23.1707 38.1826 23.5107 38.3145 23.8412C38.0607 23.9052 37.8285 24.0433 37.5801 24.1258C37.5319 24.1415 37.4871 24.153 37.4385 24.1648L37.435 24.1689ZM38.8831 25.0189C39.0397 25.2826 39.2146 25.5371 39.4068 25.7711C39.1381 25.9276 38.9011 26.1839 38.6536 26.3652C38.4852 26.4901 38.312 26.6041 38.143 26.7215C37.9906 26.4194 37.8635 26.0999 37.7577 25.7633C37.856 25.7091 37.9539 25.6512 38.045 25.6014C38.336 25.4391 38.6564 25.2629 38.8828 25.0151L38.8831 25.0189ZM39.4772 27.4483C39.7408 27.1897 40.0374 26.9167 40.2471 26.6096C40.3699 26.7052 40.4921 26.7933 40.625 26.8729C40.7218 26.9328 40.8218 26.9849 40.9214 27.0332C40.713 27.3554 40.5688 27.7138 40.3371 28.0305C40.16 28.274 39.9585 28.5007 39.769 28.7338C39.4366 28.4665 39.1558 28.1795 38.93 27.9104C39.1274 27.7678 39.3118 27.6072 39.4769 27.4446L39.4772 27.4483ZM40.5284 28.2114C40.7365 27.8854 40.9768 27.492 41.0691 27.1077C41.3594 27.2419 41.6609 27.3295 41.9745 27.3819C41.9002 27.8406 41.755 28.2751 41.5552 28.6954C41.4231 28.9729 41.2274 29.2219 41.087 29.4926C40.6763 29.3347 40.3071 29.1276 39.9856 28.8973C40.1928 28.693 40.3778 28.4526 40.5284 28.2114ZM42.1719 27.414C42.3725 27.4382 42.5755 27.4471 42.781 27.4405C42.8499 28.2287 42.8199 28.9761 42.7702 29.7595C42.5915 29.7675 42.4126 29.7718 42.2254 29.7692C41.8944 29.7373 41.5832 29.6695 41.2925 29.5734C41.8433 29.0654 42.0777 28.1253 42.1719 27.414ZM42.9696 27.4164C43.1703 27.3988 43.3697 27.3662 43.575 27.314C43.7585 27.6666 43.9482 28.0034 44.0548 28.3931C44.1553 28.7567 44.1684 29.1242 44.2159 29.4924C43.8372 29.613 43.4398 29.6933 43.0232 29.7298C43.1981 28.981 43.1561 28.1525 42.9693 27.4126L42.9696 27.4164ZM43.7548 27.2755C43.9002 27.2362 44.0449 27.1893 44.1924 27.1308C44.2589 27.106 44.3248 27.0736 44.391 27.045C44.6139 27.3257 44.8438 27.5982 45.035 27.9083C45.218 28.2115 45.3654 28.5444 45.5522 28.8473C45.1961 29.0951 44.8089 29.2923 44.3985 29.4422C44.4882 28.7238 44.2097 27.8513 43.7548 27.2755ZM44.5447 26.9708C44.8406 26.8195 45.1138 26.6284 45.3611 26.4016C45.8931 26.7692 46.3145 27.2682 46.6308 27.8295C46.5308 27.9523 46.4385 28.0743 46.33 28.1864C46.1517 28.373 45.9598 28.5342 45.7596 28.6885C45.5669 28.0556 45.0438 27.3983 44.5447 26.9708ZM45.4986 26.2717C45.6633 26.1053 45.811 25.9176 45.9535 25.7151C46.2226 25.8246 46.4928 25.9035 46.7434 26.064C46.9858 26.2176 47.198 26.4195 47.3886 26.6346C47.2069 27.0001 47.0084 27.3481 46.7759 27.6572C46.5063 27.0614 46.0614 26.5987 45.4982 26.268L45.4986 26.2717ZM46.0612 25.5499C46.2218 25.2926 46.3654 25.0141 46.4949 24.7063C47.012 24.8169 47.45 25.0256 47.8974 25.298C47.7813 25.7148 47.6366 26.1113 47.4666 26.4796C47.1269 26.0419 46.6073 25.6427 46.0612 25.5499ZM46.5703 24.5211C46.6756 24.2421 46.7682 23.949 46.851 23.6302C47.0693 23.6833 47.3064 23.6891 47.5257 23.7535C47.7492 23.8214 47.9642 23.9242 48.1651 24.0396C48.1107 24.4206 48.0356 24.7843 47.9407 25.1385C47.561 24.8107 47.0621 24.6035 46.5699 24.5174L46.5703 24.5211ZM46.8951 23.4363C46.942 23.2308 46.9847 23.0218 47.0227 22.8019C47.2196 22.7847 47.4142 22.7411 47.6176 22.7537C47.8402 22.7684 48.0506 22.8184 48.2596 22.8951C48.2501 23.2227 48.2286 23.5438 48.1912 23.8587C47.8188 23.6139 47.322 23.3875 46.8989 23.436L46.8951 23.4363ZM47.0517 22.6094C47.0658 22.5093 47.0837 22.409 47.0972 22.3014L48.2614 22.1311C48.2672 22.3282 48.2613 22.5225 48.2592 22.7165C47.8836 22.567 47.4269 22.4929 47.0517 22.6094ZM37.9365 22.7038C37.7529 22.7427 37.5795 22.8111 37.3966 22.8575C37.4056 22.5679 37.4257 22.2735 37.4571 21.9782C37.5631 21.9689 37.6726 21.9555 37.7592 21.8985C37.805 22.1605 37.8669 22.4325 37.9365 22.7038ZM36.977 22.9018C36.977 22.9018 36.9746 22.8754 36.9771 22.86C36.9784 22.8751 36.9794 22.8864 36.977 22.9018ZM38.2967 22.4595C38.2851 22.4149 38.2777 22.3738 38.2662 22.3292C38.2815 22.3734 38.2927 22.4143 38.3118 22.4582C38.308 22.4585 38.3042 22.4589 38.2967 22.4595ZM58.9131 20.4088C58.9131 20.4088 58.886 20.4036 58.8708 20.4049C54.4568 20.8937 50.0445 21.3595 45.6229 21.7615C43.2833 21.9738 40.8655 22.0334 38.5408 22.4154C38.5487 22.1563 38.5373 21.895 38.5145 21.6348C38.5789 21.6292 38.6471 21.6232 38.7228 21.6166C38.7426 21.7555 38.7586 21.8947 38.7783 22.0336C38.791 22.1351 38.9608 22.1126 38.9595 22.0101C38.9551 21.8737 38.9471 21.7376 38.9428 21.6012C39.0071 21.5955 39.0715 21.5899 39.1435 21.5836C39.1687 21.741 39.1936 21.8946 39.2181 22.0445C39.2346 22.1456 39.3964 22.1201 39.3954 22.0214C39.3974 21.8692 39.3955 21.7174 39.3972 21.5614C39.4502 21.5568 39.5032 21.5521 39.56 21.5472C39.5735 21.6144 39.5836 21.6857 39.5971 21.7529C39.616 21.8387 39.7318 21.8095 39.7403 21.7328C39.7461 21.6677 39.7515 21.5988 39.7531 21.5303C39.8175 21.5246 39.8894 21.5183 39.9538 21.5127C39.9606 21.5463 39.9677 21.5837 39.9744 21.6173C39.9985 21.7178 40.1332 21.687 40.1442 21.5949C40.1491 21.564 40.1461 21.5301 40.1469 21.4958C43.6965 21.2005 51.1261 20.5505 58.5875 19.6963C58.7652 19.6769 58.9349 19.6545 59.1088 19.6355C59.0428 19.8844 58.9775 20.141 58.9197 20.3968L58.9131 20.4088ZM37.6355 21.0087C37.6557 21.2388 37.6881 21.4791 37.7292 21.7301C37.647 21.7069 37.564 21.718 37.4814 21.7328C37.52 21.433 37.5666 21.1364 37.6241 20.8349C37.6291 20.8915 37.634 20.9481 37.6393 21.0084L37.6355 21.0087ZM58.9531 16.1112C59.3861 16.0885 59.8194 16.0696 60.2562 16.0466C60.0541 16.5279 59.8678 17.0154 59.7021 17.5201L40.0147 19.2425C40.0107 19.1973 40.0064 19.1483 40.0021 19.0992C39.9886 18.9446 39.7519 18.9425 39.7578 19.0978C39.7624 19.1506 39.7636 19.2075 39.7648 19.2644L39.6549 19.274C39.6434 19.142 39.6318 19.01 39.6282 18.8811C39.629 18.8469 39.6232 18.8246 39.5989 18.8077C39.5345 18.7259 39.3723 18.7477 39.3797 18.8763C39.3882 19.0161 39.3928 19.1563 39.3974 19.2965L39.2687 19.3078C39.2385 19.0938 39.2049 18.884 39.1602 18.6789C39.1281 18.5297 38.9101 18.5678 38.8999 18.7131C38.8875 18.9193 38.887 19.1322 38.8938 19.3406L38.7916 19.3495C38.7741 19.1497 38.7607 18.9532 38.747 18.753C38.7282 18.5381 38.3885 18.5374 38.4111 18.752C38.4296 18.9632 38.4553 19.17 38.4735 19.3774L38.3409 19.389C38.3306 18.9225 38.3283 18.4591 38.318 17.9926C38.3515 17.8528 38.3848 17.7093 38.4259 17.5689C40.9309 17.1977 49.4899 16.5895 58.9493 16.1115L58.9531 16.1112ZM60.521 15.4534C60.0044 15.4796 59.4874 15.502 58.9745 15.5279C49.1341 16.0126 40.4123 16.6351 38.6803 16.8132C38.6894 16.7858 38.6981 16.7547 38.7071 16.7273C38.7746 16.539 38.85 16.3538 38.9291 16.1682C46.2162 15.5459 53.5745 15.5633 60.8346 14.8066C60.7271 15.0174 60.6237 15.2316 60.5207 15.4496L60.521 15.4534ZM60.9756 14.5434C58.172 14.4239 55.3331 14.5545 52.4991 14.7416C52.1144 13.6162 51.6631 12.5575 51.1573 11.6175C50.5873 10.554 49.9073 9.54185 49.1342 8.59867C51.7269 8.14002 54.492 8.25532 57.0482 8.9057C59.1182 9.45042 61.1241 10.3959 62.8896 11.6475C62.7831 11.7822 62.6728 11.9173 62.5704 12.0554C61.9752 12.8409 61.4452 13.6739 60.9797 14.5469L60.9756 14.5434ZM39.1461 15.6819C39.1877 15.5908 39.2256 15.5001 39.271 15.4087C39.6436 14.6959 40.0637 14.0017 40.5585 13.377C41.0688 12.7548 41.5802 12.1894 42.226 11.6769C42.4626 11.4586 42.7293 11.2795 42.9912 11.0893C43.5033 11.6222 43.9702 12.2045 44.3839 12.8333C44.9071 13.6236 45.1229 14.3457 45.4473 15.218C43.3444 15.3449 41.2385 15.4798 39.1419 15.6784L39.1461 15.6819ZM45.3958 13.8886C45.7234 14.1868 45.9801 14.5481 46.2397 14.9852L45.8149 15.0148C45.7747 14.9043 45.7348 14.7976 45.6987 14.6906C45.6024 14.4178 45.5067 14.1525 45.3958 13.8886ZM47.2512 14.6839C47.4002 13.7703 47.7998 11.8391 47.6287 10.9306C46.2405 10.1097 45.5636 10.0055 44.9473 9.89599C45.9499 9.40546 47.1027 8.974 48.0989 8.71584C48.1092 9.09495 47.9704 9.4719 47.8358 9.93968C47.6991 10.4267 47.9649 10.9354 48.4378 11.1068C49.1035 11.345 49.6994 11.6577 50.4852 12.0031C50.7511 12.1205 50.9326 12.363 50.9876 12.6432C51.0901 13.2042 51.1116 13.8864 51.0464 14.8421C50.1817 14.9026 49.3174 14.9668 48.4564 15.0269C47.7799 14.8391 47.3559 14.747 47.2471 14.6805L47.2512 14.6839ZM65.5215 14.0355C65.5215 14.0355 65.5451 13.9993 65.5551 13.9832C65.6521 14.0887 65.7453 14.1945 65.8385 14.3004C65.6757 14.3146 65.5129 14.3289 65.3504 14.3469C65.4099 14.2429 65.4616 14.1358 65.5212 14.0317L65.5215 14.0355ZM89.5137 14.8055C89.6908 14.8242 89.868 14.8429 90.0493 14.8651L64.1251 17.1332C64.2664 16.699 64.4308 16.2666 64.6148 15.8401C75.3321 15.347 85.9488 14.9692 89.5137 14.8055ZM65.2597 14.5752C72.797 14.7632 80.3374 14.0275 87.8514 14.647C82.9748 14.6024 73.9281 14.8695 64.8768 15.2585C64.9899 15.0244 65.1109 14.7935 65.2322 14.5662C65.2398 14.5656 65.2445 14.5766 65.2559 14.5756L65.2597 14.5752ZM69.2218 6.60942C69.6087 6.67057 70.2507 6.81201 70.7157 7.06773C70.873 6.68536 71.2093 6.12393 71.3958 5.94421C71.6823 5.99134 72.1338 6.09245 72.5 6.26562C72.6354 5.93836 72.9184 5.46519 73.0769 5.31452C73.3362 5.35643 73.7643 5.45198 74.0844 5.62159C74.2679 5.40792 74.5356 5.1527 74.6739 5.076C74.8687 5.16536 75.1806 5.32808 75.3928 5.52991C75.5345 5.36171 75.7459 5.16081 75.8552 5.10185C76.0181 5.175 76.2939 5.31808 76.4539 5.49028C76.2296 5.76071 75.9751 6.07938 75.9471 6.10843C75.7265 5.94153 75.521 5.77331 75.3719 5.68374C75.1026 6.00751 74.8315 6.35424 74.7922 6.38428C74.5262 6.17954 74.2717 5.97381 74.0818 5.85362C73.8777 6.31228 73.6781 6.77816 73.6442 6.82672C73.2686 6.67718 72.9072 6.51499 72.6404 6.43193C72.3822 7.01313 72.1065 7.65666 72.0661 7.71721C71.5637 7.51415 71.0868 7.29747 70.7715 7.22625C70.4491 7.94607 70.1071 8.74741 70.0566 8.82404C69.9734 8.78951 69.8944 8.75842 69.8113 8.7239C69.443 8.3533 69.0024 7.93964 68.5953 7.56105C68.8016 7.1706 69.0639 6.76764 69.229 6.60499L69.2218 6.60942ZM46.2477 1.77544C46.8165 2.08289 47.597 2.54281 48.6719 3.22779C48.8738 3.35453 49.1482 3.30772 49.2797 3.11001C49.8429 2.26273 51.1171 1.38743 51.7744 1.00691C52.162 1.2504 53.0819 2.08195 53.9348 3.15116C54.0889 3.34287 54.383 3.38935 54.5838 3.24258C55.4445 2.61246 56.9408 2.05214 57.5126 1.91471C58.1214 2.63667 58.7316 3.63591 59.2033 4.49146C59.3212 4.70535 59.5814 4.80039 59.8105 4.71574C60.8672 4.31929 62.1772 3.89687 62.857 3.9476C63.2977 4.62346 64.0701 5.86311 64.4269 6.97572C64.5055 7.21965 64.7293 7.37867 64.985 7.3791C66.091 7.37354 67.5345 7.42965 68.1628 7.72049C68.3116 8.41809 68.5527 9.64722 68.5346 10.7052C68.5269 11.0973 68.8268 11.4283 69.2162 11.474C70.1254 11.5731 71.1475 11.7421 71.6101 12.0132C71.6623 12.4798 71.7336 13.207 71.7247 13.9336C70.3504 13.9702 68.9825 14.0367 67.6218 14.1406C67.7716 13.5422 67.9171 12.9367 68.0364 12.4247C68.1472 11.9476 67.7945 11.492 67.3048 11.4778C65.6865 11.4294 64.01 11.5001 63.8346 11.4584C64.0832 10.5057 64.2615 9.40324 64.305 8.54822C64.3245 8.1171 63.8962 7.80116 63.4848 7.93976C61.836 8.50202 60.1941 9.23088 59.9941 9.25598C59.8749 8.19859 59.7161 6.95085 59.47 6.05656C59.381 5.73754 59.0095 5.59143 58.7226 5.75714C57.4265 6.51275 56.0296 7.42538 55.847 7.47555C55.372 6.23269 54.7754 4.99665 54.3754 4.30583C54.2225 4.0418 53.849 4.00228 53.644 4.23302C52.5526 5.45332 51.6478 6.58131 51.4729 6.67641C50.624 5.82726 50.2049 5.09251 49.6354 4.34052C49.4454 4.08734 49.0519 4.12556 48.9122 4.4038C48.1527 5.92947 47.5685 7.45121 47.4245 7.59302C46.3301 6.68554 45.4966 6.23025 44.6777 5.81168C44.3222 5.62998 43.8955 5.81171 43.7798 6.19045C43.3265 7.68174 43.3408 9.54633 43.2287 9.70434C42.5907 9.60816 41.1289 9.12423 40.2125 8.9422C39.665 8.8343 39.3705 9.08807 39.3388 9.64185C39.2541 11.0287 39.595 12.6139 39.5221 12.7837C38.1466 12.676 37.3246 12.7441 36.5396 12.9306C36.0608 13.0409 35.7387 13.5023 35.8188 13.9817C36.142 15.8877 37.5996 17.0218 37.5827 17.2209C35.9924 17.056 34.9392 17.6231 34.0904 18.2142C33.677 18.505 33.5823 19.0795 33.8815 19.4903C34.9274 20.934 36.1469 21.3518 36.2309 21.5268C34.5552 22.2624 34.0315 23.3419 33.7335 24.3408C33.6422 24.649 33.729 24.9872 33.9518 25.2223C34.7783 25.9024 36.0806 26.6131 36.7271 26.9365C36.1832 27.7859 35.7131 28.6061 35.5309 29.5758C35.4161 30.1825 35.9333 30.7301 36.5486 30.6534C38.247 30.4402 38.9585 30.112 39.1558 30.0985C39.2461 30.4326 39.403 30.7875 39.5906 31.1435C40.0468 31.647 40.6885 32.3091 41.2071 32.7843C41.4807 33.034 41.8943 33.051 42.1832 32.8205C43.602 31.678 43.9301 30.8057 44.0961 30.6961C44.446 31.2507 45.627 31.839 46.618 32.2197C47.0682 32.3931 47.5652 32.0989 47.6303 31.622C47.8622 29.9106 47.5301 29.0809 47.5745 28.8908C48.1434 28.8942 49.499 28.6882 50.4913 28.2974C50.8859 28.1413 51.0793 27.6911 50.9083 27.3071C50.1302 25.5663 49.3304 25.0169 49.2599 24.8216C49.9129 24.6087 50.8258 23.5294 51.4431 22.647C51.6569 22.3433 51.668 21.9471 51.4879 21.6322C51.7567 21.6087 52.0253 21.5814 52.2976 21.5538C52.213 21.8082 52.2295 22.0842 52.3608 22.3197C52.7419 23.0122 52.9942 23.8033 53.3554 24.5735C53.548 24.9861 53.5444 25.469 53.2997 25.8552C52.9777 26.3622 52.5045 26.928 51.7759 27.672C51.6322 27.8176 51.5612 28.01 51.556 28.2118C51.5341 29.0954 51.2688 29.9888 51.1348 30.9429C51.0743 31.3852 50.7986 31.7666 50.3915 31.9542C49.7971 32.2266 49.0123 32.4587 47.8434 32.7053C47.6898 32.7378 47.548 32.8186 47.4361 32.9348C46.7091 33.6976 45.7767 34.2922 44.9357 35.103C44.4939 34.982 43.3263 34.5902 41.8819 33.7817C41.7212 33.6894 41.5317 33.6603 41.3526 33.7064C40.3926 33.9424 38.7236 34.1872 38.2083 34.1411C38.0152 34.158 37.8258 34.1746 37.6403 34.1908C37.2926 33.8374 36.4648 32.5304 35.4588 30.9768C35.388 30.8652 35.292 30.771 35.1828 30.7007C34.2003 30.0685 33.0016 29.2765 32.0424 28.475C32.1177 28.0276 32.5752 26.802 33.1704 25.2755C33.3014 24.941 33.2265 24.5637 32.9748 24.3045C32.4798 23.793 31.9059 23.1212 31.1164 22.0351C31.2241 21.6951 31.3427 21.3503 31.4693 21.0086C31.4849 20.9692 31.4633 20.9407 31.4386 20.9201C31.7761 20.4155 32.2379 19.7633 32.7721 19.0212C32.9592 18.7616 32.998 18.42 32.8694 18.1272C32.4306 17.1244 32.2062 15.9546 32.0066 15.1132C32.4723 14.6355 33.735 13.8904 34.936 13.2685C35.2867 13.0896 35.4781 12.7043 35.4135 12.3147C35.1977 11.0264 35.1012 9.96699 35.1916 9.08126C36.0532 8.85389 37.2672 8.68687 38.3124 8.59543C38.7327 8.55865 39.0756 8.24745 39.1426 7.83498C39.2921 6.88328 39.5122 5.9102 39.7658 5.014C39.8243 4.81127 39.9983 4.66304 40.2101 4.64072C41.1169 4.53858 42.37 4.68735 43.3384 4.98264C43.644 5.0737 43.9787 4.93042 44.1219 4.64809C44.6887 3.53827 45.6019 2.11314 46.2392 1.76478L46.2477 1.77544ZM41.864 30.1314C41.9762 30.1482 42.0883 30.165 42.2035 30.1739C42.088 30.1612 41.9762 30.1482 41.864 30.1314ZM35.3668 3.14541C35.8649 3.29944 37.3144 4.12264 39.0342 5.0704C36.8231 6.44567 35.9573 7.36504 35.7582 7.48886C34.9204 6.89714 34.1308 6.28981 33.1488 5.96911C32.8151 5.86151 32.6118 5.9363 32.464 6.25324C31.7673 7.75442 31.6836 8.49895 31.6059 8.65776C30.7856 8.52812 29.8788 8.54286 29.2275 8.59984C28.9245 8.62634 28.6773 8.85318 28.6118 9.15151C28.5848 9.27928 28.561 9.39917 28.5368 9.51529C28.5195 8.88218 28.5405 8.24953 28.6028 7.60947C28.7263 6.97165 28.9269 6.34228 29.2393 5.72594C29.6206 5.63558 30.7626 5.60407 32.1744 5.56035C32.3799 5.55377 32.5695 5.45358 32.7009 5.29768C33.3923 4.47718 34.4299 3.73278 35.3627 3.14197L35.3668 3.14541ZM26.8383 4.79977C27.1887 8.06379 27.5803 11.3622 28.086 14.6126C28.0321 15.1304 28.0258 15.6249 27.9134 16.1288C27.8844 16.1465 27.8805 16.1887 27.8948 16.2216C27.8955 16.2291 27.8924 16.237 27.8892 16.2449C27.7782 16.6764 27.5998 17.0796 27.465 17.5018C27.4049 17.4691 27.345 17.4819 27.3025 17.5198C27.3626 12.9735 27.072 7.34058 24.4581 3.45758C24.9101 3.52064 25.3243 3.54519 25.7516 3.76242C26.215 3.99929 26.5475 4.354 26.8505 4.76451C26.8477 4.77615 26.837 4.78469 26.838 4.796L26.8383 4.79977ZM27.0039 4.68648C27.0039 4.68648 26.9903 4.66108 26.9851 4.64632C26.999 4.62991 27.0125 4.60973 27.0263 4.59332C27.0176 4.62449 27.0089 4.65565 27.0039 4.68648ZM27.0227 1.62957C27.6007 1.6512 28.0675 1.88396 28.5776 2.13194C28.8075 2.31704 29.027 2.51444 29.2562 2.69199C28.2771 2.88405 27.2313 3.53417 26.8898 4.47226C26.438 3.71377 25.4445 3.08628 24.5537 3.1984C24.8993 2.74257 25.2471 2.31312 25.7034 1.9464C26.1425 1.77498 26.5251 1.6123 27.0189 1.6299L27.0227 1.62957Z" fill="#9A0000"/>
</svg>
