<svg width="92" height="38" viewBox="0 0 92 38" fill="none" xmlns="http://www.w3.org/2000/svg">
<path d="M68.7182 23.8873C68.7182 24.016 68.7106 24.1485 68.703 24.2772C68.7144 24.1447 68.7182 24.0122 68.7182 23.8873ZM28.4403 0.030276C27.9651 0.0454204 27.4671 0.367198 27.0984 0.605693C26.5244 0.984256 25.939 1.48396 25.6121 2.10101C25.5741 2.17673 25.5931 2.24487 25.6388 2.28651C26.1709 3.89162 26.6499 5.42101 26.9578 7.01854C25.2054 8.90378 23.97 11.3039 23.5709 14.1014C23.453 14.9191 23.3884 15.7558 23.3352 16.6C23.2972 16.5886 23.2592 16.581 23.2174 16.5772C22.8562 16.5583 22.4913 16.5356 22.1226 16.5167C18.2377 16.0662 14.0184 16.176 10.1639 16.7476C9.98526 16.5507 9.56332 16.4977 9.34665 16.494C9.05776 16.4902 8.61301 16.5507 8.42295 16.8006C6.09659 16.5507 4.11235 16.1419 1.93424 14.9229C1.88483 14.8964 1.83541 14.9002 1.7936 14.9229C1.77459 14.9229 1.75558 14.9229 1.73658 14.9305C0.197076 15.5097 -0.0614082 18.0688 0.0108154 19.4505C0.067834 20.5976 0.307312 22.8841 1.61874 23.2816C1.69096 23.3043 1.75558 23.2475 1.77459 23.1869C3.9565 22.1194 6.03197 21.5894 8.35453 21.2184C8.62062 21.4418 9.07296 21.5099 9.37706 21.4948C9.54052 21.4872 9.8142 21.438 10.0271 21.3358C14.1894 22.1156 18.6825 22.3579 22.8448 21.6159C22.7118 22.2935 22.5331 22.956 22.2899 23.6034C21.7273 25.0798 19.8913 26.8439 18.1655 26.8022C17.3369 26.7833 16.9909 26.1511 16.5614 25.5643C16.0672 24.8943 15.3108 24.5233 14.5163 24.334C14.4137 24.3113 14.3149 24.2961 14.216 24.281L14.1704 24.1864C13.8587 23.5882 13.1859 23.2513 12.4599 23.327C11.7946 23.3952 11.2663 23.8002 11.1104 24.3567L11.0762 24.4778C10.1525 24.6293 9.33145 24.7088 8.47237 24.7618C7.86797 24.7996 7.56387 24.9435 7.36621 25.4924C6.69339 25.1176 5.92554 25.0381 4.76236 25.6855C4.30241 25.9391 3.85387 26.1359 3.45474 26.0981C2.69829 26.0262 2.24214 25.2198 2.1091 25.2766C2.01407 25.3183 2.39419 25.6287 2.32197 25.7498C2.24974 25.8672 1.78599 25.6703 1.74798 25.7157C1.70997 25.765 2.7173 26.2419 3.15064 26.3442C3.70942 26.4729 4.21118 26.4464 5.08167 25.9656C6.07379 25.4129 6.60596 25.587 7.22176 26.0489C7.0507 27.1051 7.68931 27.3738 8.59781 27.8584C9.20601 28.1802 9.8104 28.5133 10.392 28.8805L10.392 28.8995C10.373 28.979 10.3654 29.0622 10.3654 29.1417C10.3654 29.7058 10.7417 30.2623 11.3271 30.5576C11.9467 30.8718 12.6271 30.8301 13.1517 30.4516L13.2277 30.3948L13.2391 30.3683C14.5467 30.6408 15.7441 30.1828 16.455 29.4332C16.7439 29.1304 17.1544 28.9827 17.5725 28.9941C18.0553 29.0055 18.5494 28.9714 19.0398 28.873C20.9404 28.4982 22.6206 27.6805 23.7952 26.0867C24.7645 24.7731 25.3271 23.0696 25.7908 21.4986C26.1595 21.5288 26.5244 21.4834 26.8856 21.4039C27.0072 21.3774 27.1364 21.3471 27.2695 21.3093C27.2771 23.7321 27.4671 26.1511 27.2885 28.5739C27.106 31.0724 26.437 33.3286 25.654 35.6909C25.6083 35.7287 25.5817 35.7893 25.6159 35.8574C25.9429 36.4745 26.5282 36.9855 27.106 37.3679C27.4824 37.614 27.9765 37.932 28.4555 37.9471C28.4707 37.9736 28.4935 37.9925 28.5239 37.9963C29.0219 38.0455 29.5578 37.5912 29.9189 37.3035C30.3485 36.9666 30.9035 36.5237 31.1962 36.0278C31.2228 36.0202 31.2418 36.0089 31.2608 35.9937C31.352 35.9483 31.4128 35.8461 31.3482 35.7287C29.1815 31.7122 28.9838 27.6502 30.1812 23.6071C30.2306 25.1328 30.4397 26.6432 30.9187 27.9114C31.4584 29.2894 32.1997 30.5386 33.1158 31.6592C34.0357 32.7797 35.1304 33.7791 36.4457 34.5855C40.9957 37.3376 47.0967 36.0997 50.4304 32.0264C51.3807 30.868 52.0611 29.6225 52.5705 28.3657C53.2395 26.7038 53.5702 24.7655 53.6311 22.7667C55.3036 22.7402 56.9761 22.71 58.6487 22.6645C58.508 23.1642 58.4054 23.6677 58.375 24.1523C58.2952 25.4621 58.4054 27.0294 58.8958 28.3808C59.4393 29.8042 60.3707 31.3298 61.5452 32.2838C61.9178 32.5904 62.3321 32.8706 62.7692 33.1166C62.4955 32.6548 61.8797 31.7425 61.6669 30.9929C61.6441 30.9096 61.5908 30.8415 61.5072 30.8036C60.8496 30.5083 59.8841 30.0314 59.58 29.6528C59.6902 29.2364 59.8499 28.4527 60.1084 27.8092C60.2224 27.5291 60.1502 27.2073 59.9411 26.9877C59.4508 26.4653 58.9148 25.7536 58.7627 25.394C58.9908 25.004 59.3747 24.4211 59.8157 23.9516C59.9449 23.8154 59.9753 23.6185 59.8993 23.4482C59.6028 22.7743 59.3177 21.8393 59.3025 21.4228C59.6636 21.1313 60.2414 20.7036 60.8382 20.4197C61.0207 20.3326 61.1233 20.1357 61.0929 19.9389C60.9941 19.265 60.9636 18.3678 61.0473 17.9969C61.4274 17.8303 62.0204 17.5956 62.602 17.482C62.8491 17.4328 63.0277 17.2094 63.0011 16.9596C62.9327 16.3387 62.9213 15.6271 62.9935 15.3053C63.3432 15.1501 63.8754 14.9419 64.4114 14.8169C64.7307 15.1236 65.05 15.4378 65.3199 15.7293C65.4453 16.4637 65.4111 16.9558 65.4111 17.0467C64.7231 17.1829 64.1795 17.429 63.6701 17.5577C63.4268 17.6183 63.2786 17.8606 63.3204 18.1066C63.4649 18.9735 63.6055 19.7723 63.6055 19.8783C63.0429 19.9881 62.4765 20.0827 62.0128 20.1849C61.7125 20.2493 61.5528 20.5749 61.6783 20.8512C62.0812 21.7333 62.4727 22.5623 62.5031 22.6721C61.9862 22.9257 61.4654 23.1642 61.0245 23.3876C60.7318 23.5352 60.6748 23.9214 60.9028 24.1523C61.5452 24.792 62.1306 25.3637 62.1914 25.4545C61.8683 25.7952 61.5376 26.1284 61.2487 26.435C60.8876 26.8136 60.9864 27.4306 61.4426 27.6881C62.1458 28.0818 62.7502 28.4149 62.8262 28.4755C62.5336 29.0319 62.2257 29.5771 61.99 30.0389C61.8607 30.2926 62.0964 30.5765 62.3701 30.5008C63.271 30.2471 64.0997 30.0049 64.2099 29.9935C64.4038 30.603 64.5748 31.2163 64.7459 31.7122C64.8333 31.9658 65.1716 32.0112 65.3237 31.7917C65.9661 30.8755 66.5515 30.0238 66.6465 29.9291C67.2927 30.3493 67.9199 30.7847 68.4521 31.1178C68.7676 31.3147 69.1743 31.0875 69.1781 30.7166C69.1819 29.6111 69.1781 28.5966 69.2009 28.4679C69.8357 28.4527 70.4629 28.449 71.0141 28.4338C71.3258 28.4262 71.5273 28.0969 71.3866 27.8168C70.7708 26.5675 70.174 25.3826 70.1246 25.2274C70.9913 24.7466 71.8694 24.3075 72.5118 23.91C72.8045 23.7321 72.8197 23.3157 72.5384 23.1188C72.0937 22.8084 71.6527 22.498 71.265 22.2292C72.1963 22.1686 73.1276 22.1005 74.0551 22.0248C73.884 22.4639 73.6864 22.8992 73.4545 23.2475C73.3557 23.3989 73.3519 23.592 73.4431 23.7472C73.9563 24.6103 74.6139 25.818 74.6709 26.4577C74.2224 26.8628 73.4241 27.6805 72.6296 28.2218C72.489 28.3165 72.4016 28.4792 72.4168 28.6496C72.4814 29.49 72.527 30.6408 72.3179 31.1443C71.7059 31.2995 70.4819 31.697 69.5544 31.7046C69.3948 31.7046 69.2503 31.7955 69.1705 31.9355C68.7448 32.6624 68.1328 33.6088 67.6804 33.9003C67.0646 33.6693 65.738 33.2794 64.9854 32.7191C64.8979 32.6548 64.7915 32.6359 64.6889 32.6699C64.035 32.9084 63.195 33.1696 62.7654 33.1242C63.6891 33.6428 64.7497 34.0025 65.9281 34.0782C67.6766 34.2107 69.9536 33.7261 71.2688 32.6737C72.5878 31.6213 73.8118 29.914 74.3668 28.608C75.3361 26.3442 75.5604 24.1068 75.2829 21.9225C76.4537 21.8241 77.6169 21.7181 78.7762 21.6197C83.1363 21.2411 87.5533 20.7944 91.8107 19.7382C91.9019 19.7155 91.9513 19.655 91.9741 19.5868C92.0197 19.496 92.0083 19.3862 91.9133 19.3294C91.8829 19.3029 91.8411 19.2877 91.7955 19.2877C88.1121 18.3792 84.3108 17.9514 80.54 17.5956C78.3239 17.3836 76.085 17.1678 73.8384 17.0012C73.2644 15.7217 72.5726 14.4649 71.7934 13.2459C71.4893 12.7727 71.1662 12.3146 70.8316 11.8679C72.2457 11.0124 73.8004 10.3537 75.454 9.97511C78.1946 9.3202 81.1634 9.37698 83.9877 10.153C84.3336 10.2477 84.5123 9.75554 84.1816 9.60791C81.4143 8.38894 78.2897 7.84381 75.1613 8.12773C73.0706 8.30565 70.9989 8.88485 69.0679 9.79719C68.3646 9.06278 67.6158 8.37379 66.8289 7.73781C62.5145 4.24746 55.7978 1.29089 50.1947 1.9988C48.6971 2.18808 47.2108 2.47958 45.7511 2.86571C45.2911 2.98685 43.4209 3.85754 42.9762 3.66826C38.7378 1.87009 34.0927 2.30923 30.3941 4.36482C30.6526 3.67583 30.9567 2.99063 31.3292 2.30544C31.3824 2.20701 31.352 2.1048 31.2874 2.04045C31.2722 2.00259 31.238 1.9723 31.1924 1.96852C30.8997 1.46881 30.3371 1.0259 29.9037 0.685191C29.5388 0.397483 29.0104 -0.0454381 28.5125 0.0037753C28.4821 0.00377531 28.4631 0.0264918 28.4517 0.0529925L28.4403 0.030276ZM63.0125 25.2766C63.0125 25.163 63.0125 25.0495 63.0201 24.9321C63.1341 25.4848 63.3128 25.9769 63.5485 26.4047C63.5029 26.4464 63.4535 26.488 63.3926 26.5145C63.3128 26.5524 63.2292 26.5675 63.1418 26.5713C63.0467 26.1397 63.0125 25.693 63.0125 25.2728L63.0125 25.2766ZM63.1836 26.7454C63.3546 26.7379 63.5371 26.6849 63.6663 26.5864C63.8032 26.8022 63.9514 27.0066 64.1225 27.1808C64.0198 27.2565 63.9552 27.3814 63.8564 27.4685C63.7614 27.548 63.6587 27.601 63.5485 27.6464C63.385 27.3663 63.2672 27.0634 63.1836 26.7454ZM63.6435 27.8092C63.7575 27.7676 63.8602 27.7108 63.959 27.6351C64.0617 27.5556 64.2061 27.4268 64.2403 27.2906C64.4494 27.4874 64.6775 27.6578 64.9283 27.794C64.7915 28.0855 64.6318 28.3203 64.3772 28.5322C64.0731 28.3354 63.8298 28.0931 63.6435 27.813L63.6435 27.8092ZM65.6087 28.96C65.1906 28.907 64.8371 28.7897 64.5406 28.6269C64.7915 28.4414 65.0006 28.1726 65.0994 27.8773C65.145 27.9 65.1906 27.9265 65.24 27.9455C65.4757 28.0439 65.7076 28.1045 65.9357 28.1348C65.9699 28.4414 65.9014 28.6875 65.7456 28.96C65.7 28.9676 65.6544 28.9638 65.6087 28.96ZM65.9167 28.9827C66.0877 28.7518 66.1561 28.4414 66.1181 28.1575C66.3538 28.1726 66.5819 28.1499 66.8023 28.0931C66.9202 28.3013 67.0152 28.4944 67.0722 28.7177C66.7225 28.907 66.3348 28.9941 65.9128 28.9827L65.9167 28.9827ZM68.0682 27.7562C67.9047 28.0098 67.7184 28.2332 67.517 28.4111C67.4295 28.4906 67.3345 28.555 67.2395 28.6193C67.1977 28.4111 67.114 28.2067 66.9886 28.0401C67.1521 27.9795 67.3117 27.9038 67.4638 27.8016C67.5968 27.7146 67.7184 27.6086 67.8325 27.4988C67.9313 27.5707 68.0111 27.654 68.0682 27.76L68.0682 27.7562ZM68.1746 27.5858C68.1214 27.495 68.0567 27.4155 67.9731 27.3511C68.3266 26.9536 68.5965 26.4464 68.7866 25.9012C68.6573 26.5372 68.4483 27.1126 68.1746 27.5858ZM68.6878 23.3005L68.7144 23.6109L68.7144 23.8873C68.7144 25.659 67.6994 28.5171 65.3921 27.5707C63.8146 26.9234 63.2862 25.1441 63.2862 23.4595C63.2862 23.0961 63.3128 22.7365 63.3546 22.3957C65.069 22.445 66.7909 22.4222 68.5205 22.3503L68.6802 23.3043L68.6878 23.3005ZM63.4002 22.1459C63.4382 21.915 63.4801 21.6916 63.5333 21.4834C63.5485 21.4228 63.5675 21.3661 63.5827 21.3055C64.2631 21.279 64.9587 21.2563 65.6962 21.226C76.3929 20.8096 86.1658 20.1433 89.7314 19.6966C81.0532 21.4493 72.1811 21.2411 63.404 22.1421L63.4002 22.1459ZM1.57312 16.1116C2.01787 16.5962 4.8992 17.2738 6.87585 17.5085C6.81883 17.7659 6.77702 18.0309 6.75421 18.3035C4.74716 18.2732 1.72517 18.383 0.957323 18.4663C0.957323 17.5956 1.26522 16.4182 1.57312 16.1116ZM19.8457 18.5912C19.781 18.5912 19.7164 18.5912 19.648 18.5912C19.6746 18.1861 19.7202 17.7886 19.762 17.3874C19.8267 17.3874 19.8951 17.3874 19.9597 17.3874C19.8913 17.7735 19.8533 18.1786 19.8457 18.5912ZM20.4159 17.3987C20.4691 17.3987 20.5261 17.3987 20.5793 17.3987C20.6287 17.4139 20.6819 17.4252 20.7314 17.4404C20.6781 17.8189 20.6363 18.2051 20.6173 18.595C20.5223 18.595 20.4273 18.595 20.3322 18.595C20.3512 18.1937 20.3892 17.7962 20.4159 17.3987ZM19.1805 18.595C19.093 18.595 19.0094 18.595 18.922 18.595C18.941 18.1899 18.9828 17.7849 19.0246 17.3836C19.1234 17.3836 19.2185 17.3836 19.3173 17.3836C19.2489 17.7697 19.2033 18.1786 19.1843 18.595L19.1805 18.595ZM18.462 18.6026C18.3822 18.6026 18.3024 18.6026 18.2263 18.6026C18.2682 18.1937 18.3252 17.7886 18.3632 17.3798C18.4354 17.3798 18.5114 17.3798 18.5837 17.3798C18.519 17.7735 18.4772 18.1823 18.462 18.5988L18.462 18.6026ZM12.0797 17.4972C12.0797 17.4972 12.1178 17.4707 12.1368 17.4593C12.2508 17.4593 12.3686 17.4593 12.4827 17.4593C12.4523 17.7508 12.4295 18.0461 12.4104 18.3451C12.285 18.3413 12.1596 18.3338 12.0341 18.33C12.0417 18.0536 12.0569 17.7773 12.0797 17.5009L12.0797 17.4972ZM11.5856 18.3262C11.54 18.3262 11.4944 18.3262 11.4487 18.3262C11.4829 18.1786 11.5324 18.0385 11.6084 17.9174C11.597 18.0536 11.5894 18.1899 11.5856 18.3262ZM7.46504 17.5691C7.38902 17.8 7.3358 18.0499 7.30539 18.3148C7.24837 18.3148 7.19135 18.3148 7.13053 18.3111C7.14574 18.0612 7.17615 17.8076 7.22556 17.5464C7.30919 17.5539 7.38902 17.5615 7.46504 17.5691ZM7.79575 17.588C7.87938 17.588 7.9592 17.5956 8.03142 17.5956C7.9516 17.8303 7.89838 18.0801 7.86037 18.3413C7.80335 18.3376 7.74633 18.3338 7.68551 18.33C7.72352 18.0839 7.76534 17.8379 7.79575 17.588ZM12.9198 17.4555C13.0529 17.4555 13.1859 17.4555 13.3189 17.4555C13.2847 17.7621 13.2581 18.0726 13.2391 18.3868C13.1175 18.3792 12.9958 18.3716 12.878 18.3641C12.8856 18.0612 12.9008 17.7584 12.9236 17.4555L12.9198 17.4555ZM13.7675 17.4479C13.8853 17.4479 14.007 17.4479 14.1248 17.4442C14.064 17.7621 14.0222 18.0953 14.007 18.4398C13.9081 18.4322 13.8055 18.4246 13.7067 18.4171C13.7181 18.0953 13.7371 17.7735 13.7675 17.4479ZM14.5125 18.4776C14.5391 18.1294 14.5734 17.7811 14.5924 17.4366C14.6988 17.4366 14.8014 17.4366 14.9079 17.4328C14.8584 17.7849 14.8204 18.1445 14.7938 18.5003C14.6988 18.4928 14.6076 18.4852 14.5125 18.4776ZM15.2538 18.5306C15.2804 18.1634 15.3146 17.7924 15.3564 17.4214C15.478 17.4214 15.5959 17.4177 15.7175 17.4139C15.6871 17.7886 15.6605 18.171 15.6377 18.5533C15.5085 18.5458 15.3792 18.5382 15.25 18.5268L15.2538 18.5306ZM16.1205 18.5798C16.1243 18.1899 16.1357 17.8 16.1509 17.4101C16.2535 17.4101 16.3561 17.4101 16.455 17.4063C16.3941 17.7886 16.3523 18.1861 16.3295 18.5912C16.2611 18.5912 16.1889 18.5836 16.1205 18.5798ZM16.7895 18.6026C16.8161 18.2013 16.8579 17.8 16.8959 17.3987C16.9795 17.3987 17.067 17.3987 17.1506 17.3987C17.1012 17.7962 17.067 18.2013 17.0518 18.6101C16.9643 18.6101 16.8769 18.6101 16.7895 18.6063L16.7895 18.6026ZM17.5801 17.3912C17.6942 17.3912 17.812 17.3912 17.926 17.3874C17.8348 17.7697 17.7778 18.1823 17.755 18.6101C17.6714 18.6101 17.5877 18.6101 17.5003 18.6101C17.5079 18.2051 17.5345 17.8 17.5801 17.3912ZM21.1001 18.6139C21.1077 18.2694 21.1305 17.9211 21.1647 17.5729C21.2369 17.6713 21.3167 17.7584 21.3928 17.8492C21.3624 18.1028 21.3358 18.3603 21.3205 18.6215C21.2483 18.6215 21.1723 18.6177 21.1001 18.6139ZM13.6953 20.0752C13.8131 20.0827 13.9347 20.0865 14.0526 20.0941C14.0678 20.2379 14.083 20.378 14.102 20.5181C13.969 20.5067 13.8321 20.4992 13.6991 20.4878C13.6991 20.3477 13.6991 20.2114 13.6991 20.0752L13.6953 20.0752ZM13.2999 20.4613C13.1479 20.4462 12.9958 20.4272 12.8438 20.4121C12.8438 20.2796 12.8476 20.1433 12.8514 20.0108C12.9844 20.0222 13.1213 20.0373 13.2543 20.0487C13.2657 20.1887 13.2809 20.325 13.2999 20.4613ZM18.9714 20.1168C19.0626 20.1168 19.1538 20.1092 19.2451 20.1092C19.2679 20.2947 19.2983 20.4727 19.3363 20.6506C19.2337 20.6506 19.1272 20.6506 19.0246 20.6506C19.0056 20.4727 18.9904 20.2947 18.9714 20.1168ZM18.6103 20.6544C18.4962 20.6544 18.3784 20.6544 18.2644 20.6544C18.2491 20.484 18.2339 20.3137 18.2225 20.1433C18.3252 20.1433 18.4278 20.1357 18.5304 20.1319C18.5532 20.3061 18.5799 20.4802 18.6103 20.6506L18.6103 20.6544ZM19.6936 20.0941C19.7772 20.0941 19.8571 20.0865 19.9369 20.0827C19.9635 20.272 19.9901 20.4575 20.0243 20.6392C19.9331 20.6392 19.8381 20.643 19.7468 20.6468C19.7278 20.4651 19.7088 20.2796 19.6898 20.0979L19.6936 20.0941ZM14.5011 20.1168C14.5886 20.1168 14.6722 20.1282 14.7596 20.1282C14.7672 20.2758 14.7748 20.4234 14.79 20.5673C14.6988 20.5635 14.6114 20.5522 14.5201 20.5484C14.5125 20.4045 14.5087 20.2607 14.5011 20.113L14.5011 20.1168ZM15.1816 20.1433C15.326 20.1471 15.4704 20.1471 15.6149 20.1509C15.6187 20.3023 15.6263 20.4537 15.6377 20.6051C15.4818 20.5976 15.326 20.5938 15.1701 20.5862C15.1701 20.4386 15.1777 20.2909 15.1816 20.1433ZM16.09 20.1584C16.1775 20.1584 16.2687 20.1584 16.3561 20.1622C16.3713 20.325 16.3903 20.4802 16.417 20.6354C16.3029 20.6354 16.1851 20.6279 16.071 20.6241C16.0786 20.4689 16.0862 20.3137 16.09 20.1584ZM16.7895 20.1622C16.8959 20.1622 16.9985 20.1622 17.105 20.1584C17.124 20.3212 17.1468 20.484 17.1734 20.6468C17.0518 20.6468 16.9263 20.6468 16.8047 20.643C16.8009 20.484 16.7971 20.325 16.7895 20.166L16.7895 20.1622ZM17.5345 20.1547C17.6257 20.1547 17.717 20.1547 17.8082 20.1547C17.8272 20.325 17.8538 20.4954 17.8842 20.6619C17.7778 20.6619 17.6714 20.6581 17.5649 20.6581C17.5535 20.4916 17.5421 20.325 17.5345 20.1584L17.5345 20.1547ZM23.0045 20.5181C23.0045 20.5181 23.0159 20.5181 23.0235 20.5181C23.0159 20.5711 23.0121 20.6279 23.0007 20.6809C23.0007 20.6241 23.0007 20.5711 23.0007 20.5143L23.0045 20.5181ZM20.7276 20.6241C20.6325 20.6241 20.5337 20.6241 20.4387 20.6316C20.4159 20.4424 20.3968 20.2531 20.3778 20.0638C20.4691 20.06 20.5565 20.0562 20.6477 20.0487C20.6667 20.2417 20.6933 20.4348 20.7276 20.6241ZM21.1191 20.0222C21.1913 20.0184 21.2673 20.0146 21.3396 20.0108C21.3434 20.0752 21.3548 20.1357 21.3586 20.2001C21.3396 20.2569 21.3205 20.3099 21.2977 20.3667C21.2445 20.4121 21.1913 20.4537 21.1381 20.4992C21.1305 20.3402 21.1229 20.1812 21.1191 20.0259L21.1191 20.0222ZM12.4371 20.3667C12.304 20.3515 12.1748 20.3402 12.0417 20.3212C12.0417 20.1925 12.0379 20.0638 12.0341 19.9351C12.1596 19.9502 12.2812 19.9578 12.4066 19.9692C12.4143 20.1017 12.4219 20.2342 12.4371 20.3667ZM7.89078 20.0524C7.90598 20.1395 7.92119 20.2266 7.9402 20.3137C7.87938 20.3174 7.81475 20.325 7.74253 20.3364C7.73113 20.2455 7.71972 20.1547 7.70832 20.0638C7.77294 20.06 7.83756 20.0562 7.89078 20.0524ZM7.44223 20.0903C7.46884 20.1849 7.49925 20.2796 7.53346 20.3667C7.44223 20.3818 7.3434 20.3969 7.23697 20.4159C7.22176 20.3137 7.21036 20.2152 7.19895 20.113C7.28258 20.1017 7.36241 20.0941 7.44223 20.0865L7.44223 20.0903ZM1.51991 22.0475C1.51991 22.0475 1.21201 21.5364 1.21201 21.1276C1.58073 21.0064 4.99043 20.3932 6.90246 20.1509C6.93287 20.2569 6.96708 20.3591 7.00889 20.4613C5.14629 20.8323 1.93804 21.7598 1.51991 22.0475ZM12.7526 25.0608C12.7222 25.0608 12.6917 25.0608 12.6613 25.057C12.6271 25.0533 12.5891 25.0419 12.5511 25.0343C12.5207 25.0268 12.4903 25.023 12.4561 25.0154C12.4181 25.004 12.3762 24.9889 12.3344 24.9738C12.3002 24.9624 12.2698 24.9548 12.2356 24.9397C12.19 24.9208 12.1444 24.898 12.0987 24.8753C12.0645 24.8602 12.0341 24.845 11.9999 24.8261C11.9467 24.7958 11.8935 24.7618 11.8403 24.7239C11.8099 24.705 11.7832 24.6898 11.7528 24.6671C11.6692 24.6066 11.5818 24.5384 11.4944 24.4627C11.7452 23.5769 13.2923 23.4141 13.7941 24.3718C13.7941 24.3832 13.7941 24.3983 13.7903 24.4135C13.7903 24.4248 13.7903 24.4362 13.7865 24.4476C13.7865 24.4589 13.7751 24.4741 13.7713 24.4892C13.7675 24.5043 13.7637 24.5157 13.7561 24.5308C13.7485 24.546 13.7409 24.5611 13.7333 24.5763C13.7257 24.5914 13.7181 24.6066 13.7067 24.6217C13.6953 24.6368 13.6839 24.652 13.6725 24.6671C13.6611 24.6823 13.6497 24.6974 13.6382 24.7126C13.623 24.7277 13.6078 24.7428 13.5926 24.758C13.5774 24.7731 13.566 24.7883 13.5508 24.7996C13.5356 24.8148 13.5166 24.8261 13.4976 24.8413C13.4786 24.8564 13.4634 24.8678 13.4444 24.8829C13.4254 24.8943 13.4026 24.9056 13.3836 24.9208C13.3646 24.9321 13.3456 24.9473 13.3227 24.9548C13.2999 24.9662 13.2733 24.9738 13.2505 24.9851C13.2277 24.9927 13.2049 25.004 13.1821 25.0116C13.1555 25.0192 13.1289 25.0268 13.0985 25.0343C13.0719 25.0419 13.0491 25.0495 13.0224 25.0533C12.992 25.057 12.9616 25.0608 12.9312 25.0608C12.9046 25.0608 12.878 25.0684 12.8476 25.0684C12.8172 25.0684 12.783 25.0684 12.7488 25.0646L12.7526 25.0608ZM13.623 25.6097C13.9347 25.534 14.1666 25.2842 14.4631 25.2047C15.0941 25.0343 15.6415 26.3177 15.3526 26.7946C15.193 27.0596 14.8394 27.1316 14.5315 27.1316C14.2274 27.1316 13.9271 27.0786 13.6382 26.9839L12.8362 26.4161C12.7107 26.2457 12.6043 26.0678 12.5131 25.8785C12.4523 25.7498 12.5625 25.6097 12.7031 25.6249C13.0415 25.6627 13.5128 25.6362 13.623 25.6097ZM10.8405 26.4426C10.1943 26.3669 9.36566 26.1587 9.01594 25.9505C9.04255 25.7801 9.72297 25.7271 10.0993 25.6779C10.3046 25.6514 10.5174 25.6287 10.7189 25.6855C11.1446 25.8066 11.5742 26.5297 10.8405 26.4426ZM10.3388 27.5593C9.85982 27.4003 9.02735 26.7719 8.98173 26.594C9.1946 26.4918 10.1373 26.7681 10.7113 27.0256C11.3727 27.3246 10.8671 27.7448 10.3426 27.5593L10.3388 27.5593ZM12.8704 29.6187C12.8818 29.649 12.8894 29.6755 12.897 29.7058C12.897 29.7171 12.9046 29.7247 12.9046 29.7361C12.9122 29.7739 12.9198 29.8118 12.9236 29.8459C12.9236 29.8534 12.9236 29.861 12.9236 29.8724C12.9236 29.8989 12.9236 29.9216 12.9236 29.9443C12.9236 29.967 12.9236 29.9897 12.916 30.0086C12.916 30.02 12.916 30.0314 12.916 30.0389C12.9084 30.0692 12.9008 30.0919 12.8894 30.1146C12.8248 30.1601 12.7602 30.1979 12.6917 30.2282C11.8479 30.6295 10.7569 29.9481 10.7569 29.1342C10.7569 29.0698 10.7645 29.0168 10.7721 28.9676C10.8824 28.9373 10.9888 28.9184 11.0914 28.8995C11.1256 28.8957 11.156 28.8919 11.1865 28.8881C11.2511 28.8805 11.3195 28.8692 11.3803 28.8654C11.4145 28.8654 11.4487 28.8654 11.4829 28.8654C11.5362 28.8654 11.5894 28.8654 11.6426 28.8654C11.6768 28.8654 11.7072 28.8654 11.7376 28.873C11.787 28.8767 11.8327 28.8843 11.8783 28.8919C11.9049 28.8957 11.9353 28.8995 11.9619 28.907C12.0075 28.9184 12.0493 28.9297 12.0911 28.9411C12.114 28.9487 12.1368 28.9525 12.1558 28.96C12.2052 28.979 12.2546 28.9979 12.2964 29.0206C12.304 29.0244 12.3154 29.0282 12.323 29.032C12.3762 29.0585 12.4257 29.0887 12.4675 29.1228C12.4827 29.1342 12.4941 29.1417 12.5055 29.1531C12.5359 29.1758 12.5663 29.2023 12.5891 29.225C12.6043 29.2402 12.6157 29.2515 12.6309 29.2667C12.6537 29.2894 12.6727 29.3121 12.6917 29.3386C12.7031 29.3537 12.7145 29.3689 12.726 29.384C12.7412 29.4067 12.7602 29.4332 12.7716 29.4559C12.7792 29.4711 12.7906 29.4862 12.7982 29.5014C12.8134 29.5279 12.8248 29.5506 12.8362 29.5771C12.8438 29.5922 12.8476 29.6074 12.8552 29.6187L12.8704 29.6187ZM13.6763 29.4559C13.4406 29.2591 13.3342 28.9335 13.0833 28.7367C12.9958 28.6647 12.5777 28.4414 12.2546 28.3354C12.1178 28.29 12.0797 28.1158 12.19 28.025C12.3496 27.8925 12.5245 27.7713 12.7069 27.6729C12.8058 27.6199 12.9084 27.5707 13.0148 27.5366C13.2277 27.4723 13.4558 27.4723 13.6763 27.495L14.5505 27.7373C14.8318 27.866 15.1207 28.078 15.1549 28.3846C15.2158 28.9411 14.178 29.8761 13.6763 29.4559ZM24.1905 22.6229C24.065 22.7478 24.008 22.922 24.0346 23.0961C24.1297 23.7283 24.2323 24.6368 24.2285 24.7466C23.6507 25.1517 23.1718 25.394 22.8562 25.5719C22.7156 25.6514 22.6168 25.7839 22.5826 25.9429C22.4647 26.4804 22.0238 27.2149 21.8679 27.4609C21.2597 27.6237 20.6097 27.5328 20.2182 27.5101C20.0661 27.5026 19.9179 27.548 19.8077 27.6502C19.4047 28.0098 18.7965 28.5398 18.7053 28.5928C18.3936 28.4149 17.888 28.1158 17.5345 27.9341C17.3673 27.847 17.1696 27.8508 17.0023 27.9417C16.7134 28.1007 16.3637 28.29 16.3067 28.3089C16.0596 28.0855 15.7365 27.7183 15.5997 27.654C15.9836 27.5215 16.0938 27.3398 16.4055 27.1732C16.5006 27.2262 16.7058 27.3625 16.9339 27.5291C17.1126 27.6616 17.3521 27.6729 17.5421 27.5631C17.926 27.3473 18.272 27.1656 18.5875 26.8931C18.7661 26.9423 19.1044 27.0748 19.515 27.2603C19.7696 27.3776 20.0737 27.283 20.2258 27.0445C20.4653 26.6621 20.7162 26.3214 20.891 25.9126C21.1001 25.8747 21.484 25.8482 22.0238 25.7763C22.3051 25.7422 22.5141 25.5 22.5141 25.2198C22.5141 24.6974 22.5065 24.1788 22.4305 23.7321C22.5902 23.592 22.8296 23.3952 23.3162 23.0961C23.5253 22.9674 23.6279 22.7175 23.5671 22.479C23.4112 21.8695 23.2782 21.3055 23.0387 20.7906C23.1832 20.5711 23.4949 19.9957 24.0232 19.337C24.1905 19.1288 24.2209 18.841 24.1069 18.6026C23.9092 18.1861 23.7001 17.7886 23.472 17.4631C23.6013 17.2019 23.951 16.5507 24.5212 15.7482C24.677 15.5248 24.6504 15.2523 24.5554 14.9986C24.2817 14.2756 24.1411 13.5563 23.9738 12.89C24.1791 12.6023 24.7493 12.1973 25.6844 11.3379C25.8326 11.2017 25.9124 11.0048 25.9086 10.8042C25.8934 9.94861 26.0037 9.07792 26.304 8.2148C26.4522 8.15801 26.7297 8.09366 27.0946 8.02173C27.087 7.91195 27.0832 7.81352 27.0756 7.71131C27.1478 8.1618 27.2049 8.61986 27.2429 9.08549C27.2923 9.69119 27.3151 10.2969 27.3265 10.8988C27.2087 10.9253 27.0224 10.9859 26.9312 11.0048C26.5206 11.0843 26.2774 11.5045 26.399 11.902C26.7867 13.1475 27.1326 13.6434 27.1706 13.7872C26.5282 14.1885 25.9048 14.7412 25.4905 15.169C25.2852 15.381 25.2358 15.7028 25.3689 15.964C25.882 16.9861 26.2508 17.3722 26.3002 17.4934C25.939 18.0612 25.5437 18.5306 25.2282 18.9016C25.0572 19.0985 25.0153 19.3748 25.1142 19.6171C25.4677 20.4878 25.6464 20.9799 25.6312 21.2108C25.2434 21.6121 24.6124 22.1913 24.1829 22.6229L24.1905 22.6229ZM27.2809 14.9873C27.2695 15.4983 27.2581 16.0132 27.2581 16.528C27.1478 16.5053 27.0376 16.4902 26.935 16.4826C27.0414 15.9715 27.1554 15.4718 27.2809 14.9873ZM28.9876 16.5015C28.7025 16.4069 28.4175 16.3198 28.1248 16.2365C28.159 16.176 28.1894 16.1192 28.2198 16.0548C28.6607 16.2176 29.1093 16.369 29.5578 16.5167C29.5844 16.5242 29.6072 16.5167 29.6224 16.5015C29.8163 16.7703 30.033 17.0202 30.2725 17.2397C30.0026 17.1148 29.7251 17.0164 29.4704 16.9331C28.9762 16.7665 28.4099 16.5962 27.8777 16.6378C27.9309 16.5621 27.9803 16.4826 28.0297 16.3993C28.3376 16.4826 28.6455 16.5545 28.9572 16.6227C29.0257 16.6378 29.0523 16.5242 28.9838 16.5053L28.9876 16.5015ZM28.9344 15.8428C28.7634 15.7709 28.5885 15.6952 28.4137 15.6308C28.4365 15.5741 28.4593 15.5173 28.4821 15.4567C28.6949 15.54 28.9154 15.6043 29.1321 15.6687C29.2461 15.9072 29.3754 16.1343 29.5236 16.3539C29.1169 16.1911 28.7102 16.0321 28.2996 15.8883C28.3186 15.8504 28.3376 15.8125 28.3528 15.7747C28.5277 15.8466 28.7063 15.9072 28.885 15.9678C28.9686 15.998 29.0104 15.8769 28.9306 15.8428L28.9344 15.8428ZM29.4894 10.8988C31.1619 9.05142 33.5263 7.87788 36.1264 7.88166C35.9515 8.04823 35.7767 8.2148 35.6094 8.38137C34.6857 9.33534 33.8798 10.384 33.1652 11.4894C32.2035 13.0604 31.4394 14.7601 30.9453 16.5545C30.1584 14.6731 29.6567 12.784 29.4932 10.8988L29.4894 10.8988ZM28.8888 15.0933C28.8128 15.0403 28.7292 14.9949 28.6493 14.9456C28.6797 14.8245 28.7064 14.6996 28.7254 14.5784C28.771 14.7526 28.828 14.9229 28.8888 15.0933ZM28.9458 15.2485C28.9762 15.3204 29.0028 15.3961 29.0333 15.4681C28.8736 15.4037 28.7102 15.3431 28.5429 15.2939C28.5619 15.2371 28.5771 15.1803 28.5923 15.1236C28.6873 15.1728 28.7824 15.2144 28.8812 15.2598C28.904 15.2712 28.923 15.2636 28.9382 15.2523L28.9458 15.2485ZM27.3797 18.6669C27.3835 18.6139 27.3911 18.5571 27.3949 18.5041C27.5508 18.5041 27.7066 18.5041 27.8549 18.4663C27.8625 18.4776 27.8663 18.4852 27.8701 18.4966C27.8701 18.5458 27.8701 18.595 27.8701 18.6442C27.7104 18.6177 27.5432 18.6442 27.3797 18.6669ZM28.3034 18.5193C28.3034 18.4663 28.3034 18.4095 28.2996 18.3603C28.2806 17.8833 28.2654 17.3533 28.0335 16.9482C28.923 16.9482 29.8619 17.3457 30.6564 17.7546C30.5956 18.065 30.5423 18.3754 30.4967 18.6896C29.9075 18.5988 28.7558 18.5155 28.3072 18.5231L28.3034 18.5193ZM27.4291 18.2391C27.4291 18.2164 27.4367 18.1937 27.4405 18.171C27.4785 18.1899 27.5166 18.2126 27.5546 18.2316C27.5128 18.2316 27.4709 18.2353 27.4291 18.2391ZM27.3569 19.0644C27.3569 19.0265 27.3569 18.9849 27.3569 18.947C27.5242 18.9395 27.699 18.9281 27.8549 18.8751C27.8549 18.9319 27.8473 18.9887 27.8435 19.0493C27.68 19.019 27.5166 19.0417 27.3531 19.0682L27.3569 19.0644ZM27.3683 19.4165C27.3683 19.39 27.3683 19.3597 27.3645 19.3332C27.5242 19.3218 27.6876 19.3067 27.8321 19.2461C27.8283 19.3067 27.8207 19.371 27.8169 19.4354C27.8055 19.4278 27.7941 19.4202 27.7788 19.4165C27.6458 19.39 27.509 19.4013 27.3721 19.424L27.3683 19.4165ZM27.7979 19.5868C27.7941 19.6398 27.7865 19.689 27.7826 19.742C27.7636 19.7458 27.7446 19.7572 27.7332 19.7723C27.6268 19.7875 27.5204 19.8026 27.4139 19.8177C27.4063 19.7799 27.4025 19.742 27.3987 19.7042C27.5432 19.6852 27.68 19.6512 27.7979 19.5868ZM28.2806 22.0399C28.2426 21.9642 28.2084 21.8847 28.1704 21.8128C28.3452 21.7863 28.5201 21.7484 28.6949 21.7106C28.8812 21.6727 29.0903 21.6538 29.2575 21.5591C29.3222 21.5213 29.3145 21.4191 29.2309 21.4115C29.0257 21.3926 28.8128 21.4683 28.6151 21.5099C28.4365 21.5516 28.254 21.5894 28.0753 21.6424C28.0107 21.5326 27.9499 21.4304 27.8815 21.3358C28.4099 21.3774 28.9762 21.2033 29.4666 21.0405C29.7137 20.9572 29.9874 20.8664 30.2459 20.749C29.9227 21.0632 29.6453 21.4191 29.4058 21.8052C29.0257 21.862 28.6493 21.949 28.2806 22.0437L28.2806 22.0399ZM29.2651 22.0361C29.2157 22.127 29.1701 22.2254 29.1245 22.32C29.0865 22.3314 29.0485 22.3465 29.0104 22.3541C28.8242 22.392 28.6341 22.4109 28.4441 22.426C28.4175 22.3541 28.3908 22.2822 28.3604 22.2103C28.6607 22.1648 28.9648 22.108 29.2613 22.0361L29.2651 22.0361ZM27.8853 21.0216C27.9765 20.8626 28.0449 20.6922 28.102 20.5143C28.5429 20.5029 29.6681 20.3326 30.3067 20.0903C30.2953 20.1963 30.2839 20.2985 30.2763 20.4045C29.5236 20.7641 28.6873 21.0556 27.8853 21.0216ZM27.6078 20.5597C27.6078 20.5597 27.623 20.5408 27.6344 20.537C27.623 20.5446 27.6192 20.5521 27.6078 20.5597ZM27.7484 20.1357C27.661 20.1357 27.5736 20.1509 27.4862 20.1698C27.4786 20.1395 27.4709 20.1092 27.4633 20.0789C27.5584 20.0638 27.6572 20.0524 27.7522 20.0373C27.7522 20.0676 27.7484 20.1017 27.7446 20.1319L27.7484 20.1357ZM30.7628 36.0089C30.588 36.1716 30.4207 36.342 30.2497 36.5123C29.1397 37.1975 28.1628 37.2127 26.9692 36.819C26.6309 36.5464 26.3344 36.2398 26.0379 35.9142C26.9274 35.9483 27.8739 35.2366 28.254 34.4454C28.6683 35.3426 29.7745 35.9066 30.759 36.0089L30.7628 36.0089ZM28.5581 24.2015C28.5581 24.2015 28.5581 24.228 28.5581 24.2393C28.3376 27.5101 28.235 30.8226 28.1704 34.0933C28.1704 34.1123 28.1818 34.1236 28.1856 34.1388C27.9347 34.5552 27.6496 34.9262 27.2353 35.1987C26.8133 35.4789 26.3876 35.5432 25.9124 35.6568C28.216 31.4699 27.9765 25.799 27.5014 21.2108C27.5508 21.1881 27.6002 21.1654 27.6496 21.1389C27.6192 21.1616 27.6002 21.2033 27.6154 21.2411C27.7941 21.7143 28.0525 22.1497 28.2198 22.6305C28.4061 23.1567 28.4479 23.6677 28.5505 24.2015L28.5581 24.2015ZM29.0066 22.5623C28.9724 22.6456 28.942 22.7289 28.9116 22.8122C28.809 22.8311 28.7064 22.8538 28.6037 22.8841C28.5733 22.7857 28.5467 22.6872 28.5125 22.5888C28.6721 22.5926 28.8394 22.5888 29.0066 22.5585L29.0066 22.5623ZM28.8394 23.009C28.7976 23.1377 28.7596 23.2627 28.7254 23.3914C28.7064 23.2702 28.6835 23.1491 28.6493 23.0279C28.714 23.0204 28.7748 23.0166 28.8394 23.009ZM45.6599 22.816C45.926 22.816 46.192 22.816 46.4543 22.816C46.097 24.5573 45.3063 26.6735 43.4019 27.2148C40.2811 28.1045 38.5934 25.4091 38.0878 22.691C40.5662 22.9939 43.1701 22.8235 45.6561 22.8197L45.6599 22.816ZM37.6088 26.8779C37.8179 26.7833 38.0232 26.6697 38.2208 26.5524C38.4755 26.4009 38.7834 26.2382 38.9887 26.0148C39.1483 26.2344 39.3232 26.4426 39.5171 26.6319C39.1826 26.8704 38.8861 27.1505 38.5325 27.3738C38.3691 27.4761 38.198 27.5745 38.0308 27.6767C37.9662 27.5707 37.9053 27.4723 37.8521 27.3776C37.7609 27.2186 37.6811 27.0483 37.605 26.8779L37.6088 26.8779ZM37.9852 23.9592C38.084 24.2734 38.2018 24.5801 38.3387 24.8791C38.0156 24.9927 37.7229 25.182 37.4112 25.3107C37.3314 25.3447 37.2477 25.3712 37.1641 25.3977C37.1033 25.0646 37.0653 24.7163 37.0501 24.3529C37.396 24.2848 37.7419 24.1636 37.9852 23.9554L37.9852 23.9592ZM37.0425 24.069C37.0425 24.0236 37.0425 23.9819 37.0425 23.9365C37.0425 23.6336 37.0615 23.327 37.0919 23.0166C37.3276 22.9712 37.548 22.8841 37.7001 22.7857C37.7647 23.1302 37.8445 23.4784 37.9472 23.8191C37.6887 23.8608 37.4454 23.9781 37.1907 24.0387C37.1413 24.0501 37.0957 24.0576 37.0463 24.0652L37.0425 24.069ZM38.4109 25.0419C38.5439 25.3183 38.696 25.587 38.8671 25.8369C38.5858 25.9694 38.3273 26.2041 38.065 26.3631C37.8863 26.4729 37.7039 26.5713 37.5252 26.6735C37.3998 26.3593 37.3009 26.0299 37.2249 25.6855C37.3276 25.64 37.4302 25.5908 37.5252 25.5492C37.8293 25.4129 38.1638 25.2653 38.4109 25.0381L38.4109 25.0419ZM38.791 27.5139C39.0761 27.2792 39.3954 27.0331 39.6311 26.7454C39.7451 26.8514 39.8592 26.9499 39.9846 27.0407C40.0759 27.1089 40.1709 27.1694 40.2659 27.2262C40.0302 27.5291 39.8554 27.8735 39.5969 28.1688C39.3992 28.396 39.1788 28.6042 38.9697 28.82C38.6618 28.5247 38.4071 28.2143 38.2056 27.9265C38.4147 27.8016 38.6124 27.6578 38.791 27.5101L38.791 27.5139ZM39.7718 28.3657C40.0074 28.059 40.2811 27.6881 40.4066 27.3133C40.684 27.4723 40.9767 27.5858 41.2846 27.6653C41.1706 28.1158 40.9881 28.536 40.7525 28.9373C40.5966 29.2023 40.38 29.4332 40.2165 29.6906C39.8212 29.4976 39.4715 29.2591 39.1712 29.0017C39.3954 28.8162 39.6007 28.5928 39.7718 28.3657ZM41.4785 27.7146C41.6762 27.7562 41.8776 27.7827 42.0829 27.7941C42.0829 28.5852 41.9879 29.3272 41.87 30.1033C41.6914 30.0957 41.5127 30.0844 41.3265 30.0654C40.9995 30.0049 40.6954 29.9102 40.4142 29.7891C41.0071 29.331 41.3227 28.4149 41.4785 27.7146ZM42.273 27.7865C42.4744 27.7865 42.6759 27.7713 42.885 27.7373C43.037 28.1045 43.1967 28.4565 43.2689 28.854C43.3373 29.225 43.3183 29.5922 43.3335 29.9632C42.9458 30.0503 42.5429 30.0957 42.1247 30.0957C42.3642 29.3651 42.3946 28.536 42.273 27.7827L42.273 27.7865ZM43.0674 27.7146C43.2157 27.6881 43.3639 27.654 43.516 27.6086C43.5844 27.5896 43.6528 27.5631 43.7212 27.5404C43.9189 27.8395 44.1242 28.131 44.2876 28.4565C44.4435 28.7745 44.5613 29.119 44.721 29.437C44.3446 29.6528 43.9417 29.8156 43.5198 29.9291C43.6718 29.2212 43.4704 28.3278 43.0674 27.7146ZM43.8809 27.4798C44.1888 27.3549 44.4777 27.1884 44.7438 26.9839C45.2417 27.3966 45.618 27.9303 45.8841 28.5171C45.7739 28.6307 45.6713 28.7442 45.5534 28.8465C45.3596 29.0168 45.1543 29.1607 44.9414 29.2969C44.8046 28.6496 44.3408 27.9493 43.8809 27.4798ZM44.892 26.8666C45.0707 26.7151 45.2341 26.541 45.3938 26.3517C45.6523 26.4842 45.9146 26.5864 46.1502 26.7681C46.3783 26.9423 46.5722 27.1618 46.7432 27.3928C46.5303 27.7411 46.3023 28.0704 46.0438 28.3581C45.8271 27.7411 45.4242 27.2413 44.892 26.8628L44.892 26.8666ZM45.5154 26.1965C45.6979 25.9542 45.8651 25.6892 46.021 25.394C46.5265 25.5492 46.9447 25.7952 47.3666 26.1057C47.2146 26.5107 47.0359 26.8931 46.8344 27.2451C46.5341 26.7795 46.0514 26.3366 45.5154 26.1965ZM46.1122 25.216C46.2415 24.9473 46.3593 24.6633 46.4695 24.3529C46.6824 24.4248 46.9181 24.4513 47.1309 24.5346C47.3476 24.6217 47.5529 24.7428 47.7429 24.8753C47.6555 25.2501 47.5491 25.606 47.4236 25.9505C47.0739 25.5908 46.595 25.341 46.1122 25.2123L46.1122 25.216ZM46.5303 24.1636C46.595 23.963 46.6558 23.7586 46.7128 23.5428C46.9105 23.5428 47.1081 23.5163 47.3096 23.5466C47.5301 23.5806 47.7353 23.6488 47.9368 23.7434C47.8988 24.069 47.8494 24.387 47.7848 24.6974C47.435 24.4211 46.9599 24.1523 46.5341 24.1636L46.5303 24.1636ZM46.7584 23.3535C46.7812 23.2551 46.8078 23.1567 46.8306 23.0507L48.0052 22.9825C47.9938 23.1794 47.971 23.3724 47.952 23.5655C47.5909 23.3838 47.1423 23.2702 46.7584 23.3535ZM37.6697 22.6532C37.4834 22.6759 37.3047 22.7289 37.1185 22.7592C37.1527 22.4715 37.1983 22.18 37.2553 21.8885C37.3618 21.8885 37.472 21.8847 37.5632 21.8355C37.586 22.1005 37.624 22.3768 37.6697 22.6532ZM36.6966 22.7667C36.6966 22.7667 36.6965 22.7402 36.7004 22.7251C36.7004 22.7402 36.7004 22.7516 36.6966 22.7667ZM38.0498 22.4412C38.0422 22.3957 38.0384 22.3541 38.0308 22.3087C38.0422 22.3541 38.0498 22.3957 38.065 22.4412C38.0612 22.4412 38.0574 22.4412 38.0498 22.4412ZM58.7665 22.1951C58.7665 22.1951 58.7399 22.1875 58.7247 22.1875C54.2849 22.2898 49.8488 22.3692 45.409 22.3844C43.0598 22.392 40.646 22.2405 38.2969 22.4185C38.3273 22.161 38.3387 21.8998 38.3387 21.6386C38.4033 21.6386 38.4717 21.6386 38.5478 21.6386C38.5554 21.7787 38.5592 21.9188 38.5668 22.0588C38.5706 22.161 38.7416 22.1535 38.7492 22.0513C38.7568 21.915 38.7606 21.7787 38.7682 21.6424C38.8328 21.6424 38.8975 21.6424 38.9697 21.6424C38.9811 21.8014 38.9925 21.9566 39.0039 22.108C39.0115 22.2103 39.175 22.1989 39.1826 22.1005C39.1978 21.949 39.2092 21.7976 39.2244 21.6424C39.2776 21.6424 39.3308 21.6424 39.3878 21.6424C39.3954 21.7106 39.3992 21.7825 39.4068 21.8506C39.4182 21.9377 39.5361 21.9188 39.5513 21.843C39.5627 21.7787 39.5741 21.7106 39.5817 21.6424C39.6463 21.6424 39.7185 21.6424 39.7832 21.6424C39.787 21.6765 39.7908 21.7143 39.7946 21.7484C39.8098 21.8506 39.9466 21.8317 39.9656 21.7408C39.9732 21.7106 39.9732 21.6765 39.977 21.6424C43.5388 21.6576 50.9968 21.6576 58.5042 21.4569C58.6829 21.4531 58.854 21.4456 59.0288 21.4418C58.9414 21.6841 58.854 21.9339 58.7741 22.1838L58.7665 22.1951ZM37.5176 20.9383C37.5176 21.1692 37.529 21.4115 37.548 21.6651C37.4682 21.6348 37.3846 21.6386 37.3009 21.6462C37.3656 21.3509 37.4378 21.0594 37.5214 20.7641C37.5214 20.8209 37.5214 20.8777 37.5214 20.9383L37.5176 20.9383ZM59.1809 17.9174C59.6142 17.9325 60.0475 17.9514 60.4847 17.9666C60.2414 18.4284 60.0133 18.8978 59.8043 19.3862L40.0416 19.3862C40.0416 19.3407 40.0416 19.2915 40.0416 19.2423C40.0416 19.0871 39.806 19.0644 39.7984 19.2196C39.7984 19.2726 39.7946 19.3294 39.7908 19.3862L39.6805 19.3862C39.6805 19.2537 39.6805 19.1212 39.6881 18.9925C39.6919 18.9584 39.6881 18.9357 39.6653 18.9168C39.6083 18.8297 39.4448 18.8373 39.441 18.966C39.4372 19.106 39.4296 19.2461 39.422 19.3862L39.2928 19.3862C39.2814 19.1704 39.2662 18.9584 39.2396 18.7502C39.2206 18.5988 39.0001 18.6177 38.9773 18.7615C38.9469 18.966 38.9279 19.178 38.9165 19.3862L38.8138 19.3862C38.8138 19.1855 38.8176 18.9887 38.8214 18.788C38.8214 18.5723 38.4831 18.542 38.4869 18.7578C38.4869 18.9698 38.4945 19.178 38.4945 19.3862L38.3615 19.3862C38.3919 18.9205 38.4299 18.4587 38.4603 17.9931C38.5059 17.8568 38.5516 17.7167 38.6048 17.5804C41.1326 17.429 49.712 17.5691 59.1771 17.9174L59.1809 17.9174ZM60.8002 17.3987C60.2832 17.3798 59.7663 17.3571 59.2531 17.3382C49.4079 16.9634 40.665 16.8233 38.9241 16.8498C38.9355 16.8233 38.9469 16.793 38.9583 16.7665C39.0419 16.5848 39.1331 16.4069 39.2282 16.229C46.5418 16.2441 53.8705 16.9028 61.1689 16.7817C61.0435 16.9823 60.9218 17.1867 60.8002 17.3949L60.8002 17.3987ZM61.3324 16.5318C58.5499 16.1684 55.7103 16.051 52.8708 15.9905C52.5857 14.8359 52.2284 13.7418 51.8065 12.7613C51.3313 11.6521 50.7421 10.5846 50.0541 9.57762C52.6769 9.3467 55.4214 9.70255 57.9112 10.5732C59.9259 11.2963 61.8417 12.4131 63.4915 13.8137C63.3736 13.9387 63.252 14.0636 63.1379 14.1923C62.4765 14.9229 61.8759 15.7065 61.3362 16.5356L61.3324 16.5318ZM39.4867 15.7633C39.5361 15.6763 39.5817 15.5892 39.6349 15.5021C40.0682 14.8245 40.5472 14.1696 41.0946 13.5904C41.6572 13.015 42.2159 12.4963 42.904 12.0421C43.1586 11.8452 43.4399 11.69 43.7174 11.5234C44.1812 12.0988 44.5955 12.7197 44.9528 13.3822C45.4052 14.215 45.5572 14.9532 45.8043 15.8504C43.6984 15.7936 41.5887 15.7444 39.4829 15.7595L39.4867 15.7633ZM45.8689 14.5217C46.1692 14.8472 46.3935 15.2296 46.614 15.6876L46.1882 15.68C46.1578 15.5665 46.1274 15.4567 46.1008 15.3469C46.0286 15.0668 45.9564 14.7942 45.8689 14.5217ZM47.6479 15.4756C47.876 14.5784 48.4424 12.6894 48.3511 11.7695C47.0397 10.8307 46.3745 10.6679 45.7701 10.5051C46.8116 10.1038 47.9976 9.77447 49.0126 9.60412C48.9897 9.98268 48.8187 10.3461 48.6438 10.8004C48.4652 11.2736 48.6856 11.8036 49.1418 12.0156C49.7842 12.3108 50.3506 12.6743 51.1032 13.0869C51.3579 13.227 51.5176 13.4844 51.548 13.7683C51.6012 14.3362 51.5632 15.0176 51.4149 15.964C50.5483 15.9488 49.6816 15.9375 48.8187 15.9223C48.1611 15.6763 47.7467 15.5476 47.6441 15.4718L47.6479 15.4756ZM65.9052 16.422C65.9052 16.422 65.9319 16.388 65.9433 16.3728C66.0307 16.4864 66.1143 16.6 66.1979 16.7135C66.0345 16.7135 65.871 16.7135 65.7076 16.7173C65.776 16.6189 65.8368 16.5167 65.9052 16.4182L65.9052 16.422ZM89.739 19.2802C89.9139 19.3142 90.0887 19.3483 90.2674 19.3862L64.2441 19.3862C64.4228 18.966 64.6242 18.5496 64.8447 18.1407C75.5642 18.5836 86.1734 19.1325 89.739 19.2802ZM65.5974 16.9369C73.0896 17.7811 80.6655 17.7054 88.0969 18.9773C83.2427 18.5079 74.2072 17.9855 65.1564 17.5842C65.2895 17.3609 65.4301 17.1413 65.5707 16.9255C65.5783 16.9255 65.5821 16.9369 65.5936 16.9369L65.5974 16.9369ZM70.2387 9.3467C70.6188 9.44134 71.246 9.63819 71.6869 9.93347C71.877 9.56626 72.2609 9.03628 72.4624 8.87349C72.7437 8.94542 73.1846 9.08549 73.5343 9.28992C73.6978 8.97571 74.0209 8.529 74.1919 8.39272C74.4466 8.45708 74.8648 8.58957 75.1689 8.78643C75.3703 8.58957 75.6592 8.35865 75.8037 8.29429C75.9899 8.40029 76.2864 8.58957 76.4803 8.80914C76.6361 8.65393 76.8642 8.47222 76.9782 8.42301C77.1341 8.51008 77.3964 8.67664 77.5408 8.86214C77.2938 9.11199 77.0125 9.40727 76.9821 9.43377C76.7768 9.24827 76.5867 9.06278 76.4461 8.96056C76.1496 9.25963 75.8493 9.58141 75.8075 9.60791C75.5604 9.38077 75.3247 9.15363 75.1461 9.01735C74.9028 9.45648 74.6633 9.90319 74.6253 9.94861C74.2642 9.7669 73.9183 9.57383 73.6598 9.46784C73.3519 10.0243 73.0212 10.6414 72.9755 10.6982C72.4928 10.4521 72.0366 10.1947 71.7287 10.0963C71.3448 10.7852 70.9343 11.5537 70.8773 11.6256C70.7974 11.584 70.7214 11.5461 70.6416 11.5045C70.3071 11.1032 69.9042 10.6527 69.5316 10.2401C69.7711 9.86911 70.0676 9.49055 70.2463 9.34291L70.2387 9.3467ZM47.7733 2.52879C48.3131 2.88464 49.0506 3.41084 50.0617 4.18689C50.2518 4.33075 50.5292 4.30803 50.6775 4.12254C51.3123 3.32756 52.6579 2.56664 53.346 2.24487C53.7109 2.52122 54.5548 3.42977 55.3112 4.56924C55.448 4.77366 55.7369 4.84559 55.9498 4.71688C56.8621 4.16418 58.4016 3.7364 58.9832 3.64934C59.5268 4.4216 60.0475 5.47022 60.4429 6.36363C60.5417 6.58698 60.7926 6.70433 61.0283 6.63998C62.1154 6.33713 63.4573 6.03049 64.1301 6.14028C64.5102 6.85197 65.1716 8.15423 65.4301 9.2937C65.4871 9.54355 65.6962 9.72147 65.9509 9.74419C67.0532 9.83504 68.4863 10.0168 69.0869 10.3612C69.1743 11.0692 69.3074 12.3146 69.1971 13.367C69.1553 13.757 69.4252 14.1128 69.8091 14.1923C70.7062 14.3702 71.7097 14.6276 72.1469 14.9381C72.1583 15.4075 72.1659 16.1381 72.0937 16.8612C70.7214 16.7779 69.353 16.7249 67.9883 16.7097C68.1898 16.1268 68.3875 15.5362 68.5509 15.0365C68.703 14.5709 68.3913 14.0863 67.9047 14.0295C66.2968 13.8402 64.6204 13.7645 64.4494 13.7077C64.7801 12.7803 65.0538 11.6976 65.1716 10.8496C65.2286 10.4218 64.8295 10.0698 64.4076 10.172C62.716 10.5884 61.0169 11.1714 60.8154 11.1789C60.7888 10.1152 60.7394 8.85835 60.5721 7.94602C60.5113 7.62045 60.154 7.44253 59.8537 7.5826C58.4966 8.22237 57.0256 9.00978 56.8393 9.04385C56.4744 7.76431 55.9878 6.48098 55.6495 5.75793C55.5203 5.48158 55.1516 5.40965 54.9273 5.62164C53.7337 6.74219 52.734 7.78702 52.5515 7.86652C51.7799 6.94661 51.4263 6.17813 50.9246 5.37937C50.7573 5.11059 50.362 5.11437 50.1985 5.37937C49.3091 6.83305 48.5944 8.29808 48.4386 8.42679C47.4274 7.42739 46.6368 6.90118 45.8575 6.41284C45.5192 6.20084 45.0783 6.3447 44.93 6.7119C44.3484 8.15801 44.2002 10.0168 44.0747 10.1644C43.4475 10.013 42.0335 9.40348 41.1364 9.14227C40.6004 8.98706 40.2849 9.2142 40.2051 9.76312C39.9998 11.1373 40.2013 12.7462 40.1139 12.909C38.753 12.6818 37.9281 12.678 37.1299 12.7954C36.6433 12.8635 36.2822 13.2951 36.3202 13.7797C36.4761 15.7065 37.8293 16.9634 37.7951 17.1602C36.2252 16.8574 35.1266 17.3306 34.2295 17.8454C33.7924 18.0991 33.648 18.6631 33.9102 19.0985C34.8263 20.6279 36.0047 21.1503 36.0731 21.332C34.3398 21.9188 33.724 22.9484 33.3401 23.9176C33.2222 24.2166 33.2792 24.5611 33.4807 24.8148C34.2448 25.5643 35.4802 26.3858 36.096 26.7644C35.4802 27.5631 34.9404 28.3392 34.6743 29.2894C34.507 29.8837 34.9746 30.4743 35.5942 30.4516C37.3047 30.3872 38.0422 30.1222 38.2399 30.126C38.3007 30.4667 38.4261 30.8339 38.582 31.2049C38.9925 31.7462 39.5741 32.4617 40.0492 32.9804C40.3001 33.2529 40.7107 33.3059 41.0186 33.1015C42.5314 32.0869 42.9344 31.2465 43.1092 31.1519C43.4095 31.7349 44.5347 32.4239 45.4888 32.8895C45.9221 33.1015 46.4429 32.8516 46.5494 32.3822C46.9295 30.6976 46.671 29.8421 46.7318 29.6566C47.2982 29.7096 48.6666 29.6225 49.6892 29.3197C50.0959 29.1985 50.3278 28.767 50.1909 28.3695C49.5675 26.5675 48.8187 25.9504 48.7655 25.7498C49.4345 25.5946 50.438 24.599 51.1298 23.7737C51.3693 23.4898 51.4149 23.0961 51.2629 22.7667C51.5328 22.7667 51.8027 22.763 52.0764 22.7592C51.9699 23.0052 51.9623 23.2816 52.0725 23.5276C52.3919 24.2507 52.5743 25.0608 52.867 25.8596C53.0229 26.2874 52.9772 26.7681 52.6998 27.1316C52.3348 27.6086 51.8141 28.131 51.0234 28.8086C50.8676 28.9411 50.7801 29.1266 50.7573 29.3272C50.6585 30.2055 50.3164 31.0724 50.0997 32.0112C50.0009 32.4466 49.693 32.8024 49.271 32.9539C48.6552 33.1734 47.8532 33.3362 46.6672 33.4801C46.5113 33.499 46.3631 33.5671 46.2415 33.6731C45.4508 34.3697 44.4701 34.8807 43.5616 35.6152C43.132 35.4562 42.0031 34.964 40.6346 34.0328C40.4826 33.9268 40.2963 33.8813 40.1139 33.9116C39.1369 34.063 37.453 34.1615 36.9436 34.0706C36.7498 34.0706 36.5597 34.0706 36.3734 34.0706C36.0579 33.6883 35.3471 32.3141 34.4804 30.6787C34.4196 30.5613 34.3322 30.4591 34.2295 30.3796C33.3058 29.6641 32.1807 28.7707 31.295 27.8887C31.409 27.4496 31.9716 26.2684 32.6976 24.7996C32.8573 24.4778 32.8155 24.0955 32.5874 23.8154C32.1389 23.2627 31.6257 22.5434 30.9339 21.3926C31.0707 21.0632 31.219 20.7301 31.3748 20.4007C31.3938 20.3629 31.3748 20.3326 31.352 20.3099C31.7321 19.8367 32.2491 19.2272 32.8459 18.5344C33.055 18.2921 33.1234 17.9552 33.0208 17.6524C32.671 16.6151 32.5494 15.4302 32.424 14.5746C32.9295 14.1393 34.2524 13.5071 35.503 12.9923C35.8679 12.8446 36.0922 12.4774 36.0617 12.0837C35.9591 10.7815 35.9553 9.71769 36.1226 8.84321C37.0006 8.69179 38.2246 8.63122 39.2738 8.63122C39.6957 8.63122 40.0644 8.35108 40.1671 7.94602C40.399 7.01097 40.7031 6.06078 41.0338 5.19008C41.1098 4.99323 41.296 4.86073 41.5089 4.85695C42.4212 4.83423 43.6566 5.09166 44.5955 5.47022C44.892 5.58757 45.2379 5.474 45.4052 5.20522C46.0666 4.14904 47.1005 2.80892 47.7658 2.51743L47.7733 2.52879ZM40.9349 30.3948C41.0452 30.4213 41.1554 30.4478 41.2694 30.4667C41.1554 30.444 41.0452 30.4213 40.9349 30.3948ZM36.8144 2.94521C37.2971 3.14206 38.6694 4.08846 40.3001 5.18251C37.9776 6.35984 37.0349 7.20025 36.8258 7.30625C36.0427 6.64376 35.3091 5.96992 34.3588 5.56486C34.0357 5.42858 33.8266 5.48537 33.6518 5.78821C32.8269 7.22297 32.6786 7.95738 32.5874 8.1088C31.7816 7.90816 30.8769 7.84381 30.223 7.84381C29.9189 7.84381 29.6529 8.04823 29.5616 8.33972C29.5236 8.46465 29.4894 8.58201 29.4552 8.69557C29.4932 8.06337 29.5692 7.43496 29.6871 6.80276C29.8657 6.17813 30.1204 5.56864 30.4853 4.98188C30.8731 4.92509 32.0134 4.99323 33.4237 5.07273C33.629 5.08409 33.8266 5.0008 33.9711 4.85695C34.7313 4.09982 35.8299 3.44869 36.8106 2.94142L36.8144 2.94521ZM28.1742 3.84997C28.2388 7.13211 28.3414 10.4521 28.5619 13.7342C28.4631 14.2453 28.4137 14.7374 28.2578 15.2296C28.2274 15.2447 28.2198 15.2863 28.2312 15.3204C28.2312 15.328 28.2274 15.3356 28.2236 15.3431C28.0753 15.7633 27.8625 16.1495 27.6914 16.5583C27.6344 16.5205 27.5736 16.528 27.528 16.5621C27.9841 12.0383 28.1856 6.40148 25.92 2.30544C26.3648 2.40765 26.7753 2.46822 27.1821 2.72185C27.623 2.99821 27.9233 3.38055 28.1894 3.8159C28.1856 3.82726 28.1742 3.83483 28.1742 3.84619L28.1742 3.84997ZM28.349 3.75155C28.349 3.75155 28.3376 3.72505 28.3338 3.7099C28.349 3.69476 28.3642 3.67583 28.3794 3.66069C28.368 3.69098 28.3566 3.72126 28.349 3.75155ZM28.6341 0.707904C29.2081 0.77983 29.6529 1.05239 30.1394 1.34389C30.3523 1.54831 30.5537 1.76409 30.7666 1.96095C29.7745 2.06694 28.6759 2.62343 28.254 3.5282C27.8701 2.73321 26.935 2.02152 26.0379 2.05559C26.4218 1.6316 26.8057 1.2341 27.2923 0.908541C27.7446 0.776046 28.14 0.647334 28.6303 0.707904L28.6341 0.707904Z" fill="#ECECEC"/>
</svg>
