<svg width="40" height="37" viewBox="0 0 40 37" fill="none" xmlns="http://www.w3.org/2000/svg">
<path fill-rule="evenodd" clip-rule="evenodd" d="M16 0.0322266H18.2857C24.7564 0.0322266 30.1805 4.60692 31.6236 10.7609C31.8697 11.8104 32 12.9058 32 14.0322C32 21.7642 25.8599 28.0322 18.2857 28.0322H9.92323H4.57143C2.0467 28.0322 0 25.9429 0 23.3656V16.3656C0 7.34491 7.16345 0.0322266 16 0.0322266ZM18.8571 32.0322H12.1163C14.5898 34.5066 17.9775 36.0322 21.7143 36.0322H30.0768H35.4286C37.9533 36.0322 40 33.9429 40 31.3655V24.3655C40 20.2199 38.4871 16.4351 35.9941 13.5549C35.998 13.7135 36 13.8726 36 14.0322C36 23.9733 28.3249 32.0322 18.8571 32.0322Z" fill="url(#paint0_linear_125_1523)"/>
<defs>
<linearGradient id="paint0_linear_125_1523" x1="40" y1="0.0322266" x2="4.19891" y2="39.8112" gradientUnits="userSpaceOnUse">
<stop stop-color="#FFEEDB"/>
<stop offset="1" stop-color="#BFAD99"/>
</linearGradient>
</defs>
</svg>
