<svg width="61" height="28" viewBox="0 0 61 28" fill="none" xmlns="http://www.w3.org/2000/svg">
<path fill-rule="evenodd" clip-rule="evenodd" d="M33.0899 13.1298C33.1208 14.6556 31.9081 15.9148 30.3823 15.944C28.8582 15.9732 27.5973 14.7622 27.568 13.2364C27.5388 11.7106 28.7515 10.4514 30.2756 10.4204C31.8014 10.3912 33.0606 11.6039 33.0899 13.1298Z" fill="url(#paint0_linear_125_1545)"/>
<path d="M31.4814 27.6694C31.0324 27.678 30.5817 27.678 30.1259 27.6694C17.3809 27.3924 2.3653 18.0827 0.667459 15.2977L0 14.2019L0.856656 13.2472C1.33659 12.7105 13.0598 -0.158294 30.7503 0.0343683C48.4529 0.228751 58.8153 12.7363 59.2488 13.2679L60.25 14.4995L59.1061 15.6005C57.0642 17.5666 46.134 27.389 31.4814 27.6711V27.6694ZM4.58436 14.3998C8.05056 17.1486 19.6722 25.01 30.2755 25.2405C42.3272 25.4968 51.8382 17.3791 55.4627 14.2467C52.4833 11.2466 43.4763 3.10493 30.5353 2.96215C17.4514 2.80561 7.82693 11.3533 4.58436 14.398V14.3998Z" fill="url(#paint1_linear_125_1545)"/>
<path d="M29.4498 4.68945C25.1184 5.13326 21.776 8.79558 21.7898 13.2113C25.3317 12.4837 28.2337 9.14821 29.4498 4.68945Z" fill="url(#paint2_linear_125_1545)"/>
<path d="M38.8627 12.8802C38.7079 8.46793 35.2245 4.93636 30.8776 4.66113C32.264 9.06829 35.295 12.2902 38.8627 12.8802Z" fill="url(#paint3_linear_125_1545)"/>
<path d="M21.7949 13.4854C21.9497 17.8994 25.4332 21.4292 29.7784 21.7062C28.3919 17.2973 25.3609 14.0771 21.7949 13.4854Z" fill="url(#paint4_linear_125_1545)"/>
<path d="M31.2078 21.6789C35.5393 21.2333 38.8851 17.571 38.8679 13.1553C35.326 13.8829 32.4223 17.2201 31.2078 21.6789Z" fill="url(#paint5_linear_125_1545)"/>
<defs>
<linearGradient id="paint0_linear_125_1545" x1="33.0905" y1="10.4199" x2="27.5659" y2="15.9429" gradientUnits="userSpaceOnUse">
<stop stop-color="#FFEEDB"/>
<stop offset="1" stop-color="#BFAD99"/>
</linearGradient>
<linearGradient id="paint1_linear_125_1545" x1="60.25" y1="0.0322266" x2="39.2947" y2="45.7048" gradientUnits="userSpaceOnUse">
<stop stop-color="#FFEEDB"/>
<stop offset="1" stop-color="#BFAD99"/>
</linearGradient>
<linearGradient id="paint2_linear_125_1545" x1="29.4498" y1="4.68945" x2="20.9762" y2="12.3062" gradientUnits="userSpaceOnUse">
<stop stop-color="#FFEEDB"/>
<stop offset="1" stop-color="#BFAD99"/>
</linearGradient>
<linearGradient id="paint3_linear_125_1545" x1="38.8627" y1="4.66113" x2="30.647" y2="12.643" gradientUnits="userSpaceOnUse">
<stop stop-color="#FFEEDB"/>
<stop offset="1" stop-color="#BFAD99"/>
</linearGradient>
<linearGradient id="paint4_linear_125_1545" x1="29.7784" y1="13.4854" x2="21.5611" y2="21.4654" gradientUnits="userSpaceOnUse">
<stop stop-color="#FFEEDB"/>
<stop offset="1" stop-color="#BFAD99"/>
</linearGradient>
<linearGradient id="paint5_linear_125_1545" x1="38.8679" y1="13.1553" x2="30.3928" y2="20.7719" gradientUnits="userSpaceOnUse">
<stop stop-color="#FFEEDB"/>
<stop offset="1" stop-color="#BFAD99"/>
</linearGradient>
</defs>
</svg>
