<svg width="70" height="40" viewBox="0 0 70 40" fill="none" xmlns="http://www.w3.org/2000/svg">
<path d="M24.0451 2.23438C26.0636 3.92367 27.9051 5.35676 29.3036 7.64065C28.3974 9.64275 27.8256 11.6508 27.6319 13.8428L27.4138 13.6666C25.6518 12.2364 24.0418 11.1947 22.052 10.1149C22.0238 9.91341 21.9976 9.71166 21.9734 9.50944C21.6786 7.00106 22.4747 4.21801 24.0451 2.23438Z" fill="url(#paint0_linear_125_1488)"/>
<path d="M45.9129 2.13086L45.9724 2.14625C46.2411 2.45124 46.4202 2.89831 46.5966 3.26345C47.5994 5.33778 48.1275 7.59396 48.2537 9.88969C47.6515 10.2236 47.0282 10.5189 46.432 10.8641C45.7818 11.2472 45.1483 11.6564 44.532 12.0917C43.9153 12.5269 43.3179 12.9865 42.7392 13.471L42.3485 13.7949C42.1818 11.5648 41.5741 9.56292 40.6961 7.51179C40.7771 7.37658 40.8602 7.2428 40.945 7.11019C41.0298 6.97735 41.1167 6.84593 41.2052 6.71569C41.2938 6.58545 41.3842 6.45664 41.4766 6.329C41.5689 6.20137 41.6632 6.07516 41.7591 5.95013C41.8552 5.8251 41.9528 5.70173 42.0522 5.57955C42.1517 5.45736 42.253 5.33683 42.356 5.21772C42.459 5.09861 42.5637 4.98093 42.67 4.86466C42.7764 4.74839 42.8843 4.63379 42.994 4.52084C43.1036 4.40765 43.2149 4.29612 43.3279 4.18624C43.4408 4.07637 43.5552 3.96815 43.671 3.86136C43.787 3.7548 43.9044 3.6499 44.0233 3.54666C44.1422 3.44342 44.2627 3.34183 44.3847 3.24214C44.5066 3.14245 44.6298 3.04442 44.7545 2.94804C44.8793 2.85166 45.0053 2.75742 45.1327 2.6646C45.2601 2.57201 45.3889 2.48108 45.5189 2.39228C45.6489 2.30325 45.7801 2.21634 45.9127 2.1311L45.9129 2.13086Z" fill="url(#paint1_linear_125_1488)"/>
<path d="M18.5614 26.3867C19.7097 26.2717 20.8356 26.4429 21.9737 26.5617C24.5256 28.4002 27.2012 29.8541 30.262 30.6429C30.7877 30.7795 31.3186 30.8908 31.8549 30.9765C32.2859 31.048 32.7355 31.0933 33.1535 31.2216L33.2089 31.2391C31.5416 31.9401 29.9728 32.5287 28.1403 32.6242C27.4394 32.7177 26.6769 32.6748 25.9734 32.6168C22.3094 32.3154 18.8877 30.8596 15.6983 29.1089C14.982 28.7159 14.1883 28.3391 13.5355 27.8494C15.0434 26.9513 16.8272 26.5153 18.5612 26.3867H18.5614Z" fill="url(#paint2_linear_125_1488)"/>
<path d="M50.7222 26.2637C52.7483 26.2878 54.5732 26.7846 56.421 27.5843C52.4724 30.4649 47.4334 32.4992 42.5156 32.6766C40.4899 32.6491 38.4759 32.2001 36.6957 31.2084C37.4477 30.9844 38.2476 30.9416 39.017 30.7943C40.0314 30.6001 41.0395 30.2712 42.0058 29.9101C42.6662 29.6598 43.3127 29.3775 43.9452 29.0633C44.5777 28.7491 45.1931 28.4043 45.7915 28.029C46.3112 27.7003 47.4542 26.7508 47.9198 26.5923C48.7308 26.3162 49.8651 26.3018 50.7222 26.2639V26.2637Z" fill="url(#paint3_linear_125_1488)"/>
<path d="M60.3871 14.6216C61.7714 14.5138 63.2483 14.7755 64.5246 15.3035C61.8986 16.4122 60.0393 19.6684 58.1217 21.706C56.5326 23.3946 54.8248 24.6915 52.7632 25.7469L52.3891 25.9494C51.1573 25.7881 49.9747 25.8819 48.7455 25.9854C49.3918 25.3396 50.0635 24.7313 50.6866 24.0597C52.2397 22.3856 53.6721 20.3882 54.6325 18.3132C55.0315 17.4513 55.3448 16.5588 55.6415 15.6575C57.1073 15.0343 58.8056 14.7333 60.3871 14.6213V14.6216Z" fill="url(#paint4_linear_125_1488)"/>
<path d="M8.67829 14.5017C10.5319 14.3364 12.5537 14.8275 14.2233 15.6196C14.511 16.424 14.7855 17.2414 15.1248 18.0254C16.5065 21.2167 18.6043 23.7189 21.2121 25.9825C20.1304 25.9022 19.0248 25.8238 17.9481 25.9974C15.515 24.8892 13.5198 23.3969 11.6541 21.4867C9.79004 19.5783 7.72187 16.2428 5.23315 15.2786C6.33804 14.8204 7.48768 14.5827 8.67829 14.5017Z" fill="url(#paint5_linear_125_1488)"/>
<path d="M33.5075 31.3559C33.9325 31.4426 34.359 31.5174 34.7935 31.5234C34.704 31.9851 34.5633 32.4194 34.3606 32.8444C33.7495 34.1265 32.6702 35.197 31.5712 36.0774C29.606 37.6519 27.2622 38.5678 24.7264 38.5469C23.8 38.5394 22.878 38.42 21.9549 38.3502C20.6788 38.2536 19.4433 38.2405 18.2193 38.6703C17.9519 38.7766 17.7227 38.9277 17.4899 39.0939C17.5193 38.8943 17.5581 38.6966 17.6062 38.5008C18.277 35.6886 20.7224 33.9294 23.0485 32.5141C24.1427 32.7661 25.2265 32.9744 26.3506 33.0308C28.7403 33.1506 31.4237 32.5501 33.5075 31.3555V31.3559Z" fill="url(#paint6_linear_125_1488)"/>
<path d="M35.3504 31.5094C35.6583 31.4604 35.9749 31.423 36.2754 31.3398C40.1879 33.2546 42.5843 33.3616 46.7749 32.4895C48.6839 33.6564 50.5406 34.7192 51.6888 36.7407C51.9735 37.2415 52.22 37.7776 52.3523 38.3402C52.4037 38.5586 52.444 38.7804 52.4859 39.0006C50.7587 37.6732 47.8021 38.3873 45.7713 38.4901C45.3366 38.5136 44.9021 38.5131 44.4673 38.4885C44.0328 38.4641 43.6006 38.4158 43.1716 38.3435C41.2268 38.0073 39.4802 37.0584 37.9876 35.7897C37.1231 35.0547 36.0234 33.9882 35.5311 32.9643C35.3237 32.5743 35.0575 32.0138 35.0369 31.5693C35.108 31.5002 35.2512 31.517 35.3502 31.5094H35.3504Z" fill="url(#paint7_linear_125_1488)"/>
<path d="M60.154 22.1326C63.8052 21.9699 67.2183 23.4115 70 25.7028C65.8454 24.8818 62.8933 28.7129 59.6636 30.5239C57.9975 31.4583 56.1418 31.9901 54.251 32.2094C52.2759 32.4502 50.2091 32.3657 48.2435 32.0792C50.9387 31.2708 53.4613 30.2142 55.765 28.5732C56.2564 28.2232 56.7653 27.863 57.1988 27.4425C55.913 26.8254 54.5849 26.3362 53.1908 26.0314C54.9981 25.089 56.6095 23.9176 57.9509 22.3741C58.6698 22.2105 59.42 22.1688 60.154 22.1328V22.1326Z" fill="url(#paint8_linear_125_1488)"/>
<path d="M9.18079 22.094C10.0569 22.0449 10.9174 22.1174 11.7884 22.2062C12.2828 22.6199 12.7377 23.0845 13.2314 23.5022C13.53 23.7539 13.8355 23.9966 14.1483 24.2306C14.4608 24.4645 14.78 24.6892 15.1059 24.9045C15.4317 25.1197 15.7632 25.3255 16.1009 25.5216C16.4386 25.7176 16.7817 25.9038 17.1302 26.0797C15.5529 26.4193 14.1305 26.939 12.777 27.8329C14.7819 28.9494 16.7142 30.1436 18.8143 31.0858C19.739 31.5004 20.6862 31.7926 21.6298 32.1523C20.0663 32.5051 18.2875 32.4234 16.7009 32.2975C16.224 32.2946 15.6993 32.2006 15.2266 32.1298C12.8272 31.7704 10.5414 30.9619 8.5914 29.4938C7.29613 28.5185 6.1562 27.4391 4.72217 26.6494C3.3606 25.8997 1.55551 25.2789 0 25.7292C2.67768 23.3745 5.66343 22.3173 9.18079 22.094Z" fill="url(#paint9_linear_125_1488)"/>
<path d="M34.8738 0.0324636C35.04 0.0862161 35.255 0.354506 35.3763 0.47977C38.0447 3.23441 39.7423 5.82684 40.9651 9.46544C41.4929 11.0363 41.8623 12.6245 41.8361 14.2913C40.9895 15.1069 40.2306 16.0161 39.5036 16.938C38.3386 15.2889 36.8115 14.1654 35.0999 13.145C35.0182 13.0979 34.946 13.0463 34.847 13.0612C34.5787 13.1019 34.2127 13.3927 33.9915 13.5423C32.6162 14.473 31.4777 15.5063 30.4389 16.7973C29.6257 16 28.9447 15.0855 28.0939 14.3167C28.1505 13.3877 28.2414 12.4813 28.4351 11.5696C29.3318 7.34849 31.8494 3.0786 34.8736 0.0322266L34.8738 0.0324636Z" fill="url(#paint10_linear_125_1488)"/>
<path d="M34.839 13.6504C35.2605 13.6821 36.6367 14.7342 37.0331 15.057C39.3312 16.9295 40.9125 19.5617 41.2085 22.5397C41.4366 24.8326 40.8379 27.2872 39.3587 29.0819C38.2161 30.4683 36.8711 31.1003 35.1004 31.2699C34.5292 31.2805 33.973 31.2369 33.4206 31.0849C31.7971 30.6376 30.5973 29.416 29.7893 27.9803C29.7526 27.9142 29.7166 27.8477 29.6816 27.7809C29.6463 27.7139 29.6119 27.6466 29.5786 27.5789C29.5449 27.5112 29.5123 27.443 29.4805 27.3743C29.4488 27.3057 29.4175 27.2368 29.3875 27.1676C29.3572 27.0982 29.3278 27.0286 29.2994 26.9585C29.271 26.8884 29.2433 26.8181 29.2163 26.7475C29.1895 26.6767 29.1635 26.6059 29.1384 26.5344C29.1133 26.4631 29.0889 26.3914 29.0657 26.3196C29.0422 26.2477 29.0197 26.1757 28.9982 26.1032C28.9766 26.0308 28.9558 25.9581 28.9359 25.8851C28.916 25.8122 28.8971 25.739 28.8788 25.6656C28.8608 25.5922 28.8435 25.5186 28.8272 25.4447C28.8109 25.3708 28.7955 25.2969 28.7808 25.2226C28.7661 25.1485 28.7526 25.0741 28.7398 24.9995C28.727 24.9249 28.7152 24.8503 28.7043 24.7755C28.6934 24.7007 28.6832 24.6256 28.674 24.5508C28.6648 24.4757 28.6567 24.4007 28.6494 24.3254C28.642 24.2501 28.6356 24.1748 28.63 24.0995C28.6245 24.0242 28.6198 23.9486 28.6162 23.8731C28.6124 23.7975 28.6096 23.722 28.6077 23.6465C28.6058 23.5709 28.6049 23.4954 28.6049 23.4196C28.6049 23.3441 28.6056 23.2685 28.6075 23.1928C28.6091 23.1172 28.612 23.0417 28.6155 22.9662C28.6191 22.8906 28.6236 22.8151 28.629 22.7398C28.6345 22.6645 28.6409 22.5889 28.648 22.5139C28.6553 22.4386 28.6633 22.3635 28.6723 22.2884C28.6813 22.2134 28.6913 22.1386 28.7022 22.0637C28.7131 21.9889 28.7249 21.9143 28.7375 21.8397C28.75 21.7651 28.7637 21.6908 28.7782 21.6167C28.7926 21.5425 28.808 21.4684 28.8244 21.3945C28.8407 21.3207 28.8578 21.247 28.8758 21.1736C28.8937 21.1002 28.9127 21.027 28.9326 20.9539C29.8213 17.7872 32.009 15.2552 34.8397 13.6513L34.839 13.6504Z" fill="url(#paint11_linear_125_1488)"/>
<path d="M11.7663 7.87134C12.2479 7.86874 12.7289 7.8865 13.2091 7.92462C18.1406 8.32433 23.3688 10.7773 27.0517 14.037C28.1753 15.0316 29.1688 16.1563 30.1383 17.2982C28.9785 19.0441 28.2965 21.0232 28.3718 23.1378C28.4656 25.7697 29.4724 28.3439 31.4186 30.1538C31.7494 30.4169 32.08 30.6622 32.4335 30.8938C31.5875 30.7645 30.7471 30.6297 29.9221 30.397C24.6506 28.9094 19.2883 24.4482 16.4859 19.7871C15.8929 18.8013 15.4234 17.741 15.0094 16.6695C14.0888 14.2866 13.5896 11.7472 12.5596 9.40743C12.3261 8.87725 12.0495 8.37595 11.7661 7.87158L11.7663 7.87134Z" fill="url(#paint12_linear_125_1488)"/>
<path d="M57.6201 7.81679C57.903 7.81348 58.1891 7.83219 58.4721 7.8419C57.0376 9.30174 56.0648 13.0708 55.4127 15.0507C55.0776 16.0748 54.6959 17.0814 54.2678 18.0705C53.5517 19.6845 52.5233 21.1796 51.399 22.5343C48.507 26.0195 44.297 29.2989 39.8536 30.4459C39.0679 30.6486 38.2632 30.7592 37.4562 30.8335C37.6353 30.7391 37.8015 30.6301 37.9701 30.5186C39.6348 29.2953 40.7015 27.471 41.204 25.4888C41.9802 22.4271 41.4062 20.0305 39.8308 17.366C40.2362 16.7743 40.7079 16.2053 41.1865 15.6711C42.0595 14.6959 43.0321 13.7627 44.0697 12.9631C47.762 10.1182 52.9528 8.06922 57.6198 7.81679H57.6201Z" fill="url(#paint13_linear_125_1488)"/>
<defs>
<linearGradient id="paint0_linear_125_1488" x1="29.3036" y1="2.23438" x2="18.7856" y2="8.93095" gradientUnits="userSpaceOnUse">
<stop stop-color="#FFEEDB"/>
<stop offset="0.99" stop-color="#BFAD99"/>
</linearGradient>
<linearGradient id="paint1_linear_125_1488" x1="48.2537" y1="2.13086" x2="37.6079" y2="9.02865" gradientUnits="userSpaceOnUse">
<stop stop-color="#FFEEDB"/>
<stop offset="0.99" stop-color="#BFAD99"/>
</linearGradient>
<linearGradient id="paint2_linear_125_1488" x1="33.2089" y1="26.3486" x2="29.5174" y2="37.8212" gradientUnits="userSpaceOnUse">
<stop stop-color="#FFEEDB"/>
<stop offset="0.99" stop-color="#BFAD99"/>
</linearGradient>
<linearGradient id="paint3_linear_125_1488" x1="56.421" y1="26.2637" x2="52.6498" y2="37.8634" gradientUnits="userSpaceOnUse">
<stop stop-color="#FFEEDB"/>
<stop offset="0.99" stop-color="#BFAD99"/>
</linearGradient>
<linearGradient id="paint4_linear_125_1488" x1="64.5246" y1="14.5977" x2="53.7169" y2="29.5732" gradientUnits="userSpaceOnUse">
<stop stop-color="#FFEEDB"/>
<stop offset="0.99" stop-color="#BFAD99"/>
</linearGradient>
<linearGradient id="paint5_linear_125_1488" x1="21.2121" y1="14.4697" x2="10.2728" y2="29.6331" gradientUnits="userSpaceOnUse">
<stop stop-color="#FFEEDB"/>
<stop offset="0.99" stop-color="#BFAD99"/>
</linearGradient>
<linearGradient id="paint6_linear_125_1488" x1="34.7935" y1="31.3555" x2="29.0256" y2="44.2529" gradientUnits="userSpaceOnUse">
<stop stop-color="#FFEEDB"/>
<stop offset="0.99" stop-color="#BFAD99"/>
</linearGradient>
<linearGradient id="paint7_linear_125_1488" x1="52.4859" y1="31.3398" x2="46.8462" y2="44.1854" gradientUnits="userSpaceOnUse">
<stop stop-color="#FFEEDB"/>
<stop offset="0.99" stop-color="#BFAD99"/>
</linearGradient>
<linearGradient id="paint8_linear_125_1488" x1="70" y1="22.1201" x2="62.1215" y2="38.8756" gradientUnits="userSpaceOnUse">
<stop stop-color="#FFEEDB"/>
<stop offset="0.99" stop-color="#BFAD99"/>
</linearGradient>
<linearGradient id="paint9_linear_125_1488" x1="21.6298" y1="22.0781" x2="13.5991" y2="38.8981" gradientUnits="userSpaceOnUse">
<stop stop-color="#FFEEDB"/>
<stop offset="0.99" stop-color="#BFAD99"/>
</linearGradient>
<linearGradient id="paint10_linear_125_1488" x1="41.8374" y1="0.0322266" x2="25.2878" y2="13.4862" gradientUnits="userSpaceOnUse">
<stop stop-color="#FFEEDB"/>
<stop offset="0.99" stop-color="#BFAD99"/>
</linearGradient>
<linearGradient id="paint11_linear_125_1488" x1="41.2556" y1="13.6504" x2="24.5597" y2="25.6369" gradientUnits="userSpaceOnUse">
<stop stop-color="#FFEEDB"/>
<stop offset="0.99" stop-color="#BFAD99"/>
</linearGradient>
<linearGradient id="paint12_linear_125_1488" x1="32.4335" y1="7.87109" x2="9.54429" y2="28.4188" gradientUnits="userSpaceOnUse">
<stop stop-color="#FFEEDB"/>
<stop offset="0.99" stop-color="#BFAD99"/>
</linearGradient>
<linearGradient id="paint13_linear_125_1488" x1="58.4721" y1="7.81641" x2="35.5498" y2="28.7456" gradientUnits="userSpaceOnUse">
<stop stop-color="#FFEEDB"/>
<stop offset="0.99" stop-color="#BFAD99"/>
</linearGradient>
</defs>
</svg>
