<svg width="117" height="167" viewBox="0 0 117 167" fill="none" xmlns="http://www.w3.org/2000/svg">
<path d="M69.7202 148.965C72.3978 159.007 63.4271 164.495 63.4271 164.495C62.7585 166.905 65.4344 166.504 65.4344 166.504C70.5217 163.291 78.0189 156.462 73.7348 143.344C72.5011 139.564 70.9995 136.795 69.561 134.491C66.2516 135.742 63.0701 136.372 61.3043 136.654C64.7694 140.588 68.4375 144.165 69.7185 148.967L69.7202 148.965Z" fill="#FFEEDB"/>
<path d="M31.4311 20.6924C31.4311 20.6924 32.7541 25.2652 37.0225 26.5568C37.0225 26.5568 33.1742 22.0941 33.9459 17.6368C33.9459 17.6368 31.0111 19.0543 31.4311 20.6924Z" fill="#FFEEDB"/>
<path d="M37.9201 16.0885C37.9201 16.0885 38.2998 22.4254 43.2472 24.6812C43.2472 24.6812 40.7219 19.9806 41.6057 15.4812L37.9201 16.0885Z" fill="#FFEEDB"/>
<path d="M44.5544 18.0287C44.5544 18.0287 48.5463 17.9482 51.1101 22.3531C53.6721 26.7579 53.8174 32.1008 49.9743 36.924C49.9743 36.924 49.388 37.1952 47.5032 36.1189C47.5032 36.1189 48.6303 38.3782 49.9831 39.3548C49.9831 39.3548 55.6234 32.1673 54.6819 23.4171C53.7404 14.6669 47.0885 15.1779 44.5544 18.0287Z" fill="#FFEEDB"/>
<path d="M55.4274 36.9349C55.4274 36.9349 54.2339 35.4561 53.7928 33.2476C53.7928 33.2476 55.5026 34.7736 56.7259 34.9574L55.4274 36.9332V36.9349Z" fill="#FFEEDB"/>
<path d="M31.7687 21.3364C31.7687 21.3364 31.2455 17.8766 38.9264 16.5448C46.6073 15.2148 48.6217 15.199 51.4392 14.2435C54.2323 13.295 60.0495 10.8397 61.6805 13.876C61.4565 13.5067 60.284 12.1172 56.0471 13.869C56.0471 13.869 60.0792 14.191 60.2647 17.7768C60.4502 21.3627 58.6652 23.2807 58.1104 28.4924C57.5556 33.7022 54.6173 37.6871 52.6433 39.0976C50.6692 40.5082 49.6769 40.6867 49.0574 39.2831C49.0574 39.2831 48.1474 41.7402 49.9289 42.1322C51.7105 42.5242 58.1156 41.3832 60.5797 36.1331C63.0438 30.8829 63.9625 20.9112 75.4761 16.8283L67.9702 2.6337C67.9702 2.6337 59.0904 2.5357 54.7136 2.15069C50.3367 1.76568 49.0627 0.414632 47.1621 1.50841C45.2616 2.60219 40.0569 6.9528 36.0458 8.06583C36.0458 8.06583 33.4243 7.57058 32.222 10.7504C32.0522 11.2299 31.9227 11.8862 32.0242 12.686C32.0242 12.686 31.5535 11.9317 31.8072 10.7539C31.2735 10.6016 30.1097 10.5352 29.1734 12.588C27.9571 15.255 26.6236 18.6396 31.7687 21.3364ZM43.3785 7.34656C43.3785 7.34656 43.3855 7.34656 43.3908 7.34656C43.4923 7.35006 44.3078 7.30282 47.0956 5.18876C50.0934 2.9137 51.6335 3.68548 53.478 5.01726C53.478 5.01726 51 4.30674 50.3874 4.7285C50.3874 4.7285 51.4725 5.57376 51.2082 6.92304C51.2082 6.92304 50.3017 6.30003 47.1149 7.29755C47.1149 7.29755 46.5041 6.9493 46.4306 6.49429C46.4306 6.49429 45.4733 7.52332 43.3925 7.34656C43.3855 7.34656 43.3803 7.34656 43.3803 7.34656H43.3785ZM34.8453 11.6727C36.2016 10.9254 37.7626 11.1127 37.7626 11.1127C36.2138 13.6642 34.8453 11.6727 34.8453 11.6727ZM28.9652 15.1203C29.2609 14.24 30.0747 13.8392 30.0747 13.8392C30.6627 15.9288 28.9652 15.1203 28.9652 15.1203Z" fill="#FFEEDB"/>
<path d="M55.676 17.3427C55.676 17.3427 58.791 20.0115 56.5387 24.4601C54.6574 28.1772 51.4006 28.4327 45.1914 33.4466C39.8608 37.75 39.684 40.123 39.684 40.123C39.684 40.123 39.4775 36.4794 43.5254 33.2366C43.5254 33.2366 39.761 34.3216 37.5997 36.6054C37.5997 36.6054 38.3767 34.3916 46.1434 30.4628C53.9119 26.5339 58.8173 23.3541 55.6742 17.3444L55.676 17.3427Z" fill="#FFEEDB"/>
<path d="M58.8857 72.2051C63.5408 69.8023 68.007 66.7922 72.0741 63.6474C72.2351 63.7051 72.3978 63.7629 72.5623 63.8206C74.2529 64.5487 76.5437 65.0789 78.2797 65.4114C80.658 65.9084 83.2009 66.2305 85.7489 66.2252C89.473 66.2217 93.1621 65.5724 96.692 63.9134C97.6212 63.4811 98.372 63.0401 98.9583 62.6394C98.9513 62.6394 98.9443 62.6359 98.9373 62.6341C100.71 61.4073 104.084 58.21 100.07 53.5094C100.07 53.5094 104.079 58.7822 97.0682 62.3121C96.2037 62.1948 95.5457 62.1668 94.3906 62.1668C90.8941 62.1581 86.1322 62.8354 80.2748 64.6239C75.9819 63.9449 73.9116 63.1119 73.1941 62.7706C81.4001 56.2622 87.8227 49.3775 90.593 46.2572C91.8986 46.1557 93.1639 46.1032 94.3889 46.1014C97.2135 46.1014 99.835 46.3674 102.271 46.9152C104.098 47.3282 105.822 47.8987 107.441 48.6705C109.858 49.8255 112.085 51.4443 113.799 53.7106C114.649 54.8394 115.354 56.1274 115.834 57.517C116.315 58.9065 116.564 60.3923 116.562 61.8588C116.564 63.8154 116.128 65.7124 115.405 67.4065C114.313 69.9581 112.631 72.0739 110.626 73.8729C108.612 75.6702 106.244 77.1717 103.533 78.4493C97.5215 81.2808 91.3753 82.2906 85.7769 82.2906H85.7489C77.8475 82.2784 70.989 80.2571 65.9332 78.5088C60.6183 76.6712 56.3341 73.8676 56.0331 73.6926L58.8875 72.2069L58.8857 72.2051Z" fill="#FFEEDB"/>
<path d="M21.526 96.4577V96.4402C21.561 95.0524 21.7902 93.7381 22.1367 92.5166C22.793 90.2223 23.8325 88.2395 25.0278 86.4159C26.7253 83.8574 28.7659 81.577 30.9482 79.4665C42.4057 78.7192 50.0394 75.8684 50.0394 75.8684C51.7212 75.3574 53.3978 74.7326 55.0568 74.0186C56.7124 75.3574 58.9087 76.4284 59.6699 76.7819C59.1817 77.0584 56.3711 78.6632 54.257 80.0248C50.8357 82.2193 45.8096 85.7299 41.9385 89.3385C40.0047 91.127 38.5311 92.6898 37.5564 94.1511C37.4724 94.2754 37.3954 94.3961 37.3201 94.5134C28.1044 91.9058 34.2855 86.9374 34.2855 86.9374C27.7789 91.8586 33.435 94.5939 37.0331 95.7262C37.7436 96.0097 38.7079 96.3019 39.8594 96.5224C41.382 96.8164 43.2248 96.9967 45.2653 96.9967C48.0391 96.9967 51.1752 96.6677 54.4251 95.9257C59.3059 94.8144 64.4388 92.7808 69.1779 89.6465C72.0813 87.7249 74.8411 85.4009 77.3559 82.5956C85.8541 84.2126 92.4745 83.0646 95.5739 82.2736C88.8012 93.5683 80.1192 101.323 70.823 105.638C61.9818 109.744 53.0968 111.713 45.2653 111.722C42.4967 111.722 39.8629 111.496 37.3901 111.043C35.5351 110.701 33.7693 110.232 32.0945 109.606C30.838 109.133 29.6304 108.571 28.4736 107.882C26.7481 106.844 25.0995 105.512 23.7643 103.64C23.101 102.707 22.5305 101.636 22.135 100.457C21.736 99.2805 21.5225 98.0012 21.5242 96.7289C21.5242 96.6309 21.5242 96.5417 21.5277 96.4612L21.526 96.4577Z" fill="#FFEEDB"/>
<path d="M1.18852 57.1652C1.91654 54.7659 3.29033 52.6659 4.91613 51.0646C6.13766 49.8535 7.4922 48.8945 8.90448 48.121C11.0255 46.9625 13.2796 46.2082 15.6316 45.7112C17.9855 45.2177 20.4478 44.9884 23.0098 44.9884C27.756 44.9919 32.8556 45.7742 38.097 47.379C43.0566 48.9015 48.1405 51.1731 53.0739 54.2882C44.4164 60.0196 30.5508 61.1308 26.9824 61.3251C25.5667 61.1396 24.2314 61.0521 23.0098 61.0521C22.1191 61.0521 21.2948 61.0993 20.544 61.1816C8.33572 59.0325 16.6607 52.3036 16.6607 52.3036C9.43474 58.0018 14.2369 60.5551 18.1657 61.6173C18.1552 61.6208 18.143 61.6226 18.1307 61.6261C18.7205 61.8081 19.4485 61.9831 20.2833 62.1179C21.7831 62.3664 23.6171 62.5029 25.6174 62.5011C27.3325 62.5029 29.1683 62.4031 31.0443 62.2194C41.8018 61.3373 49.3095 57.965 53.3906 55.5919L53.3311 55.683C53.4501 55.6095 53.5709 55.5342 53.6934 55.4572C56.6405 53.6161 60.3383 50.9631 64.1219 47.8725C69.8025 43.2436 75.7177 37.5735 79.9423 32.2078C82.0564 29.5338 83.7399 26.9385 84.7917 24.7456C85.3202 23.6519 85.6912 22.6631 85.9135 21.8423C86.1392 21.0198 86.2127 20.374 86.2127 19.9313C86.204 19.3415 86.12 19.1297 86.0167 18.9127C85.644 18.1952 85.2922 17.7402 84.9719 17.413C84.4872 16.9299 84.0672 16.6727 83.4319 16.4382C82.8054 16.2142 81.9444 16.0619 80.8681 16.0637C79.6203 16.0602 78.11 16.2737 76.584 16.6569C74.2932 17.2222 71.9866 18.1532 70.3363 18.932C69.5085 19.3205 68.8418 19.6688 68.406 19.9068C68.1873 20.0258 68.028 20.1168 67.9317 20.171C67.8845 20.199 67.853 20.2165 67.8407 20.2253L67.8338 20.2288L65.4362 16.2194L59.5385 6.47166C59.7853 6.32641 62.2914 4.81437 66.0924 3.25508C67.9965 2.47631 70.2278 1.68529 72.7076 1.06752C75.1892 0.453258 77.9228 0.00350009 80.8681 0C82.5499 0 84.3034 0.150493 86.0972 0.535503C88.7783 1.10602 91.5731 2.23657 94.0757 4.10037C96.5852 5.95366 98.7308 8.51047 100.283 11.5258C101.681 14.2086 102.289 17.1609 102.278 19.933C102.271 23.1881 101.522 26.2209 100.416 29.0788C99.4413 31.5831 98.176 33.9736 96.7148 36.3047C94.1544 40.377 90.9869 44.2797 87.527 47.9985C82.3346 53.5689 76.4825 58.7053 71.0013 62.9211C68.259 65.0282 65.6112 66.9007 63.1559 68.4828C60.6918 70.0666 58.4535 71.3511 56.322 72.3294C54.2867 73.2569 52.0606 74.0759 49.6683 74.8162C46.0807 75.9222 42.1238 76.8445 38.034 77.5078C33.9441 78.1675 29.73 78.5665 25.6174 78.5683C23.1901 78.5683 20.796 78.4283 18.4545 78.0923C16.6974 77.8385 14.9701 77.4745 13.2708 76.9408C10.7333 76.1375 8.20796 74.9719 5.9224 73.0241C4.78837 72.0529 3.73133 70.8751 2.87031 69.5048C2.00754 68.138 1.35479 66.5822 0.982027 64.9669C0.71252 63.8049 0.562012 62.6026 0.562012 61.3828C0.562012 59.9636 0.768509 58.525 1.18852 57.1617V57.1652Z" fill="#FFEEDB"/>
<path d="M29.7702 122.986C29.7684 124.503 30.0187 126.148 30.6434 127.753C31.2612 129.358 32.2622 130.887 33.5258 132.144C34.6545 133.267 35.8831 134.05 37.1186 134.65C38.3576 135.248 39.6177 135.67 40.9144 135.994C43.5028 136.631 46.2503 136.883 49.1852 136.888C54.9166 136.879 61.369 135.887 67.7846 133.91C74.1898 131.918 80.5495 128.959 85.8854 124.661C89.4292 121.792 92.5408 118.282 94.6216 113.998C95.5719 112.034 96.2946 110.205 96.7969 108.434C97.2974 106.665 97.5827 104.945 97.5844 103.212C97.5879 101.42 97.2572 99.5912 96.5046 97.9234C95.7626 96.2539 94.6023 94.8136 93.3283 93.7845C92.4795 93.0915 91.5888 92.5648 90.7207 92.164C90.5545 92.087 90.3882 92.0152 90.222 91.947C89.2244 93.2158 86.7726 96.1103 82.8315 99.3497C84.6866 100.216 84.4136 102.666 84.0496 104.145C84.0653 104.145 84.0741 104.141 84.0741 104.141C84.0338 104.33 83.9813 104.544 83.9131 104.784C83.6768 105.618 83.2515 106.752 82.5708 108.156C81.8043 109.738 80.6545 111.292 79.1179 112.787C77.5867 114.278 75.6739 115.693 73.502 116.957C69.1637 119.493 63.7893 121.393 58.6617 122.45C55.2473 123.161 51.9362 123.502 49.1799 123.5C47.4509 123.5 45.9406 123.364 44.8153 123.149C44.2115 123.038 43.725 122.898 43.382 122.778C40.7132 122.046 36.2016 120.163 38.1651 116.077C38.1651 116.077 36.4186 120.028 43.4398 121.726C43.5343 121.456 43.655 121.159 43.8003 120.84C44.299 119.745 45.1006 118.444 45.9843 117.232C47.5349 115.091 49.3147 113.226 50.0304 112.508C46.9101 112.871 39.8259 113.347 33.8828 111.211C33.678 111.528 33.4733 111.85 33.2738 112.181C32.1485 114.05 31.1019 116.122 30.4177 118.516C30.0327 119.885 29.7684 121.372 29.7667 122.988L29.7702 122.986Z" fill="#FFEEDB"/>
<path d="M82.4605 99.6512C76.5891 104.396 67.5571 109.789 55.2526 111.895C54.563 114.14 54.0888 116.949 54.0555 120.451C54.0503 121.019 54.0695 121.571 54.1063 122.11C58.6284 121.478 62.4977 120.41 64.5646 119.771C64.6783 119.101 64.8341 118.392 65.0318 117.638C67.5834 107.987 78.9814 105.064 82.8123 104.347C83.9481 101.375 83.073 100.129 82.4588 99.6512H82.4605Z" fill="#FFEEDB"/>
<path d="M81.7695 16.1587C81.7695 16.1587 92.4798 16.2252 85.6528 30.9519C85.6528 30.9519 90.406 19.7726 83.9116 17.4975L81.7695 16.1587Z" fill="#131313"/>
</svg>
