<svg width="50" height="48" viewBox="0 0 50 48" fill="none" xmlns="http://www.w3.org/2000/svg">
<path d="M1.11203 45.5239C1.11203 45.5239 4.66789 45.097 9.47622 43.5225C9.47622 43.5225 9.47771 43.5217 9.47846 43.521C11.3103 42.0283 12.8952 38.4471 13.6531 37.2177C14.5218 35.8113 15.1443 33.145 15.3407 30.6013C15.9751 30.9978 16.4682 33.0542 16.3381 35.0192C16.9799 34.2963 19.2476 31.7177 21.0222 25.8071C22.7968 19.8995 30.3361 14.7268 33.6436 12.5446C36.9049 10.3892 39.3214 6.07846 41.7966 2.75391C40.4563 4.65418 41.2774 9.12708 41.3615 12.5647C42.6065 22.5436 38.2028 26.8157 35.7834 30.2109C36.9838 29.5564 39.2946 28.7397 40.4972 29.1652C39.0529 30.042 38.8208 31.653 35.3036 37.1352C31.7872 42.6174 24.6204 42.9788 22.1311 43.1722C23.269 43.3083 25.4021 44.894 26.3266 45.0918C24.732 46.5905 21.5859 47.3201 18.5068 46.4685C16.1722 45.8222 11.288 45.4012 9.05973 45.2331C6.36884 46.1256 3.36484 46.9519 0.000118256 47.6934C0.1511 46.6091 0.155567 45.6823 1.11203 45.5232V45.5239ZM11.9894 44.1606C31.4912 37.6967 35.3966 24.2609 37.4032 17.7895C33.1832 30.3968 24.4174 38.7171 12.6743 43.2838C12.4088 43.5039 10.8395 44.0818 10.8395 44.0818C10.8395 44.0818 11.2798 44.1078 11.9894 44.1614V44.1606Z" fill="url(#paint0_linear_75_1679)"/>
<path fill-rule="evenodd" clip-rule="evenodd" d="M20.6621 1.9165C20.4984 4.24667 21.3158 6.21388 22.4768 6.29569C21.3166 6.21462 20.2322 8.05763 20.0678 10.3893C20.2314 8.05763 19.4155 6.08075 18.2449 5.99893C19.4155 6.08075 20.4984 4.24741 20.6621 1.91725V1.9165Z" fill="url(#paint1_linear_75_1679)"/>
<path fill-rule="evenodd" clip-rule="evenodd" d="M27.3595 0C27.2041 2.21488 27.9806 4.08467 29.0836 4.16202C27.9806 4.08467 26.9497 5.8362 26.7943 8.05257C26.9497 5.83694 26.174 3.95823 25.0621 3.88013C26.1748 3.95823 27.2041 2.21563 27.3595 0Z" fill="url(#paint2_linear_75_1679)"/>
<path fill-rule="evenodd" clip-rule="evenodd" d="M24.5137 8.00964C24.388 9.80282 25.0165 11.3156 25.9097 11.3781C25.0172 11.3156 24.1828 12.7332 24.0563 14.5271C24.1828 12.7332 23.5543 11.213 22.6543 11.1497C23.5543 11.2122 24.388 9.80208 24.5137 8.00964Z" fill="url(#paint3_linear_75_1679)"/>
<path fill-rule="evenodd" clip-rule="evenodd" d="M44.3192 36.7786C44.3192 37.3408 43.8632 37.796 43.3017 37.796C42.7402 37.796 42.2843 37.3408 42.2843 36.7786C42.2843 36.2163 42.7394 35.7611 43.3017 35.7611C43.864 35.7611 44.3192 36.217 44.3192 36.7786Z" fill="url(#paint4_linear_75_1679)"/>
<path fill-rule="evenodd" clip-rule="evenodd" d="M48.1348 31.0132C48.1348 31.5747 47.6788 32.0306 47.1173 32.0306C46.5558 32.0306 46.0999 31.5747 46.0999 31.0132C46.0999 30.4517 46.555 29.9957 47.1173 29.9957C47.6796 29.9957 48.1348 30.4509 48.1348 31.0132Z" fill="url(#paint5_linear_75_1679)"/>
<path fill-rule="evenodd" clip-rule="evenodd" d="M50 35.592C50 36.1536 49.5441 36.6095 48.9825 36.6095C48.421 36.6095 47.9651 36.1543 47.9651 35.592C47.9651 35.0298 48.4203 34.5746 48.9825 34.5746C49.5448 34.5746 50 35.0305 50 35.592Z" fill="url(#paint6_linear_75_1679)"/>
<defs>
<linearGradient id="paint0_linear_75_1679" x1="0.000118256" y1="2.75391" x2="44.8218" y2="44.4407" gradientUnits="userSpaceOnUse">
<stop stop-color="#FFEEDB"/>
<stop offset="1" stop-color="#BFAD99"/>
</linearGradient>
<linearGradient id="paint1_linear_75_1679" x1="18.2449" y1="1.9165" x2="25.0188" y2="5.29991" gradientUnits="userSpaceOnUse">
<stop stop-color="#FFEEDB"/>
<stop offset="1" stop-color="#BFAD99"/>
</linearGradient>
<linearGradient id="paint2_linear_75_1679" x1="25.0621" y1="0" x2="31.4995" y2="3.21485" gradientUnits="userSpaceOnUse">
<stop stop-color="#FFEEDB"/>
<stop offset="1" stop-color="#BFAD99"/>
</linearGradient>
<linearGradient id="paint3_linear_75_1679" x1="22.6543" y1="8.00964" x2="27.8651" y2="10.6124" gradientUnits="userSpaceOnUse">
<stop stop-color="#FFEEDB"/>
<stop offset="1" stop-color="#BFAD99"/>
</linearGradient>
<linearGradient id="paint4_linear_75_1679" x1="42.2843" y1="35.7611" x2="44.3192" y2="37.796" gradientUnits="userSpaceOnUse">
<stop stop-color="#FFEEDB"/>
<stop offset="1" stop-color="#BFAD99"/>
</linearGradient>
<linearGradient id="paint5_linear_75_1679" x1="46.0999" y1="29.9957" x2="48.1348" y2="32.0306" gradientUnits="userSpaceOnUse">
<stop stop-color="#FFEEDB"/>
<stop offset="1" stop-color="#BFAD99"/>
</linearGradient>
<linearGradient id="paint6_linear_75_1679" x1="47.9651" y1="34.5746" x2="50" y2="36.6095" gradientUnits="userSpaceOnUse">
<stop stop-color="#FFEEDB"/>
<stop offset="1" stop-color="#BFAD99"/>
</linearGradient>
</defs>
</svg>
