<svg width="297" height="248" viewBox="0 0 297 248" fill="none" xmlns="http://www.w3.org/2000/svg">
<path fill-rule="evenodd" clip-rule="evenodd" d="M75.2665 1.1192C75.2665 1.1192 81.9631 0.0849051 84.0951 6.99233C86.2272 13.8999 82.2048 14.758 84.3101 20.8667C86.4153 26.9758 89.6006 36.9382 93.7913 45.3107C97.9822 53.6831 97.4718 67.528 91.6695 74.3112C91.6695 74.3112 92.1187 70.9259 89.8936 67.716C87.6684 64.5062 80.5754 57.5378 79.2485 47.5567C79.2485 47.5567 79.1024 55.1565 81.2597 60.8744C83.4168 66.5924 86.3682 71.82 85.3072 75.3229C85.3072 75.3229 82.8281 74.5309 79.5034 74.6202C76.1789 74.7097 70.0726 69.7925 67.7931 62.9982C65.5136 56.204 61.2176 46.625 65.0099 39.5088C68.8023 32.3929 81.0009 18.8387 82.0258 13.6084C83.0506 8.37785 80.8255 5.16842 80.8255 5.16842C80.8255 5.16842 82.5639 8.04809 81.0165 11.2217C81.0165 11.2217 80.1946 8.927 78.1803 8.12987C78.1803 8.12987 78.4421 4.65342 75.2665 1.1192ZM125.773 196.636C123.041 192.822 114.311 192.993 95.9386 192.729C90.3749 192.649 84.5848 194.066 77.5517 194.444C74.2853 195.391 73.2609 200.956 64.395 204.443C58.7683 206.658 53.7896 206.708 49.2947 205.828C50.033 205.668 50.8739 205.481 51.6364 205.298C47.4572 205.488 45.7712 205.082 41.9842 203.618C41.7616 203.531 41.533 203.444 41.3008 203.356C42.1121 203.281 43.0985 203.11 44.2079 202.763C39.3539 203.23 36.0936 201.564 31.7406 199.602C32.3657 199.568 33.0182 199.505 33.6188 199.4C28.1122 198.058 24.3789 196.418 20.5452 192.009C21.0584 192.116 21.6396 192.181 22.2612 192.151C18.6917 190.444 17.0125 187.61 14.4119 184.759C14.8312 184.744 15.2881 184.715 15.7162 184.658C12.5982 182.957 11.8705 181.971 9.44025 179.664C9.72929 179.717 10.0092 179.706 10.2898 179.686C7.5446 178.449 4.1503 174.057 0 172.842C2.50764 171.856 7.85652 169.067 10.2573 169.716C10.2573 169.716 9.89987 169.353 9.47519 168.963C12.0706 167.872 13.8893 166.544 16.6813 167.441C16.6813 167.441 16.1544 166.84 15.597 166.343C18.6819 165.024 21.2041 163.462 24.2146 165.619C24.2146 165.619 23.7316 164.903 22.6793 164.101C25.7748 163.665 29.4644 163.424 31.8761 165.734C31.8761 165.734 31.385 164.978 30.5869 164.057C34.7714 164.276 36.8646 163.477 39.8474 166.532C39.8474 166.532 39.4738 165.531 38.7768 164.469C43.149 164.627 44.3602 163.738 47.9851 166.461C47.9851 166.461 47.235 165.477 46.329 164.53C52.274 164.518 54.1804 164.932 61.4776 171.664C71.4423 180.857 76.5087 192.654 76.5087 192.654C76.5087 192.654 70.4568 194.178 66.401 192.579C60.0811 190.087 56.9284 175.031 49.1632 168.218C55.6456 175.888 59.1441 189.97 64.0531 193.579C64.0531 193.579 57.2075 195.427 53.5875 191.606C49.9676 187.784 46.2089 173.612 40.9955 168.428C46.9007 176.773 47.8641 187.091 53.3875 193.462C53.3875 193.462 47.2555 191.643 45.8048 189.676C44.3534 187.709 39.567 172.967 33.1646 167.238C39.3814 174.989 42.5449 185.973 44.6205 189.889C44.6205 189.889 40.263 188.167 38.1974 186.992C34.9626 185.156 32.1087 172.03 25.2063 166.688C31.17 173.427 32.1521 179.449 35.4534 185.627C35.4534 185.627 28.8321 183.749 26.9467 181.106C25.0602 178.464 22.3838 170.803 17.3749 168.29C22.2481 172.384 23.7591 177.159 25.6742 181.1C25.6742 181.1 19.7236 178.449 18.4174 176.847C17.1088 175.247 14.2591 171.123 10.9164 170.155C10.9164 170.155 15.4505 173.827 17.1141 176.98C17.1141 176.98 8.08969 173.508 1.54196 172.997C1.54196 172.997 10.1129 175.208 18.4849 178.852C18.4849 178.852 17.2442 179.89 10.8632 179.693C10.8632 179.693 16.504 180.266 19.0941 179.966C22.2307 179.874 26.5651 182.611 26.5651 182.611C26.5651 182.611 21.4351 184.84 16.6839 184.594C16.6839 184.594 18.8743 185.213 23.4696 184.42C28.0658 183.627 28.5708 183.513 32.4065 185.304C36.2423 187.094 36.779 187.813 36.779 187.813C36.779 187.813 30.3442 191.995 23.5297 192.096C23.5297 192.096 27.1082 192.803 33.3203 190.528C39.5325 188.252 39.5362 189.012 42.0889 190.123C44.6408 191.234 45.7357 191.65 45.7357 191.65C45.7357 191.65 44.8517 195.424 34.6859 198.832C41.9976 197.668 46.4951 192.715 47.8708 192.882C49.5664 192.892 51.5977 194.505 54.4188 194.578C54.4188 194.578 52.7456 199.679 44.8636 202.442C54.3515 199.671 55.486 195.016 57.5665 195.158C60.3153 195.262 64.7707 194.65 64.7707 194.65C62.6377 198.294 61.0771 203.365 53.7925 204.809C63.2452 203.793 63.81 195.839 67.76 194.828C70.496 194.127 94.6517 190.472 95.0681 191.295C95.0681 191.295 87.5419 180.698 84.8947 178.27C82.2469 175.844 76.9206 176.501 68.7317 168.809C67.6062 167.752 66.5635 166.721 65.5941 165.703C66.0394 165.91 66.4837 166.117 66.928 166.325C63.4114 163.544 60.7467 160.578 58.2522 155.801C58.5679 155.994 58.8187 156.049 59.1835 156.215C56.7977 153.255 56.1965 151.707 55.0762 148.114C55.3371 148.292 55.6366 148.454 55.9587 148.558C53.7272 146.251 53.3315 140.579 53.1805 137.527C53.4585 137.821 53.8167 138.116 54.2816 138.388C52.9941 135.116 53.0374 134.181 53.1833 130.795C53.3858 131.084 53.6102 131.364 53.8593 131.616C52.7994 127.953 53.6283 123.706 54.2495 119.977C56.3808 123.734 60.1255 123.381 60.2699 125.117C60.2699 125.117 60.6243 124.629 60.8679 124.125C65.1748 125.023 67.2046 124.522 67.2277 126.991C67.2277 126.991 67.5202 126.521 67.7081 125.989C70.8952 127.333 74.0612 129.598 74.6928 132.789C74.6928 132.789 75.1995 132.374 75.3832 131.697C77.5943 133.85 81.3642 136.433 81.1304 139.901C81.1304 139.901 81.565 139.294 81.9179 138.282C84.8771 141.626 87.4404 145.414 87.0774 148.559C87.2174 148.316 87.3578 148.072 87.4967 147.828C88.9569 154.158 84.2427 174.465 84.2427 174.465C84.2427 174.465 80.3985 171.579 80.2192 169.619C80.0401 167.658 86.5134 150.136 86.5134 150.136C86.5134 150.136 79.7898 165.303 79.3204 168.196C79.3204 168.196 74.4922 163.665 73.8619 161.206C73.232 158.747 81.1568 140.399 81.1568 140.399C81.1568 140.399 73.4937 153.82 72.7281 160.045C72.7281 160.045 68.6048 154.729 67.4227 151.726C66.2404 148.722 74.4265 133.402 74.4265 133.402C74.4265 133.402 67.2163 144.108 66.3065 149.965C66.3065 149.965 62.5939 144.404 62.0396 141.491C61.4856 138.578 66.0278 131.629 66.7359 128.052C65.2928 131.518 61.6992 136.972 61.0714 139.672C61.0714 139.672 59.1449 136.285 59.0257 134.047C58.9067 131.809 60.6911 129.034 60.2551 125.991C60.2551 125.991 59.6578 129.525 57.9472 132.06C57.9472 132.06 55.5723 126.776 54.5764 121.668C54.5764 121.668 54.6504 126.801 57.2034 133.072C57.2034 133.072 55.8872 133.166 54.2786 131.981C54.2786 131.981 55.1406 133.207 57.1329 133.861C58.2912 134.548 60.2142 141.152 60.2142 141.152C60.2142 141.152 58.0903 140.592 54.5996 138.496C54.5996 138.496 58.6197 141.399 60.3104 142.256C62.0021 143.113 62.8284 146.933 65.483 150.881C65.483 150.881 61.3324 151.838 56.5457 148.814C56.5457 148.814 59.5821 151.046 62.8671 151.869C66.1524 152.691 66.0172 152.026 67.2933 153.977C68.569 155.928 70.2323 159.081 72.0501 160.904C72.0501 160.904 65.1841 160.01 60.3314 156.927C60.3314 156.927 62.8355 158.776 66.4542 160.229C70.0716 161.682 71.8701 161.735 73.8184 163.677C75.7674 165.618 78.6987 169.624 78.6987 169.624C78.6987 169.624 72.0267 169.12 67.822 166.713C67.822 166.713 70.3337 168.474 74.0563 169.547C77.7794 170.622 79.4016 170.871 82.374 174.017C85.6287 177.559 92.6135 185.653 97.1232 189.801C99.2277 192.486 112.772 188.848 119.92 190.276C123.078 190.906 127.401 192.252 125.773 196.636ZM102.768 165.174C105.741 167.801 112.223 169.619 112.223 169.619C113.616 165.908 108.998 164.424 108.998 164.424L102.768 165.174ZM146.309 205.792C142.937 210.042 141.015 215.849 146.793 220.085C146.793 220.085 146.781 212.267 146.309 205.792ZM80.5886 84.3229C79.9181 86.215 78.0896 87.1608 78.3069 88.0224C82.1317 103.174 83.8738 102.656 90.8233 116.297C96.9278 132.782 98.5801 133.401 98.7566 133.724C98.7566 133.724 95.2135 140.512 102.351 141.064C105.844 147.98 109.876 156.827 114.713 163.696C122.073 174.148 129.903 189.467 134.653 200.245C141.426 215.614 142.455 210.119 142.455 210.119C142.455 210.119 139.534 216.663 146.921 222.465C146.921 222.465 154.285 232.874 158 248C158 248 148.615 243.634 146.519 238.417C140.596 220.287 131.135 212.129 126.753 197.362C126.753 197.362 129.076 191.892 123.343 189.999C118.897 180.208 117.478 177.128 112.928 170.206C114.841 166.727 111.409 163.733 108.564 163.573C103.237 155.729 99.8196 147.359 95.0582 137.574C91.8135 130.906 91.7563 130.217 86.5282 117.745C82.7568 108.748 82.647 112.177 81.1137 107.238C81.1137 107.238 83.0278 104.147 78.0968 100.743C78.152 101.085 76.4084 97.4974 74.2264 90.4975C74.1256 90.1742 73.705 88.979 72.648 88.7416C74.1456 86.7229 78.1572 85.6917 80.5886 84.3229ZM76.0809 103.675C76.1951 103.844 80.3349 106.57 80.3349 106.57C81.0403 103.463 78.5747 102.489 78.5747 102.489L76.0809 103.675ZM92.7501 74.1563C105.471 68.3361 94.5711 52.0748 102.33 49.6219C95.1334 49.8893 100.276 65.323 92.7501 74.1563ZM83.4403 82.7375C83.4403 82.7375 85.9395 82.661 88.4988 79.3232C91.0582 75.9854 91.0365 70.9482 89.6127 68.9379C88.1889 66.9274 82.7805 61.5374 80.3193 54.2239C80.3193 54.2239 81.1217 58.7288 82.7707 62.4912C85.6509 69.0571 89.4359 75.5654 83.4403 82.7375ZM74.9181 85.9704C77.7427 84.1587 78.3394 84.4034 81.3894 82.8863C84.4397 81.3695 85.1887 76.4664 85.1887 76.4664C81.8896 75.3671 79.2034 76.1371 79.2034 76.1371C77.8151 82.1148 74.9181 85.9704 74.9181 85.9704ZM52.1243 71.4883C52.1243 71.4883 53.298 79.1302 57.647 84.8078C61.9961 90.4852 66.1162 91.8928 71.7129 88.6591C71.7129 88.6591 62.4012 91.9301 52.1243 71.4883ZM37.3149 87.7445C45.2532 83.3402 50.3953 89.4778 59.3351 90.0664C52.1442 94.1225 44.8756 84.8473 37.3149 87.7445ZM32.7573 70.6446C32.7573 70.6446 36.7044 76.8666 39.852 79.6007C39.852 79.6007 38.3049 77.2758 37.5782 75.2579C37.5782 75.2579 34.938 73.1859 32.7573 70.6446ZM25.2671 44.6763C27.5343 46.5668 33.1574 49.6308 35.6346 53.9335C38.1118 58.2362 38.3848 74.173 43.1311 82.3542C34.7289 72.6832 36.0262 58.1696 25.2671 44.6763ZM24.3468 30.8739C24.3468 30.8739 22.4935 31.3572 21.1585 33.4324C19.8234 35.5077 20.4512 38.7711 23.2484 41.6593C26.0457 44.5476 31.6817 47.0174 35.8957 52.213C40.1101 57.4087 39.3992 75.2677 43.9224 81.6309C48.4457 87.9941 59.9226 89.3828 59.9226 89.3828C59.9226 89.3828 50.167 80.0071 51.5335 68.1976C51.5335 68.1976 55.8293 77.7766 61.4935 83.0322C67.1569 88.2875 71.4972 87.5375 73.2717 86.6468C75.0462 85.756 78.385 76.0623 78.385 76.0623C78.385 76.0623 71.6777 74.1792 68.1304 66.9519C64.5829 59.7243 59.6749 44.7641 63.981 38.7766C63.981 38.7766 59.782 36.961 49.7957 37.8239C39.8094 38.6867 28.5582 43.0915 23.2327 38.2787C23.2327 38.2787 26.791 40.1742 31.2438 39.5721C31.2438 39.5721 26.2247 34.7 24.3468 30.8739ZM32.3394 22.0623C31.9013 28.364 34.8008 33.9814 34.8008 33.9814C30.0687 32.692 27.7233 30.3939 27.7233 30.3939C33.5881 37.1333 46.8179 37.2967 46.8179 37.2967C41.0452 37.8571 37.8259 39.1522 33.2663 39.3098C29.1832 35.9056 23.6494 30.1105 24.5577 26.6553C25.2097 24.1764 29.9852 22.271 32.3394 22.0623ZM42.5969 12.656C31.5896 12.2242 33.4801 20.9548 33.4801 20.9548C28.1096 21.5141 21.8075 24.5148 23.9468 29.8936C19.4255 32.0105 19.7153 35.8251 19.7153 35.8251C13.4115 27.9008 18.4526 19.857 26.9706 14.328C35.4886 8.79892 43.1154 9.7439 43.1154 9.7439C42.6262 10.9379 42.5969 12.656 42.5969 12.656ZM42.5588 13.4458C42.5389 13.3441 38.0854 12.9529 35.7673 15.1963C33.4492 17.4395 34.3604 20.3094 34.3604 20.3094C35.888 19.7831 38.1153 20.4757 38.1153 20.4757C38.8638 20.0781 40.8209 19.8074 40.8209 19.8074C38.5115 19.2361 36.0757 19.1122 36.0757 19.1122C38.4111 18.4941 42.094 18.9495 42.094 18.9495C41.9883 16.7492 42.5588 13.4458 42.5588 13.4458ZM59.2603 10.6573C59.2603 10.6573 56.0485 8.1454 52.3983 8.19152C46.8338 8.26191 43.24 13.8016 42.8278 18.9138C42.8278 18.9138 44.2446 18.4722 45.7202 18.3366C45.7202 18.3366 48.8821 13.2242 55.3532 12.8896C55.3532 12.8896 52.4252 11.7393 50.0574 11.8559C50.0574 11.8559 54.9863 9.66052 59.2603 10.6573ZM52.2554 22.5157C53.4811 18.944 52.1841 18.061 54.6767 15.7477C53.6347 15.6091 47.1394 18.1269 47.1394 18.1269C47.1394 18.1269 48.856 16.1689 50.5916 15.0734C52.327 13.978 56.8842 13.589 57.2058 14.1614C57.5272 14.7339 57.1631 18.2298 56.1268 19.5498C55.0904 20.87 52.2554 22.5157 52.2554 22.5157ZM48.908 24.0258C48.9364 24.0625 47.8923 23.6924 47.2216 23.5042C46.5507 23.3158 45.7197 21.086 46.6917 20.751C47.6637 20.4162 51.9883 21.7842 51.9883 21.7842C51.9883 21.7842 52.1076 19.8789 51.5823 19.3456C51.0569 18.8123 44.2099 18.7328 43.8459 19.4795C43.482 20.2262 45.3799 25.1483 45.7537 25.3301C46.1274 25.5123 48.908 24.0258 48.908 24.0258ZM43.2111 20.5213C40.4779 20.0517 37.0933 21.5511 37.1554 22.9388C37.197 23.8677 38.5946 24.3749 43.4664 25.5904C43.4664 25.5904 40.8132 24.1125 41.863 23.1916C42.9127 22.2708 43.8682 23.06 43.8682 23.06C43.8682 23.06 43.046 20.7643 43.2111 20.5213ZM57.8197 19.2775C56.3543 21.3355 45.8586 26.0398 45.8586 26.0398L52.1898 24.7588C52.1898 24.7588 55.4391 22.7381 56.3977 22.004C57.3562 21.2697 57.8197 19.2775 57.8197 19.2775ZM59.1653 14.6196C59.1653 14.6196 60.2358 17.5447 60.3974 18.8247C60.5591 20.1046 60.0491 22.9515 60.0491 22.9515L53.8953 24.3885C53.8953 24.3885 57.6266 22.233 58.1727 21.1129C58.7188 19.9926 59.1092 14.5461 59.1653 14.6196ZM54.5449 11.4901C54.432 11.3426 59.55 12.22 60.5635 15.0702C61.5774 17.9204 61.2902 22.5861 61.2902 22.5861C61.2902 22.5861 64.53 19.637 64.3166 18.7471C64.1033 17.8572 62.2895 13.0464 61.1646 12.036C60.0397 11.0254 54.5449 11.4901 54.5449 11.4901ZM63.0705 13.15C63.014 13.0762 65.7177 17.6743 65.5969 18.5858C65.4762 19.497 62.961 22.4765 61.3339 23.2546C59.7069 24.0326 47.8034 26.3632 47.8034 26.3632C47.8034 26.3632 55.5132 28.1803 57.5355 27.9184C59.5576 27.6565 64.8592 24.6489 64.8592 24.6489C65.9608 23.3376 68.2893 20.2675 68.2893 20.2675C66.3848 15.6427 63.0705 13.15 63.0705 13.15ZM64.5004 25.8598C64.4434 25.7868 59.442 29.0326 56.7634 28.7435C54.4221 28.4911 41.7014 26.607 37.5378 24.6484C35.2253 23.5605 35.9183 21.4966 37.5685 21.0992C37.5685 21.0992 34.2346 20.2596 33.4895 21.8832C32.7442 23.5067 35.2733 32.918 38.2436 34.504C41.2138 36.0899 51.791 36.7635 51.791 36.7635C55.6085 33.9566 61.348 30.1465 61.348 30.1465L64.5004 25.8598ZM52.758 1.97846C46.873 2.62718 42.9756 8.71177 43.2705 13.5733C43.2705 13.5733 46.2832 8.34171 51.2176 7.60424C56.1519 6.86696 60.7428 10.7216 60.7428 10.7216C64.2225 9.4595 69.2089 19.3294 69.2089 19.3294L71.0508 15.9299C71.0508 15.9299 69.841 12.0596 66.3092 8.21316C62.7776 4.36676 57.3975 1.46667 52.758 1.97846ZM60.1021 2.55414C68.1091 6.1327 71.6702 14.7533 71.6702 14.7533C73.4092 12.135 73.2633 8.7368 73.2633 8.7368C73.2633 8.7368 73.9848 10.2899 73.3837 13.3239C72.7826 16.3581 63.1788 29.3289 63.1788 29.3289C63.1788 29.3289 65.0055 28.0467 69.1005 25.1445C73.1953 22.2425 81.249 13.969 81.249 13.969C80.0344 9.63455 77.256 8.60392 77.256 8.60392C77.7877 6.08998 75.4874 0.949702 71.8196 0.13233C68.1518 -0.685418 60.1021 2.55414 60.1021 2.55414ZM79.3332 17.4247C79.1463 17.334 72.1941 24.2961 66.8581 27.5638C61.5219 30.8314 53.666 36.614 53.666 36.614C58.7592 35.931 64.715 36.9853 64.715 36.9853C68.2695 31.0111 74.9807 23.5201 79.3332 17.4247Z" fill="#9A0000"/>
<path fill-rule="evenodd" clip-rule="evenodd" d="M137.878 0C137.409 12.3791 141.967 22.666 148 22.9074C141.967 22.6693 136.641 32.6175 136.168 45C136.641 32.6175 132.085 22.277 126 22.0356C132.085 22.277 137.409 12.3825 137.878 0.00335623V0Z" fill="#9A0000"/>
<path fill-rule="evenodd" clip-rule="evenodd" d="M214.197 176C213.557 192.781 219.774 206.725 228 207.052C219.774 206.73 212.51 220.215 211.865 237C212.51 220.215 206.298 206.198 198 205.87C206.298 206.198 213.557 192.785 214.197 176.005V176Z" fill="#9A0000"/>
<path fill-rule="evenodd" clip-rule="evenodd" d="M216.897 107.942C216.897 107.942 217.222 107.272 217.653 106.781C217.653 106.781 216.822 108.131 216.993 109.928C217.164 111.726 217.161 114.03 217.161 114.03C217.161 114.03 217.492 113.197 217.898 112.717C217.367 114.309 217.24 115.316 217.978 118.167C217.978 118.167 218.667 117.382 219.024 117.173C217.734 118.992 218.387 120.113 218.623 122.114C218.623 122.114 218.985 121.303 219.515 120.898C219.515 120.898 218.716 122.108 218.848 123.352C218.981 124.595 218.694 125.82 218.694 125.82C218.694 125.82 219.532 125.163 219.735 124.733C219.432 125.459 218.536 126.763 218.504 127.335C218.467 127.986 218.819 128.616 218.143 129.935C218.143 129.935 221.671 127.902 222.125 127.084C222.58 126.268 222.483 125.485 222.483 125.485C222.483 125.485 222.776 126.348 222.679 126.957C222.679 126.957 224.816 124.92 225.042 124.163C225.268 123.407 225.019 122.495 225.019 122.495C225.019 122.495 225.404 123.352 225.449 123.998C225.449 123.998 226.762 122.283 227.216 121.326C227.545 120.635 227.236 120.293 227.154 119.762L227.675 120.564C227.658 120.547 228.339 118.687 228.71 117.339C228.989 116.325 228.821 115.754 228.273 115.101C228.273 115.101 228.854 115.435 229.064 115.792C229.954 111.026 225.365 108.383 223.282 102.445C223.282 102.445 223.663 105.609 224.211 107.476C224.758 109.342 227.709 114.348 227.709 114.348C227.709 114.348 224.767 110.13 224.059 108.645C224.059 108.645 224.614 110.604 224.552 113.065C224.49 115.527 226.367 118.468 226.367 118.468C226.367 118.468 224.862 116.199 224.47 115.25C224.47 115.25 224.185 117.17 224.133 118.425C224.08 119.68 224.523 121.367 224.523 121.367C224.523 121.367 224.069 120.191 223.807 119.095C223.409 120.862 222.034 123.281 222.247 124.759L221.948 123.804C221.948 123.804 221.588 125.311 219.545 128.037C219.545 128.037 221.317 125.421 221.645 123.452C221.645 123.452 221.035 124.048 220.301 124.187C222.567 122.834 223.063 120.117 223.618 117.715C223.271 119.229 220.885 119.671 220.002 120.543C221.403 119.343 223.093 118.572 223.591 116.65C223.811 115.802 223.922 113.383 223.922 113.383C223.922 113.383 221.094 114.775 219.857 116.384C219.857 116.384 221.13 114.674 223.748 112.885C223.748 112.885 224.127 110.959 223.216 107.215C221.996 108.979 219.791 110.161 218.476 112.024C219.199 110.191 223.02 107.778 223.016 106.346C223.015 105.651 222.534 103.409 222.446 102.812C222.446 102.812 219.353 105.142 218.312 106.228C221.966 102.318 222.641 100.971 221.148 97.0011C221.504 100.705 218.825 101.871 217.651 103.577C217.025 104.487 216.637 106.977 216.897 107.942ZM207.13 97.5308C204.91 98.3455 203.802 98.4634 203.802 98.4634C203.802 98.4634 204.4 98.0678 204.815 97.595C202.454 99.1224 200.492 98.5474 197.808 98.9055C197.808 98.9055 198.392 98.6222 199.12 98.173C199.12 98.173 196.959 99.2066 193.917 98.763C193.917 98.763 194.581 98.0073 194.735 97.6406C194.735 97.6406 193.607 99.1174 192.251 98.8514C190.894 98.5855 190.074 98.662 190.074 98.662C190.074 98.662 190.803 98.2129 191.123 97.6577C191.123 97.6577 190.068 98.5736 188.866 98.6085C187.664 98.6438 186.533 99.0751 186.533 99.0751C186.533 99.0751 187.054 98.1948 187.439 97.9465C187.439 97.9465 186.586 98.5374 185.774 99.0808C184.963 99.6243 184.17 99.0981 182.677 100.132C182.677 100.132 184.182 96.6048 184.904 96.0672C185.627 95.5297 186.379 95.4352 186.379 95.4352C186.379 95.4352 185.52 95.2696 184.952 95.4409C184.952 95.4409 186.628 93.1481 187.321 92.8353C188.014 92.5223 188.914 92.6407 188.914 92.6407C188.914 92.6407 188.05 92.3867 187.428 92.4281C189.988 89.9122 189.583 90.2233 191.145 90.2895L190.425 89.8698C192.477 88.9372 193.933 87.6296 195.56 88.5944C195.56 88.5944 195.169 88.0865 194.802 87.9327C194.802 87.9327 196.673 87.8974 197.366 88.2522C198.059 88.6067 201.73 90.8116 210.104 91.9474C210.104 91.9474 205.183 91.7393 203.335 91.4615C201.487 91.1834 196.347 89.0319 196.347 89.0319C196.347 89.0319 200.735 91.278 202.239 91.7567C202.239 91.7567 200.303 91.4847 197.964 91.8622C195.624 92.2401 192.586 90.8394 192.586 90.8394C192.586 90.8394 194.938 91.9739 195.891 92.2224C195.891 92.2224 194.096 92.742 192.906 92.9549C191.716 93.1672 190.051 92.966 190.051 92.966C190.051 92.966 191.23 93.2436 192.308 93.3506C190.672 93.9568 188.537 95.5762 187.102 95.5655L188.049 95.7249C188.049 95.7249 186.657 96.2623 184.312 98.5546C184.312 98.5546 186.586 96.5341 188.422 95.9674C188.422 95.9674 187.93 96.623 187.889 97.3379C188.897 95.0123 191.425 94.1892 193.646 93.3508C192.246 93.8763 192.122 96.1982 191.401 97.1495C192.37 95.6641 192.895 93.9603 194.665 93.2384C195.446 92.9195 197.738 92.5005 197.738 92.5005C197.738 92.5005 196.631 95.2893 195.25 96.6718C195.25 96.6718 196.855 95.3188 198.236 92.6009C198.236 92.6009 200.025 91.9925 203.708 92.3715C202.03 93.7899 201.121 96.1461 199.508 97.6354C199.508 97.6354 200.29 97.3167 201.972 95.113C203.655 92.9093 203.897 92.5373 204.561 92.4485C205.224 92.3599 207.421 92.5256 208.002 92.5318C208.002 92.5318 206.165 95.7696 205.259 96.8977C206.994 95.3909 208.244 92.5957 209.46 92.5127C210.452 92.4459 212.138 92.6044 213.847 93.2123C210.458 92.7669 209.351 96.7157 207.13 97.5308ZM265.99 85.0345C265.99 85.0345 271.675 89.999 277.064 90.5317C282.453 91.0644 289.632 84.9797 295.436 86.3753C295.436 86.3753 300.744 72.3136 291.803 66.675C291.803 66.675 295.118 72.2417 293.578 75.9047C293.578 75.9047 293.258 72.4542 291.127 69.9248C290.041 75.1208 277.548 82.7741 273.062 84.0313C273.062 84.0313 276.342 86.3953 280.263 86.3134C280.263 86.3134 274.566 86.5135 272.268 85.5084C269.97 84.5036 266.156 84.8461 265.99 85.0345ZM268.873 58.6709C268.873 58.6709 276.773 58.0578 279.712 52.6102C282.65 47.163 280.01 42.3527 289.072 35.0747C289.072 35.0747 285.46 30.4182 285.082 24.7458C285.082 24.7458 288.327 29.2486 293.396 33.0076C298.464 36.7663 298.215 45.0622 288.322 55.956C288.322 55.956 291.247 58.3436 291.792 59.821C292.191 60.9852 289.275 67.9048 287.102 71.9214C284.063 77.5387 270.594 83.9191 264.712 83.2502C258.778 82.5758 255 80.7788 255 80.7788C255 80.7788 260.744 81.2879 266.347 78.3344C266.347 78.3344 260.519 79.2551 256.978 78.3329C262.76 70.2401 261.225 64.5249 268.873 58.6709ZM266.795 58.2747C258.398 65.9616 260.621 69.9232 254.686 77.4167C257.909 69.5465 254.724 64.5946 255.328 62.9523C255.933 61.3098 258.977 60.1284 258.977 60.1284C255.732 59.6317 253.291 60.5056 253.291 60.5056C256.632 55.7437 266.795 58.2747 266.795 58.2747ZM260.282 48.9136C253.957 49.0665 249.433 44.1142 249.433 44.1142C251.007 48.9954 254.442 49.6572 254.442 49.6572C251.801 50.1887 248.555 49.6919 248.555 49.6919C248.449 53.4383 251.077 55.4 251.077 55.4C254.809 52.4819 260.282 48.9136 260.282 48.9136ZM258.826 43.1354C258.826 43.1354 257.736 45.5218 255.378 46.3013C255.378 46.3013 257.036 47.0818 258.091 46.8338C259.145 46.5858 259.003 43.1234 258.826 43.1354ZM255.984 40.6528C255.984 40.6528 253.2 39.0568 249.386 42.0698C249.386 42.0698 251.885 42.0819 253.105 42.9805C254.325 43.8789 253.341 45.1904 253.341 45.1904C253.341 45.1904 255.178 44.6234 255.984 40.6528ZM249.458 36.4565C251.104 35.7243 253.343 35.843 253.343 35.843C251.424 36.5042 249.671 39.6473 249.671 39.6473C253.189 37.5444 255.865 38.8801 256.801 39.5304C257.737 40.1805 257.12 42.9812 257.12 42.9812C260.573 39.9031 257.797 34.39 257.797 34.39C251.579 33.4674 249.458 36.4565 249.458 36.4565ZM261.92 29.3091C262.014 29.392 258.799 28.6708 256.364 28.9655C253.931 29.2603 251.294 33.2189 251.294 33.2189C254.836 31.4705 259.503 32.5409 259.503 32.5409C259.503 32.5409 259.585 39.1231 261.124 42.1366C262.663 45.1505 261.123 48.1462 261.123 48.1462C264.984 47.1777 263.244 39.8149 262.44 35.7734C261.635 31.7318 261.92 29.3091 261.92 29.3091ZM254.008 28.4098C244.792 34.7189 247.596 47.3518 247.596 47.3518C244.874 41.3011 247.883 32.9112 247.883 32.9112C244.827 37.9214 244.15 43.8415 244.15 43.8415C242.41 40.4849 241.499 32.1773 244.544 29.6609C247.588 27.1443 254.008 28.4098 254.008 28.4098ZM229.973 39.9747C231.395 38.5452 230.945 37.1506 230.792 33.5108C230.638 29.8707 232.486 26.8106 232.486 26.8106C231.431 31.0648 232.971 36.7492 232.971 36.7492C232.971 36.7492 240.291 35.4623 240.623 32.4136C240.955 29.365 244.84 26.0802 250.68 26.6719C256.519 27.2638 263.566 27.2415 263.566 27.2415C263.566 27.2415 262.808 29.2504 263.79 34.6155C264.597 39.0225 266.059 45.0625 264.506 47.8129C263.67 49.2941 258.712 51.0014 256.301 53.4511C259.221 51.7439 263.302 51.384 263.302 51.384C254.08 54.9335 252.783 58.2245 252.783 58.2245C257.849 54.3038 267.552 54.0605 271.193 47.4432C274.196 41.9877 272.559 33.5355 268.174 28.0931C262.727 21.3327 261.104 15.7428 261.104 15.7428C258.254 18.931 247.78 17.6944 242.603 17.718C236.871 17.7432 230.794 20.8849 229.43 26.4794C227.854 32.95 229.973 39.9747 229.973 39.9747ZM220.486 38.2006C220.806 37.645 224.23 34.1243 224.846 29.9882C225.463 25.8521 227.359 22.1657 227.359 22.1657C226.304 25.0843 226.102 30.0829 226.102 30.0829C229.51 6.66315 255.363 21.5771 262.219 12.3747C262.219 12.3747 266.943 23.0115 272.413 30.1266C277.885 37.2415 273.714 46.9546 273.714 46.9546C276.024 44.1305 277.15 40.9403 277.15 40.9403C276.602 54.1516 261.157 55.3544 261.157 55.3544C277.502 59.6117 278.7 48.137 279.838 43.7888C280.975 39.44 286.01 34.6548 286.01 34.6548C286.01 34.6548 283.583 29.0293 282.826 24.3614C282.069 19.6934 281.288 14.6708 272.547 10.7106C263.807 6.75027 253.195 0.154204 253.195 0.154204L250.21 4.89254L248.813 0C248.813 0 241.173 1.84217 236.056 2.71569C230.939 3.58952 225.501 9.02402 225.501 9.02402C226.151 18.7736 219.896 26.6668 219.896 26.6668C219.054 32.7761 220.486 38.2006 220.486 38.2006ZM215.972 46.7791C215.972 46.7791 214.017 49.5797 213.211 52.215C213.211 52.215 213.886 54.3066 215.876 56.044C215.876 56.044 215.343 52.0735 215.972 46.7791ZM224.4 44.7065C224.4 44.7065 222.558 41.9302 221.256 40.5429C221.256 40.5429 225.877 35.5627 226.812 32.7064C226.812 32.7064 226.918 38.308 227.912 41.1799C227.912 41.1799 225.632 43.1115 224.4 44.7065ZM225.483 46.2373C225.483 46.2373 230.812 53.896 233.452 61.3765C236.092 68.8576 239.833 74.1287 245.092 76.7176C250.351 79.3066 251.798 70.219 251.798 70.219C251.798 70.219 252.59 75.4193 250.623 79.3775L251.808 79.7442C261.749 63.6299 237.687 48.8205 240.61 34.9068C236.245 39.8825 230.835 40.8993 225.483 46.2373ZM217.513 39.1103C229.545 52.2885 232.006 65.1224 235.109 70.1689C238.211 75.2156 243.458 77.6273 243.458 77.6273C240.887 77.8871 238.376 76.362 238.376 76.362C238.376 76.362 242.498 79.2935 250.564 81.1621C258.63 83.0305 267.642 88.3971 267.642 88.3971C263.283 88.5969 258.438 93.548 254.435 93.7243C250.431 93.9008 246.784 88.7125 245.292 86.4079C243.8 84.1034 241.727 83.7955 238.659 83.2869C235.592 82.7782 234.064 81.2771 232.727 75.9356C231.389 70.5937 227.906 70.5589 222.519 66.0192C218.952 63.0144 217.656 59.0271 217.38 55.121C217.204 52.6176 218.338 38.1702 217.513 39.1103ZM217.799 30.0109C217.502 33.5914 218.544 37.8399 218.544 37.8399C217.419 37.0247 215.837 36.7283 215.837 36.7283C216.34 39.588 216.126 43.7425 216.126 43.7425C213.401 47.039 211.968 50.9619 211.968 50.9619L210.287 45.8211C211.034 39.6286 217.799 30.0109 217.799 30.0109ZM177.491 33.041C177.491 33.041 184.695 24.64 193.98 27.4068C193.98 27.4068 194.962 30.1014 196.703 32.1225C198.444 34.1436 199.818 36.0108 195.115 40.4179C190.412 44.825 183.173 54.0297 182.746 59.6664C182.746 59.6664 177.689 54.7491 178.212 46.5244C178.734 38.2999 179.007 35.7001 177.491 33.041ZM228.21 96.5326C231.728 97.1006 237.224 96.5576 243.135 94.2069C249.046 91.8563 249.377 95.4845 254.044 95.887C258.509 96.2721 263.399 91.0395 269.288 90.3355C278.11 94.3231 281.48 92.4631 288.488 89.2395C291.307 92.7025 294.207 100.077 290.121 100.348C286.034 100.619 274.959 105.805 267.2 109.881C259.441 113.957 249.528 111.143 244.566 107.644C239.604 104.145 238.017 100.422 238.017 100.422L238.68 103.672C238.68 103.672 234.486 106.354 231.241 104.522C227.996 102.689 228.21 96.5326 228.21 96.5326ZM223.319 94.0976C226.131 93.9106 222.213 112.485 239.852 106.532C244.328 112.111 251.245 112.809 251.245 112.809C246.47 122.829 239.494 122.58 239.494 122.58C238.665 119.519 232.791 114.39 227.605 107.522C222.418 100.656 223.319 94.0976 223.319 94.0976ZM245.102 90.2485C245.102 90.2485 234.819 97.9634 224.018 91.2022C224.018 91.2022 226.661 82.6586 225.088 72.4364C225.088 72.4364 229.884 74.7885 232.122 80.2488C234.36 85.7091 238.885 85.3198 241.064 85.8874C243.243 86.4547 244.344 89.5866 245.102 90.2485ZM219.019 97.8547C219.019 97.8547 218.286 93.5412 213.702 91.7088C209.118 89.8761 193.424 90.0272 188.807 78.3152C188.807 78.3152 191.97 76.2359 194.256 75.7281C194.256 75.7281 192.266 73.9907 188.748 73.4227C185.231 72.855 180.72 62.7386 188.457 51.6319C196.193 40.5244 202.435 37.7958 200.387 33.8367C198.338 29.8776 190.25 22.3128 198.317 14.834C206.385 7.35465 216.57 10.24 223.015 2.51248C223.015 2.51248 225.453 12.3213 221.958 20.1201C218.462 27.9193 210.502 35.6579 209.541 44.001C209.541 44.001 206.593 37.253 209.437 29.0522C209.437 29.0522 204.035 37.6894 209.433 49.0828C214.832 60.4756 230.181 71.2082 219.019 97.8547ZM197.734 114.534L193.251 114.209C193.251 114.209 194.152 112.323 195.893 112.342C195.893 112.342 197.77 114.398 197.734 114.534ZM177.326 116.912L178.972 118.85C178.972 118.85 178.687 121.273 175.75 121.379C175.75 121.379 177.202 117.054 177.326 116.912ZM127.724 194.839C127.724 194.839 127.249 192.712 129.257 190.709C133.144 187.647 144.039 184.999 147.99 182.552C151.941 180.104 154.898 175.462 155.967 171.911C157.035 168.359 158.34 165.484 161.534 163.312C161.534 163.312 160.625 164.332 160.142 165.561C160.142 165.561 162.404 162.411 164.676 161.586C166.949 160.76 168.186 160.249 168.186 160.249C168.186 160.249 167.206 161.377 166.702 162.865C166.702 162.865 169.342 159.777 171.197 158.811C173.052 157.844 176.599 157.183 176.599 157.183C176.599 157.183 175.96 157.498 175.538 158.748C175.538 158.748 177.415 156.928 179.269 156.359C181.123 155.79 184.327 156.14 184.327 156.14C184.327 156.14 183.828 156.436 183.287 157.248C183.287 157.248 184.945 155.884 186.497 156.009C188.05 156.134 190.217 156.798 190.217 156.798C190.217 156.798 189.838 156.936 189.338 157.629C189.338 157.629 191.65 156.883 192.545 157.184C193.439 157.486 202.666 160.262 206.665 161.012C206.665 161.012 200.023 164.145 198.326 165.43C196.629 166.714 194.58 166.289 194.58 166.289C194.58 166.289 195.195 166.828 196.25 166.852C196.25 166.852 192.795 169.599 190.66 171.001C188.524 172.403 187.051 172.239 187.051 172.239C187.051 172.239 188.324 172.8 189.34 172.546C189.34 172.546 184.508 176.221 183.43 176.853C182.353 177.485 180.365 176.881 180.365 176.881C180.365 176.881 181.118 177.599 181.834 177.84C181.834 177.84 177.226 180.265 175.433 180.656C173.639 181.046 172.17 180.087 172.17 180.087C172.17 180.087 172.506 180.863 173.32 181.204C173.32 181.204 169.952 182.323 168.718 182.239C167.484 182.154 166.273 181.216 166.273 181.216C166.273 181.216 166.211 181.792 166.866 182.212C166.866 182.212 162.685 182.394 160.219 181.829C157.752 181.263 153.793 180.592 153.793 180.592C153.793 180.592 156.174 177.682 157.269 177.586C158.364 177.492 165.12 180.695 165.12 180.695C165.12 180.695 162.539 178.898 160.452 177.996C158.365 177.094 157.551 176.753 157.551 176.753C157.551 176.753 160.784 174.462 162.198 174.408C163.612 174.354 169.409 178.428 171.376 179.488C171.376 179.488 167.782 176.952 165.996 175.554C164.21 174.157 162.798 173.814 162.798 173.814C162.798 173.814 167.686 170.953 169.418 170.939C171.15 170.926 176.19 175.276 179.451 176.44C179.451 176.44 176.889 174.782 174.626 173.025C172.364 171.269 170.396 170.407 170.396 170.407C170.396 170.407 175.004 167.982 176.616 168.127C178.228 168.272 182.478 171.029 185.899 171.718C185.899 171.718 183.673 170.835 181.607 169.676C179.541 168.516 177.235 167.673 177.235 167.673C177.235 167.673 183.857 164.401 185.788 164.388C187.719 164.376 190.699 165.976 193.525 166.265C193.525 166.265 189.767 164.999 186.726 163.776C186.726 163.776 191.987 162.366 194.178 162.176C196.368 161.986 199.073 162.83 199.073 162.83C199.073 162.83 197.185 161.93 195.215 161.664C195.215 161.664 200.871 161.05 204.793 161.244C204.793 161.244 199.858 160.509 196.373 160.794C196.373 160.794 196.853 160.16 197.075 159.506C197.075 159.506 196.214 160.675 194.898 161.225C193.582 161.777 190.157 161.883 185.174 163.452C185.174 163.452 186.678 160.777 188.197 159.233C188.197 159.233 186.641 160.101 185.259 162.221C183.877 164.341 183.779 163.844 181.965 164.691C180.15 165.539 178.097 166.107 177.179 166.659C177.179 166.659 179.69 160.809 181.827 159.01C181.827 159.01 180.53 159.701 178.247 163.307C175.963 166.913 175.983 167.052 173.729 168.017C171.476 168.981 170.121 169.453 170.121 169.453C170.121 169.453 172.354 163.244 174.797 159.758C174.797 159.758 172.597 162.332 170.79 166.099C168.984 169.866 168.885 169.965 167.229 170.733C165.574 171.501 162.662 172.84 162.662 172.84C162.662 172.84 164.478 166.69 166.22 164.095C166.22 164.095 164.4 166.134 163.131 169.883C161.863 173.632 161.765 173.333 160.228 174.142C158.692 174.95 157.056 175.858 157.056 175.858C157.056 175.858 158.354 169.666 159.799 166.771C159.799 166.771 157.372 171.598 156.482 175.409C155.686 178.811 149.721 182.135 146.497 184.125C142.336 186.694 136.27 188.081 127.724 194.839ZM147.554 159.193C147.554 159.193 145.197 157.969 142.739 159.245C140.282 160.52 141.489 163.912 141.489 163.912C141.489 163.912 143.627 161.189 147.554 159.193ZM154.084 137.665C154.084 137.665 157.127 136.785 158.046 133.055C158.046 133.055 156.491 114.85 156.991 112.183C157.491 109.517 161.84 108.272 163.927 100.963C165.252 96.3237 164.905 92.3673 163.856 88.8674C163.786 89.4658 163.702 90.1475 163.615 90.7671C163.443 87.4346 162.989 86.1275 161.529 83.2348C161.443 83.0645 161.355 82.8895 161.267 82.7117C161.27 83.362 161.211 84.1584 161.021 85.0663C161.016 81.1761 159.436 78.7171 157.538 75.4132C157.559 75.913 157.56 76.4349 157.522 76.9198C156.027 72.6524 154.431 69.8155 150.625 67.1131C150.75 67.5126 150.846 67.9689 150.871 68.4647C149.235 65.7636 146.85 64.6499 144.379 62.8066C144.399 63.1405 144.411 63.5054 144.4 63.8493C142.804 61.5062 141.962 61.0049 139.938 59.2541C140.003 59.4802 140.016 59.7027 140.021 59.9268C138.823 57.843 135.064 55.4891 133.775 52.2891C133.185 54.356 131.381 58.8181 132.084 60.6742C132.084 60.6742 131.767 60.4181 131.424 60.1113C130.757 62.2565 129.842 63.8035 130.773 65.9507C130.773 65.9507 130.254 65.5788 129.815 65.1745C129.004 67.7261 127.958 69.8494 129.908 72.0727C129.908 72.0727 129.3 71.744 128.581 70.9714C128.475 73.4626 128.569 76.4106 130.595 78.1462C130.595 78.1462 129.955 77.8147 129.16 77.2518C129.659 80.5578 129.187 82.2816 131.849 84.4128C131.849 84.4128 131.024 84.1937 130.124 83.7224C130.589 87.1817 129.976 88.2124 132.424 90.879C132.424 90.879 131.583 90.3598 130.759 89.7138C131.212 94.4349 131.69 95.9162 137.613 101.188C145.704 108.386 155.486 111.494 155.486 111.494C155.486 111.494 156.228 106.571 154.64 103.475C152.166 98.6512 139.94 97.3152 133.915 91.678C140.522 96.2301 152.001 97.9159 155.254 101.533C155.254 101.533 156.193 95.9554 152.871 93.3779C149.548 90.8003 137.977 88.9145 133.447 85.1775C140.547 89.2187 148.832 89.1836 154.332 93.0749C154.332 93.0749 152.409 88.3483 150.731 87.3485C149.052 86.3488 136.949 83.6915 131.891 79.0529C138.543 83.3874 147.53 85.0473 150.808 86.3908C150.808 86.3908 149.099 83.0657 148.004 81.5164C146.291 79.0909 135.623 77.8427 130.836 72.7768C136.662 76.9892 141.531 77.3022 146.705 79.444C146.705 79.444 144.695 74.3335 142.445 73.0407C140.196 71.7483 133.891 70.2171 131.502 66.4352C135.139 69.9867 139.056 70.8171 142.341 72.0316C142.341 72.0316 139.77 67.5124 138.394 66.5984C137.018 65.6851 133.515 63.7422 132.484 61.1628C132.484 61.1628 135.76 64.4781 138.398 65.5549C138.398 65.5549 134.934 58.6588 134.018 53.5005C134.018 53.5005 136.444 60.1335 139.994 66.4984C139.994 66.4984 140.724 65.432 140.072 60.3811C140.072 60.3811 140.965 64.8156 140.928 66.8947C141.098 69.3921 143.612 72.6217 143.612 72.6217C143.612 72.6217 144.989 68.376 144.425 64.6232C144.425 64.6232 145.087 66.3137 144.812 70.0238C144.539 73.734 144.487 74.1439 146.21 77.0503C147.932 79.9562 148.547 80.3271 148.547 80.3271C148.547 80.3271 151.375 74.8941 150.926 69.4764C150.926 69.4764 151.767 72.2621 150.438 77.3706C149.11 82.4795 149.716 82.4229 150.798 84.3634C151.88 86.3038 152.296 87.1405 152.296 87.1405C152.296 87.1405 155.231 86.1465 157.154 77.8111C156.795 83.7061 153.202 87.6607 153.443 88.74C153.582 90.0857 155.023 91.5732 155.301 93.8077C155.301 93.8077 159.23 92.0839 160.817 85.612C159.349 93.3589 155.732 94.6202 156.007 96.2619C156.303 98.4356 156.163 102.02 156.163 102.02C158.897 100.045 162.811 98.4123 163.394 92.5167C163.321 100.101 157.034 101.166 156.536 104.38C156.303 105.882 156.466 116.083 156.184 121.424C155.903 126.765 155.843 127.205 155.843 127.205C155.843 127.205 149.245 122.328 147.651 120.901C146.058 119.475 146.018 116.67 140.98 112.268C140.288 111.663 139.616 111.106 138.956 110.591C139.104 110.842 139.253 111.094 139.402 111.345C137.549 109.424 135.635 108.018 132.656 106.818C132.789 106.994 132.837 107.139 132.956 107.346C131.062 106.104 130.108 105.838 127.912 105.383C128.033 105.527 128.146 105.694 128.226 105.879C126.728 104.692 123.341 104.786 121.521 104.872C121.712 105.02 121.907 105.215 122.096 105.475C120.08 104.901 119.529 104.981 117.528 105.264C117.711 105.366 117.89 105.483 118.054 105.616C115.82 105.2 113.348 105.936 111.172 106.519C113.524 107.564 113.532 109.8 114.57 109.785C114.57 109.785 114.301 110.023 114.016 110.197C114.798 112.694 114.618 113.924 116.084 113.795C116.084 113.795 115.822 113.995 115.517 114.137C116.5 115.946 118.027 117.689 119.956 117.878C119.956 117.878 119.739 118.202 119.348 118.35C120.754 119.534 122.504 121.616 124.548 121.277C124.548 121.277 124.213 121.569 123.634 121.837C125.789 123.395 128.185 124.693 130.03 124.296C129.893 124.393 129.756 124.49 129.62 124.587C133.46 125.085 145.235 121.121 145.235 121.121C145.235 121.121 143.299 119.013 142.126 119.02C140.953 119.028 130.932 123.871 130.932 123.871C130.932 123.871 139.541 119.016 141.229 118.571C141.229 118.571 138.263 115.975 136.767 115.744C135.271 115.514 124.845 121.264 124.845 121.264C124.845 121.264 132.364 115.953 136.012 115.14C136.012 115.14 132.62 113.007 130.77 112.481C128.919 111.955 120.304 117.685 120.304 117.685C120.304 117.685 126.238 112.799 129.66 111.922C129.66 111.922 126.146 110.046 124.386 109.887C122.626 109.727 118.767 112.817 116.685 113.442C118.658 112.388 121.685 109.946 123.251 109.418C123.251 109.418 121.13 108.474 119.795 108.533C118.461 108.591 116.918 109.808 115.087 109.726C115.087 109.726 117.149 109.168 118.554 108.009C118.554 108.009 115.282 106.909 112.194 106.615C112.194 106.615 115.243 106.362 119.111 107.511C119.111 107.511 119.091 106.726 118.295 105.842C118.295 105.842 119.072 106.282 119.575 107.423C120.05 108.069 124.079 108.826 124.079 108.826C124.079 108.826 123.624 107.601 122.179 105.657C122.179 105.657 124.133 107.867 124.74 108.819C125.346 109.77 127.661 110.039 130.156 111.381C130.156 111.381 130.483 108.87 128.412 106.212C128.412 106.212 129.912 107.879 130.59 109.777C131.268 111.673 130.866 111.632 132.097 112.274C133.329 112.916 135.296 113.719 136.482 114.689C136.482 114.689 135.555 110.677 133.445 107.983C133.445 107.983 134.687 109.359 135.758 111.416C136.829 113.474 136.966 114.535 138.23 115.576C139.494 116.617 142.041 118.12 142.041 118.12C142.041 118.12 141.356 114.201 139.684 111.851C139.684 111.851 140.875 113.236 141.727 115.377C142.579 117.518 142.821 118.464 144.86 120.041C147.149 121.763 150.122 123.485 151.821 125.474C156.643 129.777 156.459 133.672 154.084 137.665ZM108.514 208.007L111.492 211.527C111.492 211.527 112.149 215.689 108.698 216.141C108.698 216.141 108.428 208.058 108.514 208.007ZM87 246.308C89.7342 242.922 93.8384 239.219 95.6764 236.3C103.342 224.13 109.1 216.804 109.1 216.804C109.1 216.804 112.973 216.013 112.121 211.262C112.121 211.262 123.59 193.23 126.647 182.879C129.705 172.528 137.489 156.788 142.643 149.77C147.796 142.751 151.789 139.727 151.789 139.727C151.789 139.727 158.137 139.929 159.915 133.134C159.915 133.134 170.884 125.017 175.338 122.229C175.338 122.229 178.145 122.844 180.29 118.874C180.29 118.874 205.699 101.164 209.679 97.9622C213.66 94.7606 214.655 94.294 214.655 94.294C215.702 95.4105 214.733 96.1334 214.832 97.6206L217.538 98.0642C217.538 98.0642 204.206 105.536 196.387 111.396C196.387 111.396 194.552 110.628 192.372 114.066C192.372 114.066 171.239 129 159.618 139.385C147.997 149.771 144.478 157.215 144.478 157.215C144.478 157.215 137.667 158.112 140.342 164.789C140.342 164.789 133.802 175.772 129.939 188.759C129.939 188.759 125.503 191.813 126.195 196.174C126.195 196.174 118.505 211.996 109.904 224.852C101.754 237.033 102.794 253.322 87 246.308Z" fill="#9A0000"/>
</svg>
