<svg width="298" height="208" viewBox="0 0 298 208" fill="none" xmlns="http://www.w3.org/2000/svg">
<path d="M258.621 138.449L258.396 137.659C253.095 118.998 233.259 54.6442 233.061 53.9961L232.629 52.6023L231.188 52.8361C220.425 54.5762 212.905 55.4314 199.333 52.6497C185.374 49.7909 162.087 57.2337 151.893 71.1217C144.699 61.7022 134.101 55.9108 120.326 53.9074C95.6004 50.3147 66.7766 59.9503 54.4155 66.8692L53.1904 67.5558L53.652 68.8845C53.6875 68.9851 54.2587 70.6334 55.2086 73.4537C53.1046 74.3533 42.9097 79.3368 41.4389 91.9909L41.4034 92.3016C36.2719 93.3729 31.2736 97.2644 28.3262 102.624L27.9799 103.254L28.196 103.938C28.3054 104.281 39.1898 138.896 54.2084 194.289L54.5073 195.39L67.7295 196.884V196.964C67.8982 196.958 68.061 196.946 68.2267 196.937L158.989 207.203L162.372 206.898C166.976 203.824 216.163 171.653 250.328 175.216L251.909 175.382L252.16 173.813C256.232 148.351 257.629 140.05 257.644 139.97L257.475 139.944C257.7 139.674 257.922 139.396 258.135 139.109L258.621 138.446V138.449ZM198.665 55.9345C212.133 58.6896 220.167 57.9676 230.288 56.3725C233.176 65.7565 249.79 119.77 254.939 137.754C251.086 142.344 244.567 143.329 236.763 143.427L236.754 143.359C236.701 143.365 236.514 143.388 236.218 143.433C233.881 143.451 231.433 143.397 228.909 143.338C220.256 143.14 210.449 142.918 201.133 145.62C190.003 148.848 180.178 162.464 173.055 175.497C178.387 144.764 168.678 116.802 158.542 87.617C157.012 83.2076 155.426 78.6502 153.905 74.1018C162.786 60.7759 185.632 53.2682 198.668 55.9345H198.665ZM68.9132 174.263C83.3044 176.657 95.1358 177.604 111.622 175.577C134.187 172.804 143.559 180.122 147.448 186.754C150.212 191.465 154.831 196.878 156.266 199.642C149.62 192.847 134.314 181.075 118.334 182.741C106.861 183.934 98.1839 186.565 90.5281 188.882C82.9256 191.187 76.3234 193.182 68.3391 193.578L58.7953 192.498L68.9103 174.266L68.9132 174.263ZM211.375 155.672C223.733 149.144 233.884 147.203 236.491 146.789C243.217 146.729 249.157 146.072 253.705 143.223C253.193 146.336 252.341 151.556 251.048 159.579C247.331 159.301 236.798 158.954 223.301 162.284C208.694 165.885 187.905 174.662 170.16 195.937C178.76 176.071 199.339 162.029 211.375 155.672ZM169.237 190.977C175.742 176.299 188.073 152.903 202.062 148.845C209.191 146.777 216.79 146.522 223.881 146.602C219.853 147.981 215.104 149.923 209.949 152.636C198.088 158.877 182.104 170.428 169.237 190.98V190.977ZM119.846 57.2277C133.722 59.246 144.121 65.3126 150.75 75.2677C152.268 79.8014 153.843 84.3321 155.367 88.7179C167.062 122.392 178.18 154.412 165.615 190.791C164.996 192.214 164.437 193.546 163.94 194.756C163.973 185.645 161.697 173.227 150.662 165.799C147.386 163.595 143.399 162.174 138.475 161.458C130.224 160.259 120.793 161.266 111.67 162.239C103.487 163.112 95.7602 163.935 89.7617 163.062C87.0006 162.659 84.8255 161.934 83.1357 160.845C79.2058 133.868 60.4821 78.4727 57.2861 69.1301C69.8573 62.4953 96.725 53.8659 119.843 57.2277H119.846ZM56.2858 76.6468C62.2992 94.6247 76.7762 139.313 79.919 162.038L80.0137 162.736L80.5818 163.154C82.7954 164.796 85.6423 165.853 89.2793 166.382C95.6981 167.314 103.629 166.468 112.028 165.574C120.944 164.621 130.162 163.639 137.993 164.775C142.408 165.418 145.938 166.663 148.788 168.581C162.7 177.944 161.901 196.973 160.88 203.181C160.063 200.633 156.613 195.754 150.336 185.053C145.938 177.554 135.581 169.244 111.205 172.248C95.0884 174.23 83.5027 173.295 69.3779 170.943C68.8126 158.309 55.8893 121.469 44.8214 91.979C46.1945 81.8138 54.2054 77.576 56.2799 76.6409L56.2858 76.6468ZM31.6199 103.633C34.2063 99.327 38.45 96.1753 42.5575 95.4917C57.8927 136.532 66.4363 164.456 66.0397 172.277L66.0249 172.555L56.4693 189.782C43.105 140.704 33.2031 108.696 31.6228 103.633H31.6199ZM91.5017 192.09C99.3795 189.705 107.526 187.234 118.683 186.074C135.693 184.304 149.135 197.618 154.014 203.264L81.1175 195.017C84.6065 194.173 88.0127 193.146 91.5047 192.09H91.5017ZM173.135 196.301C189.627 178.027 210.629 168.886 223.964 165.577C236.63 162.432 246.774 162.671 250.509 162.914C250.08 165.586 249.609 168.516 249.092 171.745C224.331 169.91 191.255 186.014 173.135 196.304V196.301Z" fill="#9A0000"/>
<path d="M144.633 77.0394C144.633 77.0394 155.106 101.679 157.678 128.043C159.56 124.172 156.758 105.875 154.979 99.9652C153.201 94.0584 148.785 77.7851 146.788 75.9888C146.089 75.7698 146.146 76.5067 144.633 77.0394Z" fill="#9A0000"/>
<path d="M167.376 150.076C167.376 150.076 170.152 162.39 167.166 179.048C166.973 168.711 166.384 151.39 164.209 143.024C165.946 143.699 167.376 150.076 167.376 150.076Z" fill="#9A0000"/>
<path d="M148.67 161.529C148.67 161.529 133.959 154.87 109.793 158.845C102.277 160.014 91.0874 161.212 86.7727 158.513C89.0277 157.901 96.2662 158.025 104.68 156.619C113.726 155.11 140.091 153.503 148.67 161.529Z" fill="#9A0000"/>
<path d="M58.9877 109.936C58.9877 109.936 73.734 158.785 73.9914 162.212C70.8693 156.486 57.1055 115.123 56.271 111.803C55.4365 108.48 55.253 102.614 58.9906 109.939L58.9877 109.936Z" fill="#9A0000"/>
<path d="M51.7373 83.0322C51.7373 83.0322 45.4073 89.6433 53.1578 101.46C48.7307 98.5568 43.3713 88.1252 51.7373 83.0322Z" fill="#9A0000"/>
<path d="M40.5245 101.555L63.3941 169.664C58.6355 164.828 39.616 106.506 39.616 106.506C39.616 106.506 38.2695 96.9889 40.5245 101.555Z" fill="#9A0000"/>
<path d="M36.3075 105.319L59.1771 173.428C54.4185 168.593 35.399 110.273 35.399 110.273C35.399 110.273 34.0495 100.756 36.3075 105.319Z" fill="#9A0000"/>
<path d="M139.594 183.797C139.594 183.797 126.827 176.286 105.112 181.329C83.0381 186.455 73.3848 189.713 65.2052 187.677C74.7165 186.375 91.5905 182.048 97.4855 180.361C102.377 178.961 129.248 173.679 139.597 183.797H139.594Z" fill="#9A0000"/>
<path d="M149.936 201.402C149.936 201.402 139.739 192.527 127.111 190.316C117.189 188.579 109.796 189.588 102.845 191.734C96.3491 193.737 92.7239 194.64 90.8655 194.794C94.4403 195.454 98.1158 194.708 104.538 193.039C112.025 191.089 121.56 190.92 130.118 192.941C136.17 194.371 148.259 200.307 149.934 201.402H149.936Z" fill="#9A0000"/>
<path d="M196.469 169.889C196.469 169.889 219.596 153.616 242.883 153.752C239.808 150.621 215.29 152.142 196.469 169.889Z" fill="#9A0000"/>
<path d="M201.313 178.971C201.313 178.971 222.748 168.527 242.471 169.841C241.865 167.21 219.205 165.683 201.313 178.971Z" fill="#9A0000"/>
<path d="M225.873 61.986C225.873 61.986 238.755 101.673 239.367 103.047C240.462 99.599 227.654 61.042 227.654 61.042C227.654 61.042 224.615 57.0143 225.873 61.986Z" fill="#9A0000"/>
<path d="M244.315 117.657L251.231 135.188C249.982 136.984 244.081 140.648 234.81 140.29C225.541 139.932 216.406 139.592 210.138 140.941C210.259 139.121 217.658 137.795 223.428 137.928C229.199 138.062 238.843 139.745 246.943 133.575C244.371 125.999 240.533 111.599 240.61 111.046C241.77 112.768 244.312 117.657 244.312 117.657H244.315Z" fill="#9A0000"/>
<path d="M82.0704 63.8506C82.0704 63.8506 61.3078 66.7685 59.9938 70.953C63.5835 82.2103 70.1147 98.1787 70.5557 101.632C70.5971 94.8584 65.2674 75.8181 64.2198 72.6516C67.1288 69.494 81.3217 63.8358 82.0704 63.8506Z" fill="#9A0000"/>
<path fill-rule="evenodd" clip-rule="evenodd" d="M16.7381 163C18.8629 173.55 24.897 181.286 30.1498 180.226C24.897 181.286 22.3372 190.794 24.462 201.347C22.3372 190.794 16.2942 183.017 11 184.085C16.2972 183.017 18.8629 173.55 16.7381 163Z" fill="#9A0000"/>
<path fill-rule="evenodd" clip-rule="evenodd" d="M168.539 0.00295318C163.739 9.63258 163.754 19.4427 168.548 21.8339C163.754 19.4427 155.891 25.3762 151.088 35.0088C155.891 25.3762 155.9 15.5275 151.064 13.1157C155.9 15.5246 163.739 9.62963 168.539 0V0.00295318Z" fill="#9A0000"/>
<path fill-rule="evenodd" clip-rule="evenodd" d="M276.608 186.249C276.105 189.711 272.888 192.111 269.426 191.605C265.961 191.102 263.564 187.888 264.067 184.426C264.57 180.961 267.784 178.564 271.249 179.067C274.711 179.57 277.111 182.787 276.608 186.249Z" fill="#9A0000"/>
<path fill-rule="evenodd" clip-rule="evenodd" d="M11.3337 123.536C10.8898 126.593 8.05184 128.709 4.99486 128.265C1.93788 127.821 -0.178033 124.983 0.265865 121.929C0.709763 118.875 3.54775 116.756 6.60177 117.2C9.65875 117.644 11.7747 120.482 11.3308 123.536H11.3337Z" fill="#9A0000"/>
<path fill-rule="evenodd" clip-rule="evenodd" d="M286.133 102.769L286.743 114.609L297.92 118.56L286.08 119.169L282.126 130.346L281.517 118.506L270.336 114.553L282.18 113.946L286.133 102.769Z" fill="#9A0000"/>
<path fill-rule="evenodd" clip-rule="evenodd" d="M26.6808 36.1299L21.8127 49.3048L32.1289 58.8279L18.9599 53.9598L9.43089 64.276L14.3019 51.104L3.97983 41.578L17.1518 46.449L26.6808 36.1299Z" fill="#9A0000"/>
</svg>
