<svg width="176" height="248" viewBox="0 0 176 248" fill="none" xmlns="http://www.w3.org/2000/svg">
<path fill-rule="evenodd" clip-rule="evenodd" d="M40.5814 61.9559C41.4899 62.2277 42.4512 62.3788 43.4504 62.3788C48.904 62.3788 53.3258 57.957 53.3258 52.5084C53.3258 47.0598 48.904 42.6279 43.4504 42.6279C42.4538 42.6279 41.4899 42.784 40.5814 43.0583C44.6357 44.2839 47.5903 48.0488 47.5903 52.5084C47.5903 56.9679 44.6357 60.7253 40.5814 61.9585V61.9559Z" fill="#9A0000"/>
<path fill-rule="evenodd" clip-rule="evenodd" d="M96.0137 43.0553C95.1051 42.781 94.1413 42.625 93.1447 42.625C87.691 42.625 83.2692 47.0518 83.2692 52.5055C83.2692 57.9591 87.691 62.3759 93.1447 62.3759C94.1413 62.3759 95.1051 62.2274 96.0137 61.9531C91.9593 60.7199 89.0047 56.9575 89.0047 52.5029C89.0047 48.0484 91.9568 44.2784 96.0137 43.0528V43.0553Z" fill="#9A0000"/>
<path d="M67.1701 27.3681L62.6447 31.8936L67.1701 36.419L71.6955 31.8936L67.1701 27.3681Z" fill="#9A0000"/>
<path d="M36.7661 33.1399C38.22 33.1399 39.3985 31.9613 39.3985 30.5074C39.3985 29.0536 38.22 27.875 36.7661 27.875C35.3122 27.875 34.1337 29.0536 34.1337 30.5074C34.1337 31.9613 35.3122 33.1399 36.7661 33.1399Z" fill="#9A0000"/>
<path fill-rule="evenodd" clip-rule="evenodd" d="M119.61 26.5036C121.062 26.5036 122.242 25.3258 122.242 23.8711C122.242 22.4165 121.065 21.2412 119.61 21.2412C118.155 21.2412 116.978 22.419 116.978 23.8711C116.978 25.3232 118.155 26.5036 119.61 26.5036Z" fill="#9A0000"/>
<path fill-rule="evenodd" clip-rule="evenodd" d="M14.5539 23.1387C13.1018 23.1387 11.924 24.3165 11.924 25.7712C11.924 27.2258 13.1018 28.4011 14.5539 28.4011C16.0061 28.4011 17.1864 27.2258 17.1864 25.7712C17.1864 24.3165 16.0086 23.1387 14.5539 23.1387Z" fill="#9A0000"/>
<path fill-rule="evenodd" clip-rule="evenodd" d="M92.3996 33.6106C93.8518 33.6106 95.0296 32.4328 95.0296 30.9781C95.0296 29.5235 93.8518 28.3457 92.3996 28.3457C90.9475 28.3457 89.7672 29.5235 89.7672 30.9781C89.7672 32.4328 90.945 33.6106 92.3996 33.6106Z" fill="#9A0000"/>
<path fill-rule="evenodd" clip-rule="evenodd" d="M48.4334 235.04C48.6448 236.303 50.0642 237.328 52.4349 234.962C56.5396 230.855 64.1198 218.302 64.8572 214.303C65.5946 210.304 63.0528 211.751 62.6476 212.934C62.6476 212.934 57.0153 227.54 48.4359 235.04H48.4334Z" fill="#9A0000"/>
<path fill-rule="evenodd" clip-rule="evenodd" d="M65.7808 147.296C65.1919 147.296 64.7137 147.651 64.7137 148.086V174.509C64.7137 174.947 65.1919 175.299 65.7808 175.299C66.3697 175.299 66.8454 174.944 66.8454 174.509V148.086C66.8454 147.651 66.3697 147.296 65.7808 147.296Z" fill="#9A0000"/>
<path fill-rule="evenodd" clip-rule="evenodd" d="M65.6097 184.193C65.0862 184.193 64.6634 184.619 64.6634 185.142V195.247C64.6634 195.77 65.0887 196.193 65.6097 196.193C66.1306 196.193 66.5584 195.768 66.5584 195.247V185.142C66.5584 184.619 66.1331 184.193 65.6097 184.193Z" fill="#9A0000"/>
<path fill-rule="evenodd" clip-rule="evenodd" d="M94.2394 93.0443C107.235 88.1015 117.536 78.9408 124.583 65.8969L125.164 64.8021C126.083 63.0153 126.951 61.153 127.744 59.2654L127.9 58.8754V58.8653C128.632 57.0659 129.251 55.4099 129.792 53.8093C130.067 53.004 130.323 52.2012 130.558 51.4084C131.076 49.7222 131.529 48.0638 131.911 46.4707L131.957 46.2719C133.374 40.3778 134.239 34.3051 134.534 28.2173C134.599 26.8356 134.632 25.391 134.632 23.7955C134.632 20.0179 134.385 16.4417 133.915 13.4544L133.555 11.1718L133.273 11.2574C127.555 3.84827 97.9741 0.707481 72.976 0.0808293C47.8495 -0.545823 16.7258 2.31561 3.54599 14.1515L3.25405 14.0911L2.97721 16.2505C2.45375 20.3275 2.1442 24.4045 2.05863 28.3985C2.05108 29.6165 2.04856 31.051 2.0838 32.4603C2.22977 38.7042 2.99483 44.6561 4.35384 50.1349C4.7112 51.6223 5.14156 53.1524 5.63231 54.6725C5.88146 55.4552 6.17088 56.2933 6.51315 57.232C7.12218 58.9006 7.75638 60.4433 8.44846 61.9357C8.73536 62.5648 9.0273 63.1864 9.33434 63.7879C10.19 65.5068 11.1363 67.193 12.1455 68.8012C19.1796 80.0054 29.7974 88.25 42.7432 92.9209C43.4932 98.1053 47.2833 106.654 59.9245 109.556V133.663H57.6067C55.8626 133.663 54.4482 135.078 54.4482 136.822C54.4482 138.566 55.8626 139.98 57.6067 139.98H59.9245V198.614C59.9245 198.667 59.9346 198.719 59.9396 198.77H56.0891C53.7486 198.77 51.851 200.031 51.851 201.583C51.851 203.136 53.7486 204.4 56.0891 204.4H59.2777C57.9263 211.215 50.6632 226.003 36.6654 232.82C40.9413 240.126 49.9006 248.482 67.0165 247.978C85.1315 247.447 93.7285 242.477 100.035 232.82C86.0376 226.003 78.7744 211.215 77.423 204.4H80.6116C82.9521 204.4 84.8497 203.139 84.8497 201.583C84.8497 200.028 82.9521 198.77 80.6116 198.77H76.7611C76.7661 198.717 76.7762 198.667 76.7762 198.614V139.98H79.0789C80.823 139.98 82.2374 138.566 82.2374 136.822C82.2374 135.078 80.823 133.663 79.0789 133.663H76.7762V109.763C86.6994 107.545 93.7914 100.914 94.2344 93.0417L94.2394 93.0443ZM15.0044 65.7258C14.2746 64.5128 13.5749 63.267 12.9357 61.981C12.9181 61.9482 12.903 61.913 12.8879 61.8803C25.1642 65.4615 44.5527 69.75 66.9133 69.75C84.5527 69.75 104.057 67.0496 123.352 59.2479C122.957 60.1337 122.552 61.0095 122.129 61.8702H121.352V62.2301C79.1293 81.0875 34.9239 71.7583 15.0044 65.7233V65.7258ZM6.08783 29.1082C6.08783 28.8867 6.08783 28.6627 6.08783 28.4538C6.15326 25.3231 6.36717 22.1143 6.71951 18.8905C13.8845 20.2117 38.0823 24.2359 66.9662 24.2359C90.6733 24.2359 111.944 21.5858 130.235 16.3637C130.48 18.6262 130.605 21.1529 130.605 23.7955C130.605 24.1453 130.605 24.485 130.6 24.8198C79.386 50.3338 24.1148 35.2665 6.08531 29.1082H6.08783ZM127.998 45.5194L127.94 45.761C127.59 47.2031 127.175 48.708 126.704 50.2407C126.478 50.9982 126.236 51.7557 125.977 52.5207C125.781 53.1046 125.569 53.6986 125.348 54.3051C107.477 62.1445 89.3017 65.308 72.5482 65.8742C77.1763 64.1679 80.4933 59.726 80.4933 54.514C80.4933 48.9698 76.746 44.2938 71.6573 42.8567C90.2429 42.3006 110.593 38.6338 130.447 29.1333C130.115 34.6599 129.297 40.169 127.998 45.5194ZM6.14068 33.1046C17.0857 36.7437 38.8675 42.6755 64.832 42.9222C59.8717 44.4422 56.2527 49.0604 56.2527 54.5115C56.2527 59.9626 59.6703 64.3038 64.4118 65.9498C41.5755 65.6226 22.1241 60.8283 10.862 57.3251C10.6732 56.8444 10.4845 56.3562 10.3007 55.8504C9.97609 54.9645 9.70429 54.1793 9.47275 53.4444C9.0122 52.0149 8.60702 50.5805 8.26978 49.1812C7.03158 44.1906 6.31936 38.7848 6.14068 33.1046ZM18.3214 70.6283C29.8301 73.7817 46.7875 77.2119 66.113 77.2119C82.6879 77.2119 100.992 74.6826 119.109 67.3138C109.027 83.647 93.4366 92.3647 72.6866 93.2305C71.5012 93.2808 70.3033 93.3035 69.1305 93.3035C47.6104 93.3035 29.3847 85.0966 18.3214 70.6257V70.6283ZM47.0241 94.3127C53.8795 96.2958 61.3037 97.3327 69.1305 97.3327C70.3587 97.3327 71.6095 97.3075 72.8527 97.2546C78.9556 97.0005 84.6811 96.0618 90.0038 94.4763C89.4325 96.4594 88.5089 99.8494 82.0536 102.069C77.4985 103.634 65.6701 105.034 56.9523 102.605C50.5147 100.811 48.2019 96.7564 47.0241 94.3127ZM94.2998 234.064C94.2998 234.064 89.0651 242.849 67.4192 242.749C46.6742 242.653 44.5653 234.189 44.5653 234.189C47.5349 232.861 61.5855 218.551 62.3481 204.402H75.1253C75.9407 218.556 91.3226 232.73 94.2973 234.061L94.2998 234.064ZM73.8493 198.772H62.8565C62.8615 198.719 62.8716 198.669 62.8716 198.616V139.983H73.8342V198.616C73.8342 198.669 73.8443 198.722 73.8493 198.772ZM73.8342 133.666H62.8716V110.107C64.8673 110.394 67.0442 110.558 69.4325 110.56C70.94 110.56 72.4072 110.465 73.8317 110.283V133.666H73.8342Z" fill="#9A0000"/>
<path fill-rule="evenodd" clip-rule="evenodd" d="M139.396 168.109C139.396 178.969 130.51 187.911 119.648 187.911C130.51 187.911 139.396 196.794 139.396 207.654C139.396 196.794 148.34 187.911 159.2 187.911C148.338 187.911 139.396 178.966 139.396 168.109Z" fill="#9A0000"/>
<path fill-rule="evenodd" clip-rule="evenodd" d="M163.214 145.057C163.214 151.925 157.594 157.58 150.724 157.58C157.594 157.58 163.214 163.199 163.214 170.067C163.214 163.199 168.871 157.58 175.739 157.58C168.869 157.58 163.214 151.925 163.214 145.057Z" fill="#9A0000"/>
<path fill-rule="evenodd" clip-rule="evenodd" d="M128.386 154.028C128.386 148.262 133.135 143.541 138.903 143.541C133.135 143.541 128.386 138.792 128.386 133.026C128.386 138.792 123.667 143.541 117.899 143.541C123.667 143.541 128.386 148.26 128.386 154.028Z" fill="#9A0000"/>
<path fill-rule="evenodd" clip-rule="evenodd" d="M17.8231 146.312C13.6278 146.312 10.2303 149.713 10.2303 153.905C10.2303 158.098 13.6303 161.498 17.8231 161.498C22.0159 161.498 25.4159 158.098 25.4159 153.905C25.4159 149.713 22.0159 146.312 17.8231 146.312Z" fill="#9A0000"/>
<path fill-rule="evenodd" clip-rule="evenodd" d="M5.06355 125.537C2.26752 125.537 0 127.805 0 130.601C0 133.397 2.26752 135.662 5.06355 135.662C7.85957 135.662 10.1271 133.394 10.1271 130.601C10.1271 127.807 7.86209 125.537 5.06355 125.537Z" fill="#9A0000"/>
<path fill-rule="evenodd" clip-rule="evenodd" d="M25.8387 120.474C22.343 120.474 19.5118 123.307 19.5118 126.801C19.5118 130.294 22.3456 133.127 25.8387 133.127C29.3318 133.127 32.1681 130.294 32.1681 126.801C32.1681 123.307 29.3344 120.474 25.8387 120.474Z" fill="#9A0000"/>
<path fill-rule="evenodd" clip-rule="evenodd" d="M149.604 119.738C152.224 119.738 154.35 117.614 154.35 114.992C154.35 112.369 152.226 110.245 149.604 110.245C146.981 110.245 144.857 112.369 144.857 114.992C144.857 117.614 146.981 119.738 149.604 119.738Z" fill="#9A0000"/>
</svg>
