<svg width="280" height="248" viewBox="0 0 280 248" fill="none" xmlns="http://www.w3.org/2000/svg">
<path d="M123.5 99.5C127.5 99.5 127.833 93.5 127.5 90.5C126.667 87.1667 127.5 81 129.5 79.5C133.188 76.7342 134.5 88 133 100C131.8 109.6 132.167 122.667 132.5 128C132.5 128 137 139 140.5 128C141.593 124.564 140 107.5 140 102.5C140 97.5 138.5 94.5 140 88C141.2 82.8 143.167 83.8333 144 85C144 85 145.5 106 149.5 106C153.5 106 151.5 102.5 151.5 98C151.5 94.4 152.167 93.5 152.5 93.5C153.667 92.5 155.9 93.6 155.5 106C155 121.5 158 120.5 160.5 120C163 119.5 164 113 163 106C162.2 100.4 161 80 160.5 70.5C160.5 70.5 129.833 72.6667 120 72.5C119.5 81.5 119.5 99.5 123.5 99.5Z" fill="#9A0000"/>
<path d="M202.61 196.218C195.349 186.783 173.513 185.51 166.707 185.346C166.027 175.287 164.968 164.477 164.401 159.503C163.484 151.451 163.781 124.003 163.863 117.683C165.031 114.104 164.322 108.492 163.573 102.617C163.183 99.5481 162.814 96.65 162.735 94.1467C162.613 90.3111 162.576 85.7682 162.54 81.755C162.514 78.6858 162.491 75.7877 162.431 73.7055C162.355 71.0771 162.316 69.7547 161.593 69.3172C160.396 67.0014 157.757 66.2547 154.035 65.2053L153.019 64.9158C149.743 63.9816 144.676 64.0408 141.291 64.3697L141.357 62.4684C144.61 62.0045 147.14 60.3269 148.866 57.442C155.8 45.8595 147.731 17.4674 142.987 6.29615L140.311 0L140.592 6.83235C141.228 22.4149 136.936 30.5434 133.489 37.0797C131.123 41.5601 129.081 45.4285 129.629 50.2609C130.622 59.0275 136.029 61.5506 138.866 62.2743L138.784 64.7217C138.457 64.7908 138.193 64.8566 138.018 64.9257C137.669 64.9783 136.455 64.9158 135.475 64.8665C133.106 64.7447 129.86 64.5803 127.089 65.0178C122.279 65.7744 118.178 70.031 118.006 70.2087L118.115 70.314L118.059 70.3041L117.977 71.7186C117.894 73.1199 118.062 74.7581 118.257 76.0641C118.696 89.2157 120.065 134.309 118.65 150.177C117.723 160.572 117.248 175.537 117.046 186.968C111.801 187.668 77.5569 192.843 75.0958 209.09C74.7032 211.685 75.5182 214.11 77.524 216.297C81.4993 220.636 90.2418 223.712 100.337 225.811L100.122 225.893C100.208 226.123 102.336 231.577 108.7 237.048C114.467 242.002 124.964 247.893 142.307 247.999C142.376 248.002 142.449 247.999 142.522 247.999C142.607 247.999 142.687 247.999 142.772 247.999V247.992C160.148 247.867 171.246 240.956 177.508 235.146C184.377 228.774 187.022 222.455 187.131 222.189L186.923 222.107C195.923 218.656 202.627 213.751 204.494 206.8C205.566 202.804 204.933 199.248 202.61 196.228V196.218ZM132.11 49.9813C131.648 45.9088 133.433 42.5239 135.699 38.2343C138.589 32.7573 142.393 25.5531 143.053 13.5101C147.599 26.8788 151.911 47.5043 146.728 56.1656C145.468 58.2677 143.736 59.5045 141.449 59.942L141.581 55.9682L139.087 55.8827L138.955 59.7545C136.686 59.0703 132.898 56.8926 132.113 49.978L132.11 49.9813ZM164.299 201.702C162.085 204.81 148.173 209.35 144.019 209.501C144.019 209.488 144.019 209.478 144.019 209.478C135.495 208.439 123.43 204.136 120.781 200.873C120.312 189.208 121.404 157.635 121.873 148.773C122.15 143.533 122.807 117.512 121.873 107.249C121.672 105.028 121.513 102.121 121.388 98.9264C121.589 99.2521 121.8 99.5382 122.028 99.7685C122.803 100.558 123.615 100.722 124.156 100.722C124.218 100.722 124.281 100.722 124.347 100.716C128.791 100.417 128.857 93.9724 128.916 88.2847C128.939 86.0018 128.995 80.6562 129.949 80.6036H130.028C130.328 80.6003 130.563 80.7122 130.8 80.972C133.278 83.6728 132.202 95.8375 131.559 103.107L131.44 104.45C130.493 115.325 129.893 128.364 133.693 132.707C134.574 133.71 135.65 134.253 136.887 134.312C136.953 134.312 137.022 134.315 137.088 134.315C138.16 134.315 139.127 133.888 139.886 133.082C142.871 129.897 142.532 121.269 141.727 109.427C141.545 106.755 141.374 104.236 141.314 102.134C141.09 94.6039 140.842 86.1004 143.138 85.5083C143.65 86.4755 143.739 90.2255 143.798 92.7519C143.96 99.6073 144.141 107.377 149.093 107.459H149.189C150.436 107.459 151.416 107.061 152.102 106.282C153.54 104.644 153.168 101.838 152.801 99.127C152.574 97.4198 152.26 95.0875 152.805 94.4658C152.841 94.4197 152.96 94.2881 153.455 94.2881C153.54 94.2881 153.6 94.3079 153.682 94.3967C154.81 95.5842 154.606 101.015 154.438 105.38C154.194 111.818 153.963 117.894 156.345 120.358C157.054 121.091 157.971 121.479 159 121.479H159.089C159.617 121.47 160.105 121.391 160.561 121.249C160.617 125.486 160.818 139.717 161.168 151.569C161.583 165.671 164.391 192.057 164.285 201.702H164.299ZM159.865 71.8469C159.98 73.7811 160.016 77.9819 160.049 81.778C160.082 85.8011 160.122 90.3637 160.244 94.2256C160.326 96.8474 160.719 99.9395 161.102 102.93C161.877 109.048 162.758 115.979 160.798 118.246C160.373 118.739 159.815 118.973 159.01 118.993C158.654 118.993 158.393 118.884 158.152 118.634C156.51 116.93 156.75 110.578 156.945 105.476C157.163 99.6599 157.354 94.6335 155.51 92.6894C154.972 92.1236 154.283 91.8144 153.511 91.8045H153.422C152.109 91.8045 151.343 92.3604 150.934 92.8276C149.641 94.298 149.977 96.8046 150.334 99.456C150.594 101.417 150.924 103.854 150.228 104.644C150.159 104.726 149.944 104.969 149.143 104.969C146.589 104.93 146.418 97.5678 146.302 92.6927C146.17 87.0577 146.075 82.9852 143.35 82.9852H143.228C138.269 83.2714 138.507 91.2124 138.83 102.203C138.893 104.351 139.064 106.897 139.249 109.591C139.797 117.673 140.549 128.739 138.071 131.381C137.784 131.687 137.484 131.825 137.098 131.825H137.015C136.464 131.799 136.009 131.555 135.58 131.065C131.991 126.966 133.453 110.177 133.934 104.663L134.053 103.321C135.046 92.0907 135.627 82.5313 132.648 79.2878C131.942 78.518 131.038 78.1102 130.038 78.1102C129.962 78.1102 129.89 78.1102 129.814 78.12C126.535 78.3108 126.488 82.9228 126.432 88.2617C126.389 92.4098 126.33 98.0876 124.166 98.2356C124.07 98.2356 123.955 98.1665 123.819 98.0284C121.639 95.8112 121.025 84.653 121.154 78.143V77.9917L121.124 77.8437C121.121 77.8338 121.055 77.5378 120.966 77.0739C120.956 75.495 120.953 74.2022 120.949 73.3173C123.618 73.6594 127.056 73.8338 131.222 73.8338C142.023 73.8338 154.979 72.6561 159.874 71.8502L159.865 71.8469ZM127.475 67.4718C129.992 67.0738 133.086 67.2317 135.349 67.3468C137.243 67.4455 138.121 67.475 138.698 67.3171L138.616 69.7251L141.11 69.8106L141.208 66.8731C144.131 66.5671 149.113 66.3928 152.336 67.3106L153.359 67.6001C156.025 68.3501 157.621 68.8337 158.565 69.5343C153.309 70.3074 141.337 71.3436 131.216 71.3436C127.019 71.3436 123.611 71.1626 121.028 70.8172C122.434 69.6363 124.888 67.883 127.475 67.4751V67.4718ZM174.803 233.725C168.845 239.225 159.119 244.525 142.469 244.581C138.018 244.568 133.707 243.847 130.167 243.166C120.606 238.995 121.893 232.034 122.648 228.89C128.916 229.406 134.785 229.633 139.48 229.633C141.733 229.633 143.719 229.58 145.346 229.482C158.133 228.715 170.164 227.725 181.566 223.959C181.051 226.593 179.068 229.784 174.803 233.722V233.725ZM198.374 206.343C195.303 217.778 179.085 224.199 145.471 226.209C130.028 227.133 91.2776 224.432 81.9183 214.222C80.4271 212.597 79.8399 210.909 80.117 209.064C82.2317 195.086 111.286 191.349 117.215 190.501C117.099 198.313 116.901 202.965 116.987 203.465C120.52 207.613 131.542 213.623 144.435 214.037C150.881 214.659 161.28 210.514 167.106 205.123C167.532 201.978 167.314 196.738 166.855 189.3C173.381 189.494 190.447 189.517 196.919 197.928C198.773 200.336 199.249 203.086 198.374 206.343Z" fill="#9A0000"/>
<path d="M96.9189 199.785C96.9189 199.785 82.8816 204.916 91.149 213.002C99.4164 221.088 120.471 220.936 129.048 221.4C122.5 218.913 82.1029 215.025 96.9189 199.781V199.785Z" fill="#9A0000"/>
<path d="M154.005 126.841C154.005 126.841 154.24 142.628 154.319 149.315C154.378 154.447 155.253 159.812 155.253 163.855C155.876 158.256 157.592 135.085 154.005 126.841Z" fill="#9A0000"/>
<path d="M129.177 196.001C129.177 191.958 130.055 186.593 130.114 181.461C130.19 174.77 130.427 158.987 130.427 158.987C126.841 167.23 128.557 190.402 129.177 196.001Z" fill="#9A0000"/>
<path d="M156.394 168.938C154.418 171.944 155.876 186.665 155.665 194.027C155.606 196.126 156.81 200.767 157.536 202.218C157.536 201.803 158.473 200.145 158.367 195.376C158.301 192.264 157.328 173.707 156.391 168.938H156.394Z" fill="#9A0000"/>
<path d="M150.65 181.353C149.951 184.231 150.106 195.738 150.106 195.738C150.185 197.682 150.99 199.833 151.587 200.869C151.587 200.869 152.237 198.225 151.977 195.504C151.977 195.271 151.274 186.017 150.65 181.353Z" fill="#9A0000"/>
<path d="M136.016 46.4124C137.418 42.2149 144.491 35.6062 143.607 23.6816C143.607 23.6816 143.138 30.787 136.095 42.2939C134.848 44.3169 131.572 52.0144 137.576 57.4553C136.953 55.0474 134.614 50.6131 136.016 46.4124Z" fill="#9A0000"/>
<path d="M89.6414 50.5111C87.4245 44.9847 83.8846 40.1326 79.4144 36.3332C83.8846 32.5371 87.4245 27.6817 89.6414 22.1553C91.8584 27.6817 95.3949 32.5338 99.8651 36.3332C95.3949 40.1293 91.8584 44.9847 89.6414 50.5111Z" fill="#9A0000"/>
<path d="M194.894 160.562C193.145 156.21 190.358 152.384 186.834 149.391C190.358 146.398 193.145 142.572 194.894 138.22C196.639 142.572 199.427 146.398 202.95 149.391C199.427 152.384 196.639 156.21 194.894 160.562Z" fill="#9A0000"/>
<path d="M239.25 173.75C241.25 173.75 241.417 170.75 241.25 169.25C240.833 167.583 241.25 164.5 242.25 163.75C244.094 162.367 244.75 168 244 174C243.4 178.8 243.583 185.333 243.75 188C243.75 188 246 193.5 247.75 188C248.297 186.282 247.5 177.75 247.5 175.25C247.5 172.75 246.75 171.25 247.5 168C248.1 165.4 249.083 165.917 249.5 166.5C249.5 166.5 250.25 177 252.25 177C254.25 177 253.25 175.25 253.25 173C253.25 171.2 253.583 170.75 253.75 170.75C254.333 170.25 255.45 170.8 255.25 177C255 184.75 256.5 184.25 257.75 184C259 183.75 259.5 180.5 259 177C258.6 174.2 258 164 257.75 159.25C257.75 159.25 242.417 160.333 237.5 160.25C237.25 164.75 237.25 173.75 239.25 173.75Z" fill="#9A0000"/>
<path d="M278.805 222.109C275.175 217.392 264.256 216.755 260.853 216.673C260.514 211.643 259.984 206.239 259.7 203.752C259.242 199.725 259.39 186.001 259.432 182.842C260.015 181.052 259.661 178.246 259.286 175.309C259.092 173.774 258.907 172.325 258.867 171.073C258.806 169.156 258.788 166.884 258.77 164.877C258.757 163.343 258.745 161.894 258.716 160.853C258.678 159.539 258.658 158.877 258.297 158.659C257.698 157.501 256.378 157.127 254.518 156.603L254.01 156.458C252.372 155.991 249.838 156.02 248.145 156.185L248.179 155.234C249.805 155.002 251.07 154.163 251.933 152.721C255.4 146.93 251.365 132.734 248.993 127.148L247.656 124L247.796 127.416C248.114 135.207 245.968 139.272 244.244 142.54C243.062 144.78 242.041 146.714 242.315 149.13C242.811 153.514 245.515 154.775 246.933 155.137L246.892 156.361C246.729 156.395 246.597 156.428 246.509 156.463C246.334 156.489 245.727 156.458 245.237 156.433C244.053 156.372 242.43 156.29 241.044 156.509C238.639 156.887 236.589 159.016 236.503 159.104L236.558 159.157L236.53 159.152L236.488 159.859C236.447 160.56 236.531 161.379 236.629 162.032C236.848 168.608 237.532 191.154 236.825 199.089C236.361 204.286 236.124 211.768 236.023 217.484C233.4 217.834 216.278 220.421 215.048 228.545C214.852 229.843 215.259 231.055 216.262 232.149C218.25 234.318 222.621 235.856 227.668 236.905L227.561 236.946C227.604 237.062 228.668 239.789 231.85 242.524C234.733 245.001 239.982 247.947 248.654 247.999C248.688 248.001 248.724 247.999 248.761 247.999C248.804 247.999 248.843 247.999 248.886 247.999V247.996C257.574 247.933 263.123 244.478 266.254 241.573C269.688 238.387 271.011 235.228 271.066 235.094L270.962 235.053C275.462 233.328 278.813 230.876 279.747 227.4C280.283 225.402 279.966 223.624 278.805 222.114V222.109ZM243.555 148.991C243.324 146.954 244.216 145.262 245.35 143.117C246.795 140.379 248.696 136.777 249.026 130.755C251.299 137.439 253.455 147.752 250.864 152.083C250.234 153.134 249.368 153.752 248.225 153.971L248.291 151.984L247.044 151.941L246.978 153.877C245.843 153.535 243.949 152.446 243.557 148.989L243.555 148.991ZM259.649 224.851C258.542 226.405 251.586 228.675 249.51 228.751C249.51 228.744 249.51 228.739 249.51 228.739C245.247 228.219 239.215 226.068 237.89 224.436C237.656 218.604 238.202 202.817 238.436 198.386C238.575 195.766 238.903 182.756 238.436 177.624C238.336 176.514 238.257 175.06 238.194 173.463C238.295 173.626 238.4 173.769 238.514 173.884C238.902 174.279 239.307 174.361 239.578 174.361C239.609 174.361 239.641 174.361 239.674 174.358C241.895 174.208 241.928 170.986 241.958 168.142C241.97 167.001 241.998 164.328 242.474 164.302H242.514C242.664 164.3 242.781 164.356 242.9 164.486C244.139 165.836 243.601 171.919 243.279 175.554L243.22 176.225C242.747 181.662 242.446 188.182 244.347 190.353C244.787 190.855 245.325 191.126 245.943 191.156C245.976 191.156 246.011 191.158 246.044 191.158C246.58 191.158 247.063 190.944 247.443 190.541C248.936 188.949 248.766 184.634 248.363 178.713C248.273 177.378 248.187 176.118 248.157 175.067C248.045 171.302 247.921 167.05 249.069 166.754C249.325 167.238 249.369 169.113 249.399 170.376C249.48 173.804 249.571 177.689 252.047 177.73H252.095C252.718 177.73 253.208 177.531 253.551 177.141C254.27 176.322 254.084 174.919 253.901 173.564C253.787 172.71 253.63 171.544 253.902 171.233C253.921 171.21 253.98 171.144 254.227 171.144C254.27 171.144 254.3 171.154 254.341 171.198C254.905 171.792 254.803 174.508 254.719 176.69C254.597 179.909 254.481 182.947 255.672 184.179C256.027 184.546 256.485 184.74 257 184.74H257.045C257.309 184.735 257.553 184.695 257.78 184.625C257.808 186.743 257.909 193.858 258.084 199.784C258.292 206.836 259.695 220.028 259.643 224.851H259.649ZM257.432 159.923C257.49 160.891 257.508 162.991 257.525 164.889C257.541 166.901 257.561 169.182 257.622 171.113C257.663 172.424 257.86 173.97 258.051 175.465C258.439 178.524 258.879 181.99 257.899 183.123C257.686 183.37 257.408 183.486 257.005 183.496C256.827 183.496 256.697 183.442 256.576 183.317C255.755 182.465 255.875 179.289 255.972 176.738C256.081 173.83 256.177 171.317 255.255 170.345C254.986 170.062 254.641 169.907 254.255 169.902H254.211C253.554 169.902 253.172 170.18 252.967 170.414C252.32 171.149 252.489 172.402 252.667 173.728C252.797 174.708 252.962 175.927 252.614 176.322C252.579 176.363 252.472 176.485 252.071 176.485C250.795 176.465 250.709 172.784 250.651 170.346C250.585 167.529 250.537 165.493 249.175 165.493H249.114C246.635 165.636 246.753 169.606 246.915 175.101C246.946 176.175 247.032 177.448 247.124 178.796C247.398 182.837 247.774 188.37 246.536 189.69C246.392 189.843 246.242 189.913 246.049 189.913H246.008C245.732 189.899 245.505 189.778 245.29 189.533C243.496 187.483 244.226 179.088 244.467 176.332L244.526 175.661C245.023 170.045 245.313 165.266 243.824 163.644C243.471 163.259 243.019 163.055 242.519 163.055C242.481 163.055 242.445 163.055 242.407 163.06C240.767 163.155 240.744 165.461 240.716 168.131C240.695 170.205 240.665 173.044 239.583 173.118C239.535 173.118 239.477 173.083 239.41 173.014C238.319 171.906 238.013 166.327 238.077 163.072V162.996L238.062 162.922C238.06 162.917 238.027 162.769 237.983 162.537C237.978 161.747 237.976 161.101 237.975 160.659C239.309 160.83 241.028 160.917 243.111 160.917C248.512 160.917 254.989 160.328 257.437 159.925L257.432 159.923ZM241.237 157.736C242.496 157.537 244.043 157.616 245.175 157.673C246.122 157.723 246.56 157.738 246.849 157.659L246.808 158.863L248.055 158.905L248.104 157.437C249.566 157.284 252.056 157.196 253.668 157.655L254.179 157.8C255.512 158.175 256.311 158.417 256.782 158.767C254.155 159.154 248.169 159.672 243.108 159.672C241.01 159.672 239.306 159.581 238.014 159.409C238.717 158.818 239.944 157.941 241.237 157.738V157.736ZM264.901 240.863C261.922 243.613 257.06 246.262 248.734 246.29C246.509 246.284 244.353 245.924 242.583 245.583C237.803 243.498 238.446 240.017 238.824 238.445C241.958 238.703 244.893 238.817 247.24 238.817C248.367 238.817 249.36 238.79 250.173 238.741C256.566 238.358 262.582 237.863 268.283 235.979C268.026 237.297 267.034 238.892 264.901 240.861V240.863ZM276.687 227.172C275.151 232.889 267.042 236.099 250.235 237.104C242.514 237.566 223.139 236.216 218.459 231.111C217.714 230.298 217.42 229.454 217.559 228.532C218.616 221.543 233.143 219.675 236.107 219.25C236.05 223.157 235.951 225.482 235.993 225.732C237.76 227.806 243.271 230.811 249.718 231.019C252.941 231.33 258.14 229.257 261.053 226.561C261.266 224.989 261.157 222.369 260.928 218.65C264.19 218.747 272.723 218.759 275.96 222.964C276.887 224.168 277.124 225.543 276.687 227.172Z" fill="#9A0000"/>
<path d="M225.959 223.892C225.959 223.892 218.941 226.458 223.074 230.501C227.208 234.544 237.735 234.468 242.024 234.7C238.75 233.457 218.551 231.512 225.959 223.891V223.892Z" fill="#9A0000"/>
<path d="M254.503 187.421C254.503 187.421 254.62 195.314 254.659 198.658C254.689 201.224 255.126 203.906 255.126 205.928C255.438 203.128 256.296 191.543 254.503 187.421Z" fill="#9A0000"/>
<path d="M242.089 222C242.089 219.979 242.527 217.296 242.557 214.73C242.595 211.385 242.714 203.493 242.714 203.493C240.921 207.615 241.778 219.201 242.089 222Z" fill="#9A0000"/>
<path d="M255.697 208.469C254.709 209.972 255.438 217.332 255.333 221.013C255.303 222.063 255.905 224.384 256.268 225.109C256.268 224.902 256.736 224.073 256.683 221.688C256.65 220.132 256.164 210.854 255.695 208.469H255.697Z" fill="#9A0000"/>
<path d="M252.825 214.676C252.475 216.115 252.553 221.868 252.553 221.868C252.593 222.84 252.995 223.916 253.294 224.434C253.294 224.434 253.619 223.112 253.488 221.752C253.488 221.635 253.137 217.008 252.825 214.676Z" fill="#9A0000"/>
<path d="M245.508 147.206C246.209 145.107 249.746 141.803 249.303 135.841C249.303 135.841 249.069 139.394 245.547 145.147C244.924 146.158 243.286 150.007 246.288 152.728C245.976 151.524 244.807 149.307 245.508 147.206Z" fill="#9A0000"/>
<path d="M24.25 173.75C26.25 173.75 26.4167 170.75 26.25 169.25C25.8333 167.583 26.25 164.5 27.25 163.75C29.0939 162.367 29.75 168 29 174C28.4 178.8 28.5833 185.333 28.75 188C28.75 188 31 193.5 32.75 188C33.2966 186.282 32.5 177.75 32.5 175.25C32.5 172.75 31.75 171.25 32.5 168C33.1 165.4 34.0833 165.917 34.5 166.5C34.5 166.5 35.25 177 37.25 177C39.25 177 38.25 175.25 38.25 173C38.25 171.2 38.5833 170.75 38.75 170.75C39.3333 170.25 40.45 170.8 40.25 177C40 184.75 41.5 184.25 42.75 184C44 183.75 44.5 180.5 44 177C43.6 174.2 43 164 42.75 159.25C42.75 159.25 27.4167 160.333 22.5 160.25C22.25 164.75 22.25 173.75 24.25 173.75Z" fill="#9A0000"/>
<path d="M63.8051 222.109C60.1745 217.392 49.2563 216.755 45.8534 216.673C45.5136 211.643 44.9841 206.239 44.7004 203.752C44.2419 199.725 44.3903 186.001 44.4316 182.842C45.0155 181.052 44.6608 178.246 44.2863 175.309C44.0917 173.774 43.907 172.325 43.8674 171.073C43.8063 169.156 43.7882 166.884 43.7701 164.877C43.7569 163.343 43.7453 161.894 43.7156 160.853C43.6777 159.539 43.6579 158.877 43.2966 158.659C42.6979 157.501 41.3783 157.127 39.5176 156.603L39.0096 156.458C37.3716 155.991 34.8379 156.02 33.1455 156.185L33.1785 155.234C34.8049 155.002 36.0702 154.163 36.9329 152.721C40.4001 146.93 36.3654 132.734 33.9934 127.148L32.6556 124L32.7958 127.416C33.1142 135.207 30.9681 139.272 29.2444 142.54C28.0617 144.78 27.0407 146.714 27.3145 149.13C27.811 153.514 30.5146 154.775 31.9332 155.137L31.8919 156.361C31.7286 156.395 31.5966 156.428 31.5092 156.463C31.3343 156.489 30.7273 156.458 30.2374 156.433C29.053 156.372 27.4299 156.29 26.0443 156.509C23.6393 156.887 21.589 159.016 21.5032 159.104L21.5576 159.157L21.5296 159.152L21.4883 159.859C21.4471 160.56 21.5312 161.379 21.6286 162.032C21.848 168.608 22.5325 191.154 21.8249 199.089C21.3613 204.286 21.1238 211.768 21.0232 217.484C18.4005 217.834 1.27844 220.421 0.0478979 228.545C-0.148395 229.843 0.259094 231.055 1.262 232.149C3.24967 234.318 7.62088 235.856 12.6684 236.905L12.5612 236.946C12.6041 237.062 13.668 239.789 16.85 242.524C19.7333 245.001 24.982 247.947 33.6536 247.999C33.6882 248.001 33.7245 247.999 33.7608 247.999C33.8036 247.999 33.8433 247.999 33.8862 247.999V247.996C42.5742 247.933 48.1232 244.478 51.254 241.573C54.6883 238.387 56.0112 235.228 56.0656 235.094L55.9617 235.053C60.4616 233.328 63.8134 230.876 64.747 227.4C65.2831 225.402 64.9664 223.624 63.8051 222.114V222.109ZM28.5549 148.991C28.324 146.954 29.2164 145.262 30.3496 143.117C31.7946 140.379 33.6965 136.777 34.0264 130.755C36.2994 137.439 38.4553 147.752 35.8639 152.083C35.2338 153.134 34.3678 153.752 33.2247 153.971L33.2907 151.984L32.0437 151.941L31.9777 153.877C30.8428 153.535 28.9491 152.446 28.5566 148.989L28.5549 148.991ZM44.6493 224.851C43.5424 226.405 36.5864 228.675 34.5096 228.751C34.5096 228.744 34.5096 228.739 34.5096 228.739C30.2473 228.219 24.215 226.068 22.8904 224.436C22.6562 218.604 23.2022 202.817 23.4364 198.386C23.575 195.766 23.9033 182.756 23.4364 177.624C23.3358 176.514 23.2567 175.06 23.194 173.463C23.2946 173.626 23.4002 173.769 23.514 173.884C23.9016 174.279 24.3074 174.361 24.5779 174.361C24.6092 174.361 24.6406 174.361 24.6736 174.358C26.8955 174.208 26.9285 170.986 26.9582 168.142C26.9697 167.001 26.9977 164.328 27.4745 164.302H27.5141C27.6642 164.3 27.7813 164.356 27.9 164.486C29.1388 165.836 28.6011 171.919 28.2794 175.554L28.22 176.225C27.7466 181.662 27.4464 188.182 29.3467 190.353C29.7871 190.855 30.3249 191.126 30.9434 191.156C30.9764 191.156 31.0111 191.158 31.044 191.158C31.5801 191.158 32.0634 190.944 32.4428 190.541C33.9356 188.949 33.7658 184.634 33.3633 178.713C33.2726 177.378 33.1868 176.118 33.1571 175.067C33.0449 171.302 32.9212 167.05 34.0692 166.754C34.3249 167.238 34.3694 169.113 34.3991 170.376C34.48 173.804 34.5707 177.689 37.0467 177.73H37.0945C37.718 177.73 38.2079 177.531 38.551 177.141C39.2702 176.322 39.0838 174.919 38.9007 173.564C38.7869 172.71 38.6302 171.544 38.9024 171.233C38.9205 171.21 38.9799 171.144 39.2273 171.144C39.2702 171.144 39.2999 171.154 39.3411 171.198C39.9052 171.792 39.803 174.508 39.7188 176.69C39.5968 179.909 39.4814 182.947 40.6723 184.179C41.027 184.546 41.4855 184.74 42.0001 184.74H42.0447C42.3086 184.735 42.5527 184.695 42.7804 184.625C42.8084 186.743 42.909 193.858 43.0838 199.784C43.2917 206.836 44.6955 220.028 44.6427 224.851H44.6493ZM42.4323 159.923C42.4901 160.891 42.5082 162.991 42.5247 164.889C42.5412 166.901 42.561 169.182 42.622 171.113C42.6632 172.424 42.8596 173.97 43.0509 175.465C43.4385 178.524 43.879 181.99 42.8992 183.123C42.6864 183.37 42.4076 183.486 42.0051 183.496C41.827 183.496 41.6967 183.442 41.5762 183.317C40.7548 182.465 40.8752 179.289 40.9725 176.738C41.0814 173.83 41.177 171.317 40.2549 170.345C39.9861 170.062 39.6413 169.907 39.2553 169.902H39.2108C38.5543 169.902 38.1716 170.18 37.967 170.414C37.3204 171.149 37.4887 172.402 37.6668 173.728C37.7972 174.708 37.9621 175.927 37.6141 176.322C37.5794 176.363 37.4722 176.485 37.0714 176.485C35.7947 176.465 35.7089 172.784 35.6512 170.346C35.5852 167.529 35.5373 165.493 34.1748 165.493H34.1138C31.6345 165.636 31.7533 169.606 31.915 175.101C31.9463 176.175 32.0321 177.448 32.1244 178.796C32.3983 182.837 32.7744 188.37 31.5356 189.69C31.3921 189.843 31.2419 189.913 31.049 189.913H31.0077C30.7322 189.899 30.5047 189.778 30.2902 189.533C28.4956 187.483 29.2263 179.088 29.4671 176.332L29.5265 175.661C30.023 170.045 30.3133 165.266 28.8238 163.644C28.4708 163.259 28.0188 163.055 27.519 163.055C27.4811 163.055 27.4448 163.055 27.4069 163.06C25.7673 163.155 25.7442 165.461 25.7161 168.131C25.6947 170.205 25.665 173.044 24.5829 173.118C24.5351 173.118 24.4773 173.083 24.4096 173.014C23.3193 171.906 23.0126 166.327 23.0769 163.072V162.996L23.062 162.922C23.0603 162.917 23.0274 162.769 22.9828 162.537C22.9779 161.747 22.9763 161.101 22.9746 160.659C24.3091 160.83 26.0278 160.917 28.1112 160.917C33.5117 160.917 39.9894 160.328 42.4372 159.925L42.4323 159.923ZM26.2373 157.736C27.4959 157.537 29.0432 157.616 30.1747 157.673C31.1216 157.723 31.5603 157.738 31.849 157.659L31.8078 158.863L33.0548 158.905L33.1042 157.437C34.5657 157.284 37.0565 157.196 38.6681 157.655L39.1794 157.8C40.5123 158.175 41.3107 158.417 41.7824 158.767C39.1547 159.154 33.1687 159.672 28.1079 159.672C26.0097 159.672 24.3057 159.581 23.0142 159.409C23.7168 158.818 24.9441 157.941 26.2373 157.738V157.736ZM49.9013 240.863C46.9223 243.613 42.0595 246.262 33.7344 246.29C31.5092 246.284 29.3533 245.924 27.5834 245.583C22.803 243.498 23.4464 240.017 23.8241 238.445C26.9582 238.703 29.8927 238.817 32.2399 238.817C33.3666 238.817 34.3595 238.79 35.1728 238.741C41.5663 238.358 47.5821 237.863 53.2828 235.979C53.0255 237.297 52.0341 238.892 49.9013 240.861V240.863ZM61.6872 227.172C60.1515 232.889 52.0424 236.099 35.2355 237.104C27.5141 237.566 8.13882 236.216 3.45913 231.111C2.71355 230.298 2.41994 229.454 2.5585 228.532C3.61584 221.543 18.1431 219.675 21.1073 219.25C21.0496 223.157 20.9506 225.482 20.9935 225.732C22.7601 227.806 28.2712 230.811 34.7175 231.019C37.9407 231.33 43.1399 229.257 46.053 226.561C46.2658 224.989 46.1569 222.369 45.9277 218.65C49.1904 218.747 57.7233 218.759 60.9597 222.964C61.8867 224.168 62.1243 225.543 61.6872 227.172Z" fill="#9A0000"/>
<path d="M10.9595 223.892C10.9595 223.892 3.9408 226.458 8.07449 230.501C12.2082 234.544 22.7354 234.468 27.0242 234.7C23.7499 233.457 3.55147 231.512 10.9595 223.891V223.892Z" fill="#9A0000"/>
<path d="M39.5027 187.421C39.5027 187.421 39.6199 195.314 39.6595 198.658C39.6892 201.224 40.1263 203.906 40.1263 205.928C40.4381 203.128 41.2958 191.543 39.5027 187.421Z" fill="#9A0000"/>
<path d="M27.0885 222C27.0885 219.979 27.5273 217.296 27.557 214.73C27.5949 211.385 27.7137 203.493 27.7137 203.493C25.9207 207.615 26.7784 219.201 27.0885 222Z" fill="#9A0000"/>
<path d="M40.6971 208.469C39.709 209.972 40.4381 217.332 40.3325 221.013C40.3028 222.063 40.9049 224.384 41.2678 225.109C41.2678 224.902 41.7363 224.073 41.6835 221.688C41.6505 220.132 41.1638 210.854 40.6954 208.469H40.6971Z" fill="#9A0000"/>
<path d="M37.8252 214.676C37.4755 216.115 37.553 221.868 37.553 221.868C37.5926 222.84 37.9951 223.916 38.2937 224.434C38.2937 224.434 38.6186 223.112 38.4883 221.752C38.4883 221.635 38.1369 217.008 37.8252 214.676Z" fill="#9A0000"/>
<path d="M30.5079 147.206C31.209 145.107 34.7455 141.803 34.3035 135.841C34.3035 135.841 34.0692 139.394 30.5475 145.147C29.924 146.158 28.286 150.007 31.2882 152.728C30.9764 151.524 29.8069 149.307 30.5079 147.206Z" fill="#9A0000"/>
</svg>
