<svg width="236" height="248" viewBox="0 0 236 248" fill="none" xmlns="http://www.w3.org/2000/svg">
<path fill-rule="evenodd" clip-rule="evenodd" d="M221.26 13.1963C220.588 30.5408 227.113 44.9538 235.748 45.292C227.113 44.9585 219.489 58.897 218.812 76.2462C219.489 58.897 212.968 44.4088 204.258 44.0706C212.968 44.4088 220.588 30.5455 221.26 13.201V13.1963Z" fill="#9A0000"/>
<path fill-rule="evenodd" clip-rule="evenodd" d="M17.0016 14.3755C16.3298 31.72 22.8551 46.1377 31.4898 46.4712C22.8551 46.1377 15.2306 60.0762 14.5541 77.4207C15.2306 60.0715 8.70983 45.5833 0 45.2451C8.70983 45.5833 16.3298 31.72 17.0016 14.3755Z" fill="#9A0000"/>
<path d="M144.877 89.2359C134.251 75.8235 137.013 50.643 137.577 46.3351C138.949 44.5311 138.408 41.0782 138.667 37.94C138.991 34.0032 136.858 31.0342 133.842 32.0959C136.858 25.0538 137.849 11.275 137.849 9.71997C137.849 8.16498 137.046 5.19124 134.133 4.02617C129.539 1.22625 115.318 -0.666979 107.717 0.220916C101.92 0.897408 97.4759 2.71549 95.3102 3.75842C91.7727 4.66041 90.8707 8.1227 90.8707 9.71997C90.8707 11.3172 91.8478 24.8424 94.8075 31.9315C92.1438 31.4852 90.3305 34.2944 90.6358 37.9447C90.8942 41.0875 90.3586 44.5358 91.7256 46.3398C92.2894 50.643 95.0565 75.8282 84.4253 89.2406C72.7793 103.94 40.8854 124.554 40.8854 153.395C40.8854 182.235 42.5533 228.457 45.325 232.06C48.0967 235.663 53.922 247.037 73.3336 247.314C82.3112 247.446 94.0793 247.728 104.133 248C106.796 247.962 122.971 247.962 125.165 248C135.223 247.732 146.987 247.446 155.969 247.314C175.38 247.037 181.206 235.668 183.978 232.06C186.749 228.457 188.412 182.239 188.412 153.395C188.412 124.55 156.523 103.94 144.873 89.2406L144.877 89.2359ZM94.9672 8.16971C96.0289 9.27841 104.119 11.9373 113.683 11.9373C113.937 11.9373 114.153 11.9373 114.365 11.9373C114.576 11.9373 114.797 11.9373 115.046 11.9373C124.611 11.9373 132.7 9.27841 133.762 8.16971C133.762 8.16971 134.594 8.12271 134.457 11.3126C134.692 21.7935 129.529 31.8704 127.97 34.6703C120.293 36.5823 108.069 36.5259 100.67 34.5012C99.0073 31.4851 94.0418 21.5915 94.2719 11.3126C94.1357 8.12271 94.9672 8.16971 94.9672 8.16971ZM94.6055 37.0662C96.3578 37.9588 107.961 39.3869 114.651 39.4292C122.591 39.4762 132.945 37.9588 134.697 37.0662C134.697 37.0662 135.134 38.3346 134.401 43.6009C132.005 46.2975 122.675 46.6686 116.892 46.4337C116.037 46.3915 113.035 46.368 112.406 46.4337C106.623 46.6686 97.2926 46.3022 94.8967 43.6009C94.1638 38.3346 94.6008 37.0662 94.6008 37.0662H94.6055ZM124.498 49.182C124.066 52.7429 123.305 55.1436 120.754 58.3146C119.128 59.2119 117.456 59.4327 115.835 59.4139C115.379 59.3528 113.251 59.4045 112.504 59.4139C110.884 59.4327 109.206 59.2072 107.586 58.3146C105.03 55.1342 104.269 52.7289 103.841 49.1491C106.834 49.2525 110.4 49.2336 114.661 49.2336C118.466 49.2336 121.717 49.2524 124.503 49.182H124.498ZM181.483 212.639C180.374 232.051 174.873 234.315 167.479 239.121C162.823 242.146 141.772 242.461 125.048 242.278C122.741 242.353 106.425 242.311 104.255 242.278C87.5352 242.461 66.4794 242.146 61.8238 239.121C54.4294 234.31 48.9282 232.046 47.8195 212.639C46.7108 193.228 45.6162 153.488 48.651 142.2C53.0905 125.701 67.1371 114.374 78.2287 104.946C89.3203 95.517 96.0712 83.1287 96.4846 71.4827C96.8088 62.4581 97.2127 52.5175 97.3819 48.5008C97.8611 48.6042 98.3731 48.6934 98.9087 48.7686C99.665 52.2121 102.587 63.4212 108.69 63.3038C111.363 63.3038 113.073 63.2943 114.167 63.2802C115.257 63.2943 116.967 63.3038 119.645 63.3038C125.682 63.4212 128.609 52.4517 129.398 48.8813C130.309 48.7826 131.159 48.6652 131.921 48.5008C132.085 52.5175 132.494 62.4534 132.813 71.4827C133.227 83.1287 139.977 95.517 151.069 104.946C162.161 114.374 176.212 125.696 180.647 142.2C183.682 153.488 182.587 193.223 181.478 212.639H181.483Z" fill="#9A0000"/>
<path d="M95.9819 102.544C105.039 92.5615 102.084 75.9218 102.084 75.9218C100.793 67.4186 98.8006 78.6982 98.4342 82.5739C98.8476 102.404 66.8223 120.152 60.8607 129.9C61.7862 129.717 86.9291 112.523 95.9866 102.54L95.9819 102.544Z" fill="#9A0000"/>
<path d="M163.391 140.748C156.528 148.212 136.633 164.458 111.32 152.962C124.982 166.468 159.765 159.304 163.391 140.748Z" fill="#9A0000"/>
<path d="M106.336 155.236C87.85 142.852 79.1589 128.895 58.0844 137.487C47.1759 157.27 47.2699 227.061 77.2187 234.268C97.4618 238.153 144.609 240.37 157.641 229.833C170.678 219.296 186.204 186.571 167.347 148.025C167.347 148.025 139.061 176.588 106.336 155.236ZM69.3592 188.144C67.1136 188.144 65.2909 186.322 65.2909 184.076C65.2909 181.83 67.1136 180.012 69.3592 180.012C71.6048 180.012 73.4275 181.835 73.4275 184.076C73.4275 186.317 71.6048 188.144 69.3592 188.144ZM71.7317 161.005C72.7558 158.36 73.0376 155.452 72.5115 152.633C74.9168 154.198 77.7073 155.048 80.5448 155.118C79.5254 157.763 79.2388 160.667 79.7649 163.49C77.3549 161.926 74.5692 161.075 71.7317 161.009V161.005ZM83.4105 222.974C83.3588 219.315 82.2783 215.754 80.338 212.7C83.8708 211.901 87.1453 210.14 89.7667 207.584C89.8184 211.244 90.8989 214.805 92.8391 217.858C89.311 218.657 86.0319 220.414 83.4152 222.974H83.4105ZM98.5705 193.97C96.3249 193.97 94.5022 192.147 94.5022 189.901C94.5022 187.656 96.3249 185.833 98.5705 185.833C100.816 185.833 102.639 187.656 102.639 189.901C102.639 192.147 100.821 193.97 98.5705 193.97ZM110.216 229.185C107.971 229.185 106.148 227.362 106.148 225.121C106.148 222.88 107.971 221.053 110.216 221.053C112.462 221.053 114.285 222.876 114.285 225.121C114.285 227.367 112.462 229.185 110.216 229.185ZM114.628 179.566C113.519 176.916 111.692 174.643 109.39 172.989C111.724 171.378 113.594 169.137 114.755 166.511C115.859 169.156 117.691 171.434 119.993 173.088C117.658 174.699 115.788 176.94 114.632 179.566H114.628ZM131.7 212.775C128.632 210.779 125.071 209.698 121.454 209.609C122.755 206.231 123.117 202.529 122.45 198.931C125.522 200.927 129.078 202.008 132.696 202.097C131.394 205.475 131.033 209.177 131.7 212.775ZM137.826 193.645C133.889 190.052 133.612 183.949 137.206 180.012C139.066 177.973 141.593 176.926 144.149 176.879C143.416 177.25 142.735 177.757 142.148 178.401C139.508 181.295 139.714 185.777 142.603 188.417C145.493 191.057 149.979 190.85 152.619 187.961C153.207 187.317 153.644 186.594 153.949 185.833C154.132 188.379 153.319 190.996 151.464 193.03C147.87 196.967 141.767 197.244 137.826 193.65V193.645ZM154.311 218.093C152.065 218.093 150.242 216.27 150.242 214.025C150.242 211.779 152.065 209.956 154.311 209.956C156.556 209.956 158.379 211.779 158.379 214.025C158.379 216.27 156.556 218.093 154.311 218.093ZM160.874 176.865C158.628 176.865 156.805 175.042 156.805 172.796C156.805 170.551 158.628 168.733 160.874 168.733C163.119 168.733 164.942 170.556 164.942 172.796C164.942 175.037 163.119 176.865 160.874 176.865Z" fill="#9A0000"/>
<path d="M103.747 33.8626C100.05 27.7601 99.7731 15.7429 100.605 12.2289C98.5705 12.5108 95.5215 10.5659 95.5215 10.5659C95.5215 10.5659 96.5363 28.7748 103.747 33.8579V33.8626Z" fill="#9A0000"/>
</svg>
