<svg width="155" height="132" viewBox="0 0 155 132" fill="none" xmlns="http://www.w3.org/2000/svg">
<path fill-rule="evenodd" clip-rule="evenodd" d="M132.002 59.3173C132.002 59.3173 130.153 54.93 128.628 52.9843C127.104 51.0386 124.964 51.0824 124.316 50.3032C123.669 49.524 120.807 45.7326 119.209 44.9782C117.61 44.2236 116.467 44.3392 114.73 43.3905C112.993 42.4418 110.52 42.5253 110.695 45.345C110.695 45.345 109.411 45.3617 107.789 45.6566C106.167 45.9515 103.063 46.64 103.063 46.64C103.063 46.64 103.953 45.0867 103.514 43.4536C103.076 41.8204 102.133 41.4637 102.133 41.4637C102.133 41.4637 103.396 40.2534 104.229 39.1282C105.062 38.003 107.284 36.3864 111.818 35.4938C116.352 34.6012 117.686 34.4426 119.004 34.9994C120.323 35.5562 121.243 34.7672 122.453 35.8939C123.664 37.0208 123.265 39.9699 123.265 39.9699C123.265 39.9699 123.873 38.2667 125.623 38.643C127.373 39.0193 127.339 38.3982 128.074 39.5135C128.81 40.6289 129.286 42.6923 131.223 43.2164C133.159 43.7405 133.964 46.0028 134.049 46.4344C134.135 46.8659 133.391 52.479 133.876 54.161C134.361 55.843 132.051 59.2709 132.002 59.3173ZM135.95 61.6542C136.315 61.8909 137.458 62.6548 138.88 63.8407C138.88 63.8407 138.301 63.7021 137.977 63.8095C137.977 63.8095 139.93 64.4907 141.057 66.6285C141.057 66.6285 140.68 66.4173 140.291 66.3643C140.291 66.3643 141.529 66.8822 141.982 69.0759C141.982 69.0759 141.572 68.7844 141.337 68.7763C141.337 68.7763 142.053 69.177 142.065 71.4744C141.868 71.3092 141.671 71.1439 141.475 70.9787C141.475 70.9787 141.858 72.5759 141.662 74.0343C141.662 74.0343 140.629 73.167 138.074 73.1184C138.224 73.2158 138.373 73.3134 138.523 73.411C138.523 73.411 138.069 73.4114 137.493 73.3442C138.16 72.27 138.139 71.1385 137.867 70.0414C138.455 70.5187 139.911 71.7323 141.041 72.9435C141.041 72.9435 139.676 71.3126 138.761 70.4494C138.761 70.4494 139.93 70.6087 140.814 70.8769C140.814 70.8769 139.438 70.354 138.394 70.1198C138.394 70.1198 138.107 69.8956 137.731 69.5568C137.634 69.2418 137.521 68.9308 137.403 68.6261C138.175 68.5965 139.53 68.5816 140.194 68.7963C140.194 68.7963 139.337 68.4762 137.329 68.4377C137.098 67.8532 136.861 67.2552 136.655 66.6682C137.462 66.6259 138.407 66.6206 139.058 66.7572C139.058 66.7572 138.28 66.5487 136.608 66.5327C136.336 65.7382 136.129 64.9679 136.084 64.2834C136.666 64.2082 137.223 64.1722 137.633 64.2211C137.633 64.2211 137.06 64.1656 136.079 64.2048C136.069 63.9956 136.075 63.7946 136.1 63.604C136.272 62.2719 135.953 61.6677 135.953 61.6677C135.952 61.6689 135.951 61.6641 135.95 61.6542ZM97.0358 88.8735C97.0366 88.8409 96.9084 88.3416 96.7128 88.2786C96.7128 88.2786 97.1928 89.2064 95.7467 90.8597C95.7467 90.8597 95.7316 90.3645 95.5983 90.1741C95.5983 90.1741 95.7096 90.9753 93.9207 92.3419C93.9331 92.0891 93.9458 91.8365 93.9582 91.5839C93.9582 91.5839 92.9368 92.8296 91.6806 93.5366C91.6806 93.5366 91.7459 92.21 90.268 90.1665C90.2806 90.3421 90.293 90.5178 90.3056 90.6934C90.3056 90.6934 88.9728 88.9245 89.0512 87.8192C89.0512 87.8192 88.8347 88.1863 88.8044 88.4812C88.8044 88.4812 88.2311 86.9181 88.6076 86.036C88.4548 86.1332 88.3018 86.2304 88.1489 86.3277C88.1489 86.3277 87.9078 83.8192 89.1069 82.8276C88.8881 82.9208 88.6693 83.0139 88.4506 83.1071C89.06 80.7246 89.8054 80.3467 90.6451 80.0471C92.6264 80.7945 92.9197 79.955 92.9197 79.955L93.1311 80.6963C92.2021 81.5713 90.6055 82.196 90.6055 82.196C90.6055 82.196 92.2994 81.6951 93.1997 80.9367L93.4436 81.7917C93.3863 82.2384 93.3223 82.6901 93.2688 82.9418C93.0312 83.4138 90.4864 84.9335 90.4864 84.9335C90.4864 84.9335 92.881 83.7729 93.2716 83.2493C93.2716 83.2493 93.1238 84.3779 92.9184 85.2448C92.8058 85.747 91.0606 86.2216 90.2222 87.3961C91.0181 86.6431 91.9724 86.2793 92.8877 85.7329C92.8877 85.7329 92.6701 87.4605 92.4756 87.6334C91.9318 88.2086 91.0261 88.9501 90.7898 89.5594C90.7898 89.5594 91.4693 88.729 92.5594 87.8524C92.5594 87.8524 92.5202 90.341 92.1647 92.4027C92.1647 92.4027 92.6302 90.3628 92.7622 89.1315C92.7622 89.1315 93.3309 90.1468 93.6456 91.0025C93.6456 91.0025 93.2385 89.609 92.8021 88.6472C92.8021 88.6472 92.8164 87.5559 93.0197 86.5494C93.0197 86.5494 94.5778 88.3447 94.9044 89.2844C94.9044 89.2844 94.5877 88.2233 93.0779 86.2692C93.0779 86.2692 93.2327 84.7415 93.4244 84.0688C93.4244 84.0688 95.2434 85.9481 95.825 87.1846C95.825 87.1846 95.3196 85.9374 93.4675 83.7647C93.4675 83.7647 93.546 83.0457 93.6275 82.3748C94.2786 84.1086 95.9536 86.4219 96.934 87.7586C97.3001 88.2578 97.3361 88.2289 97.0358 88.8735ZM120.874 33.9232C120.776 34.1963 120.702 34.4545 120.646 34.7014C121.927 34.5968 123.073 35.3182 123.576 36.9642C123.704 36.8021 123.784 36.698 123.784 36.698C123.093 34.3599 123.092 32.7283 123.092 32.7283C123.066 33.9186 124.006 36.4721 124.006 36.4721C124.311 36.1253 125.28 34.874 125.28 34.874C124.898 32.4658 125.085 31.3337 125.085 31.3337C124.958 32.4923 125.446 34.6727 125.446 34.6727C125.885 34.2702 126.676 33.2303 126.676 33.2303C126.447 31.1342 126.688 30.2218 126.688 30.2218C126.508 31.0505 126.843 33.0528 126.843 33.0528C127.439 32.4133 127.934 31.6272 127.934 31.6272C128.044 30.733 128.368 29.5387 128.368 29.5387C128.216 30.3012 128.179 31.2934 128.179 31.2934C128.822 30.4585 130.068 29.1861 130.068 29.1861C128.892 30.5237 127.757 32.3131 127.757 32.3131C128.94 32.1655 129.804 31.8672 129.804 31.8672C129.361 32.2036 128.373 32.3359 127.721 32.5097C127.503 32.548 126.576 33.7049 126.576 33.7049C127.485 33.7186 128.341 33.8824 129.255 33.6925C128.123 34.1694 126.642 33.7314 126.337 34.0456C125.802 34.5829 125.193 35.3362 125.193 35.3362C125.71 35.1312 127.968 35.3622 127.968 35.3622C127.968 35.3622 125.441 35.3245 125.058 35.5607C124.688 35.9505 123.736 37.1861 123.736 37.1861C124.636 36.7444 126.664 37.2964 126.664 37.2964C126.664 37.2964 124.731 36.9439 123.688 37.3967C123.823 38.0654 123.748 38.5501 123.748 38.5501C124.968 37.6202 125.793 38.4166 127.741 38.3513C128.227 37.9114 128.637 37.6012 128.637 37.6012C128.436 37.5709 128.236 37.5403 128.035 37.5099C129.349 37.3275 130.288 35.398 130.288 35.398C130.134 35.4 129.979 35.402 129.825 35.4041C130.491 34.9324 130.769 33.5404 130.769 33.5404C130.616 33.741 130.295 33.9104 130.295 33.9104C130.843 33.1429 130.66 31.2609 130.66 31.2609C130.591 31.394 130.522 31.5272 130.453 31.6603C130.287 29.5138 130.924 28.5799 130.924 28.5799C129.696 28.5299 128.399 28.9764 128.399 28.9764C128.52 28.7986 128.642 28.6207 128.763 28.4428C126.854 28.633 126.579 29.2646 126.579 29.2646C126.566 29.0665 126.776 28.7002 126.776 28.7002C124.989 29.2523 124.658 30.331 124.658 30.331C124.671 30.0002 124.816 29.6678 124.816 29.6678C123.13 30.7808 122.722 32.4721 122.722 32.4721C122.606 32.2088 122.675 31.7123 122.675 31.7123C121.613 33.2798 121.039 34.4501 121.039 34.4501C120.894 34.2538 120.874 33.9232 120.874 33.9232ZM139.504 49.7648C136.764 50.5256 135.698 51.9313 134.304 53.9047C134.389 54.2078 134.454 54.606 134.425 55.0765C134.811 55.141 135.231 55.2085 135.728 55.2178C136.694 54.1346 137.151 52.3176 138.776 50.8147C137.821 51.7612 136.116 55.2796 136.116 55.2796C137.29 55.4214 138.675 55.4834 138.675 55.4834C140.833 52.7397 142.738 51.3927 142.738 51.3927C141.327 52.3446 139.123 55.5587 139.123 55.5587C139.78 55.632 142.044 55.7403 142.044 55.7403C144.541 53.3044 146.019 52.5906 146.019 52.5906C144.56 53.3972 142.418 55.7705 142.418 55.7705C143.251 55.9551 145.122 56.0302 145.122 56.0302C147.38 54.0305 148.646 53.5623 148.646 53.5623C147.528 54.0336 145.468 56.0807 145.468 56.0807C146.708 56.2544 148.037 56.1899 148.037 56.1899C149.172 55.5821 150.835 54.9778 150.835 54.9778C149.819 55.4283 148.629 56.2025 148.629 56.2025C150.137 56.2719 152.656 56.6897 152.656 56.6897C150.12 56.4084 147.089 56.5474 147.089 56.5474C148.241 57.8194 149.305 58.5906 149.305 58.5906C148.546 58.3466 147.572 57.2909 146.829 56.6667C146.604 56.4412 144.484 56.304 144.484 56.304C145.221 57.3861 145.739 58.5296 146.719 59.4498C145.223 58.5093 144.508 56.4035 143.888 56.303C142.817 56.1161 141.433 56.0197 141.433 56.0197C142.101 56.4596 143.702 59.3107 143.702 59.3107C143.702 59.3107 141.652 56.3021 141.059 56.0462C140.297 55.9315 138.064 55.8288 138.064 55.8288C139.326 56.5249 140.362 59.3703 140.362 59.3703C140.362 59.3703 138.948 56.3176 137.398 55.7594C136.303 55.6844 135.344 55.6056 135.344 55.6056C135.781 56.0484 137.846 59.7498 137.846 59.7498C137.846 59.7498 135.519 56.1574 135.091 55.6463C134.935 55.4595 134.685 55.4196 134.394 55.3735C134.355 55.6464 134.284 55.9395 134.167 56.2489C134.867 57.9617 134.489 59.3921 137.785 61.2953C137.737 61.0686 137.703 60.7423 137.655 60.5157C138.355 61.725 141.641 61.9462 141.641 61.9462C141.51 61.6847 141.379 61.4232 141.249 61.1618C142.55 62.5586 145.583 62.074 145.583 62.074C145.452 61.8939 145.322 61.7135 145.192 61.5332C146.294 61.9289 148.15 61.108 148.15 61.108C147.79 61.0928 147.326 60.8548 147.326 60.8548C148.677 60.8678 150.723 59.0995 150.723 59.0995C150.511 59.1281 150.298 59.1566 150.085 59.1851C152.455 57.2181 154.074 57.1985 154.074 57.1985C153.114 55.7101 151.518 54.5506 151.518 54.5506C151.826 54.5468 152.135 54.5431 152.443 54.5394C150.639 52.4472 149.673 52.6439 149.673 52.6439C149.894 52.466 150.496 52.4102 150.496 52.4102C148.37 50.7601 146.836 51.2608 146.836 51.2608C147.233 51.0027 147.741 50.8993 147.741 50.8993C145.044 49.8309 142.731 50.7453 142.731 50.7453C142.942 50.392 143.579 50.063 143.579 50.063C140.868 50.1053 139.026 50.3942 139.026 50.3942C139.135 50.0617 139.504 49.7648 139.504 49.7648ZM128.872 88.9127C128.872 88.9127 128.48 88.6334 128.344 88.2874C128.344 88.2874 130.922 89.0982 133.624 88.8447C133.624 88.8447 132.963 88.5603 132.724 88.2029C132.724 88.2029 135.101 88.933 137.698 87.484C137.698 87.484 137.184 87.4286 136.768 87.1942C136.768 87.1942 138.335 87.5646 140.317 85.5517C140.317 85.5517 139.714 85.5579 139.479 85.3905C139.479 85.3905 140.457 85.4959 142.082 83.0419C141.775 83.0719 141.468 83.102 141.16 83.132C141.16 83.132 142.655 81.7062 143.489 79.9959C143.489 79.9959 141.876 80.1536 139.358 78.295C139.572 78.3023 139.786 78.3097 140 78.317C140 78.317 137.819 76.6368 136.476 76.7998C136.476 76.7998 136.918 76.4922 137.276 76.4361C137.276 76.4361 136.029 75.9932 134.987 76.1106C134.814 76.7873 134.268 78.563 132.972 79.6583C132.821 79.7866 132.665 79.905 132.507 80.0149C132.063 80.966 131.42 82.1796 131.037 82.5139C131.037 82.5139 132.339 82.2927 133.389 81.973C134.253 81.5925 134.457 79.4719 135.985 78.3814C135.086 79.481 134.708 80.6214 134.063 81.8692C134.063 81.8692 136.041 81.6078 136.402 81.2148C137.091 80.46 137.893 79.3688 138.63 79.0219C138.63 79.0219 137.662 79.8888 136.618 81.3868C136.618 81.3868 139.618 81.2838 142.119 80.7009C142.119 80.7009 139.646 81.4291 138.151 81.6704C138.151 81.6704 139.398 82.3735 140.446 82.7468C140.446 82.7468 138.742 82.2791 137.562 81.7494C137.562 81.7494 136.234 81.8263 135.014 82.1504C135.014 82.1504 137.231 84.1294 138.382 84.5141C138.382 84.5141 137.084 84.1491 134.674 82.2431C134.674 82.2431 132.909 82.4789 132.094 82.7701C132.094 82.7701 134.329 85.1428 135.846 85.8513C135.846 85.8513 134.318 85.245 131.635 82.895C131.635 82.895 129.609 83.1797 128.795 83.4707C128.795 83.4707 130.486 85.9839 131.968 86.8542C131.968 86.8542 130.738 86.319 128.367 83.5997C128.367 83.5997 127.439 83.7159 126.532 83.8854C126.471 84.1368 126.396 84.3179 126.236 84.6707C126.664 85.2304 127.349 86.0952 127.896 86.6283C127.896 86.6283 126.998 85.7268 126.14 84.8762C125.899 85.3669 125.55 85.9754 125.049 86.6643C126.556 87.9631 128.283 88.7648 128.872 88.9127ZM126.608 83.465C126.648 83.0121 126.561 82.6769 126.561 82.6769C127.158 82.8107 127.729 82.5997 128.112 82.3115C127.781 82.7704 127.412 83.1568 127.018 83.36C126.912 83.3797 126.711 83.445 126.608 83.465ZM128.909 81.7332C129.581 81.0381 130.869 81.0841 132.333 80.1323C131.771 81.1208 131.004 82.3222 130.662 82.5265C129.913 82.7343 127.675 83.2117 127.675 83.2117C128.084 82.9088 128.611 82.3473 128.909 81.7332ZM113.452 93.9791C113.27 94.0741 113.088 94.1735 112.907 94.2778C112.907 94.2778 113.718 94.2137 114.123 94.4234C114.123 94.4234 111.331 94.923 109.256 97.527C109.256 97.527 109.816 97.325 110.351 97.3353C110.351 97.3353 108.558 97.7662 107.37 100.584C107.37 100.584 107.995 100.282 108.312 100.32C108.312 100.32 107.055 100.89 106.74 103.873C107.046 103.695 107.16 103.654 107.467 103.476C107.467 103.476 106.608 105.256 106.483 107.232C106.483 107.232 108.087 106.581 111.517 107.046C111.291 107.145 111.065 107.243 110.839 107.342C110.839 107.342 113.846 107.523 115.174 106.713C115.174 106.713 114.847 107.212 114.499 107.44C114.499 107.44 116.788 107.122 117.658 106.096C117.629 106.344 117.6 106.591 117.571 106.839C117.571 106.839 120.836 105.508 121.349 103.417C121.365 103.742 121.381 104.066 121.396 104.391C121.396 104.391 124.363 101.948 124.385 100.39C124.463 100.633 124.542 100.875 124.621 101.118C125.405 99.2361 125.83 95.4449 125.444 93.395C125.024 93.898 124.468 94.1126 124.384 94.5567C124.244 95.2935 123.884 98.715 123.884 98.715C123.884 98.715 123.924 95.3452 124.111 94.6679C124.111 94.6679 123.21 95.3376 122.169 96.0553C120.946 97.499 121.235 101.196 121.235 101.196C121.235 101.196 120.687 97.9185 121.549 96.5144C121.549 96.5144 119.426 98.0517 118.737 98.6102C118.292 99.2027 117.901 103.111 117.901 103.111C117.901 103.111 117.936 99.6166 118.353 98.8056C118.353 98.8056 117.093 99.6483 116.138 100.458C115.404 101.231 116.113 103.274 114.997 105.024C115.456 103.574 115.353 102.344 115.482 100.883C115.482 100.883 113.537 102.095 113.331 102.633C112.942 103.663 112.581 105.057 111.965 105.737C111.965 105.737 112.596 104.467 113.032 102.581C113.032 102.581 109.954 104.15 107.603 105.914C107.603 105.914 109.86 104.031 111.313 103.075C111.313 103.075 109.708 103.044 108.455 103.217C108.455 103.217 110.433 102.808 111.891 102.714C111.891 102.714 113.24 101.99 114.37 101.093C114.37 101.093 111.201 100.37 109.836 100.584C109.836 100.584 111.346 100.28 114.683 100.842C114.683 100.842 116.419 99.7578 117.14 99.0908C117.14 99.0908 113.782 98.0156 111.895 98.1123C111.895 98.1123 113.749 97.9165 117.564 98.7503C117.564 98.7503 119.549 97.4942 120.271 96.8271C120.271 96.8271 117.417 95.3563 115.496 95.2875C115.496 95.2875 117.01 95.173 120.66 96.4987C120.66 96.4987 122.087 95.6416 123.168 94.8146C123.168 94.8146 121.236 93.8766 119.833 93.4931C119.833 93.4931 121.963 94.0712 123.518 94.5267C124.262 93.918 124.743 93.382 125.217 93.0917C124.193 92.2009 122.665 91.7561 121.103 91.6434C120.501 91.9695 119.836 92.2697 118.102 92.8161C116.367 93.3626 114.486 93.8117 113.452 93.9791ZM134.568 91.1668C134.568 91.1668 134.12 91.2811 133.897 91.5295C133.897 91.5295 136.572 91.639 139.078 92.6782C139.078 92.6782 138.372 92.7144 138.047 92.9406C138.047 92.9406 140.509 93.0564 142.593 95.0656C142.593 95.0656 142.088 94.9545 141.629 95.0236C141.629 95.0236 143.222 95.193 144.567 97.486C144.567 97.486 143.994 97.2963 143.726 97.3649C143.726 97.3649 144.686 97.5756 145.572 100.129C145.288 100.01 145.003 99.8909 144.719 99.7716C144.719 99.7716 145.758 101.424 146.091 103.112C146.091 103.112 144.597 102.486 141.696 103.273C141.902 103.332 142.108 103.392 142.314 103.451C142.314 103.451 139.783 104.191 138.547 103.643C138.547 103.643 138.885 104.037 139.211 104.193C139.211 104.193 137.204 104.177 136.337 103.392C136.39 103.602 136.444 103.812 136.497 104.022C136.497 104.022 133.533 103.243 132.852 101.5C132.875 101.781 132.899 102.063 132.923 102.344C132.923 102.344 130.089 100.574 129.892 99.2346C129.852 99.4525 129.811 99.6702 129.771 99.8881C128.881 98.3559 128.082 95.1385 128.179 93.3297C128.599 93.7155 129.102 93.8378 129.225 94.2109C129.43 94.8297 130.131 97.7358 130.131 97.7358C130.131 97.7358 129.711 94.8381 129.473 94.2759C129.473 94.2759 130.326 94.7512 131.304 95.2521C132.523 96.3577 132.697 99.5745 132.697 99.5745C132.697 99.5745 132.794 96.6899 131.891 95.5776C131.891 95.5776 133.895 96.6626 134.552 97.0659C135.003 97.5261 135.786 100.848 135.786 100.848C135.786 100.848 135.357 97.8426 134.905 97.191C134.905 97.191 136.087 97.7749 137.001 98.3644C137.722 98.9476 137.345 100.787 138.506 102.168C137.946 100.972 137.894 99.9004 137.615 98.6573C137.615 98.6573 139.429 99.4819 139.668 99.9219C140.121 100.765 140.591 101.925 141.199 102.441C141.199 102.441 140.51 101.418 139.919 99.8436C139.919 99.8436 142.75 100.848 144.976 102.102C144.976 102.102 142.817 100.735 141.457 100.075C141.457 100.075 142.835 99.8679 143.934 99.8758C143.934 99.8758 142.184 99.746 140.917 99.829C140.917 99.829 139.673 99.358 138.597 98.7129C138.597 98.7129 141.244 97.7334 142.444 97.7632C142.444 97.7632 141.109 97.6717 138.298 98.5313C138.298 98.5313 136.68 97.7933 135.982 97.3001C135.982 97.3001 138.752 95.9959 140.388 95.8666C140.388 95.8666 138.768 95.9069 135.578 97.0546C135.578 97.0546 133.725 96.1963 133.027 95.703C133.027 95.703 135.317 94.115 136.964 93.8394C136.964 93.8394 135.647 93.9113 132.654 95.464C132.654 95.464 131.328 94.8864 130.302 94.2959C130.302 94.2959 131.859 93.2705 133.023 92.7824C133.023 92.7824 131.255 93.52 129.968 94.0874C128.581 93.4584 128.062 92.6383 126.59 92.6648C127.793 92.1218 128.538 92.726 128.769 92.5902C130.971 91.2931 133.78 91.0929 134.568 91.1668ZM124.185 87.9853C124.185 87.9853 129.552 99.2047 129.261 101.546C131.029 103.333 133.758 103.386 135.887 108.362C135.887 108.362 135.432 107.869 134.964 107.755C134.964 107.755 136.676 111.242 137.095 115.153C137.095 115.153 136.561 114.277 136.051 114.019C136.051 114.019 137.608 117.239 136.509 121.279C136.509 121.279 136.3 120.558 135.895 120.02C135.895 120.02 136.783 122.168 134.814 125.462C134.814 125.462 134.658 124.601 134.385 124.305C134.385 124.305 134.783 125.674 132.167 128.562C132.121 128.117 132.075 127.672 132.029 127.227C132.029 127.227 130.659 129.689 128.755 131.275C128.755 131.275 128.512 128.939 125.511 125.781C125.578 126.084 125.645 126.388 125.713 126.691C125.713 126.691 123.026 123.973 122.863 122.019C122.863 122.019 122.6 122.721 122.628 123.244C122.628 123.244 121.259 120.673 121.652 119.027C121.424 119.239 121.195 119.452 120.966 119.665C120.966 119.665 119.9 115.348 121.633 113.28C121.294 113.504 120.954 113.728 120.615 113.952C120.615 113.952 120.892 109.12 122.45 107.947C122.146 108.046 121.843 108.144 121.54 108.243C123.277 105.091 124.643 105.972 128.218 101.687C128.218 101.687 128.322 103.096 127.681 103.783C127.04 104.47 124.51 107.221 124.51 107.221C124.51 107.221 127.602 104.675 128.148 103.984C128.148 103.984 128.313 105.953 128.047 107.408C127.608 109.005 123.96 111.758 123.96 111.758C123.96 111.758 127.488 109.762 128.269 107.846C128.269 107.846 128.599 111.561 128.329 112.452C128.059 113.344 124.488 116.575 124.488 116.575C124.488 116.575 127.991 113.96 128.503 112.936C128.503 112.936 128.783 115.096 128.544 116.416C128.305 117.737 125.898 118.525 124.7 120.952C125.826 119.461 127.088 118.542 128.523 117.4C128.523 117.4 128.834 119.999 128.081 121.156C127.328 122.313 126.45 123.444 126.218 124.574C126.218 124.574 127.035 122.992 128.617 121.155C128.617 121.155 129.306 125.456 129.26 129.159C129.26 129.159 129.389 125.453 129.283 123.265C129.283 123.265 130.604 124.891 131.355 126.298C131.355 126.298 130.307 123.977 129.326 122.418C129.326 122.418 128.782 120.545 129.088 118.705C129.088 118.705 132.202 121.393 132.995 122.944C132.995 122.944 132.187 121.178 129.155 118.185C129.155 118.185 128.969 115.613 129.11 114.385C129.11 114.385 132.675 117.019 133.97 119.018C133.97 119.018 132.884 117.099 129.226 113.819C129.226 113.819 128.872 110.671 129.013 109.442C129.013 109.442 132.677 111.345 134.165 113.256C134.165 113.256 132.966 111.573 128.932 108.825C128.932 108.825 128.746 107.222 128.801 105.462C128.801 105.462 131.352 106.353 132.775 107.502C131.037 105.729 130.357 105.931 128.749 104.68C128.547 103.934 129.082 102.174 128.587 100.477C127.385 96.3594 123.424 89.041 123.43 89.0287C123.43 89.0287 123.81 88.4352 124.185 87.9853ZM93.7707 15.5547C93.8968 15.1317 94.0718 14.6567 94.3084 14.2288C94.3084 14.2288 94.8577 15.3029 96.8798 16.255C96.7912 16.1223 96.7028 15.9894 96.6143 15.8566C96.6143 15.8566 98.4043 16.6568 98.8444 17.5624C98.8444 17.5624 98.8401 17.1769 98.7298 16.9313C98.7298 16.9313 99.8614 17.9073 99.9787 18.7697C100.049 18.6251 100.119 18.4806 100.189 18.3359C100.189 18.3359 101.499 20.2046 101.053 21.5197C101.174 21.3488 101.295 21.1781 101.416 21.0073C101.416 21.0073 102.179 23.3747 101.651 24.228C101.778 24.124 101.905 24.02 102.032 23.9159C101.805 25.2122 100.053 27.3587 99.8668 28.5085C99.8131 28.0881 99.701 27.2768 99.809 27.0061C99.9884 26.5573 100.8 24.9611 100.8 24.9611C100.8 24.9611 99.6688 26.8224 99.5354 27.2555C99.5354 27.2555 99.2013 26.2101 99.1152 25.3628C99.029 24.5156 100.222 22.6843 100.222 22.6843C100.222 22.6843 98.9038 24.3007 98.8848 25.365C98.8848 25.365 98.0666 23.583 98.0305 23.1053C97.9945 22.6275 99.0763 20.4747 99.0763 20.4747C99.0763 20.4747 97.8843 22.383 97.8295 22.9694C97.8295 22.9694 97.7449 22.7946 97.636 22.5418C97.6556 22.2908 97.6816 22.0458 97.7145 21.815C97.8173 21.096 97.6561 20.6301 97.4783 20.3488C97.7664 19.8387 98.1626 19.2229 98.1629 18.4171C98.1629 18.4171 97.972 19.2052 97.595 19.8259C97.5123 19.9621 97.4369 20.0869 97.3695 20.199C97.245 20.0498 97.1377 19.9876 97.1377 19.9876C97.2525 19.3036 97.0457 18.6577 96.6781 18.0767C96.766 17.6876 96.8247 17.3203 96.7649 16.9655C96.7649 16.9655 96.7241 17.3459 96.5828 17.9325C96.1144 17.2535 95.4369 16.67 94.8205 16.2272C94.6922 15.9329 94.5691 15.6332 94.4589 15.3377C94.4589 15.3377 94.5689 15.6858 94.7308 16.1633C94.3642 15.9054 94.0245 15.6993 93.7707 15.5547ZM97.6019 23.126C97.5805 23.6653 97.5857 24.2024 97.612 24.6593C98.0286 24.7318 98.3156 24.765 98.3156 24.765C98.211 24.3635 97.8442 23.605 97.6019 23.126ZM97.6235 24.8382C97.6507 25.2103 97.6928 25.5157 97.7462 25.7051C97.8113 25.936 97.9325 26.2693 98.0451 26.6469C98.6284 26.7389 99.1156 26.7815 99.1156 26.7815C98.9526 25.935 98.413 25.0347 98.413 25.0347C98.1294 24.9693 97.8667 24.9035 97.6235 24.8382ZM98.0837 26.7791C98.2124 27.233 98.3192 27.7383 98.2996 28.2012C98.7872 28.3436 99.2627 28.5173 99.745 28.8789C99.5143 28.0033 99.1498 27.105 99.1498 27.105C98.8128 27.0045 98.4358 26.8886 98.0837 26.7791ZM104.878 25.9752C104.352 26.2703 102.925 27.7154 102.031 29.5273C101.953 29.6835 100.839 29.503 100.411 29.5087C100.241 29.6783 100.138 29.7505 100.058 29.8296C100.96 29.8374 103.29 29.7083 103.29 29.7083C103.838 28.817 104.61 27.6178 104.61 27.6178C104.103 28.4088 103.61 29.7606 103.61 29.7606C104.465 29.8265 105.508 29.4159 105.508 29.4159C106.687 27.2003 107.461 26.5994 107.461 26.5994C106.57 27.4644 105.802 29.4453 105.802 29.4453C106.435 29.4526 108.018 29.1042 108.018 29.1042C109.487 27.0529 110.404 26.3937 110.404 26.3937C109.458 27.1647 108.312 29.1338 108.312 29.1338C108.945 29.1409 110.243 28.909 110.243 28.909C111.6 27.1947 112.455 26.6864 112.455 26.6864C111.709 27.1753 110.511 28.9158 110.511 28.9158C111.464 28.9753 112.387 28.5968 112.387 28.5968C113.127 28.0107 114.251 27.3503 114.251 27.3503C113.576 27.8101 112.82 28.5197 112.82 28.5197C113.928 28.3491 115.82 28.2734 115.82 28.2734C113.934 28.4463 111.784 29.0276 111.784 29.0276C112.805 29.7423 113.654 30.0775 113.654 30.0775C113.066 30.0186 112.53 29.6383 111.9 29.3132C111.27 28.9881 109.878 29.275 109.878 29.275C109.878 29.275 110.192 29.5966 110.689 30.1258C111.187 30.6552 111.894 31.0485 111.894 31.0485C110.605 30.6935 110.056 29.3855 109.371 29.3329C108.687 29.2802 107.608 29.5221 107.608 29.5221C108.157 29.7303 109.679 31.3898 109.679 31.3898C109.679 31.3898 107.992 29.8145 107.524 29.7231C107.056 29.6319 105.031 29.9115 105.031 29.9115C105.742 30.1209 106.546 31.016 106.966 31.5364C108.316 31.5486 109.435 31.6436 111.257 33.0937C111.375 33.0577 111.443 33.0331 111.443 33.0331C111.322 32.927 111.202 32.8208 111.081 32.7148C111.94 32.8292 113.174 31.9907 113.174 31.9907C112.909 32.0326 112.537 31.9348 112.537 31.9348C113.522 31.7479 114.759 30.2248 114.759 30.2248C114.608 30.2755 114.457 30.3261 114.307 30.3767C115.75 28.669 116.925 28.4206 116.925 28.4206C116.014 27.5276 114.686 26.9551 114.686 26.9551C114.91 26.9078 115.134 26.8606 115.358 26.8133C113.746 25.6241 113.071 25.9006 113.071 25.9006C113.207 25.7452 113.636 25.6192 113.636 25.6192C111.853 24.7834 110.809 25.3531 110.809 25.3531C111.06 25.1165 111.416 24.971 111.416 24.971C109.3 24.6214 107.747 25.5912 107.747 25.5912C107.85 25.3154 108.267 24.9949 108.267 24.9949C106.3 25.4175 104.619 26.4809 104.619 26.4809C104.651 26.2345 104.878 25.9752 104.878 25.9752ZM102.95 31.2487C102.557 30.8281 102.219 30.4039 101.991 30.0283C102.409 30.0874 102.981 30.197 103.213 30.3732C103.433 30.541 103.962 31.0104 104.373 31.38C104.313 31.3702 104.251 31.3599 104.189 31.3487C103.778 31.2751 103.357 31.2473 102.95 31.2487ZM104.46 31.3936C103.988 30.9052 103.289 30.1982 103.045 30.0422C103.045 30.0422 104.136 29.9948 104.973 30.1353C105.55 30.2322 106.417 31.0425 106.9 31.5359C106.196 31.531 105.426 31.5426 104.46 31.3936ZM95.5428 33.3487C95.5428 33.3487 103.978 26.5881 104.5 24.9954C106.177 24.3916 107.945 25.1963 110.819 22.6561C110.819 22.6561 110.378 22.8329 110.043 22.7618C110.043 22.7618 112.198 21.0492 113.652 18.6672C113.652 18.6672 113.044 19.0655 112.638 19.0739C112.638 19.0739 114.613 17.4853 115.131 14.5533C115.131 14.5533 114.778 14.9516 114.355 15.1727C114.355 15.1727 115.576 14.0663 115.309 11.3462C115.309 11.3462 114.948 11.851 114.683 11.9571C114.683 11.9571 115.353 11.2002 114.549 8.54166C114.384 8.81319 114.22 9.08472 114.055 9.35626C114.055 9.35626 113.921 7.35392 113.179 5.74985C113.179 5.74985 112.316 7.17544 109.432 8.28051C109.567 8.1064 109.702 7.93229 109.837 7.75819C109.837 7.75819 107.289 8.67742 106.593 9.88179C106.593 9.88179 106.636 9.35027 106.813 9.02263C106.813 9.02263 105.155 10.2526 104.909 11.4308C104.826 11.224 104.744 11.0172 104.661 10.8105C104.661 10.8105 102.67 13.254 103.156 15.1149C103.006 14.8667 102.856 14.6184 102.706 14.3703C102.706 14.3703 101.42 17.5586 102.065 18.7907C101.9 18.6339 101.736 18.4773 101.571 18.3206C101.732 20.8787 102.876 20.7337 103.873 24.5842C103.873 24.5842 104.367 23.7111 104.163 23.073C103.96 22.435 103.169 19.8902 103.169 19.8902C103.169 19.8902 104.383 22.4762 104.524 23.0876C104.524 23.0876 105.226 21.8737 105.496 20.8579C105.698 19.6977 104.19 16.8079 104.19 16.8079C104.19 16.8079 105.85 19.1746 105.772 20.6452C105.772 20.6452 107.108 18.361 107.205 17.7055C107.302 17.0499 105.987 13.8769 105.987 13.8769C105.987 13.8769 107.445 16.6334 107.463 17.4484C107.463 17.4484 108.297 16.1473 108.544 15.2262C108.79 14.305 107.483 13.0588 107.449 11.1317C107.72 12.4351 108.252 13.4136 108.828 14.5879C108.828 14.5879 109.815 13.0153 109.682 12.0406C109.549 11.066 109.327 10.0701 109.521 9.2729C109.521 9.2729 109.566 10.5397 110.026 12.2058C110.026 12.2058 111.771 9.65582 112.863 7.26453C112.863 7.26453 111.823 9.68335 111.092 11.056C111.092 11.056 112.433 10.4181 113.341 9.74558C113.341 9.74558 111.966 10.9139 110.864 11.6128C110.864 11.6128 109.947 12.6486 109.586 13.9241C109.586 13.9241 112.4 13.1556 113.378 12.4033C113.378 12.4033 112.325 13.2885 109.472 14.2785C109.472 14.2785 108.573 15.8724 108.291 16.7049C108.291 16.7049 111.379 16.1094 112.816 15.2246C112.816 15.2246 111.537 16.1228 108.195 17.1035C108.195 17.1035 107.014 19.0162 106.732 19.8487C106.732 19.8487 109.661 19.7537 111.195 18.9841C111.195 18.9841 109.916 19.6956 106.494 20.2199C106.494 20.2199 105.889 21.1927 105.391 22.3396C105.391 22.3396 107.299 22.5513 108.56 22.2512C106.907 22.8554 106.532 22.5167 105.121 22.8255C104.765 23.2422 104.576 24.5369 103.744 25.4741C101.725 27.749 96.1266 31.9303 96.1264 31.9399C96.1264 31.9399 95.7769 32.391 95.5428 33.3487ZM49.9918 37.594C49.3896 37.6961 48.7066 37.8544 48.036 38.1004C48.036 38.1004 48.559 38.1492 48.7931 38.3273C48.7931 38.3273 46.9631 38.3363 45.3592 39.7621C45.3592 39.7621 45.7371 39.6955 46.076 39.7611C46.076 39.7611 44.8892 39.837 43.8253 41.4965C43.8253 41.4965 44.2558 41.3736 44.4532 41.4327C44.4532 41.4327 43.7351 41.5592 43.004 43.4264C43.2186 43.3468 43.4332 43.2672 43.6478 43.1875C43.1099 43.8665 43.0551 44.9114 41.864 45.8217C42.6428 46.0553 42.6099 45.9555 45.1334 46.0188C45.0595 46.1777 44.8807 46.2385 44.7244 46.3595C44.7244 46.3595 47.018 46.5689 47.9508 46.201C47.9508 46.201 47.8314 46.4736 47.585 46.5797C47.585 46.5797 49.0973 46.6906 49.7632 46.1349C49.7176 46.2891 49.6721 46.4433 49.6265 46.5975C49.6265 46.5975 51.848 46.1121 52.4032 44.8399C52.3775 45.048 52.3518 45.256 52.3261 45.4642C52.3261 45.4642 53.5209 44.7844 54.2068 44.0295C53.8885 42.9248 53.314 41.5178 53.1945 41.2289C52.792 42.0745 52.5733 43.4161 52.5733 43.4161C52.5733 43.4161 52.6507 42.0177 53.0635 41.0731C52.9571 40.9726 52.8536 40.8731 52.7526 40.7747C52.1956 40.9952 51.4437 41.3154 51.2322 41.5144C50.8847 41.8419 50.2444 44.2649 50.2444 44.2649C50.2444 44.2649 50.6488 42.0481 51.0026 41.5788C51.0026 41.5788 49.9612 41.9502 49.4101 42.3605C48.8589 42.7707 49.0898 44.1708 48.1884 45.1595C48.1884 45.1595 48.5775 44.4489 48.7169 43.7352C48.8563 43.0218 48.9503 42.5824 48.9503 42.5824C48.9503 42.5824 47.62 43.0831 47.26 43.6944C46.9001 44.3059 46.6488 44.9141 46.1828 45.278C46.1828 45.278 46.7232 44.5406 47.2064 43.3906C47.2064 43.3906 44.9882 44.3198 43.2628 45.2754C43.2628 45.2754 45.1133 44.0115 46.1413 43.5642C46.1413 43.5642 45.0425 43.3177 44.2268 43.2893C44.2268 43.2893 45.529 43.2476 46.4665 43.3486C46.4665 43.3486 47.4493 43.1756 48.2236 42.6165C48.2236 42.6165 46.2842 41.7836 45.393 41.7684C45.393 41.7684 46.3862 41.7422 48.4468 42.4674C48.4468 42.4674 49.6687 41.9705 50.2003 41.6262C50.2003 41.6262 48.1831 40.5722 46.9725 40.4253C46.9725 40.4253 48.099 40.4931 50.4333 41.4442C50.4333 41.4442 51.9576 40.8938 52.4893 40.5496C52.4893 40.5496 50.7854 39.2837 49.5712 39.0279C49.5712 39.0279 50.3066 39.0993 51.9246 39.9333C50.9845 38.9352 50.3547 38.1104 49.9918 37.594ZM52.2129 14.43C52.2129 14.43 52.3859 14.7283 52.6081 14.8379C52.6081 14.8379 52.1383 12.8973 52.3639 10.8899C52.3639 10.8899 52.5343 11.389 52.7616 11.5758C52.7616 11.5758 52.3397 9.78667 53.3414 7.88492C53.3414 7.88492 53.3659 8.26958 53.5092 8.58513C53.5092 8.58513 53.3032 7.40829 54.6582 5.97892C54.6582 5.97892 54.6406 6.42828 54.7443 6.60703C54.7443 6.60703 54.6976 5.87607 56.3317 4.72269C56.3052 4.95096 56.2788 5.17925 56.2522 5.40752C56.2522 5.40752 57.2141 4.32736 58.3461 3.74632C58.3461 3.74632 58.2073 4.94482 59.3606 6.86568C59.3607 6.70601 59.3607 6.54636 59.3607 6.38672C59.3607 6.38672 60.4054 8.05173 60.2691 9.04918C60.2691 9.04918 60.4793 8.72705 60.5239 8.4615C60.5239 8.4615 60.9235 9.90426 60.5427 10.6853C60.6811 10.6046 60.8196 10.5238 60.958 10.4429C60.958 10.4429 61.0114 12.7264 59.9114 13.5681C60.1066 13.4939 60.3019 13.42 60.4972 13.3458C60.4972 13.3458 59.819 15.7371 58.9069 16.1497C59.07 16.1343 59.2332 16.119 59.3962 16.1036C58.4891 17.0524 56.4272 18.1803 55.1211 18.4767C55.3097 18.0979 55.5947 17.5884 55.8346 17.4244C56.2326 17.1522 57.7923 16.2816 57.7923 16.2816C57.7923 16.2816 55.8199 17.1935 55.4688 17.4781C55.4688 17.4781 55.7707 16.4239 56.169 15.6728C56.5671 14.9215 58.5742 14.0692 58.5742 14.0692C58.5742 14.0692 56.5822 14.6732 55.9762 15.5457C55.9762 15.5457 56.3553 13.5287 56.5901 13.1122C56.8251 12.6957 58.8471 11.5953 58.8471 11.5953C58.8471 11.5953 56.7979 12.512 56.4271 12.9679C56.4271 12.9679 56.5413 11.8637 56.8085 11.229C57.0755 10.594 58.4843 10.4901 59.2286 9.37715C59.2286 9.37715 58.6328 9.92439 57.9752 10.2285C57.3177 10.5324 56.9148 10.7277 56.9148 10.7277C56.9148 10.7277 57.086 9.31081 57.5928 8.8155C58.0996 8.32018 58.6287 7.93153 58.8711 7.3909C58.8711 7.3909 58.285 8.09214 57.2863 8.83466C57.2863 8.83466 57.4208 6.60127 57.8565 4.75052C57.8565 4.75052 57.3268 6.57628 57.1362 7.68533C57.1362 7.68533 56.7065 6.73885 56.4868 5.94907C56.4868 5.94907 56.7531 7.23041 57.0715 8.12201C57.0715 8.12201 57.1355 9.1223 56.7768 10.0101C56.7768 10.0101 55.5147 8.31233 55.2901 7.44573C55.2901 7.44573 55.4985 8.42175 56.6852 10.2632C56.6852 10.2632 56.4919 11.5732 56.2841 12.1735C56.2841 12.1735 54.7897 10.4518 54.3626 9.3042C54.3626 9.3042 54.6934 10.3882 56.1628 12.4437C56.1628 12.4437 55.9892 14.0616 55.7814 14.6619C55.7814 14.6619 54.1558 13.2961 53.6225 12.1706C53.6225 12.1706 53.9433 13.1007 55.6601 14.9321C55.6601 14.9321 55.7166 16.0566 55.3826 16.8501C55.3826 16.8501 54.2636 15.9469 53.6781 15.2111C53.6781 15.2111 54.5647 16.3298 55.2316 17.1377C55.2316 17.1377 55.1192 17.6787 54.8256 18.5343C53.1446 17.2143 52.3332 15.0714 52.2129 14.43ZM53.0324 19.3158C53.0788 19.3646 53.5597 19.1137 53.5597 19.1137C53.5597 19.1137 53.2891 18.463 52.0462 16.6673C50.8035 14.8716 49.7314 13.9389 49.7314 13.9389C48.3014 14.1431 46.3478 14.3821 46.3478 14.3821C47.6344 14.2223 49.5026 13.5516 49.5026 13.5516C48.8115 12.5805 47.4503 11.8318 47.4503 11.8318C44.0607 12.5372 42.7368 12.2428 42.7368 12.2428C44.4433 12.4273 47.2204 11.4922 47.2204 11.4922C46.6655 10.8107 44.8905 9.43155 44.8905 9.43155C41.4161 9.68158 39.9044 9.28718 39.9044 9.28718C41.5603 9.61346 44.6606 9.09197 44.6606 9.09197C44.1057 8.41042 42.7064 7.23135 42.7064 7.23135C39.6875 7.3016 38.3911 6.84063 38.3911 6.84063C39.5709 7.20319 42.4754 6.93937 42.4754 6.93937C41.6915 5.87058 40.4707 5.22073 40.4707 5.22073C39.1937 4.95126 37.4968 4.33758 37.4968 4.33758C38.5826 4.65012 40.0043 4.82769 40.0043 4.82769C38.8395 3.79742 37.0774 1.84598 37.0774 1.84598C38.9365 3.7043 41.4626 5.4833 41.4626 5.4833C41.3111 3.76165 40.9104 2.55887 40.9104 2.55887C41.3704 3.23816 41.445 4.14674 41.6612 5.10635C41.8772 6.06596 43.4178 7.29623 43.4178 7.29623C43.4178 7.29623 43.4791 6.67738 43.5966 5.678C43.7139 4.67868 43.5011 3.57601 43.5011 3.57601C44.2711 5.26483 43.3767 7.00886 43.9296 7.78581C44.4824 8.56271 45.6968 9.49884 45.6968 9.49884C45.4289 8.72885 45.8309 5.63659 45.8309 5.63659C45.8309 5.63659 45.6643 8.82991 45.984 9.41025C46.3036 9.99055 48.3991 11.9024 48.3991 11.9024C47.8116 10.552 48.5395 7.75399 48.5395 7.75399C48.5395 7.75399 48.0923 10.7496 48.6872 11.7663C49.2822 12.7828 50.3025 13.905 50.3025 13.905C50.2214 13.2826 50.5736 10.2848 50.5736 10.2848C50.5736 10.2848 50.4706 12.7637 50.5032 13.4326C50.5357 14.1015 51.5949 15.6065 51.5949 15.6065C51.1833 11.6503 52.2657 10.7084 51.522 8.25561C51.4223 8.45992 51.3227 8.66434 51.2231 8.86877C51.3966 7.48903 49.0775 4.95145 49.0775 4.95145C49.0235 5.2364 48.9697 5.52146 48.9158 5.80651C48.7211 3.89296 46.0007 2.30023 46.0007 2.30023C45.9956 2.5228 45.9907 2.74533 45.9857 2.96793C45.3432 1.9503 43.3603 1.37745 43.3603 1.37745C43.64 1.62273 43.8667 2.10545 43.8667 2.10545C42.7936 1.22049 40.0844 1.25045 40.0844 1.25045C40.2719 1.36631 40.4593 1.48224 40.6469 1.59814C37.5587 1.57127 36.2514 0.537453 36.2514 0.537453C36.1169 2.29997 36.6915 4.22264 36.6915 4.22264C36.4426 4.02576 36.1935 3.8289 35.9445 3.63201C36.12 6.40406 37.0122 6.87896 37.0122 6.87896C36.7272 6.87205 36.2123 6.52553 36.2123 6.52553C36.9134 9.16716 38.4441 9.77684 38.4441 9.77684C37.9702 9.71772 37.5007 9.4677 37.5007 9.4677C39.0113 12.0335 41.4169 12.8312 41.4169 12.8312C41.0337 12.9652 40.3246 12.8049 40.3246 12.8049C42.5194 14.5282 45.1375 15.3788 45.1375 15.3788C44.8483 15.5627 44.3733 15.5512 44.3733 15.5512C47.9538 16.9263 51.0186 15.8788 51.0186 15.8788C51.6232 16.4661 53.0324 19.3158 53.0324 19.3158ZM42.6255 62.8249C46.0648 63.5923 55.3181 66.0284 56.7287 61.1375C57.3984 58.8154 56.4374 57.1697 55.3072 56.7129C55.3072 56.7129 54.5873 57.0294 54.4678 58.1242C54.3483 59.2188 53.0963 59.9522 53.0963 59.9522C53.0963 59.9522 54.0212 58.9723 53.8018 58.1558C53.5825 57.3392 51.8829 58.9683 50.7702 59.8482C49.6576 60.7281 46.5743 62.6102 44.6217 62.8016C44.6217 62.8016 49.8368 63.3331 52.5167 62.4912C52.5167 62.4912 50.7423 61.6252 50.1727 60.5377C51.8471 62.2673 54.5694 62.0321 55.8867 60.0077C55.8867 60.0077 54.8166 62.177 52.2541 62.0196C52.2541 62.0196 52.7194 62.4604 54.0471 62.5879C51.5827 63.7708 45.4942 63.3656 42.6255 62.8249ZM55.1258 56.3266C54.3088 56.7364 54.0478 57.78 54.0478 57.78C53.8189 57.3927 53.1161 56.9462 51.1262 58.807C49.1363 60.6678 45.4366 62.4872 45.4366 62.4872C47.8412 61.2091 49.9859 56.6797 51.8531 56.0567C53.7203 55.4337 55.1258 56.3266 55.1258 56.3266ZM55.6567 55.9577C58.3345 55.2111 59.5522 56.0042 59.5522 56.0042C59.5522 56.0042 60.8585 57.0856 60.1152 58.4515C59.3718 59.8175 57.1658 60.7186 57.1658 60.7186C57.9465 57.6833 55.6567 55.9577 55.6567 55.9577ZM74.1399 51.7753C74.1399 51.7753 71.7631 51.8133 70.5348 51.4974C70.5348 51.4974 63.0437 54.9908 60.1664 56.162C60.1664 56.162 60.7213 56.8436 60.6114 57.5092C60.6114 57.5092 66.6554 54.9827 74.1399 51.7753ZM71.0028 65.0735C71.0028 65.0735 71.965 66.6716 71.5946 68.3567C71.2243 70.0419 69.3125 71.5944 69.3125 71.5944C69.3125 71.5944 69.7554 70.9131 69.4736 70.7632C69.4736 70.7632 68.6314 71.2439 65.8877 71.7502C63.144 72.2565 60.2086 73.9035 60.2086 73.9035C60.2086 73.9035 62.1155 72.5657 62.723 71.9601C62.723 71.9601 68.0158 70.0837 68.5761 68.4032C68.5761 68.4032 70.8259 67.6701 71.0028 65.0735ZM67.0715 63.4514C64.4992 63.4433 64.1677 65.0456 63.7153 67.0935C63.3138 68.9105 62.7704 71.2048 61.2299 72.8546C61.2299 72.8546 62.826 71.6047 63.7433 68.8351C64.6608 66.0656 66.0124 65.12 66.0124 65.12C66.0124 65.12 65.8643 64.3051 67.0715 63.4514ZM67.9303 68.6022C67.9303 68.6022 67.1649 68.8224 66.4843 68.448C66.4843 68.448 67.1334 68.1058 67.0098 67.2677C66.8859 66.4295 66.2073 65.9598 66.0751 65.5032C66.0751 65.5032 65.0317 66.4802 64.2717 68.5854C63.5117 70.6907 62.778 71.6274 62.778 71.6274C62.778 71.6274 67.5003 69.7611 67.9303 68.6022ZM70.6704 65.0655C70.6643 64.2779 69.8238 63.6134 68.6656 63.3468C67.5075 63.0802 66.268 64.3149 66.3929 65.1053C66.5178 65.8957 68.1712 67.3912 66.9625 68.3164C66.9625 68.3164 70.4305 68.3524 70.6704 65.0655ZM71.6766 65.7579C72.3505 65.3686 72.9853 63.5466 72.8189 62.4928C72.6525 61.4389 71.5259 60.815 70.3116 60.9289C69.0973 61.0427 67.7697 63.0388 67.7697 63.0388C67.7697 63.0388 69.1993 62.8586 70.2518 63.5999C71.3044 64.3411 71.6766 65.7579 71.6766 65.7579ZM81.5759 51.275C80.9382 52.1664 80.8989 52.8574 80.8989 52.8574C80.8989 52.8574 80.0993 53.5538 77.9642 55.5304C75.8291 57.507 72.8111 61.7767 72.8111 61.7767C72.4235 61.0516 71.5507 60.768 71.5507 60.768C71.5507 60.768 73.3533 58.7834 75.2406 56.2043C77.1278 53.6252 80.1442 51.5506 80.1442 51.5506C80.8344 51.4957 81.5759 51.275 81.5759 51.275ZM85.7424 47.7013C85.7424 47.7013 85.0997 47.7573 84.7361 48.0825C84.3724 48.4077 83.3003 49.5987 83.3003 49.5987C83.3003 49.5987 84.6624 49.2499 85.5345 49.5573C85.5345 49.5573 85.147 48.8321 85.7424 47.7013ZM6.56001 21.9508C5.60702 22.7239 4.38247 22.7387 3.83475 22.6963C3.83475 22.6963 5.22379 22.2049 6.56001 21.9508ZM6.06792 22.7026C4.62744 23.3597 3.43656 22.7001 3.20478 24.3036C3.83311 23.6658 4.7484 24.1396 6.06792 22.7026ZM1.64731 24.8863C1.64731 24.8863 1.76634 25.939 2.18259 26.4502C2.18259 26.4502 1.97343 27.3042 2.00211 28.14C2.03084 28.9757 1.01391 29.834 1.01391 29.834C1.01391 29.834 0.471785 26.4566 1.64731 24.8863ZM5.08494 16.7374C5.1697 19.3165 4.40686 20.491 4.40686 20.491C4.98057 20.3378 5.45591 20.3255 5.45591 20.3255C4.42626 20.6823 2.68774 21.9289 2.20505 23.3249C1.72238 24.7211 2.40377 26.1215 2.40377 26.1215C2.90858 24.7974 2.60709 23.4063 3.31287 22.6598C4.01866 21.9133 6.64023 21.5471 6.74387 21.1678C6.8474 20.7885 6.56743 19.4934 6.23424 18.4593C5.90105 17.4252 5.08494 16.7374 5.08494 16.7374ZM7.08203 31.5316C8.06833 30.9827 7.64627 28.6104 7.89118 28.2822C8.13616 27.954 8.18932 26.6431 7.85019 25.8713C7.51111 25.0996 7.07003 24.6356 7.32564 23.8305C7.58128 23.0253 7.33106 21.4684 7.33106 21.4684C7.33106 21.4684 6.35798 23.5446 4.49189 24.1199C2.6258 24.6952 2.33385 27.1219 2.28232 28.3615C2.23091 29.6011 1.25139 29.8398 1.50618 30.1322C1.76097 30.4247 3.08589 30.6715 4.08272 30.7195C5.07949 30.7674 6.21132 31.1527 6.21132 31.1527C6.21132 31.1527 5.8458 30.4996 5.25857 30.1991C4.67136 29.8986 3.78571 30.1873 3.78571 30.1873C3.78571 30.1873 4.2239 29.7208 5.0761 29.8606C5.92826 30.0005 7.08203 31.5316 7.08203 31.5316ZM23.9239 29.5525C23.9239 29.5525 22.9773 29.3865 21.9712 28.6941C20.9651 28.0016 21.0157 27.8597 20.5646 27.8488C20.1134 27.8378 17.8209 28.3552 15.4743 28.1076C13.1277 27.86 12.2219 26.9314 11.3857 26.0761C10.5496 25.2207 8.74648 22.982 7.87191 21.7201C7.87191 21.7201 7.97909 23.2975 7.74778 24.0793C7.5164 24.8611 8.63443 25.8665 8.51425 26.985C8.3942 28.1035 9.55449 28.2747 10.8816 28.4261C12.2088 28.5774 14.6001 28.9454 15.4169 29.6094C15.4169 29.6094 13.962 29.8607 12.502 29.2765C11.042 28.6925 8.69969 28.254 8.33869 28.4601C7.97762 28.6661 8.34609 30.2498 7.92325 31.0986C7.5003 31.9473 7.31142 31.8951 7.31142 31.8951C7.31142 31.8951 7.92614 32.0292 9.11776 31.8671C10.3092 31.7051 12.6564 31.9289 13.955 32.2943C15.2536 32.6597 17.5326 32.7386 19.327 32.1855C21.1213 31.6323 22.2367 30.6331 23.9239 29.5525ZM24.271 20.4222C20.862 18.8128 16.9374 21.1279 14.9763 21.7009C13.0152 22.2739 11.9677 22.3679 11.9677 22.3679C12.6262 22.6701 12.889 22.6049 14.5448 22.9312C16.2007 23.2576 17.2068 23.95 18.3421 25.242C19.4774 26.534 20.5024 27.4417 20.5024 27.4417C20.5024 27.4417 17.2104 28.0303 15.3642 27.7231C13.5178 27.416 12.7379 27.2301 10.057 23.8726C7.37614 20.515 6.29731 17.7689 6.29731 17.7689C7.40701 18.0821 8.1006 18.9339 8.97952 20.0051C9.85838 21.0762 10.8357 20.9327 10.8357 20.9327C10.8357 20.9327 10.1044 20.7003 8.95012 19.193C7.79588 17.6858 6.26095 17.2669 6.26095 17.2669C8.1501 17.397 8.89889 15.3939 10.7171 16.4857C11.9231 17.2099 12.1237 17.6717 13.4227 17.8695C15.1273 18.129 17.5075 17.9443 19.8547 18.1681C22.2019 18.3918 24.271 20.4222 24.271 20.4222ZM25.231 29.5365C25.231 29.5365 23.9183 32.9884 21.8268 34.0831C19.7352 35.1779 14.7957 34.0087 13.0556 33.203C11.3154 32.3975 8.84737 32.2662 8.84737 32.2662C8.84737 32.2662 11.019 31.8414 13.8762 32.6263C16.7335 33.4112 20.0081 32.536 21.3819 31.6624C22.7558 30.7889 24.3444 29.8729 25.231 29.5365ZM26.4084 23.6474C26.8021 27.2837 25.3869 28.9436 25.3869 28.9436C22.3951 30.2399 19.3419 25.1931 17.1921 23.5439C15.9075 22.5584 13.3444 22.425 13.3444 22.425C14.5595 22.3122 15.2776 22.1356 16.4833 21.6551C18.7142 20.7661 21.6495 19.662 23.9533 20.8202C25.9972 21.8478 26.4084 23.6474 26.4084 23.6474ZM26.0837 22.2317C26.0362 22.2306 24.811 19.6479 22.1064 18.4133C19.4017 17.1789 14.8691 17.9998 12.8668 17.2357C10.8643 16.4715 8.46367 13.3354 8.46367 13.3354C8.46367 13.3354 10.3307 14.836 11.5295 15.4138C12.7282 15.9916 14.3468 16.8434 17.5554 16.8717C20.6672 16.8992 22.3759 16.9882 23.9986 18.7931C25.6213 20.5981 26.0837 22.2317 26.0837 22.2317ZM26.8422 30.7922C26.8422 30.7922 26.3576 30.1602 25.5825 29.7597C25.5825 29.7597 25.2535 30.6583 24.8413 31.0301C24.8413 31.0301 25.5677 31.4773 26.8422 30.7922ZM30.4273 25.6056C30.4273 25.6056 29.6048 23.0803 26.6802 23.1767C26.6802 23.1767 27.2117 27.0311 25.715 29.1424C25.715 29.1424 27.4366 28.6592 28.1359 28.1988C28.8352 27.7384 28.9467 27.0014 30.4273 25.6056ZM19.6883 12.8669C19.6883 12.8669 21.1841 11.8531 22.7487 12.0102C22.7487 12.0102 22.6623 11.6264 22.387 11.1903C22.387 11.1903 22.8629 11.1539 24.0601 11.8033C24.0601 11.8033 24.9915 11.5872 26.4147 11.6932C26.4147 11.6932 26.3288 11.2855 26.0308 10.8011C26.0308 10.8011 27.2106 11.1635 28.3299 11.0475C28.3299 11.0475 23.4604 8.87784 19.6883 12.8669ZM23.0667 14.7858C21.3095 12.6197 18.2844 14.026 18.2844 14.026C20.9811 13.4947 23.0667 14.7858 23.0667 14.7858ZM22.3823 16.7019C22.3823 16.7019 21.1109 15.1203 18.4012 15.1741C19.8308 15.9067 20.6257 15.6811 22.3823 16.7019ZM16.4775 16.2014C15.419 15.7225 15.4572 15.0791 15.136 14.5702C14.8148 14.0614 13.7758 13.7739 13.7758 13.7739C14.5735 14.2227 14.661 14.5588 15.0466 15.3794C15.4322 16.2 16.3587 16.1985 16.4775 16.2014ZM22.9587 17.4794C22.4935 17.0387 21.9117 16.4998 20.0906 16.1217C18.2697 15.7436 18.5883 15.298 17.3785 15.221C16.1686 15.144 15.6045 14.8679 15.6045 14.8679C16.8637 17.2645 20.397 15.6418 22.9587 17.4794ZM24.7053 14.8253C23.1484 13.2607 23.6711 12.1996 22.22 12.2839C20.7687 12.3681 18.8169 13.5856 18.8169 13.5856C20.1688 13.139 21.1719 13.2596 21.9712 13.5605C23.1807 14.0156 23.4466 14.9915 24.7053 14.8253ZM28.387 10.6195C28.387 10.6195 27.5325 9.52501 25.0423 9.32164C22.5522 9.11835 20.0953 10.6099 18.7826 11.9383C17.4699 13.2666 15.926 14.303 15.3631 13.9793C14.8001 13.6554 14.0741 13.1845 13.1432 13.3768C13.1432 13.3768 14.2129 13.355 15.1715 14.0461C16.1301 14.7375 17.9508 14.0656 19.2879 12.714C20.6249 11.3624 23.8846 9.03133 28.387 10.6195ZM29.8152 11.5606C29.8152 11.5606 28.8901 11.4905 28.74 10.7711C28.5898 10.0517 28.5141 9.19091 27.6034 8.47684C30.6653 10.0052 28.5535 10.759 29.8152 11.5606ZM26.2744 21.1386C26.2744 21.1386 26.5017 21.5975 27.0231 21.6578C27.5444 21.7182 28.3726 20.8076 28.3726 20.8076C28.3726 20.8076 27.0738 21.516 26.2744 21.1386ZM30.7256 17.0586C29.9415 20.2371 26.9682 21.4536 25.8972 20.4734C24.8263 19.4932 24.1281 17.782 22.2184 16.0656C20.3086 14.3493 16.5199 14.8304 16.5199 14.8304C18.9477 13.5767 21.709 14.407 22.7431 14.9092C23.7773 15.4112 25.6812 15.2665 25.6812 15.2665C23.7737 13.8511 23.9867 12.7919 22.6797 11.3762C22.6797 11.3762 23.7635 11.7842 24.6391 12.9984C25.5148 14.2126 25.963 15.4165 27.907 15.6066C29.851 15.7968 30.7256 17.0586 30.7256 17.0586ZM30.8819 16.442C30.8819 16.442 31.5356 14.8353 30.6728 13.0488C29.81 11.2623 28.3302 11.5605 27.6664 11.4967C27.0026 11.433 26.4887 11.0388 26.4887 11.0388L27.5554 12.21C27.5554 12.21 25.5218 11.779 24.232 12.0818C24.232 12.0818 25.1648 12.8679 25.7123 13.8833C26.2598 14.8987 27.6391 14.8365 28.9604 15.2502C30.2815 15.6641 30.9284 16.4909 30.8819 16.442ZM31.4567 14.1176C31.4881 19.0814 28.8418 20.5446 28.8418 20.5446C28.8418 20.5446 30.9133 21.4058 32.8248 20.9271C34.7362 20.4484 35.8756 18.3762 35.288 17.0258C34.7006 15.6753 31.4567 14.1176 31.4567 14.1176ZM50.136 22.3953C49.7929 22.8641 49.2556 23.5194 49.2556 23.5194C45.0101 22.1282 35.0329 19.9306 35.0329 19.9306C35.8478 19.6162 35.8767 18.3285 35.8767 18.3285C41.3148 19.5098 50.136 22.3953 50.136 22.3953ZM35.1316 24.0131C35.1316 24.0131 34.3777 23.7323 33.1521 24.347C33.1521 24.347 32.6468 23.5712 32.912 22.3369C33.364 23.5903 34.1636 23.3454 35.1316 24.0131ZM28.8167 33.3332C28.8167 33.3332 28.6411 32.6848 28.1343 31.9805C28.1343 31.9805 26.8538 32.9279 25.845 34.4783C25.845 34.4783 27.1478 32.5292 28.8167 33.3332ZM32.6574 36.8858C31.262 36.6482 30.3023 37.2424 29.2375 36.827C29.2375 36.827 30.2132 36.7552 30.6697 36.5276C31.1262 36.3 31.3954 35.9486 31.3954 35.9486C31.6963 36.5599 32.7701 36.9266 32.6574 36.8858ZM31.1164 35.6794C28.9602 34.4656 29.5405 31.8921 26.8197 30.2069C27.8371 30.6033 28.6746 31.4312 29.246 32.3158C29.9523 33.4091 30.1665 34.3625 31.1164 35.6794ZM33.7777 36.722C31.4245 35.4342 31.0522 33.3435 29.3469 31.9382C30.5589 33.5275 31.1795 36.6946 33.7777 36.722ZM30.1431 28.2113C30.3667 26.7135 30.6424 26.0759 31.7508 25.3869C32.859 24.6979 34.341 24.3041 34.341 24.3041C33.6184 24.7401 32.5802 25.4785 31.9868 26.514C31.3933 27.5496 30.1431 28.2113 30.1431 28.2113ZM29.4101 30.174C31.0797 30.9181 32.0876 31.9023 33.4326 32.9695C34.7351 34.003 36.5211 34.7525 37.5983 34.81C38.8323 34.8758 39.4779 34.6883 39.6543 34.2393C39.8307 33.7902 39.6698 33.5477 38.7405 33.6684C37.8112 33.7891 36.7432 33.7396 35.0953 33.0554C33.4475 32.3713 31.7271 30.6834 29.4101 30.174ZM30.1584 28.5935C30.1574 28.6412 31.4777 28.0289 32.3895 26.5715C33.3012 25.1142 35.1871 23.6565 36.9082 24.247C38.6294 24.8373 39.4496 26.408 39.4496 26.408C37.8465 26.0998 36.1093 26.5884 34.7609 27.4511C32.833 28.6857 32.2561 28.2536 30.1584 28.5935ZM27.8976 28.7535C29.6022 27.8087 28.8509 27.7027 30.2787 26.4012C29.8045 27.222 30.0392 27.8922 29.5748 28.3089C29.3175 28.5398 28.9033 28.6862 27.8976 28.7535ZM39.4891 34.7244C39.4891 34.7244 38.3571 36.4628 36.0721 36.6461C33.7872 36.8295 32.9041 35.9492 31.4756 33.9582C30.0471 31.9671 28.799 30.4098 26.4383 29.7323C26.4383 29.7323 29.4724 30.0443 32.2675 32.5457C35.0625 35.047 37.759 35.5894 39.4891 34.7244ZM39.7128 26.8558C36.0869 26.3815 34.9883 28.2893 33.1054 28.7029C31.4184 29.0733 28.4286 29.02 26.4489 29.2554C28.49 29.3524 30.6672 29.7391 33.5679 31.7658C36.4687 33.7924 38.4255 33.4102 39.4239 33.3867C40.4223 33.3631 39.7825 34.3497 39.7825 34.3497C39.7825 34.3497 41.1422 33.0465 41.0078 30.5617C40.8733 28.0769 39.7128 26.8558 39.7128 26.8558ZM48.5308 29.8845C48.5308 29.8845 48.1413 30.3047 48.2752 30.6896C48.4091 31.0746 48.1599 31.5934 46.542 31.6975C44.924 31.8015 42.9704 32.0407 42.9704 32.0407C42.9704 32.0407 43.28 30.9506 42.6797 30.1726C42.6797 30.1726 43.3776 32.9573 40.8919 33.613C40.711 33.8837 42.3127 31.4917 41.1022 28.4642C41.1022 28.4642 42.0468 28.7256 42.8339 29.6513C43.6209 30.5771 45.5399 29.7645 48.5308 29.8845ZM49.9044 27.9611C50.3046 28.4005 49.6851 29.1832 49.2304 29.1556C48.6691 29.1214 46.3845 28.9958 43.7704 29.3244C43.0033 29.1809 42.7585 28.0748 41.0191 27.9373L40.4683 27.065C40.4683 27.065 40.5191 26.923 41.224 27.2741C41.9288 27.6252 49.9044 27.9611 49.9044 27.9611ZM53.4217 40.6444C53.4217 40.6444 50.7638 38.3852 49.9613 36.0273C49.1588 33.6697 48.6496 30.9372 48.997 30.2775C49.3445 29.6177 51.4448 29.1913 50.2971 27.3979C49.1493 25.6045 48.7662 25.7383 49.7048 24.1386C50.6435 22.5387 51.96 21.0434 52.8351 20.1578C53.7103 19.2722 58.5812 18.1969 59.4564 17.3114C59.4564 17.3114 59.2841 18.6433 59.5423 19.8427C59.8005 21.042 59.1249 21.5029 58.8725 22.1649C58.6201 22.8269 58.8266 24.2158 58.0347 25.6283C57.2427 27.0408 57.7592 29.4393 57.7592 29.4393C57.7592 29.4393 55.5468 30.6267 55.2783 32.0041C55.0098 33.3815 53.8295 35.1664 53.5621 36.4961C53.2947 37.8259 53.467 40.7411 53.4217 40.6444ZM75.3795 51.0535C75.3795 51.0535 69.4344 51.2916 65.1868 49.9959C60.9392 48.7002 61.181 48.5152 59.3362 48.1366C57.4914 47.758 56.0182 47.7701 55.4739 46.6116C54.9296 45.4531 54.5513 43.2488 54.0513 42.2346C53.5514 41.2203 54.0578 37.7013 54.0792 36.7472C54.1006 35.7934 55.7329 32.9219 55.7512 32.1109C55.7693 31.3001 57.9354 30.0639 57.9354 30.0639C57.9354 30.0639 58.2916 35.3697 60.0947 37.6085C61.8978 39.8473 64.035 39.8989 64.035 39.8989C64.035 39.8989 64.6043 42.0601 65.5823 42.9427C66.5605 43.8254 67.9944 45.578 68.6528 45.8802C69.3113 46.1824 69.6998 45.81 69.6998 45.81C69.6998 45.81 71.1015 48.9935 75.3795 51.0535ZM64.5449 31.4525C64.3858 30.0647 64.9639 29.7208 64.9639 29.7208C64.4672 29.6133 64.0801 28.8643 63.9708 29.506C63.8614 30.1476 64.5449 31.4525 64.5449 31.4525ZM63.3103 32.4725C63.3103 32.4725 63.5827 31.9781 63.9885 31.8925C64.3944 31.8068 63.745 31.0991 63.7362 30.4308C63.7362 30.4308 63.3208 30.9457 63.3103 32.4725ZM65.8381 29.9328C64.8504 29.4794 64.8848 31.1266 64.8848 31.1266C65.189 30.275 65.8381 29.9328 65.8381 29.9328ZM65.0648 34.7578C63.8511 32.7242 64.1246 32.1821 64.1246 32.1821C64.1246 32.1821 63.1377 32.7548 63.4093 33.3578C63.6808 33.9608 65.0648 34.7578 65.0648 34.7578ZM66.0024 35.3293C66.3156 34.0723 65.4094 33.1675 65.1694 32.2073C64.9296 31.2471 65.6359 30.4767 65.6359 30.4767C65.6359 30.4767 65.1038 30.8934 65.022 31.3686C64.9401 31.844 64.2577 31.541 64.5872 32.742C64.9167 33.9431 66.0024 35.3293 66.0024 35.3293ZM66.4777 34.2671C66.9507 33.3001 67.6716 33.3087 67.1071 32.6837C66.2243 31.706 66.3142 30.6982 66.6213 29.9756C65.7066 30.5023 65.2777 31.6135 65.7313 32.5788C66.1849 33.5442 66.4777 34.2671 66.4777 34.2671ZM68.5785 31.6931C68.5785 31.6931 68.7565 31.1725 68.3539 31.1151C67.9513 31.0577 67.2702 30.7072 66.9979 30.1279C66.9979 30.1279 66.5487 31.0953 67.1321 31.5627C67.7157 32.0302 67.697 32.8649 67.697 32.8649C67.697 32.8649 68.353 32.2126 68.5785 31.6931ZM68.4839 30.6171C68.4839 30.6171 68.3531 30.089 67.5225 30.0451C67.5225 30.0451 67.8416 30.6493 68.4839 30.6171ZM66.4625 27.514C66.4625 27.514 65.851 27.2368 65.5845 27.469C65.3179 27.7012 64.9748 28.1702 64.4724 28.325C64.4724 28.325 65.2037 28.5575 65.5463 28.1123C65.8889 27.6672 66.4625 27.514 66.4625 27.514ZM75.6021 33.6882C75.6021 33.6882 73.9741 32.1218 72.7847 32.1885C71.5952 32.2552 70.3667 31.9391 69.816 31.0668C69.2654 30.1945 68.7398 30.3251 68.7398 30.3251C68.7398 30.3251 69.4815 31.1542 68.941 31.9524C68.4004 32.7506 66.5625 34.1856 66.5887 35.1406C66.6148 36.0957 67.9372 36.4617 68.6992 36.3847C69.1274 36.3415 69.4832 35.9051 70.0744 35.4345C71.2185 34.5236 74.222 33.6548 75.6021 33.6882ZM79.0894 32.8657C79.0894 32.8657 78.5179 30.7999 76.6038 29.2743C76.6038 29.2743 74.4677 29.1749 73.4358 28.5773C72.4037 27.9798 70.488 28.6494 68.9325 28.0868C67.377 27.5242 66.2782 27.784 65.743 28.3438C65.2078 28.9035 64.45 28.7897 64.45 28.7897C64.45 28.7897 65.617 29.7246 67.0493 29.4252C68.4816 29.1257 69.2793 29.5746 70.2025 30.7899C71.1255 32.0052 72.9053 31.0461 74.448 32.1809C75.9906 33.3158 75.9842 33.602 76.8877 33.5761C77.791 33.5502 78.8402 33.3847 79.0894 32.8657ZM76.3349 28.552C76.3349 28.552 75.28 26.8562 74.1951 26.4959C73.1103 26.1357 71.4924 26.2398 70.6279 26.6484C69.7634 27.057 67.9683 26.5842 66.5286 27.2174C66.5286 27.2174 67.9512 27.3472 69.2724 27.7609C70.5937 28.1746 71.9384 27.5391 73.3061 28.0016C74.6737 28.4642 75.4304 28.6256 76.3349 28.552ZM73.9748 25.7271C73.9737 25.7748 73.3563 25.7598 72.55 25.6926C71.7437 25.6255 70.2575 26.2099 68.8306 26.2709C67.4037 26.3319 65.7254 27.0071 65.7254 27.0071C65.7254 27.0071 67.0861 25.6562 67.995 25.3917C68.9037 25.1273 70.1935 24.8244 71.2037 24.2762C72.2138 23.728 73.2501 24.1348 73.4252 24.8071C73.6002 25.4794 73.9748 25.7271 73.9748 25.7271ZM73.0698 23.7009C71.32 23.3246 70.8248 24.2194 68.4363 24.782C66.0478 25.3446 64.956 27.4181 64.956 27.4181C65.1775 23.892 68.7575 23.1672 70.1824 23.2017C71.6071 23.2361 71.9049 22.6706 72.3787 22.7298C72.8526 22.7891 73.0698 23.7009 73.0698 23.7009ZM63.7562 34.3087C63.7562 34.3087 65.396 39.5976 68.5213 42.2024C71.6466 44.8072 71.0591 43.4568 75.1339 43.9847C75.1339 43.9847 76.2284 43.9158 76.3608 42.2487C76.4931 40.5816 76.5631 39.5812 77.3561 38.121C78.1491 36.6608 77.4245 35.0684 78.4981 33.8059C78.4981 33.8059 77.5429 34.0214 75.7825 34.122C74.022 34.2227 70.5274 35.379 69.3576 36.687C68.1879 37.9948 64.9675 35.3878 63.7562 34.3087ZM70.4647 44.54C65.8036 42.6139 63.0193 35.3884 62.8827 32.999C62.7461 30.6097 63.8391 28.4886 64.0883 27.9697C64.3375 27.4509 64.9187 24.8401 66.3658 23.873C67.8131 22.9058 69.8099 22.8586 69.8099 22.8586C69.0121 22.4098 67.748 21.568 66.6503 21.7801C65.5526 21.9921 64.8189 22.9289 64.0991 23.2456C63.3791 23.5622 63.607 23.9972 62.5152 26.0705C61.4234 28.1439 60.6608 30.3684 61.7568 32.3515C62.8527 34.3346 62.4051 35.2304 63.1728 37.0147C63.9407 38.7989 64.6254 40.0562 65.1211 41.2612C65.6168 42.4662 68.4001 45.4923 69.1189 45.2233C69.8377 44.9543 70.4647 44.54 70.4647 44.54ZM76.7395 23.2169C75.2775 20.6047 75.5187 18.3198 73.2994 17.6935C71.0801 17.0672 64.9385 17.587 64.0741 17.9956C63.2096 18.4042 61.8857 20.2333 60.6316 21.062C59.3776 21.8906 59.2847 21.793 59.2042 23.2704C59.1235 24.7479 58.0467 26.1535 58.2296 28.5917C58.4126 31.0299 59.0363 35.0058 60.3677 37.09C61.6989 39.1743 63.7887 39.2247 63.7887 39.2247C62.2112 37.5163 62.1393 34.365 61.3704 32.6285C60.6016 30.8919 60.5642 28.314 61.6485 26.5746C62.733 24.835 62.5825 23.0657 63.7773 22.7606C64.9721 22.4555 65.574 21.0383 67.2838 21.0796C68.9935 21.1209 69.773 22.3805 70.6711 22.5931C71.5693 22.8057 71.9748 21.6702 73.4006 21.6569C74.8266 21.6437 76.7395 23.2169 76.7395 23.2169ZM81.2048 27.5244C81.5388 29.5844 80.1088 29.7885 80.0873 30.7423C80.066 31.6963 79.4347 32.3015 79.4347 32.3015C78.5122 28.9387 74.4337 26.454 74.0415 24.8697C73.6493 23.2855 72.723 22.2132 72.723 22.2132C74.7208 22.1182 76.7224 23.9801 78.4097 25.023C80.097 26.0658 81.2048 27.5244 81.2048 27.5244ZM81.32 26.6204C81.32 26.6204 81.5496 24.8602 80.716 23.8857C79.8825 22.9111 78.0613 21.4832 78.0613 21.4832C78.0613 21.4832 78.5597 24.6926 81.32 26.6204ZM82.6041 24.4562C82.6041 24.4562 81.8281 20.9061 80.92 19.0231C80.0119 17.1399 78.8912 16.2539 77.5674 13.8358C76.2435 11.4177 71.1363 8.19249 69.1869 8.24079C67.2376 8.28914 62.4222 11.1315 60.7295 14.5743C59.0367 18.017 60.4165 20.0547 59.822 21.1379C59.822 21.1379 62.0981 19.2363 63.2688 17.8806C64.4396 16.5251 73.0853 16.6386 74.4909 17.5315C75.8965 18.4244 76.1942 22.1061 78.2389 24.1599C78.2389 24.1599 77.5101 22.7583 77.2829 20.1759C77.2829 20.1759 79.7172 21.8096 82.6041 24.4562ZM81.6963 24.6729C81.6963 24.6729 84.8196 27.3731 85.7336 31.1175C86.6476 34.8619 85.8247 37.6575 84.2558 39.8148C82.6869 41.9721 79.5982 44.0926 76.3223 43.9657C76.3223 43.9657 77.1553 42.8405 77.158 40.5977C77.1607 38.3549 78.5263 38.9128 78.4858 36.4781C78.4452 34.0432 79.0216 33.7708 79.9064 32.4559C80.7911 31.1412 80.1779 30.9355 80.9053 30.285C81.6328 29.6344 81.6801 29.6356 81.5591 28.6782C81.4381 27.7208 82.4428 27.4111 81.6963 24.6729ZM88.7249 37.5845C92.2784 33.8048 94.7416 34.1507 95.049 33.156C95.3565 32.1613 96.1451 30.8918 97.2156 29.7724C98.286 28.6529 97.8421 27.2583 97.4003 25.7683C96.9585 24.2782 97.7446 21.0043 97.0882 20.6068C96.4319 20.2091 96.6243 21.1681 92.5847 23.3135C94.1075 21.6069 97.3654 20.4917 96.5507 18.7782C95.9834 17.5858 94.3048 15.8444 91.8381 15.2783C89.0488 14.6382 87.1784 15.4042 84.8502 15.3958C82.5221 15.3873 80.3496 16.9095 80.3496 16.9095C83.1244 20.317 82.6212 23.6932 84.4327 25.5503C86.2442 27.4075 85.3324 27.815 86.2459 29.4597C87.1595 31.1043 87.0574 33.5355 87.0574 33.5355C87.636 33.1677 88.0623 33.2258 88.0623 33.2258C87.9182 35.4174 88.7249 37.5845 88.7249 37.5845ZM82.3575 50.3154C81.4812 51.2486 77.764 51.7315 74.342 49.6444C70.9199 47.5575 70.0203 45.2928 70.0203 45.2928C70.0203 45.2928 71.5175 46.3311 73.2956 47.5671C75.0735 48.8031 77.905 49.6828 79.2822 49.7161C80.6595 49.7494 82.3575 50.3154 82.3575 50.3154ZM84.6758 40.159C84.6758 40.159 84.3385 42.4893 82.5482 43.9253C80.7578 45.3613 81.3021 46.5199 81.5678 47.3852C81.8336 48.2507 82.9003 49.4218 82.7967 49.8011C82.6932 50.1803 81.1958 49.1419 79.3405 49.2403C77.485 49.3387 73.8655 47.5809 72.4189 46.4007C70.9722 45.2204 70.3612 44.9193 70.3612 44.9193C70.3612 44.9193 71.6585 44.2825 73.3175 44.4658C74.9766 44.649 81.7088 45.3366 84.6758 40.159ZM83.1474 48.9982C83.0546 48.9005 81.0657 46.4664 82.3346 44.97C83.6036 43.4735 84.861 42.5018 85.7463 39.0395C86.6317 35.5773 87.62 33.8832 87.62 33.8832C87.5265 35.9329 88.3291 38.2907 88.3291 38.2907C87.1507 39.9802 86.8225 41.9049 86.7318 43.8354C86.641 45.7659 83.1474 48.9982 83.1474 48.9982ZM111.89 65.6914C111.89 65.6914 111.374 65.4164 111.259 65.2466C111.259 65.2466 110.785 66.2373 111.89 65.6914ZM113.916 64.3565C113.916 64.3565 113.584 64.3484 113.418 64.2967C113.253 64.245 113.551 62.6296 113.412 62.4354C113.274 62.2411 112.708 62.0843 112.34 62.5765C111.973 63.0687 111.992 63.26 112.294 63.5776C112.596 63.895 112.715 64.9239 113.096 64.8854C113.477 64.847 113.916 64.3565 113.916 64.3565ZM113.542 65.1586C113.542 65.1586 112.397 65.3458 112.111 65.3627C111.826 65.3796 111.32 64.6516 111.32 64.6516C111.32 64.6516 111.576 63.8227 111.72 63.7546C111.864 63.6865 112.286 65.0089 112.688 65.0902C113.09 65.1715 113.565 65.1591 113.542 65.1586ZM114.282 66.0594C114.282 66.0594 113.385 66.825 112.316 66.8469C112.316 66.8469 112.873 66.3832 113.135 66.3419C113.397 66.3005 113.61 66.3295 114.282 66.0594ZM115.403 62.6744C115.822 63.0423 115.936 63.2599 115.593 63.7288C115.25 64.1978 115.456 64.5606 115.357 64.7014C115.259 64.8423 113.953 65.8844 113.334 65.9172C112.716 65.95 112.248 65.6284 112.248 65.6284C112.248 65.6284 113.151 65.6025 113.633 65.304C114.115 65.0054 114.781 63.9001 114.781 63.9001C114.781 63.9001 114.444 64.1067 114.161 64.0044C113.879 63.9022 113.777 63.1362 113.777 63.1362C114.27 63.3867 114.59 62.8933 114.81 62.6123C115.03 62.3314 115.403 62.6744 115.403 62.6744ZM114.961 62.258C114.961 62.258 114.253 62.0501 113.895 62.0891C113.538 62.1283 114.308 62.7434 114.308 62.7434C114.308 62.7434 114.271 62.3129 114.961 62.258ZM111.519 61.0535C111.519 61.0535 109.656 61.4856 109.456 61.9341C109.256 62.3826 108.817 62.897 108.383 63.1489C107.95 63.401 109.949 66.4319 111.012 66.72C112.075 67.0081 111.897 66.4312 112.688 66.1401C112.688 66.1401 112.027 65.9332 111.546 66.208C111.065 66.4827 110.525 66.1833 110.263 65.151C110.001 64.1186 110.262 63.0512 110.488 62.5079C110.714 61.9646 111.567 61.0307 111.519 61.0535ZM112.421 61.099C112.421 61.099 111.964 61.3504 111.574 61.7706C111.185 62.1906 110.684 63.3477 110.67 63.9439C110.657 64.5401 110.779 65.4498 110.779 65.4498C110.779 65.4498 110.881 64.0921 111.27 63.696C111.659 63.2996 111.515 62.2941 112.421 61.099ZM114.709 61.8225C114.689 61.6788 113.898 60.8962 113.304 60.9295C112.709 60.9628 112.381 61.8139 112.381 61.8139C112.381 61.8139 113.051 61.5915 113.572 61.6757C114.093 61.7598 114.756 61.8713 114.709 61.8225ZM115.674 64.3512C115.674 64.3512 116.806 63.6627 116.748 63.0648C116.691 62.4669 115.372 61.9101 115.372 61.9101C115.372 61.9101 116.188 62.6456 116.225 63.0998C116.262 63.5541 115.65 64.3745 115.674 64.3512ZM116.198 64.3161C116.198 64.3161 115.045 65.9108 114.841 66.5262C114.638 67.1417 112.525 68.0928 111.933 68.007C111.341 67.921 111.045 67.3413 111.045 67.3413C111.045 67.3413 111.994 67.4119 113.167 67.0346C114.34 66.6573 114.44 66.4211 116.198 64.3161ZM107.738 63.3005C107.762 63.3248 107.453 62.2437 107.97 62.5186C108.486 62.7935 108.964 61.6359 109.374 61.3356C109.785 61.0353 112.937 60.3241 113.768 60.3681C114.598 60.412 116.478 60.2666 116.478 60.2666C115.669 59.2687 112.728 57.9807 112.728 57.9807C112.728 57.9807 112.451 58.6899 111.421 59.0468C110.392 59.4037 109.713 61.0575 108.973 61.2306C108.232 61.4035 107.199 61.9273 107.261 62.3345C107.323 62.7416 107.738 63.3005 107.738 63.3005ZM107.639 71.9595C106.83 70.9855 106.522 69.8804 105.776 69.2421C105.03 68.6037 104.999 67.8393 104.631 67.3293C104.262 66.8193 103.93 65.7376 103.93 65.7376C104.228 66.1981 104.668 66.7337 104.668 66.7337C104.078 65.5026 104.033 63.2586 104.033 63.2586C104.033 63.2586 103.948 63.853 103.256 64.0033C102.563 64.1536 102.552 64.6544 102.821 65.3768C103.09 66.0992 103.336 68.8968 104.235 70.1354C105.134 71.374 107.639 71.9595 107.639 71.9595ZM108.992 68.8425C108.992 68.8425 107.445 68.9721 106.279 67.9895C105.113 67.007 104.85 66.0461 104.85 66.0461C104.85 66.0461 105.18 65.0997 105.543 64.7983C105.543 64.7983 105.994 65.859 108.992 68.8425ZM114.212 69.1835C114.212 69.1835 113.391 68.6863 113.019 68.3433C112.646 68.0003 111.858 69.2696 111.167 68.2747C110.477 67.2798 106.946 62.6132 106.946 62.6132C106.946 62.6132 105.94 64.0205 105.79 64.3748C105.639 64.729 109.067 68.6774 109.821 68.9581C110.575 69.2387 111.006 69.106 111.925 69.4384C112.844 69.7707 113.85 69.4133 114.212 69.1835ZM117.636 65.8779C116.135 67.1301 113.383 67.9703 113.383 67.9703C113.383 67.9703 114.19 69.0874 114.881 69.0087C115.572 68.93 116.709 68.003 117.226 67.1804C117.744 66.3578 117.636 65.8779 117.636 65.8779ZM116.967 62.8553C117.168 63.409 116.846 64.0216 116.846 64.0216C117.301 63.8654 117.332 63.5322 117.332 63.5322C117.332 63.5322 117.445 63.7736 116.96 64.2152C116.475 64.6568 115.171 66.6774 115.171 66.6774C115.171 66.6774 116.921 65.98 117.43 65.5389C117.938 65.0979 118.485 64.0135 118.064 63.7408C117.642 63.4681 116.967 62.8553 116.967 62.8553ZM118.264 63.2685C118.264 63.2685 118.122 62.1913 117.732 61.5854C117.342 60.9793 117.28 60.5484 116.208 60.6656C115.136 60.7829 114.33 60.7395 114.33 60.7395C114.33 60.7395 115.073 61.4733 116.069 61.569C117.065 61.6647 117.086 62.8344 118.264 63.2685ZM118.552 64.206C118.552 64.206 118.495 65.7077 118.591 66.7123C118.687 67.7168 117.582 69.3364 116.443 70.311C115.305 71.2857 113.693 72.1773 112.954 72.2788C112.216 72.3803 107.861 71.6308 108.102 69.346C108.102 69.346 110.361 69.2336 111.658 69.6944C112.594 70.0272 113.216 70.1377 114.634 69.4322C114.634 69.4322 116.111 69.2294 117.162 67.9185C118.213 66.6077 117.514 65.9943 118.552 64.206ZM119.156 64.8409C118.868 66.0032 119.171 66.2729 118.877 67.7452C118.583 69.2174 115.802 71.3932 115.802 71.3932C117.991 71.2313 119.223 70.3066 119.569 69.7423C119.914 69.1781 120.447 66.5901 120.077 66.1278C119.708 65.6655 119.156 64.8409 119.156 64.8409ZM121.674 63.8042C121.955 65.0517 121.718 66.0482 121.458 67.0678C121.198 68.0876 121.766 69.2466 120.519 70.7913C119.273 72.336 117.244 72.7642 116.466 73.5328C115.689 74.3015 114.3 74.7928 112.714 74.5398C111.127 74.2867 109.486 73.3164 108.464 72.2897C107.441 71.2628 106.839 69.5302 106.138 68.9883C105.437 68.4465 104.875 67.0251 104.875 67.0251C104.875 67.0251 105.38 67.8247 105.8 68.1689C106.22 68.5131 107.302 68.9925 107.302 68.9925C107.302 68.9925 107.484 70.4286 108.463 71.2635C109.442 72.0983 111.1 72.3294 112.498 72.5064C113.896 72.6833 114.799 71.6075 116.008 71.7322C117.217 71.8569 119.403 70.7644 119.973 69.7282C120.543 68.6922 120.745 66.0246 120.708 65.5704C120.67 65.1162 121.674 63.8042 121.674 63.8042ZM119.845 59.5128C120.522 62.1777 120.542 64.4926 120.542 64.4926C120.542 64.4926 121.852 63.2597 121.744 62.7799C121.636 62.3001 121.06 60.425 120.664 60.0813C120.268 59.7376 119.845 59.5128 119.845 59.5128ZM114.076 56.1521C114.076 56.1521 113.461 56.0418 112.88 57.5788C112.88 57.5788 115.659 58.6719 117.33 60.4542C119 62.2363 119.256 62.505 119.147 63.0989C119.039 63.6929 119.305 64.5343 120.23 65.6543C120.23 65.6543 119.959 60.804 119.321 59.5717C118.684 58.3394 117.523 58.192 114.076 56.1521ZM113.462 55.9703C113.462 55.9703 112.738 55.4279 112.356 55.4902C111.975 55.5526 111.587 55.9011 110.757 55.8333C109.927 55.7656 109.501 56.7336 108.384 56.7304C107.268 56.7274 106.962 56.6007 106.766 56.8585C106.57 57.1161 106.23 57.4419 105.753 57.5497C105.275 57.6574 105.509 57.8302 105.389 58.9487C105.269 60.0673 104.377 59.5447 104.464 62.0521C104.55 64.5596 104.693 65.589 104.693 65.589C104.693 65.589 106.732 61.582 108.049 61.1128C109.366 60.6435 109.415 60.597 110.125 59.6358C110.836 58.6747 112.003 58.5358 112.277 57.946C112.552 57.3561 112.981 56.2212 113.462 55.9703ZM89.0865 53.2697C89.737 51.806 91.9239 47.5162 93.465 46.599C95.0061 45.6818 96.9347 44.4399 98.1498 43.2286C99.3649 42.0171 101.471 41.3522 101.471 41.3522C104.801 36.9469 105.03 37.2864 107.671 36.0618C110.312 34.8371 112.404 34.7922 112.404 34.7922C112.404 34.7922 111.804 34.0142 109.789 32.7247C107.775 31.4353 106.566 32.3605 104.39 31.9261C102.214 31.4917 100.687 31.789 99.0993 32.6573C97.5118 33.5256 94.7497 33.793 91.2747 36.1905C87.7997 38.588 87.1875 42.5818 87.3759 44.7817C87.5642 46.9814 86.0327 47.4692 85.9574 48.7081C85.8822 49.9471 86.9227 50.1632 87.3224 51.4136C87.722 52.6639 89.0865 53.2697 89.0865 53.2697ZM93.0385 78.3712C93.0385 78.3712 90.8709 77.5553 89.4793 76.0422C88.0876 74.5293 86.7979 70.5849 86.3086 69.0938C85.8194 67.6026 85.7767 65.2632 85.987 64.3616C86.1973 63.4599 85.4533 62.7262 85.6753 61.2999C85.8975 59.8737 87.7588 57.3893 87.8741 56.4853C87.9894 55.5814 88.6894 54.0236 88.6894 54.0236C88.6894 54.0236 87.7556 53.2852 86.8885 51.6894C86.0214 50.0937 85.5983 49.8925 84.2674 49.9082C82.9365 49.9237 81.4194 51.8913 81.3938 53.036C81.3681 54.1807 79.4289 55.8996 79.5847 57.4304C79.7405 58.9613 78.9502 58.1786 79.3114 61.146C79.6726 64.1136 81.5424 65.4949 81.5424 65.4949C80.9254 67.5796 82.9644 72.0193 84.204 73.9582C85.4435 75.8971 86.1249 77.2975 87.8672 78.0076C89.6095 78.7178 91.3421 79.8572 92.1527 79.7337C92.9633 79.6102 93.0385 78.3712 93.0385 78.3712ZM96.7824 76.696C96.7824 76.696 95.7137 75.6203 95.5136 73.9452C95.3135 72.2701 93.8172 71.1841 92.8562 69.5384C91.8952 67.8925 91.8531 63.4057 92.4785 60.9392C93.1041 58.4729 94.0902 56.8742 94.0902 56.8742C94.0902 56.8742 95.2968 51.7971 95.9377 50.7627C96.5787 49.7284 100.481 47.3412 102.345 46.8613C102.345 46.8613 103.941 43.5116 101.744 41.8837C101.744 41.8837 99.8259 42.6486 98.804 43.7215C97.7821 44.7944 94.7527 46.3915 93.64 47.2713C92.5274 48.1511 88.9236 54.1724 88.4924 56.4526C88.0613 58.7328 85.8276 60.874 86.2704 62.3164C86.7132 63.7588 86.5494 64.7091 86.4742 65.9481C86.3989 67.1871 87.9233 73.38 90.1052 75.6756C92.2872 77.9712 95.7013 78.2924 96.7824 76.696ZM96.8694 55.8438C94.0191 62.1696 95.4257 63.0149 95.4257 63.0149C95.4257 63.0149 94.0836 65.6548 94.7522 67.6275C95.4208 69.6003 95.5498 72.3235 95.5498 72.3235C94.7853 70.3961 93.0451 69.5905 92.8135 67.1989C92.5819 64.8072 93.4173 59.3395 94.3549 57.7873C95.2925 56.2352 96.8694 55.8438 96.8694 55.8438ZM97.3821 60.5329C97.3821 60.5329 95.4573 63.7314 95.2859 65.0158C95.1146 66.3001 96.1721 70.0002 96.1261 72.0511C96.0803 74.102 97.6773 77.0516 97.8545 77.6285C98.0317 78.2056 97.2535 78.9979 97.5214 79.768C97.7893 80.538 100.444 82.9405 101.618 83.5893C102.791 84.238 104.552 86.2371 106.305 86.4704C108.058 86.7036 109.041 85.2479 109.534 84.4486C110.027 83.6494 110.701 83.2361 110.701 83.2361C110.701 83.2361 108.847 83.2868 107.818 82.5461C106.789 81.8054 104.637 80.3217 102.987 79.7092C101.338 79.0967 99.7947 75.8621 98.6416 74.307C97.4885 72.7521 96.1231 67.947 96.5628 65.2853C97.0026 62.6235 97.3068 61.7719 97.3821 60.5329ZM99.6677 53.9548C99.6677 53.9548 99.4221 56.4304 98.3864 58.1234C97.3506 59.8163 95.5885 62.112 95.5885 62.112C95.5885 62.112 96.1105 55.7777 99.6677 53.9548ZM106.675 46.5841C106.675 46.5841 103.283 47.4089 102.041 47.7129C100.799 48.0169 96.5034 50.9672 96.1075 51.6736C95.7114 52.3798 94.7162 56.5075 94.7162 56.5075C94.7162 56.5075 95.4023 55.5697 96.9846 54.9399C98.5668 54.31 99.5477 52.9497 100.991 52.1734C102.434 51.397 103.151 51.1757 103.151 51.1757C103.151 51.1757 104.872 48.5926 106.675 46.5841ZM122.956 53.754C122.956 53.754 121.73 51.1952 120.128 50.5838C118.527 49.9724 118.542 49.3047 116.856 48.1663C115.171 47.028 111.63 46.0357 110.492 45.9128C109.354 45.7899 108.062 46.1882 107.679 46.3221C107.296 46.456 103.968 50.7659 103.968 50.7659C103.968 50.7659 105.837 50.0953 107.214 50.1285C108.591 50.1619 110.086 49.1957 111.848 48.9997C113.611 48.8038 114.315 49.2025 114.315 49.2025C114.315 49.2025 113.852 48.6664 112.908 48.3572C112.908 48.3572 113.534 47.9907 114.521 48.4917C115.507 48.9928 119.288 52.0428 120.795 52.6519C120.795 52.6519 120.288 51.9238 120.108 51.49C120.108 51.49 120.959 51.7014 122.956 53.754ZM118.747 52.841C118.747 52.841 117.984 50.866 115.202 49.8921C112.42 48.9181 109.676 50.522 107.489 50.5647C105.302 50.6073 103.713 51.571 103.713 51.571C103.713 51.571 105.5 52.3778 106.377 53.5442C107.254 54.7108 107.34 55.0947 107.34 55.0947C107.34 55.0947 108.287 55.2608 108.919 54.6078C109.552 53.955 111.971 54.1089 112.881 53.7968C113.791 53.4849 114.606 53.1704 114.606 53.1704C114.606 53.1704 113.089 52.9906 112.179 53.3504C112.179 53.3504 112.812 52.6498 114.141 52.7297C115.469 52.8096 116.57 52.4544 118.747 52.841ZM98.1514 64.3692C98.5816 62.1367 99.2604 61.5326 99.2604 61.5326L99.4386 62.0619C99.4386 62.0619 100.055 59.9771 100.834 59.1846C101.612 58.3921 101.854 58.1594 102.866 57.5635C103.877 56.9676 104.471 55.8843 105.242 55.4257C106.012 54.9671 106.723 55.0797 106.723 55.0797C106.418 53.8315 103.662 51.713 103.088 51.89C102.514 52.067 100.642 52.8807 100.293 53.6358C99.943 54.3909 99.555 56.8631 98.7578 58.5141C97.9605 60.1651 97.6499 61.3029 97.6264 62.3522C97.6029 63.4015 98.1514 64.3692 98.1514 64.3692ZM99.9518 68.8508C99.9518 68.8508 98.6193 66.8143 98.5015 65.7138C98.3836 64.6134 99.0965 62.4832 99.0965 62.4832C99.0965 62.4832 98.7743 64.1456 99.1835 64.9667C99.5928 65.7879 99.8217 66.1753 99.6242 66.5045C99.4267 66.8338 99.9971 68.9473 99.9518 68.8508ZM102.437 70.3543C102.437 70.3543 101.206 70.1434 100.745 69.4981C100.284 68.8527 100.09 66.9452 100.09 66.9452C100.09 66.9452 101.148 68.4659 101.753 69.0693C102.357 69.6729 102.389 70.3532 102.437 70.3543ZM106.497 56.6491C106.497 56.6491 104.455 56.5997 104.019 56.971C103.583 57.3422 103.145 57.8089 102.279 58.3129C101.412 58.8168 99.7204 62.212 99.4973 63.6859C99.2741 65.1598 102.28 68.8593 102.28 68.8593C102.28 68.8593 101.787 67.5113 102.242 66.3292C102.696 65.147 101.807 64.5051 102.249 63.8955C102.69 63.2858 104.066 63.3668 104 62.0767C103.934 60.7866 103.99 60.4061 104.579 59.5614C105.168 58.7167 104.765 57.6094 104.724 57.322C104.683 57.0348 105.289 57.5743 106.497 56.6491ZM119.987 59.027C119.987 59.027 119.129 57.002 118.073 55.3539C117.017 53.7059 116.22 53.2572 115.457 53.3819C114.693 53.5066 113.341 54.4761 111.915 54.4893C110.49 54.5026 109.728 54.5797 108.999 55.2779C108.271 55.9761 106.146 55.352 105.569 55.6722C104.992 55.9923 104.505 56.5054 104.505 56.5054C104.505 56.5054 106.129 56.1152 107.551 56.2927C108.972 56.4703 109.901 55.2996 110.708 55.3669C111.514 55.4341 112.096 54.9233 112.852 55.0846C113.609 55.2461 117.456 57.4388 119.987 59.027ZM112.453 75.0226C112.453 75.0226 111.196 75.9944 109.77 76.0076C108.345 76.0208 105.835 75.6262 104.679 74.2144C103.522 72.8025 103.422 70.8911 102.876 69.8281C102.33 68.765 102.625 66.1952 102.625 66.1952C102.625 66.1952 103.125 69.3091 103.722 70.2303C104.319 71.1514 106.861 72.2628 107.713 72.3788C108.566 72.4948 107.641 73.4747 112.453 75.0226ZM118.537 72.8313C118.537 72.8313 120.472 73.4506 121.669 73.05C122.866 72.6494 124.323 69.1057 124.339 68.3901C124.355 67.6747 124.121 67.5259 124.002 66.4732C123.883 65.4204 124.463 64.9572 123.675 64.0792C122.887 63.2012 122.627 62.0973 122.313 61.2308C122 60.3642 121.161 59.6281 120.355 57.4611C119.548 55.2942 119.298 53.7133 118.732 53.5087C118.167 53.3042 117.077 53.1825 117.077 53.1825C117.077 53.1825 119.391 55.9107 119.796 56.9227C120.201 57.9346 121.114 59.6269 121.888 61.125C122.662 62.623 122.431 66.5784 122.086 67.1427C121.741 67.707 121.994 69.1447 121.643 69.9475C121.292 70.7503 120.506 71.9244 118.537 72.8313ZM121.225 73.7551C120.221 74.0173 118.623 73.2628 118.054 73.2013C117.485 73.1398 116.603 74.3116 115.214 74.803C113.825 75.2943 113.792 74.6492 112.557 75.717C111.321 76.7847 107.845 77.0826 105.479 75.6176C102.827 73.9766 103.115 71.8859 102.844 71.259C102.573 70.632 101.187 70.9803 99.8894 69.5173C98.5916 68.0543 97.3611 63.5865 97.3611 63.5865C96.8803 65.9609 98.1576 72.5773 99.1747 73.8427C100.192 75.1079 100.509 75.7838 101.937 77.8226C103.364 79.8614 104.846 79.4677 106.289 80.7911C107.733 82.1144 109.247 82.3896 110.336 82.5591C111.425 82.7286 112.062 81.8851 113.108 81.8626C114.154 81.8402 116.1 79.8352 117.001 79.9046C117.902 79.9741 118.431 79.7006 118.891 78.2323C119.352 76.7641 120.234 75.5923 120.905 75.3223C121.576 75.0521 121.225 73.7551 121.225 73.7551ZM124.921 67.8793C124.921 67.8793 126.263 65.2393 126.595 63.1475C126.927 61.0559 126.113 59.1751 125.46 58.6344C124.807 58.0936 123.998 58.1695 123.916 57.5949C123.833 57.0202 124.458 56.7014 123.771 55.5394C123.085 54.3774 121.532 53.6719 120.315 52.8789C119.097 52.0859 118.537 51.6429 118.537 51.6429C118.537 51.6429 119.596 53.1478 119.853 54.3948C120.11 55.6419 121.548 59.351 122.288 60.228C123.029 61.1048 122.818 62.0541 123.697 63.1252C124.575 64.1964 124.523 64.4338 124.501 65.3877C124.48 66.3416 124.508 67.2013 124.921 67.8793ZM124.457 69.4906C124.457 69.4906 124.468 71.1134 124.477 72.8316C124.486 74.5498 123.34 76.9082 122.112 78.6919C120.885 80.4757 120.18 80.1246 119.073 80.7183C117.967 81.3118 117.275 82.5359 116.182 82.5095C115.09 82.4831 112.761 82.5224 112.761 82.5224C112.761 82.5224 113.758 82.5464 114.679 81.7097C115.601 80.873 116.463 80.5597 117.751 80.3522C119.039 80.1448 119.466 78.0554 120.109 76.9255C120.752 75.7957 122.089 75.494 121.88 74.2004C121.672 72.9071 123.264 73.9476 124.457 69.4906ZM124.724 74.5555C124.724 74.5555 125.58 76.6282 125.162 78.3361C124.743 80.0439 118.263 82.9416 115.923 83.4577C113.583 83.9738 111.85 82.882 111.85 82.882C111.85 82.882 112.752 82.9038 114.177 82.9382C115.602 82.9727 115.879 83.3135 117.369 82.5382C118.86 81.7629 119.636 81.0658 120.834 80.6176C122.032 80.1693 124.483 76.7926 124.724 74.5555ZM125.092 72.9419C125.283 72.8988 126.885 71.4105 126.809 70.5496C126.733 69.6888 127.628 67.9447 128.024 67.2384C128.42 66.5323 128.061 65.5691 127.957 63.8486C127.853 62.1281 128.502 60.7122 127.815 59.598C127.127 58.4837 125.306 52.8086 124.573 51.5978C123.839 50.3872 121.294 47.3192 120.225 46.2912C119.155 45.2632 118.302 45.1471 116.456 44.8161C114.61 44.4852 113.927 43.1802 112.401 43.4297C110.875 43.6791 111.075 45.3542 111.075 45.3542C111.075 45.3542 116.219 46.9101 117.389 47.702C118.56 48.4937 118.913 49.6954 120.094 50.0103C121.275 50.3252 123.025 52.8012 123.472 54.0528C123.919 55.3044 124.263 54.7877 124.426 56.0324C124.588 57.2772 124.251 57.4598 125.286 57.9143C126.322 58.3688 127.07 61.0116 127.022 63.158C126.974 65.3043 125.047 68.5981 124.976 69.6463C124.905 70.6945 125.092 72.9419 125.092 72.9419ZM125.791 73.5792C125.791 73.5792 126.584 74.2187 127.824 74.0101C129.065 73.8015 129.31 73.4734 129.526 72.2855C129.743 71.0977 131.542 71.3798 131.788 68.9042C132.033 66.4287 131.957 61.3683 131.567 59.6887C131.177 58.0089 128.482 53.124 127.5 52.4321C126.518 51.7403 124.958 51.3686 124.958 51.3686C124.958 51.3686 127.217 56.5769 127.803 57.9751C128.39 59.3733 128.822 59.1929 128.642 60.8587C128.462 62.5246 128.192 63.9497 128.674 65.7748C129.156 67.5998 127.367 68.9882 127.488 69.9457C127.609 70.903 126.956 72.462 125.791 73.5792ZM125.117 73.9447C126.455 77.8901 125.767 78.8756 124.7 79.8521C123.633 80.8285 118.249 83.5616 115.864 83.9812C113.479 84.4008 111.694 83.451 111.694 83.451C109.531 84.5918 109.187 87.208 106.814 87.0553C104.442 86.9026 100.333 83.6536 98.9392 82.236C97.5454 80.8184 96.3331 79.7869 96.974 78.7526C97.6149 77.7182 97.0071 77.274 97.0071 77.274C95.7888 78.6285 93.5641 78.2407 93.5641 78.2407C93.3026 81.4318 94.6371 83.3728 96.3831 86.0397C98.1291 88.7067 98.0693 87.1303 98.4321 87.9026C98.795 88.675 99.8068 90.1787 101.712 92.086C103.618 93.9932 103.695 92.6588 106.043 93.9086C108.391 95.1584 110.292 93.0091 111.778 92.4723C113.263 91.9355 113.565 93.2791 114.183 93.2463C114.802 93.2135 118.868 92.0232 120.354 91.4388C121.84 90.8544 125.24 85.4485 125.785 84.4596C126.33 83.4705 125.99 81.649 125.99 81.649C127.472 79.1555 127.137 74.9956 126.717 74.6515C126.297 74.3072 125.117 73.9447 125.117 73.9447ZM133.118 58.2945C133.118 58.2945 132.474 59.4719 132.083 59.9874C132.083 59.9874 132.352 60.7098 132.392 63.1445C132.432 65.5793 132.386 69.7776 131.989 70.5315C131.592 71.2856 129.956 72.2005 129.84 73.1044C129.725 74.0083 128.522 74.6951 127.432 74.5733C127.432 74.5733 127.863 76.5402 127.582 78.4901C127.3 80.4398 126.532 81.8529 126.532 81.8529C126.532 81.8529 127.345 82.6838 128.466 81.4225C129.587 80.1611 131.477 80.6362 133.04 78.7651C134.602 76.894 133.522 76.3428 135.991 74.3029C138.46 72.2628 137.51 70.1401 136.792 68.2616C136.073 66.3831 135.442 64.8884 135.666 63.3668C135.89 61.8451 134.961 60.8683 133.118 58.2945Z" fill="#ECECEC"/>
</svg>
