<svg width="900" height="440" viewBox="0 0 900 440" fill="none" xmlns="http://www.w3.org/2000/svg">
<path fill-rule="evenodd" clip-rule="evenodd" d="M8.7868 8.7868C0 17.5736 0 31.7157 0 60V380C0 408.284 0 422.426 8.7868 431.213C17.5736 440 31.7157 440 60 440H840C868.284 440 882.426 440 891.213 431.213C900 422.426 900 408.284 900 380V285.572C900 276.71 900 272.279 898.779 268.947C897.558 265.614 891.04 257.915 878.004 242.517C869.892 232.935 865 220.539 865 207C865 193.461 869.892 181.065 878.004 171.483C891.04 156.085 897.558 148.386 898.779 145.053C900 141.721 900 137.29 900 128.429V60C900 31.7157 900 17.5736 891.213 8.7868C882.426 0 868.284 0 840 0H60C31.7157 0 17.5736 0 8.7868 8.7868Z" fill="#ECECEC"/>
</svg>
