<svg width="78" height="74" viewBox="0 0 78 74" fill="none" xmlns="http://www.w3.org/2000/svg">
<path d="M1.73459 70.6338C1.73459 70.6338 7.28175 69.9714 14.7828 67.5284C14.7828 67.5284 14.7851 67.5273 14.7863 67.5261C17.644 65.2101 20.1165 59.6537 21.2987 57.7461C22.6539 55.5639 23.625 51.4269 23.9313 47.4803C24.921 48.0954 25.6903 51.2861 25.4872 54.3349C26.4885 53.2133 30.0261 49.2124 32.7945 40.0417C35.5629 30.8756 47.3243 22.8496 52.484 19.4639C57.5717 16.1196 61.3413 9.43114 65.2026 4.27283C63.1119 7.22126 64.3928 14.1613 64.5239 19.495C66.4662 34.978 59.5963 41.6065 55.822 46.8744C57.6947 45.8589 61.2996 44.5919 63.1757 45.2519C60.9225 46.6125 60.5605 49.112 55.0737 57.618C49.588 66.1241 38.4078 66.6849 34.5244 66.9849C36.2996 67.1961 39.6272 69.6564 41.0694 69.9634C38.5818 72.2886 33.674 73.4207 28.8705 72.0994C25.2285 71.0966 17.6091 70.4434 14.133 70.1826C9.93525 71.5674 5.24899 72.8495 7.62939e-06 74C0.235542 72.3175 0.242508 70.8796 1.73459 70.6326V70.6338ZM18.7033 68.5186C49.1262 58.4893 55.2187 37.6426 58.349 27.6018C51.7658 47.1629 38.0911 60.0726 19.7719 67.158C19.3576 67.4996 16.9095 68.3962 16.9095 68.3962C16.9095 68.3962 17.5964 68.4366 18.7033 68.5197V68.5186Z" fill="url(#paint0_linear_104_5267)"/>
<path fill-rule="evenodd" clip-rule="evenodd" d="M32.2327 2.97353C31.9775 6.58896 33.2526 9.64123 35.0637 9.76817C33.2537 9.64238 31.5621 12.502 31.3057 16.1197C31.5609 12.502 30.2881 9.43467 28.4619 9.30773C30.2881 9.43467 31.9775 6.59011 32.2327 2.97468V2.97353Z" fill="url(#paint1_linear_104_5267)"/>
<path fill-rule="evenodd" clip-rule="evenodd" d="M42.6809 0C42.4384 3.43656 43.6497 6.33767 45.3704 6.45769C43.6497 6.33767 42.0416 9.05531 41.7991 12.4942C42.0416 9.05647 40.8315 6.14149 39.0969 6.02032C40.8326 6.14149 42.4384 3.43772 42.6809 0Z" fill="url(#paint2_linear_104_5267)"/>
<path fill-rule="evenodd" clip-rule="evenodd" d="M38.2414 12.4282C38.0453 15.2105 39.0257 17.5577 40.4192 17.6546C39.0269 17.5577 37.7251 19.7571 37.5279 22.5406C37.7251 19.7571 36.7447 17.3984 35.3408 17.3003C36.7447 17.3973 38.0453 15.2093 38.2414 12.4282Z" fill="url(#paint3_linear_104_5267)"/>
<path fill-rule="evenodd" clip-rule="evenodd" d="M69.1379 57.0648C69.1379 57.9372 68.4267 58.6435 67.5507 58.6435C66.6747 58.6435 65.9635 57.9372 65.9635 57.0648C65.9635 56.1924 66.6736 55.4861 67.5507 55.4861C68.4279 55.4861 69.1379 56.1936 69.1379 57.0648Z" fill="url(#paint4_linear_104_5267)"/>
<path fill-rule="evenodd" clip-rule="evenodd" d="M75.0903 48.1192C75.0903 48.9905 74.3791 49.6979 73.5031 49.6979C72.6271 49.6979 71.9159 48.9905 71.9159 48.1192C71.9159 47.248 72.626 46.5405 73.5031 46.5405C74.3803 46.5405 75.0903 47.2468 75.0903 48.1192Z" fill="url(#paint5_linear_104_5267)"/>
<path fill-rule="evenodd" clip-rule="evenodd" d="M78 55.2238C78 56.095 77.2888 56.8024 76.4128 56.8024C75.5368 56.8024 74.8256 56.0962 74.8256 55.2238C74.8256 54.3514 75.5356 53.6451 76.4128 53.6451C77.2899 53.6451 78 54.3525 78 55.2238Z" fill="url(#paint6_linear_104_5267)"/>
<defs>
<linearGradient id="paint0_linear_104_5267" x1="7.62939e-06" y1="4.27283" x2="69.5705" y2="69.329" gradientUnits="userSpaceOnUse">
<stop stop-color="#FFEEDB"/>
<stop offset="1" stop-color="#BFAD99"/>
</linearGradient>
<linearGradient id="paint1_linear_104_5267" x1="28.4619" y1="2.97353" x2="39.0063" y2="8.2688" gradientUnits="userSpaceOnUse">
<stop stop-color="#FFEEDB"/>
<stop offset="1" stop-color="#BFAD99"/>
</linearGradient>
<linearGradient id="paint2_linear_104_5267" x1="39.0969" y1="0" x2="49.1175" y2="5.03147" gradientUnits="userSpaceOnUse">
<stop stop-color="#FFEEDB"/>
<stop offset="1" stop-color="#BFAD99"/>
</linearGradient>
<linearGradient id="paint3_linear_104_5267" x1="35.3408" y1="12.4282" x2="43.4519" y2="16.5016" gradientUnits="userSpaceOnUse">
<stop stop-color="#FFEEDB"/>
<stop offset="1" stop-color="#BFAD99"/>
</linearGradient>
<linearGradient id="paint4_linear_104_5267" x1="65.9635" y1="55.4861" x2="69.1208" y2="58.6605" gradientUnits="userSpaceOnUse">
<stop stop-color="#FFEEDB"/>
<stop offset="1" stop-color="#BFAD99"/>
</linearGradient>
<linearGradient id="paint5_linear_104_5267" x1="71.9159" y1="46.5405" x2="75.0732" y2="49.7149" gradientUnits="userSpaceOnUse">
<stop stop-color="#FFEEDB"/>
<stop offset="1" stop-color="#BFAD99"/>
</linearGradient>
<linearGradient id="paint6_linear_104_5267" x1="74.8256" y1="53.6451" x2="77.9828" y2="56.8195" gradientUnits="userSpaceOnUse">
<stop stop-color="#FFEEDB"/>
<stop offset="1" stop-color="#BFAD99"/>
</linearGradient>
</defs>
</svg>
