<svg width="208" height="208" viewBox="0 0 208 208" fill="none" xmlns="http://www.w3.org/2000/svg">
<g filter="url(#filter0_f_125_398)">
<circle cx="104" cy="104" r="40" fill="#9A0000"/>
</g>
<g filter="url(#filter1_f_125_398)">
<circle cx="104" cy="104" r="40" fill="#9A0000"/>
</g>
<circle cx="104" cy="104" r="40" fill="#9A0000"/>
<path d="M110.086 105.372L109.246 107.867L108.405 105.372L104.491 104.531L108.405 103.69L109.246 101.196L110.086 103.69L114 104.531L110.086 105.372Z" fill="#FFEEDB"/>
<path d="M113.682 119.998C112.602 120.221 111.484 120.34 110.34 120.34C101.316 120.34 94.0002 113.024 94.0002 104C94.0002 94.9758 101.316 87.6604 110.34 87.6604C111.484 87.6604 112.601 87.7792 113.682 88.0019C106.263 89.5432 100.685 96.1198 100.685 103.999C100.685 111.879 106.262 118.456 113.682 119.997L113.682 119.998Z" fill="#FFEEDB"/>
<defs>
<filter id="filter0_f_125_398" x="0" y="0" width="208" height="208" filterUnits="userSpaceOnUse" color-interpolation-filters="sRGB">
<feFlood flood-opacity="0" result="BackgroundImageFix"/>
<feBlend mode="normal" in="SourceGraphic" in2="BackgroundImageFix" result="shape"/>
<feGaussianBlur stdDeviation="32" result="effect1_foregroundBlur_125_398"/>
</filter>
<filter id="filter1_f_125_398" x="0" y="0" width="208" height="208" filterUnits="userSpaceOnUse" color-interpolation-filters="sRGB">
<feFlood flood-opacity="0" result="BackgroundImageFix"/>
<feBlend mode="normal" in="SourceGraphic" in2="BackgroundImageFix" result="shape"/>
<feGaussianBlur stdDeviation="32" result="effect1_foregroundBlur_125_398"/>
</filter>
</defs>
</svg>
