<svg display="none" xmlns="http://www.w3.org/2000/svg">

    <symbol id="tg" viewBox="0 0 50 42">
        <path
            d="M0.756883 19.5399C5.87204 16.6822 11.5819 14.2971 16.9169 11.8998C26.0953 7.97327 35.3101 4.11478 44.6178 0.522573C46.4288 -0.0894666 49.6827 -0.687934 50.0017 2.03394C49.8269 5.88688 49.1082 9.71726 48.6153 13.5476C47.3641 21.971 45.9179 30.3655 44.5077 38.7612C44.0217 41.5578 40.5677 43.0054 38.3577 41.2157C33.0463 37.577 27.6942 33.9736 22.4507 30.2505C20.733 28.4803 22.3258 25.9382 23.8598 24.6741C28.2344 20.3015 32.8737 16.5865 37.0196 11.988C38.138 9.24898 34.8336 11.5573 33.7436 12.2647C27.7548 16.4505 21.9126 20.8918 15.5985 24.5706C12.3733 26.3713 8.61419 24.8325 5.39042 23.8277C2.49997 22.6139 -1.73571 21.3909 0.756591 19.5402L0.756883 19.5399Z" />
    </symbol>

    <symbol id="vk" viewBox="0 0 33 19">
        <path fill-rule="evenodd" clip-rule="evenodd"
            d="M32.0052 1.30523C32.23 0.565859 32.0052 0.0214844 30.9286 0.0214844H27.374C26.4694 0.0214844 26.0523 0.49138 25.8261 1.01003C25.8261 1.01003 24.0183 5.33794 21.4576 8.14919C20.6289 8.9644 20.2524 9.22304 19.8001 9.22304C19.574 9.22304 19.2341 8.9644 19.2341 8.22367V1.30523C19.2341 0.416901 18.9849 0.0214844 18.232 0.0214844H12.642C12.0773 0.0214844 11.7374 0.433151 11.7374 0.824505C11.7374 1.66544 13.0184 1.86044 13.1498 4.22752V9.37065C13.1498 10.4987 12.9426 10.7031 12.4903 10.7031C11.2851 10.7031 8.35333 6.35492 6.61323 1.37971C6.27604 0.411484 5.93479 0.0214844 5.02615 0.0214844H1.46875C0.453125 0.0214844 0.25 0.49138 0.25 1.01003C0.25 1.93357 1.45521 6.52148 5.86302 12.5895C8.80156 16.7332 12.9385 18.9798 16.7072 18.9798C18.9673 18.9798 19.2463 18.4815 19.2463 17.6216V14.4894C19.2463 13.4914 19.4602 13.2923 20.1766 13.2923C20.7047 13.2923 21.6079 13.5523 23.7177 15.5497C26.1281 17.9181 26.5249 18.9798 27.8818 18.9798H31.4365C32.4521 18.9798 32.9613 18.4815 32.6688 17.4956C32.3465 16.5152 31.1954 15.092 29.6693 13.4034C28.8405 12.4419 27.5974 11.406 27.2196 10.8873C26.6928 10.2224 26.8431 9.92586 27.2196 9.33409C27.2196 9.33409 31.5529 3.34055 32.0039 1.30523H32.0052Z" />
    </symbol>

    <symbol id="instagram" viewBox="0 0 35 35">
        <path
            d="M13.955 16.5278C11.4684 16.5278 9.43916 18.557 9.43916 21.0436C9.43916 23.5302 11.4684 25.5594 13.955 25.5594C16.4415 25.5594 18.4708 23.5302 18.4708 21.0436C18.4708 18.557 16.4415 16.5278 13.955 16.5278ZM27.499 21.0436C27.499 19.1736 27.516 17.3205 27.4109 15.4539C27.3059 13.2858 26.8113 11.3616 25.2259 9.77611C23.637 8.18728 21.7162 7.69606 19.5481 7.59104C17.6781 7.48602 15.825 7.50296 13.9584 7.50296C12.0883 7.50296 10.2353 7.48602 8.36864 7.59104C6.20051 7.69606 4.27629 8.19067 2.69085 9.77611C1.10201 11.3649 0.610794 13.2858 0.505775 15.4539C0.400756 17.3239 0.417695 19.177 0.417695 21.0436C0.417695 22.9103 0.400756 24.7667 0.505775 26.6333C0.610794 28.8015 1.1054 30.7257 2.69085 32.3111C4.27968 33.9 6.20051 34.3912 8.36864 34.4962C10.2387 34.6012 12.0917 34.5843 13.9584 34.5843C15.8284 34.5843 17.6814 34.6012 19.5481 34.4962C21.7162 34.3912 23.6404 33.8966 25.2259 32.3111C26.8147 30.7223 27.3059 28.8015 27.4109 26.6333C27.5193 24.7667 27.499 22.9136 27.499 21.0436ZM13.955 27.9918C10.1099 27.9918 7.00678 24.8887 7.00678 21.0436C7.00678 17.1986 10.1099 14.0954 13.955 14.0954C17.8 14.0954 20.9032 17.1986 20.9032 21.0436C20.9032 24.8887 17.8 27.9918 13.955 27.9918ZM21.1877 15.4336C20.29 15.4336 19.565 14.7086 19.565 13.8109C19.565 12.9131 20.29 12.1882 21.1877 12.1882C22.0855 12.1882 22.8104 12.9131 22.8104 13.8109C22.8107 14.024 22.7689 14.2352 22.6875 14.4322C22.606 14.6292 22.4865 14.8082 22.3357 14.9589C22.185 15.1096 22.006 15.2292 21.809 15.3106C21.612 15.3921 21.4009 15.4338 21.1877 15.4336Z" />
        <path
            d="M30.8828 7.36523L30.9883 4.55273L28.6152 6.06445L28 4.99219L30.4961 3.69141L28 2.39062L28.6152 1.30078L30.9883 2.8125L30.8828 0H32.1133L32.0078 2.8125L34.3809 1.30078L34.9961 2.39062L32.5 3.69141L34.9961 4.99219L34.3809 6.06445L32.0078 4.55273L32.1133 7.36523H30.8828Z" />
    </symbol>

    <symbol id="youtube" viewBox="0 0 22 25">
        <path
            d="M18 9.0359C20.6667 10.5755 22 11.3453 22 12.5C22 13.6547 20.6667 14.4245 18 15.9641L6.75 22.4593C4.08333 23.9989 2.75 24.7687 1.75 24.1913C0.749999 23.614 0.749999 22.0744 0.749999 18.9952L0.75 6.0048C0.75 2.92561 0.75 1.38601 1.75 0.808656C2.75 0.231305 4.08333 1.00111 6.75 2.54071L18 9.0359Z"/>
    </symbol>



    <symbol id="next" viewBox="0 0 14 24">
        <path d="M1.5 1.5L12 12L1.5 22.5" stroke-width="3" stroke-linecap="round" stroke-linejoin="round" />
    </symbol>

    <symbol id="prev" viewBox="0 0 14 24">
        <path d="M12.5 1.5L2 12L12.5 22.5" stroke-width="3" stroke-linecap="round" stroke-linejoin="round" />
    </symbol>


</svg>