<svg width="116" height="167" viewBox="0 0 116 167" fill="none" xmlns="http://www.w3.org/2000/svg">
<path d="M69.1582 148.965C71.8358 159.007 62.8651 164.495 62.8651 164.495C62.1965 166.905 64.8724 166.504 64.8724 166.504C69.9597 163.291 77.4569 156.463 73.1728 143.344C71.939 139.564 70.4375 136.796 68.999 134.491C65.6896 135.742 62.508 136.372 60.7422 136.654C64.2073 140.588 67.8754 144.165 69.1565 148.967L69.1582 148.965Z" fill="#FFEEDB"/>
<path d="M30.8691 20.6925C30.8691 20.6925 32.1921 25.2654 36.4605 26.5569C36.4605 26.5569 32.6122 22.0943 33.3839 17.637C33.3839 17.637 30.4491 19.0545 30.8691 20.6925Z" fill="#FFEEDB"/>
<path d="M37.3581 16.0885C37.3581 16.0885 37.7378 22.4254 42.6852 24.6812C42.6852 24.6812 40.1599 19.9806 41.0437 15.4812L37.3581 16.0885Z" fill="#FFEEDB"/>
<path d="M43.9924 18.0287C43.9924 18.0287 47.9842 17.9482 50.5481 22.3531C53.1101 26.758 53.2554 32.1008 49.4123 36.924C49.4123 36.924 48.826 37.1952 46.9412 36.119C46.9412 36.119 48.0683 38.3783 49.421 39.3548C49.421 39.3548 55.0614 32.1673 54.1199 23.4171C53.1784 14.6669 46.5265 15.1779 43.9924 18.0287Z" fill="#FFEEDB"/>
<path d="M54.8654 36.9349C54.8654 36.9349 53.6718 35.4561 53.2308 33.2476C53.2308 33.2476 54.9406 34.7736 56.1639 34.9574L54.8654 36.9332V36.9349Z" fill="#FFEEDB"/>
<path d="M31.2067 21.3365C31.2067 21.3365 30.6834 17.8767 38.3644 16.5449C46.0453 15.2149 48.0596 15.1991 50.8772 14.2436C53.6703 13.2951 59.4874 10.8398 61.1185 13.8761C60.8945 13.5068 59.722 12.1173 55.4851 13.8691C55.4851 13.8691 59.5172 14.1911 59.7027 17.7769C59.8882 21.3628 58.1031 23.2808 57.5484 28.4924C56.9936 33.7023 54.0553 37.6872 52.0812 39.0977C50.1072 40.5083 49.1149 40.6868 48.4954 39.2832C48.4954 39.2832 47.5854 41.7403 49.3669 42.1323C51.1485 42.5243 57.5536 41.3833 60.0177 36.1332C62.4818 30.883 63.4005 20.9113 74.9141 16.8284L67.4082 2.63379C67.4082 2.63379 58.5284 2.53579 54.1516 2.15078C49.7747 1.76577 48.5007 0.414724 46.6001 1.5085C44.6996 2.60228 39.4949 6.95289 35.4838 8.06592C35.4838 8.06592 32.8623 7.57067 31.66 10.7505C31.4902 11.23 31.3607 11.8863 31.4622 12.686C31.4622 12.686 30.9915 11.9318 31.2452 10.754C30.7115 10.6017 29.5477 10.5352 28.6114 12.5881C27.3951 15.2551 26.0616 18.6397 31.2067 21.3365ZM42.8165 7.34665C42.8165 7.34665 42.8235 7.34665 42.8288 7.34665C42.9303 7.35015 43.7458 7.30291 46.5336 5.18885C49.5314 2.91379 51.0715 3.68557 52.916 5.01735C52.916 5.01735 50.438 4.30683 49.8254 4.72859C49.8254 4.72859 50.9105 5.57385 50.6462 6.92313C50.6462 6.92313 49.7397 6.30012 46.5529 7.29765C46.5529 7.29765 45.9421 6.94939 45.8686 6.49438C45.8686 6.49438 44.9113 7.52341 42.8305 7.34665C42.8235 7.34665 42.8183 7.34665 42.8183 7.34665H42.8165ZM34.2833 11.6728C35.6396 10.9255 37.2006 11.1128 37.2006 11.1128C35.6518 13.6643 34.2833 11.6728 34.2833 11.6728ZM28.4031 15.1204C28.6989 14.2401 29.5127 13.8393 29.5127 13.8393C30.1007 15.9289 28.4031 15.1204 28.4031 15.1204Z" fill="#FFEEDB"/>
<path d="M55.1139 17.3428C55.1139 17.3428 58.229 20.0116 55.9767 24.4602C54.0954 28.1773 50.8386 28.4328 44.6294 33.4467C39.2988 37.7501 39.122 40.1231 39.122 40.1231C39.122 40.1231 38.9155 36.4795 42.9634 33.2367C42.9634 33.2367 39.199 34.3217 37.0377 36.6055C37.0377 36.6055 37.8147 34.3917 45.5814 30.4629C53.3499 26.534 58.2553 23.3542 55.1122 17.3445L55.1139 17.3428Z" fill="#FFEEDB"/>
<path d="M58.3237 72.205C62.9788 69.8022 67.4449 66.7921 71.5121 63.6473C71.6731 63.705 71.8358 63.7628 72.0003 63.8205C73.6909 64.5485 75.9817 65.0788 77.7177 65.4113C80.096 65.9083 82.6388 66.2303 85.1869 66.2251C88.911 66.2216 92.6001 65.5723 96.1299 63.9133C97.0592 63.481 97.81 63.04 98.3962 62.6392C98.3892 62.6392 98.3823 62.6357 98.3752 62.634C100.148 61.4072 103.522 58.2099 99.5075 53.5093C99.5075 53.5093 103.517 58.7821 96.5062 62.312C95.6417 62.1947 94.9837 62.1667 93.8286 62.1667C90.332 62.158 85.5702 62.8352 79.7128 64.6238C75.4199 63.9448 73.3496 63.1118 72.6321 62.7705C80.838 56.2621 87.2607 49.3774 90.031 46.2571C91.3366 46.1556 92.6019 46.1031 93.8269 46.1013C96.6515 46.1013 99.273 46.3673 101.709 46.9151C103.536 47.3281 105.26 47.8986 106.879 48.6704C109.296 49.8254 111.523 51.4442 113.237 53.7105C114.087 54.8393 114.792 56.1273 115.272 57.5169C115.753 58.9064 116.002 60.3922 116 61.8587C116.002 63.8153 115.566 65.7123 114.843 67.4064C113.751 69.9579 112.069 72.0737 110.064 73.8728C108.05 75.6701 105.682 77.1716 102.971 78.4492C96.9595 81.2807 90.8133 82.2905 85.2149 82.2905H85.1869C77.2855 82.2782 70.427 80.2569 65.3711 78.5086C60.0563 76.6711 55.7721 73.8675 55.4711 73.6925L58.3255 72.2067L58.3237 72.205Z" fill="#FFEEDB"/>
<path d="M20.964 96.4577V96.4401C20.999 95.0523 21.2282 93.7381 21.5747 92.5165C22.231 90.2222 23.2705 88.2394 24.4658 86.4159C26.1633 83.8573 28.2039 81.577 30.3862 79.4664C41.8437 78.7192 49.4774 75.8684 49.4774 75.8684C51.1592 75.3574 52.8358 74.7326 54.4948 74.0186C56.1504 75.3573 58.3467 76.4284 59.1079 76.7819C58.6197 77.0584 55.8091 78.6632 53.695 80.0247C50.2737 82.2193 45.2476 85.7299 41.3765 89.3385C39.4427 91.127 37.9691 92.6898 36.9944 94.1511C36.9104 94.2753 36.8334 94.3961 36.7581 94.5133C27.5424 91.9058 33.7235 86.9374 33.7235 86.9374C27.2168 91.8585 32.873 94.5938 36.4711 95.7261C37.1816 96.0096 38.1459 96.3019 39.2974 96.5224C40.82 96.8164 42.6627 96.9967 44.7033 96.9967C47.4771 96.9967 50.6132 96.6677 53.8631 95.9256C58.7439 94.8144 63.8768 92.7808 68.6159 89.6465C71.5192 87.7249 74.2791 85.4009 76.7939 82.5955C85.2921 84.2126 91.9125 83.0645 95.0119 82.2735C88.2392 93.5683 79.5572 101.323 70.261 105.638C61.4197 109.744 52.5347 111.713 44.7033 111.722C41.9347 111.722 39.3009 111.496 36.8281 111.043C34.973 110.701 33.2073 110.232 31.5325 109.606C30.2759 109.133 29.0684 108.571 27.9116 107.882C26.1861 106.844 24.5375 105.512 23.2022 103.64C22.539 102.707 21.9685 101.636 21.573 100.457C21.174 99.2805 20.9604 98.0012 20.9622 96.7289C20.9622 96.6309 20.9622 96.5416 20.9657 96.4611L20.964 96.4577Z" fill="#FFEEDB"/>
<path d="M0.626509 57.1652C1.35453 54.7659 2.72832 52.6659 4.35411 51.0646C5.57564 49.8535 6.93019 48.8945 8.34247 48.121C10.4635 46.9625 12.7176 46.2082 15.0696 45.7112C17.4234 45.2177 19.8858 44.9884 22.4478 44.9884C27.194 44.9919 32.2936 45.7742 37.535 47.379C42.4946 48.9015 47.5785 51.1731 52.5119 54.2882C43.8544 60.0196 29.9888 61.1308 26.4204 61.3251C25.0046 61.1396 23.6694 61.0521 22.4478 61.0521C21.5571 61.0521 20.7328 61.0993 19.982 61.1816C7.77371 59.0325 16.0987 52.3036 16.0987 52.3036C8.87273 58.0018 13.6748 60.5551 17.6037 61.6173C17.5932 61.6208 17.581 61.6226 17.5687 61.6261C18.1585 61.8081 18.8865 61.9831 19.7213 62.1179C21.221 62.3664 23.0551 62.5029 25.0554 62.5011C26.7705 62.5029 28.6062 62.4031 30.4823 62.2194C41.2398 61.3373 48.7475 57.965 52.8286 55.5919L52.7691 55.683C52.8881 55.6095 53.0089 55.5342 53.1314 55.4572C56.0784 53.6161 59.7763 50.9631 63.5599 47.8725C69.2405 43.2436 75.1557 37.5735 79.3803 32.2078C81.4944 29.5338 83.1779 26.9385 84.2297 24.7456C84.7582 23.6519 85.1292 22.6631 85.3514 21.8423C85.5772 21.0198 85.6507 20.374 85.6507 19.9313C85.642 19.3415 85.558 19.1297 85.4547 18.9127C85.082 18.1952 84.7302 17.7402 84.4099 17.413C83.9252 16.9299 83.5052 16.6727 82.8699 16.4382C82.2434 16.2142 81.3824 16.0619 80.3061 16.0637C79.0583 16.0602 77.548 16.2737 76.022 16.6569C73.7312 17.2222 71.4246 18.1532 69.7743 18.932C68.9465 19.3205 68.2798 19.6688 67.844 19.9068C67.6253 20.0258 67.466 20.1168 67.3697 20.171C67.3225 20.199 67.291 20.2165 67.2787 20.2253L67.2717 20.2288L64.8742 16.2194L58.9765 6.47166C59.2233 6.32641 61.7293 4.81437 65.5304 3.25508C67.4345 2.47631 69.6658 1.68529 72.1456 1.06752C74.6272 0.453258 77.3607 0.00350009 80.3061 0C81.9879 0 83.7414 0.150493 85.5352 0.535503C88.2163 1.10602 91.0111 2.23657 93.5137 4.10037C96.0232 5.95366 98.1688 8.51047 99.7211 11.5258C101.119 14.2086 101.727 17.1609 101.716 19.933C101.709 23.1881 100.96 26.2209 99.8541 29.0788C98.8793 31.5831 97.614 33.9736 96.1527 36.3047C93.5924 40.377 90.4249 44.2797 86.965 47.9985C81.7726 53.5689 75.9205 58.7053 70.4393 62.9211C67.697 65.0282 65.0492 66.9007 62.5939 68.4828C60.1298 70.0666 57.8915 71.3511 55.7599 72.3294C53.7246 73.2569 51.4986 74.0759 49.1063 74.8162C45.5187 75.9222 41.5618 76.8445 37.472 77.5078C33.3821 78.1675 29.168 78.5665 25.0554 78.5683C22.6281 78.5683 20.234 78.4283 17.8925 78.0923C16.1354 77.8385 14.4081 77.4745 12.7088 76.9408C10.1713 76.1375 7.64595 74.9719 5.36039 73.0241C4.22636 72.0529 3.16932 70.8751 2.3083 69.5048C1.44553 68.138 0.792775 66.5822 0.420015 64.9669C0.150508 63.8049 0 62.6026 0 61.3828C0 59.9636 0.206498 58.525 0.626509 57.1617V57.1652Z" fill="#FFEEDB"/>
<path d="M29.2082 122.986C29.2064 124.503 29.4567 126.148 30.0814 127.753C30.6992 129.358 31.7002 130.887 32.9637 132.144C34.0925 133.267 35.3211 134.05 36.5566 134.65C37.7956 135.248 39.0556 135.67 40.3524 135.994C42.9407 136.631 45.6883 136.883 48.6231 136.888C54.3545 136.879 60.807 135.887 67.2226 133.91C73.6278 131.918 79.9875 128.959 85.3234 124.661C88.8672 121.792 91.9788 118.282 94.0596 113.998C95.0098 112.034 95.7326 110.205 96.2349 108.434C96.7354 106.665 97.0207 104.945 97.0224 103.212C97.0259 101.42 96.6951 99.5912 95.9426 97.9234C95.2006 96.2539 94.0403 94.8136 92.7663 93.7846C91.9175 93.0916 91.0268 92.5648 90.1587 92.164C89.9925 92.087 89.8262 92.0153 89.66 91.947C88.6624 93.2158 86.2106 96.1104 82.2695 99.3497C84.1246 100.216 83.8516 102.666 83.4876 104.145C83.5033 104.145 83.512 104.141 83.512 104.141C83.4718 104.33 83.4193 104.544 83.3511 104.784C83.1148 105.618 82.6895 106.752 82.0088 108.156C81.2422 109.738 80.0925 111.292 78.5559 112.787C77.0246 114.278 75.1118 115.693 72.94 116.957C68.6017 119.493 63.2273 121.393 58.0996 122.45C54.6853 123.161 51.3742 123.502 48.6179 123.5C46.8889 123.5 45.3786 123.364 44.2533 123.149C43.6495 123.038 43.163 122.898 42.82 122.778C40.1512 122.046 35.6396 120.163 37.6031 116.077C37.6031 116.077 35.8566 120.028 42.8778 121.726C42.9723 121.456 43.093 121.159 43.2383 120.84C43.737 119.745 44.5386 118.444 45.4223 117.232C46.9729 115.091 48.7527 113.226 49.4684 112.508C46.3481 112.871 39.2639 113.347 33.3208 111.212C33.116 111.528 32.9113 111.85 32.7117 112.181C31.5865 114.05 30.5399 116.122 29.8557 118.516C29.4707 119.885 29.2064 121.372 29.2047 122.988L29.2082 122.986Z" fill="#FFEEDB"/>
<path d="M81.8985 99.6511C76.0271 104.395 66.9951 109.789 54.6906 111.894C54.001 114.14 53.5268 116.949 53.4935 120.45C53.4883 121.019 53.5075 121.57 53.5443 122.109C58.0664 121.478 61.9357 120.41 64.0025 119.771C64.1163 119.101 64.2721 118.392 64.4698 117.638C67.0214 107.987 78.4194 105.064 82.2503 104.346C83.386 101.375 82.511 100.129 81.8968 99.6511H81.8985Z" fill="#FFEEDB"/>
<path d="M81.2075 16.1587C81.2075 16.1587 91.9178 16.2252 85.0908 30.9518C85.0908 30.9518 89.844 19.7725 83.3495 17.4975L81.2075 16.1587Z" fill="#131313"/>
</svg>
