<svg width="100" height="100" viewBox="0 0 100 100" fill="none" xmlns="http://www.w3.org/2000/svg">
<path d="M52.9145 100H47.4449C46.0262 99.8435 44.6025 99.7163 43.1887 99.5109C36.1083 98.5603 29.3224 96.0693 23.309 92.2136C23.0646 92.0371 22.78 91.9243 22.481 91.8854C22.182 91.8466 21.8781 91.8829 21.5967 91.9911C18.2675 93.094 14.9212 94.1504 11.5822 95.2191C9.17572 95.9899 6.76922 96.755 4.2634 97.5519C3.86147 97.6797 3.47091 97.2989 3.60541 96.8991V96.8991C5.42043 91.4873 7.20121 86.0608 9.08962 80.6588C9.43942 79.6512 9.31467 78.9469 8.72515 78.0886C3.85019 71.0868 0.913465 62.921 0.212628 54.4188C-0.724239 43.7321 1.41368 33.6519 7.04711 24.5131C16.3962 9.3512 30.0921 1.1124 47.8975 0.0828587C57.7554 -0.486937 67.0335 1.88762 75.4776 7.03289C88.4592 14.9464 96.4189 26.4182 99.2221 41.3967C99.5719 43.2699 99.7456 45.1774 100 47.0702V52.9393C99.9185 53.6436 99.8369 54.3463 99.7554 55.0473C98.5617 65.7707 94.4791 75.2396 87.2655 83.2754C79.5553 91.859 69.9933 97.2146 58.6066 99.2321C56.7182 99.5549 54.8102 99.7555 52.9145 100ZM61.8884 77.3076C64.6916 77.9303 67.6981 78.2507 70.4165 77.3256V77.3256C77.4981 74.9143 79.9075 71.4931 80.1154 64.9808C80.1497 63.9513 79.7901 63.2445 78.8434 62.7946C75.118 61.024 71.417 59.1997 67.6768 57.4586C65.7664 56.5684 64.6461 56.9328 63.379 58.6348C62.4006 59.9383 61.4588 61.2613 60.4583 62.5476C58.9344 64.504 57.8581 64.7485 55.544 63.8021C47.3128 60.442 41.1926 54.6756 36.5988 47.1729C35.679 45.6665 35.728 45.0331 36.8972 43.6808C37.8316 42.5974 38.8003 41.541 39.7323 40.4552C40.882 39.1151 41.3663 37.6698 40.4172 35.9897C40.1899 35.5225 39.9882 35.0433 39.813 34.5542C38.3918 31.2064 36.9951 27.8463 35.5152 24.5278C35.2705 23.9898 34.7153 23.3491 34.1942 23.2268C31.5304 22.6081 28.8446 22.569 26.555 24.3248C24.4941 25.9384 22.9334 28.1033 22.0541 30.5681C20.2244 35.4786 20.8115 40.262 22.8369 44.9793C24.3241 48.4494 26.5061 51.4892 28.7247 54.4946C32.4325 59.5735 36.8164 64.1225 41.7552 68.0157C47.0951 72.173 53.1909 74.8043 59.612 76.724C60.3642 76.9495 61.1273 77.1385 61.8884 77.3076Z" fill="url(#paint0_linear_142_12296)"/>
<defs>
<linearGradient id="paint0_linear_142_12296" x1="100" y1="0" x2="0" y2="100" gradientUnits="userSpaceOnUse">
<stop stop-color="#FFEEDB"/>
<stop offset="1" stop-color="#BFAD99"/>
</linearGradient>
</defs>
</svg>
