<svg width="102" height="42" viewBox="0 0 102 42" fill="none" xmlns="http://www.w3.org/2000/svg">
<path d="M8.46053 13.4669C8.32798 13.5726 8.24247 13.7289 8.14841 13.8641C8.03724 14.0205 7.93462 14.181 7.82772 14.3416C7.79352 14.3923 7.8662 14.443 7.90468 14.3965C8.02441 14.2444 8.14412 14.0965 8.25957 13.9402C8.35791 13.805 8.47764 13.674 8.53323 13.5176C8.55033 13.4754 8.49474 13.4373 8.46053 13.4669ZM96.632 22.0446C96.7688 21.5418 96.927 20.9375 96.8329 20.4136C96.8244 20.3586 96.7474 20.3671 96.7346 20.4136C96.679 20.6756 96.6961 20.9544 96.6662 21.2206C96.6362 21.4868 96.5978 21.7573 96.5465 22.0192C96.5379 22.0657 96.6191 22.0869 96.632 22.0404V22.0446ZM13.305 9.45274C12.8689 9.57105 12.4328 9.84993 12.095 10.1457C12.0565 10.1795 12.1035 10.2345 12.1463 10.2049C12.5311 9.95557 12.933 9.77388 13.3392 9.55838C13.3948 9.5288 13.3692 9.43161 13.305 9.44851V9.45274ZM8.40495 11.4641C8.34508 11.5148 8.29805 11.5697 8.24674 11.6288C8.21254 11.6669 8.27667 11.7218 8.31088 11.688C8.36646 11.6331 8.41777 11.5781 8.46053 11.5148C8.48619 11.481 8.43489 11.4345 8.40068 11.4641H8.40495ZM11.7358 8.59074C11.4493 8.75131 11.1757 8.93302 10.902 9.11471C10.8678 9.14006 10.902 9.19922 10.9448 9.17809C11.227 9.0133 11.5177 8.8485 11.7871 8.6668C11.8299 8.63722 11.7828 8.56117 11.7358 8.59074ZM12.9245 8.12173C12.9972 8.08792 13.0613 8.05411 13.1297 8.01186C13.1725 7.98651 13.1468 7.92312 13.0955 7.94002C13.0228 7.96537 12.9544 7.99918 12.886 8.03298C12.8304 8.05834 12.8732 8.14707 12.9288 8.1175L12.9245 8.12173ZM9.97845 9.90487C10.034 9.84994 10.0853 9.79923 10.1367 9.74007C10.1666 9.70627 10.111 9.66401 10.0811 9.68937C10.0212 9.73585 9.97417 9.78233 9.92286 9.83726C9.88438 9.87951 9.93996 9.94712 9.98272 9.90487H9.97845ZM12.3002 8.37526C12.4028 8.34145 12.5097 8.31187 12.6081 8.26539C12.6466 8.24849 12.6295 8.18087 12.5824 8.19355C12.4712 8.2189 12.3643 8.25694 12.2575 8.29074C12.2019 8.31187 12.2403 8.39216 12.2959 8.37526H12.3002ZM9.54659 10.2091C9.60645 10.1753 9.65776 10.1415 9.70479 10.095C9.73472 10.0654 9.70479 10.0105 9.66203 10.0316C9.5979 10.0612 9.55087 10.095 9.49528 10.1373C9.4568 10.1668 9.49528 10.2387 9.54659 10.2133V10.2091ZM10.0982 11.5021C9.91004 11.6331 9.76466 11.8401 9.61073 12.0091C9.43969 12.1993 9.26012 12.3852 9.11046 12.5923C9.07626 12.643 9.14467 12.7063 9.19171 12.6641C9.36701 12.5077 9.52093 12.3303 9.67486 12.157C9.84162 11.9711 10.0554 11.7894 10.1751 11.5739C10.2051 11.519 10.1495 11.4683 10.0939 11.5021H10.0982ZM5.58719 19.9657C5.60429 19.7375 5.64706 19.5178 5.71547 19.298C5.76678 19.1248 5.86512 18.9642 5.89505 18.7825C5.89932 18.7445 5.84802 18.7149 5.82237 18.7445C5.53161 19.0276 5.4974 19.5769 5.50595 19.9572C5.50595 20.0079 5.58291 20.0206 5.58719 19.9657ZM6.09601 27.1278C6.07891 27.0518 6.06181 26.9842 6.03616 26.9123C6.01905 26.8616 5.94208 26.8912 5.94636 26.9419C5.95918 27.018 5.97629 27.0856 6.00194 27.1616C6.01905 27.2166 6.10884 27.187 6.09601 27.132V27.1278ZM7.48138 12.55C7.32318 12.7063 7.21627 12.9134 7.09655 13.0993C6.95972 13.3106 6.83573 13.5261 6.6989 13.7416C6.66897 13.7881 6.73739 13.8345 6.76732 13.7881C6.90842 13.581 7.06235 13.3824 7.19918 13.1711C7.32318 12.9894 7.47282 12.8078 7.55406 12.6007C7.57117 12.5585 7.51559 12.5162 7.48138 12.55ZM96.2557 23.3967C96.2215 23.5108 96.1873 23.6249 96.1531 23.739C96.1189 23.8446 96.2856 23.908 96.3156 23.7982C96.3498 23.6841 96.384 23.57 96.4182 23.4559C96.4524 23.3503 96.2856 23.2911 96.2557 23.3967ZM5.35203 24.7827C5.37768 24.939 5.39478 25.0954 5.44609 25.2475C5.4632 25.3024 5.54443 25.2897 5.53588 25.2306C5.5145 25.07 5.4632 24.9264 5.42044 24.77C5.40761 24.7278 5.34775 24.7362 5.35203 24.7827ZM95.64 25.1038C95.6272 25.1376 95.6186 25.1714 95.6058 25.2052C95.5716 25.3109 95.734 25.37 95.7683 25.2644C95.7811 25.2306 95.7896 25.1968 95.8025 25.163C95.8367 25.0573 95.6742 24.9982 95.64 25.1038ZM91.2231 31.6617C91.2958 31.6068 91.3684 31.5561 91.4283 31.4885C91.4625 31.4547 91.4283 31.3786 91.377 31.4082C91.2958 31.4589 91.2274 31.5181 91.159 31.5857C91.1119 31.6279 91.1718 31.6998 91.2231 31.6617ZM93.2584 29.6758C93.3396 29.6082 93.4208 29.5405 93.4978 29.4645C93.532 29.4307 93.4893 29.38 93.4508 29.4096C93.361 29.4687 93.284 29.5406 93.2028 29.6082C93.16 29.6462 93.2156 29.7096 93.2584 29.6758ZM94.8489 26.9504C94.7378 27.0813 94.6737 27.2504 94.5967 27.4025C94.571 27.4574 94.6565 27.4997 94.6907 27.449C94.7805 27.3011 94.8832 27.1574 94.9345 26.9926C94.9516 26.9419 94.8874 26.9081 94.8489 26.9504ZM95.9478 24.3855C95.9265 24.432 95.9008 24.4742 95.8794 24.5207C95.8281 24.6221 95.9949 24.6813 96.0419 24.5799C96.0633 24.5334 96.0889 24.4911 96.1103 24.4447C96.1616 24.3433 95.9949 24.2841 95.9478 24.3855ZM6.21147 17.5698C6.2414 17.4896 6.24139 17.4853 6.25849 17.4051C6.27132 17.3586 6.19436 17.3459 6.17725 17.3881C6.1516 17.4346 6.13023 17.4853 6.1174 17.5403C6.1003 17.5994 6.18581 17.6332 6.20719 17.5741L6.21147 17.5698ZM96.2771 16.2726C96.2643 16.2515 96.2514 16.2304 96.2343 16.2092C96.2087 16.167 96.1445 16.1966 96.1616 16.2431C96.1702 16.2684 96.1787 16.2895 96.1916 16.3149C96.2129 16.3698 96.307 16.3276 96.2771 16.2768V16.2726ZM6.468 16.9022C6.56207 16.7036 6.67325 16.5008 6.72456 16.2853C6.73311 16.243 6.67753 16.2008 6.64759 16.2473C6.52787 16.4374 6.45946 16.6614 6.3825 16.8726C6.36112 16.9276 6.44663 16.9571 6.47228 16.9064L6.468 16.9022ZM5.34774 16.3107C5.33064 16.3614 5.40333 16.3867 5.42471 16.3402C5.52733 16.1247 5.60857 15.9008 5.69408 15.6768C5.71974 15.6135 5.61712 15.5754 5.59147 15.6388C5.50595 15.8585 5.41189 16.0825 5.34348 16.3107H5.34774ZM95.811 15.3726C95.8367 15.4613 95.8752 15.5416 95.9136 15.6261C95.9393 15.6811 96.0205 15.643 95.9991 15.5881C95.9649 15.5078 95.935 15.4275 95.8922 15.3515C95.8709 15.3134 95.7982 15.3261 95.811 15.3768V15.3726ZM90.9109 31.9195C90.9409 31.8857 90.8896 31.8476 90.8554 31.8688C90.4748 32.1434 90.1242 32.4308 89.718 32.6758C89.6752 32.7012 89.7052 32.7688 89.7522 32.7477C90.1669 32.5449 90.6074 32.266 90.9109 31.9195ZM96.5892 17.2783C96.5721 17.8403 96.7346 18.4487 96.8286 18.998C96.8415 19.0657 96.9441 19.0487 96.9355 18.9811C96.8714 18.4276 96.8586 17.8065 96.6876 17.2741C96.6705 17.2276 96.5892 17.2191 96.5892 17.2741V17.2783ZM4.79616 18.7445C4.82609 18.6642 4.8261 18.66 4.8432 18.5797C4.85175 18.5332 4.77906 18.5206 4.76196 18.5628C4.73631 18.6135 4.71921 18.6642 4.71065 18.7149C4.69783 18.7699 4.77478 18.8037 4.79616 18.7445ZM31.1651 10.3908C31.118 10.3697 31.0924 10.4415 31.1394 10.4626C31.4088 10.5852 31.6825 10.7373 31.9689 10.8218C32.0117 10.8345 32.0459 10.7753 32.0074 10.7542C31.7466 10.6021 31.4473 10.5049 31.1694 10.3908H31.1651ZM33.2645 10.357C33.3073 10.3697 33.3372 10.3147 33.303 10.2852C33.2559 10.2471 33.2517 10.2471 33.1961 10.2175C33.1448 10.1922 33.0977 10.2809 33.1491 10.3063C33.2046 10.3359 33.2089 10.3401 33.2645 10.357ZM38.2715 14.3416C38.233 14.3205 38.1774 14.3669 38.2159 14.4007C38.3313 14.5064 38.4553 14.5993 38.5964 14.6712C38.6349 14.6923 38.6777 14.6289 38.6478 14.5993C38.5366 14.4937 38.4083 14.4092 38.2757 14.3374L38.2715 14.3416ZM83.873 34.9449C84.215 34.9027 84.5999 34.9027 84.9248 34.7886C84.9676 34.7717 84.9547 34.6998 84.9077 34.6998C84.5613 34.6872 84.1936 34.8055 83.8559 34.8689C83.8046 34.8773 83.8216 34.9534 83.8687 34.9449H83.873ZM86.5154 34.1717C86.3444 34.197 86.1776 34.2773 86.0194 34.3449C85.9724 34.3618 85.998 34.4421 86.0451 34.4294C86.2118 34.3829 86.3914 34.3407 86.5411 34.2562C86.5838 34.2308 86.5667 34.1674 86.5154 34.1759V34.1717ZM33.6621 10.4964C33.6151 10.4669 33.5638 10.5387 33.6108 10.5683C33.6664 10.6021 33.722 10.6359 33.7776 10.6697C33.8161 10.6908 33.8417 10.6316 33.8118 10.6063C33.7605 10.5683 33.7135 10.5345 33.6579 10.5007L33.6621 10.4964ZM33.0251 11.2655C32.9823 11.2443 32.9438 11.3162 32.9866 11.3415C33.2217 11.4894 33.4655 11.6415 33.7263 11.7514C33.769 11.7683 33.799 11.7091 33.7605 11.6838C33.5339 11.519 33.2773 11.388 33.0251 11.2655ZM35.8941 12.9514C35.8385 12.9134 35.7787 12.9979 35.8343 13.0359C35.954 13.1204 36.0737 13.2092 36.202 13.2852C36.249 13.3106 36.2918 13.2514 36.249 13.2176C36.1378 13.1204 36.0138 13.0402 35.8941 12.9514ZM101.998 19.7375L101.895 18.5671C101.857 18.1783 101.771 17.7853 101.707 17.3966C101.652 17.0036 101.536 16.6318 101.434 16.2557C101.323 15.8839 101.241 15.4994 101.096 15.1402C100.587 13.6697 99.8645 12.3049 99.0307 11.0331C97.299 8.53159 95.0499 6.47801 92.5187 4.9822C90.0002 3.45259 87.191 2.47651 84.3005 2.01171C82.8468 1.80889 81.3802 1.72438 79.935 1.80044C78.494 1.88917 77.0659 2.06242 75.6933 2.39201C73.2005 2.93709 71.8366 3.35963 69.5576 4.07796C69.0402 4.23853 67.8173 4.35685 67.2785 4.38642C66.2951 4.43713 65.2048 4.48783 64.3753 5.10474C63.3405 5.87378 62.0834 7.06535 61.0059 8.23158C60.0995 9.21611 59.24 10.1711 58.8809 11.2528C58.744 11.5232 58.8167 12.0937 58.9749 12.5458C59.0091 12.6387 59.0562 12.7232 59.1118 12.7993C58.8894 13.4669 59.2229 13.75 58.5003 14.405C58.1839 14.6923 57.752 14.836 57.3587 14.9881C57.2347 15.0346 57.1107 15.0853 56.9867 15.1402C56.0246 15.5205 55.0284 16.0444 55.1353 17.1093C55.1395 17.16 55.2165 17.1557 55.2208 17.1093C55.255 16.7121 55.4046 16.4205 55.6184 16.1881C55.4773 16.4501 55.4217 16.767 55.5073 17.1388C55.5201 17.2022 55.6184 17.1853 55.6099 17.1219C55.5115 16.2642 56.0075 15.8416 56.6446 15.5458C56.7814 15.4867 56.9183 15.4318 57.0551 15.3768C57.5554 15.1909 58.0813 15.0388 58.449 14.7979C58.7056 14.6331 58.9493 14.4219 59.1032 14.1599C59.2657 13.8768 59.2913 13.5049 59.3555 13.1585C59.3683 13.1373 59.3768 13.112 59.3897 13.0909C59.3982 13.0782 59.4068 13.0697 59.4153 13.0571C59.5607 13.1373 59.7189 13.1923 59.89 13.1923C60.8477 13.1923 62.6307 12.8711 64.3197 12.2838C65.8376 11.7556 67.4111 10.9866 67.7916 10.7964C68.386 10.433 69.0616 9.70204 69.1898 9.10625C69.2967 8.6161 69.6687 8.22314 70.1391 8.04144C72.2085 7.24706 74.3251 6.63437 76.4459 6.33858C77.6388 6.14421 78.8318 6.09351 80.0033 6.10196C80.3625 6.11041 80.7217 6.13153 81.0766 6.16111C81.8804 6.22872 82.6715 6.34703 83.4539 6.5076C87.9521 7.51748 92.1039 10.2936 94.3572 13.9867C94.8917 14.9205 95.345 15.8797 95.64 16.8811C95.7341 17.1262 95.7597 17.3881 95.8281 17.6374C95.8837 17.891 95.9564 18.1403 95.9735 18.3938C95.9991 18.6473 96.0505 18.8924 96.0633 19.1459L96.0975 19.915C96.0847 21.9812 95.5587 24.132 94.5924 26.0841C94.3658 26.5785 94.0836 27.0391 93.8185 27.5081C93.5064 27.9729 93.2199 28.4293 92.8821 28.8433C92.2193 29.6884 91.4924 30.4828 90.68 31.1293C89.098 32.4181 87.1268 33.3477 84.9889 33.8632C83.9243 34.1336 82.8254 34.3026 81.7137 34.366C81.2604 34.3914 80.8029 34.4083 80.3454 34.4083C79.6869 34.4083 79.0328 34.3745 78.3785 34.3026C77.2754 34.1801 76.1936 33.9688 75.1546 33.6646C74.1284 33.3646 73.1065 32.9336 72.123 32.435C68.1423 30.4363 64.6404 26.8236 60.5484 23.2911C57.3629 20.5403 54.1518 17.9501 51.1032 15.1022C47.8706 12.081 43.7103 9.0978 39.9775 6.70197C32.6189 1.98213 24.9438 -1.17851 16.0629 0.418716C12.9116 0.984927 9.45253 2.8737 7.07945 4.78784C4.685 6.69774 2.83358 9.14006 1.5209 11.8148C0.221059 14.4937 -0.0654197 18.4868 0.0115448 21.5206L0.0585724 22.6573C0.0713999 23.0334 0.156914 23.4136 0.203948 23.7897C0.268085 24.1615 0.306573 24.5461 0.396365 24.9095L0.682837 25.9869L0.823946 26.5109C0.823946 26.5109 0.828217 26.5278 0.832493 26.532L1.02063 27.0433L1.40973 28.0828C1.54656 28.425 1.72186 28.7504 1.87579 29.0842C2.04255 29.4096 2.17938 29.7561 2.37607 30.0645C3.81701 32.6167 6.57062 35.4393 8.8197 37.2013C11.0944 38.938 13.6685 40.2479 16.3879 41.0591C19.0987 41.8916 22.0149 42.0733 24.7556 41.8028C25.4483 41.7606 26.1282 41.6211 26.808 41.5197C27.4836 41.4014 28.1464 41.2282 28.8134 41.0718C30.1432 40.6873 31.4387 40.2605 32.6702 39.6943C35.1458 38.583 39.1138 35.6928 41.0807 33.8885C41.9144 33.1237 44.48 30.8251 45.194 29.9631C45.4164 29.6927 45.0358 29.3504 44.7792 29.5913C42.1026 32.097 35.3981 36.8506 31.9818 37.9408C30.7888 38.3422 29.5574 38.6042 28.3302 38.8281C27.6931 38.9042 27.0817 39.0056 26.466 39.0478C25.846 39.0774 25.2303 39.145 24.6103 39.1197C22.7075 39.1197 20.8518 38.8915 19.0816 38.3802C18.5472 38.2239 18.017 38.0464 17.4996 37.8351C15.2676 36.9562 13.211 35.6759 11.4536 34.1083C10.1538 32.9167 9.02922 31.5645 8.13558 30.1025C8.13558 30.0814 8.12275 30.0603 8.10137 30.0476C7.81489 29.5744 7.54978 29.0884 7.31034 28.594C7.16924 28.3447 7.09228 28.0743 6.98111 27.8166C6.88276 27.5546 6.75876 27.3011 6.67325 27.0349L6.4338 26.232L6.31408 25.8475C6.31408 25.8475 6.30981 25.8306 6.30553 25.8179L6.22856 25.425L6.06608 24.6137C6.01049 24.3432 6.01478 24.077 5.98485 23.8108C5.97202 23.5446 5.91643 23.2827 5.92926 23.0122L5.94636 22.2052C6.01049 20.0544 6.70317 17.8994 7.76357 15.9726C8.83253 14.05 10.2863 12.3134 12.0351 11.05C13.7711 9.77388 15.7508 8.92034 17.7732 8.62456C18.5429 8.51892 19.3211 8.47243 20.1121 8.47243C21.5488 8.47243 23.0111 8.63722 24.4692 8.94568C26.7268 9.41471 28.9759 10.2302 31.1694 11.2317C31.7209 11.481 32.264 11.7514 32.807 12.026L34.4617 12.8965C35.5563 13.4965 36.6424 14.1134 37.7113 14.7641C39.8493 16.0614 41.9316 17.4642 43.9754 18.9473C44.8904 19.615 45.7285 20.2995 46.5195 20.9925C49.256 23.401 51.4538 25.9743 54.4981 28.594C56.4137 30.2208 58.3079 31.9955 60.4244 33.7533C62.5281 35.5027 65.9958 38.1098 68.7024 39.4408C70.0536 40.1042 71.4603 40.6746 72.9526 41.0887C74.432 41.4944 75.9328 41.7606 77.4379 41.9C78.943 42.0437 80.4523 42.0226 81.9531 41.9C83.4539 41.7817 84.9462 41.5197 86.4128 41.1141C87.8751 40.7084 89.3246 40.1887 90.7057 39.4746C92.0825 38.7689 93.408 37.8943 94.6052 36.859C95.8025 35.8365 96.8116 34.666 97.7052 33.4406C98.1627 32.8322 98.5475 32.1857 98.9409 31.5434C99.3043 30.8673 99.6635 30.2082 99.9585 29.5152C101.186 26.7687 102.109 22.8601 101.99 19.7459L101.998 19.7375ZM0.469046 21.0305C0.469046 20.9587 0.469055 20.8953 0.477606 20.8277C0.481882 20.7854 0.546016 20.7812 0.554568 20.8277C0.563119 20.8995 0.563115 20.9713 0.563115 21.0432C0.563115 21.1023 0.469046 21.0939 0.469046 21.0347V21.0305ZM0.571675 20.0671C0.563123 20.1389 0.451944 20.1305 0.456219 20.0544C0.469047 19.8812 0.443398 19.691 0.516087 19.5305C0.537466 19.4797 0.610151 19.4882 0.618702 19.5389C0.657185 19.7121 0.597329 19.8938 0.571675 20.0671ZM1.06339 15.4656C1.05056 15.512 0.973593 15.4951 0.977868 15.4487C0.990696 15.3726 0.999254 15.305 1.02491 15.2332C1.04201 15.1867 1.11043 15.2036 1.10615 15.2501C1.10187 15.3261 1.08049 15.3937 1.06339 15.4656ZM1.12324 14.574C1.12324 14.3965 1.14891 14.1979 1.2387 14.0416C1.26008 14.0078 1.31993 14.0205 1.32421 14.0585C1.34559 14.236 1.28573 14.4303 1.21731 14.5951C1.19593 14.65 1.11897 14.6289 1.12324 14.574ZM1.22587 25.6489C1.18311 25.5559 1.17028 25.463 1.15318 25.3658C1.12325 25.1968 1.37553 25.1545 1.41401 25.3193C1.43539 25.4165 1.46103 25.5095 1.45676 25.6109C1.45248 25.7334 1.27718 25.7545 1.22587 25.6531V25.6489ZM36.1378 36.6858C36.3046 36.6858 36.2789 36.9436 36.1122 36.9436C35.9454 36.9436 35.9711 36.6858 36.1378 36.6858ZM35.4109 37.1548C35.5692 37.1548 35.5435 37.3957 35.3896 37.3957C35.2356 37.3957 35.257 37.1548 35.4109 37.1548ZM34.6114 37.5562C34.6584 37.5351 34.7012 37.5224 34.7525 37.5098C34.8722 37.476 34.9406 37.6492 34.8508 37.721C34.8081 37.7548 34.7739 37.776 34.7268 37.8055C34.5772 37.8943 34.4403 37.6281 34.6071 37.5605L34.6114 37.5562ZM33.9444 37.9281C33.9786 37.9112 34.0128 37.8985 34.0512 37.8816C34.1923 37.8182 34.2821 38.021 34.1539 38.0929C34.1197 38.1098 34.0855 38.1309 34.0512 38.1478C33.9144 38.2239 33.799 37.9915 33.9444 37.9281ZM33.2175 38.3337C33.2901 38.2999 33.3586 38.2703 33.4312 38.245C33.5467 38.207 33.6793 38.3591 33.5595 38.4436C33.4868 38.4943 33.4142 38.5365 33.3329 38.5788C33.1747 38.6591 33.055 38.4098 33.2132 38.3337H33.2175ZM32.4649 38.5239C32.5761 38.4985 32.6402 38.4858 32.7514 38.5154C32.8583 38.5408 32.8668 38.6887 32.7942 38.752C32.7086 38.8239 32.636 38.8366 32.5248 38.8619C32.3067 38.9126 32.2469 38.5746 32.4649 38.5239ZM27.8727 40.1929C29.1554 40.0239 30.3142 39.6563 31.4943 39.1366C31.5413 39.1154 31.5713 39.183 31.5285 39.2042C30.4211 39.8126 29.1469 40.1549 27.8898 40.2732C27.8342 40.2774 27.8214 40.1971 27.8727 40.1887V40.1929ZM27.2741 40.1084C27.4537 40.1084 27.428 40.3831 27.2484 40.3831C27.0688 40.3831 27.0988 40.1084 27.2741 40.1084ZM26.7524 40.1338C26.8978 40.1338 26.8764 40.3577 26.7311 40.3577C26.5857 40.3577 26.6071 40.1338 26.7524 40.1338ZM100.852 19.0868C100.852 19.0361 100.933 19.0361 100.942 19.0868C100.98 19.2854 100.98 19.4882 100.993 19.691C101.006 19.8685 101.023 20.0502 101.006 20.2234C101.002 20.2741 100.929 20.2741 100.921 20.2234C100.878 20.0248 100.882 19.822 100.869 19.6192C100.861 19.4417 100.839 19.26 100.852 19.0868ZM100.899 21.7066C100.874 22.877 100.809 24.2503 100.399 25.3573C100.378 25.4165 100.292 25.3912 100.296 25.332C100.386 24.1235 100.69 22.9108 100.818 21.6939C100.822 21.639 100.904 21.6474 100.899 21.7023V21.7066ZM100.13 22.6066C100.147 22.4418 100.138 22.2601 100.215 22.1122C100.279 21.9854 100.455 21.9939 100.493 22.1376C100.532 22.3023 100.489 22.4756 100.467 22.6404C100.437 22.8517 100.112 22.8221 100.134 22.6066H100.13ZM99.7704 13.1247C99.8046 13.1923 99.8388 13.2599 99.8688 13.3317C99.8859 13.3782 99.8217 13.4078 99.7961 13.3655C99.7533 13.2979 99.7234 13.2345 99.6849 13.1627C99.6593 13.112 99.7405 13.0697 99.7704 13.1247ZM98.8853 11.7472C99.0392 12.0007 99.2146 12.2542 99.3471 12.5204C99.3642 12.5542 99.3129 12.5923 99.2872 12.5585C99.1077 12.3134 98.9666 12.0429 98.8083 11.7852C98.7784 11.7387 98.8597 11.7049 98.8853 11.7472ZM97.9746 10.9274C98.1328 10.9274 98.1071 11.1683 97.9532 11.1683C97.7993 11.1683 97.8207 10.9274 97.9746 10.9274ZM97.222 9.95134C97.3375 10.0401 97.4657 10.1204 97.5513 10.2387C97.6197 10.3359 97.5342 10.5091 97.4016 10.4499C97.2648 10.3866 97.1665 10.2852 97.0553 10.188C96.9184 10.0654 97.0681 9.83726 97.222 9.95134ZM96.5165 9.30062C96.6063 9.3471 96.6662 9.38091 96.7303 9.45697C96.8116 9.54993 96.7303 9.70204 96.6063 9.68937C96.508 9.68092 96.4438 9.65133 96.354 9.60485C96.1231 9.49076 96.2942 9.17809 96.5165 9.2964V9.30062ZM96.1531 8.44708C96.2044 8.49779 96.2215 8.52737 96.26 8.58653C96.3284 8.70062 96.1745 8.79357 96.0761 8.73864C96.012 8.70061 95.9863 8.67948 95.935 8.62877C95.8025 8.50624 96.0248 8.31609 96.1531 8.44708ZM95.3578 7.94848C95.4518 8.02031 95.5331 8.07102 95.593 8.17666C95.6571 8.29075 95.5245 8.3837 95.4262 8.35835C95.3236 8.333 95.2551 8.27384 95.1739 8.21046C95.0072 8.08792 95.1953 7.82172 95.3578 7.94848ZM94.6694 7.09916C94.7378 7.16677 94.7848 7.21325 94.8148 7.30199C94.849 7.40762 94.7677 7.51748 94.6523 7.47945C94.5454 7.44564 94.4941 7.38649 94.4128 7.31043C94.2589 7.16254 94.5197 6.94282 94.6694 7.09916ZM93.656 6.56253C93.6646 6.62169 93.7415 6.65127 93.7843 6.68507C93.8441 6.73155 93.8698 6.84141 93.7928 6.89212C93.5534 7.04423 93.3353 6.82029 93.3396 6.57944C93.3396 6.39774 93.6261 6.39773 93.656 6.56675V6.56253ZM92.7752 5.58222C92.8479 5.62448 92.8992 5.65828 92.9548 5.71744C93.0659 5.83575 92.9206 6.0259 92.7752 5.97097C92.6982 5.94139 92.6426 5.90336 92.5785 5.85687C92.4032 5.72589 92.5871 5.47236 92.7752 5.58222ZM91.6934 5.21461C91.8217 5.27799 91.95 5.3287 92.0526 5.42588C92.1338 5.50194 92.0483 5.65406 91.9414 5.63716C91.8131 5.61603 91.7062 5.55265 91.5908 5.49349C91.4197 5.40898 91.5224 5.1301 91.6977 5.21461H91.6934ZM91.0691 4.46248C91.2017 4.51741 91.3428 4.55967 91.454 4.6484C91.548 4.72868 91.5053 4.90193 91.3642 4.88503C91.2188 4.86812 91.0948 4.79629 90.9622 4.74136C90.7869 4.6653 90.8853 4.38642 91.0691 4.46248ZM89.8634 4.54276C89.9703 4.57657 90.0729 4.60191 90.1712 4.65262C90.2867 4.70755 90.2653 4.91461 90.1156 4.88926C89.9959 4.86813 89.8848 4.82586 89.7693 4.78784C89.6111 4.7329 89.7009 4.49628 89.8591 4.54276H89.8634ZM89.1621 3.91316C89.299 3.93852 89.4144 3.9512 89.5341 4.02303C89.6453 4.09064 89.5726 4.26388 89.4486 4.25121C89.3161 4.23853 89.2305 4.1836 89.1108 4.12867C89.0039 4.07796 89.0253 3.88781 89.1621 3.91316ZM82.0173 2.72581C82.1113 2.70046 82.1755 2.68356 82.2695 2.70046C82.3935 2.71736 82.4662 2.88638 82.355 2.96667C82.2653 3.03005 82.1883 3.05118 82.0814 3.07653C81.8548 3.13146 81.7949 2.78497 82.0173 2.72581ZM81.2861 2.70046C81.3203 2.70468 81.3545 2.71314 81.3887 2.72159C81.5298 2.75117 81.5512 2.94554 81.3973 2.97934C81.3631 2.98779 81.3289 2.99203 81.2989 3.00048C81.068 3.04273 81.0766 2.66243 81.2861 2.70046ZM80.8714 2.26524C81.0338 2.26524 81.0124 2.51877 80.8457 2.51877C80.6789 2.51877 80.7046 2.26524 80.8714 2.26524ZM80.1445 2.51032C80.1787 2.51032 80.2129 2.51032 80.2471 2.523C80.3796 2.54835 80.401 2.73849 80.2556 2.76807C80.2214 2.77652 80.1872 2.78074 80.153 2.78074C79.952 2.79342 79.9435 2.50187 80.1402 2.51032H80.1445ZM79.238 2.40046C79.3192 2.34975 79.3663 2.3244 79.4689 2.33708C79.58 2.35398 79.6399 2.47229 79.5758 2.56525C79.5202 2.64554 79.4731 2.66666 79.3791 2.69201C79.2251 2.73004 79.1011 2.49342 79.2422 2.40046H79.238ZM78.3999 2.82723C78.4854 2.81033 78.5581 2.79765 78.6436 2.79765C78.7719 2.79765 78.7933 2.98779 78.6864 3.03427C78.6094 3.06808 78.5325 3.08499 78.447 3.10611C78.2674 3.14414 78.2203 2.86526 78.3956 2.82723H78.3999ZM77.8355 2.40046C77.9168 2.37088 77.9467 2.36243 78.0322 2.35398C78.1477 2.34553 78.2717 2.5061 78.1434 2.59061C78.075 2.63709 78.045 2.65398 77.9681 2.67934C77.7799 2.73849 77.6431 2.46806 77.8355 2.40046ZM77.0958 2.98357C77.2284 2.94132 77.3523 2.89484 77.4849 2.95822C77.5918 3.00892 77.6089 3.12724 77.5319 3.21175C77.4421 3.30471 77.331 3.31738 77.207 3.3216C77.0231 3.33005 76.8863 3.05118 77.1001 2.98357H77.0958ZM76.2235 2.523C76.3732 2.48919 76.5186 2.46383 76.6725 2.46383C76.835 2.46383 76.8221 2.69201 76.6853 2.72581C76.5399 2.75961 76.386 2.76807 76.2364 2.7723C76.0867 2.7723 76.0953 2.55258 76.2278 2.523H76.2235ZM75.4924 3.24978C75.6805 3.16527 75.9285 3.03428 76.1338 3.11879C76.2193 3.15259 76.2577 3.25822 76.2022 3.33851C76.0739 3.5202 75.8002 3.54132 75.595 3.5709C75.4069 3.59625 75.3128 3.33428 75.4924 3.25399V3.24978ZM73.688 3.42302C73.8676 3.32584 74.0685 3.16526 74.2866 3.20329C74.3935 3.22442 74.4705 3.34273 74.3978 3.43991C74.2609 3.63006 73.9958 3.65119 73.7821 3.70612C73.6068 3.74837 73.5512 3.49908 73.6923 3.42302H73.688ZM62.4127 7.58508C63.3918 6.43999 64.3924 5.28644 65.9274 4.92305C66.9536 4.67798 68.0311 4.79206 69.0701 4.6315C70.2588 4.44558 71.3833 3.93852 72.5549 3.67654C72.6062 3.66386 72.6319 3.74838 72.5848 3.76528C70.9814 4.31882 69.5747 4.83854 67.8643 4.96953C66.8125 5.04981 65.8376 5.04982 64.867 5.5611C63.9349 6.05548 63.2165 6.91747 62.4939 7.65692C62.4512 7.69918 62.3742 7.63157 62.4127 7.58508ZM69.7329 4.98643C69.6602 5.01179 69.5918 5.02868 69.5148 5.04981C69.4506 5.06671 69.4336 4.96531 69.4977 4.95263C69.5661 4.93573 69.6345 4.91882 69.7072 4.90615C69.7542 4.8977 69.7799 4.96953 69.7329 4.99066V4.98643ZM67.4068 7.74988C67.4239 7.58087 67.6206 7.54707 67.7275 7.64848C67.7361 7.65693 67.7446 7.66537 67.7532 7.6696C67.813 7.72453 67.7874 7.82594 67.7361 7.87664C67.7275 7.88509 67.7189 7.89354 67.7061 7.90199C67.5864 8.01186 67.3897 7.902 67.4068 7.74565V7.74988ZM67.4197 8.69217C67.2187 8.69217 67.2486 8.38793 67.4496 8.38793C67.6506 8.38793 67.6206 8.69217 67.4197 8.69217ZM64.3111 8.32032C64.2897 8.37525 64.2128 8.34145 64.2256 8.29074C64.7045 6.53718 67.0904 7.03578 68.4074 6.50337C68.4672 6.47802 68.5014 6.55831 68.4501 6.59211C67.1845 7.39072 64.9653 6.65971 64.3069 8.32454L64.3111 8.32032ZM67.1075 9.0809C66.9322 9.0809 66.9579 8.81048 67.1332 8.81048C67.3085 8.81048 67.2828 9.0809 67.1075 9.0809ZM64.5463 9.32175C64.4651 8.89921 64.6618 8.40482 65.0081 8.04566C65.0081 8.07946 65.0081 8.10904 65.0166 8.14285C64.8884 8.66258 65.3587 9.16541 65.8975 9.20344C65.5511 9.34711 65.1021 9.40626 64.5463 9.32175ZM65.3972 10.0612C65.2133 10.0612 65.239 9.7781 65.4229 9.7781C65.6067 9.7781 65.5811 10.0612 65.3972 10.0612ZM64.572 10.095C64.4095 10.095 64.4351 9.84571 64.5976 9.84571C64.7601 9.84571 64.7344 10.095 64.572 10.095ZM65.3673 8.06256C65.3673 8.06256 65.3929 8.09637 65.41 8.1175C65.4057 8.13017 65.4057 8.14285 65.41 8.15552C65.3972 8.12595 65.3801 8.09637 65.3673 8.06679V8.06256ZM65.9915 9.70627C66.1369 9.70627 66.1155 9.93022 65.9701 9.93022C65.8248 9.93022 65.8461 9.70627 65.9915 9.70627ZM65.3074 7.80903C65.6965 7.55973 66.1968 7.47523 66.7227 7.7203C66.8937 8.13862 66.697 8.75132 66.1113 9.09781C66.0086 8.63723 65.6409 8.13017 65.3074 7.80903ZM66.5944 9.33443C66.5944 9.33443 66.6329 9.30908 66.6543 9.2964C66.7697 9.22457 66.8681 9.38513 66.8082 9.47809C66.7954 9.49922 66.7825 9.52035 66.7697 9.53726C66.6586 9.71473 66.3806 9.46542 66.5944 9.3302V9.33443ZM64.2342 7.04423C64.2342 7.04423 64.2556 7.01888 64.2641 7.0062C64.3154 6.94282 64.4095 6.90056 64.4865 6.93859C64.4993 6.94282 64.5121 6.95127 64.5249 6.9555C64.6019 6.99353 64.6361 7.06113 64.6104 7.14142C64.6104 7.15409 64.6019 7.16677 64.5976 7.17944C64.5719 7.25973 64.4779 7.30621 64.4009 7.30199C64.3838 7.30199 64.3667 7.30199 64.3496 7.30199C64.2299 7.29354 64.1529 7.14141 64.2299 7.04423H64.2342ZM64.9568 6.66817C64.991 6.66817 65.0252 6.66816 65.0594 6.67238C65.1919 6.68929 65.2091 6.89211 65.068 6.91324C65.0209 6.92169 64.9782 6.9217 64.9311 6.9217C64.7644 6.9217 64.79 6.66817 64.9568 6.66817ZM65.735 6.38929C65.9317 6.38929 65.9017 6.68929 65.705 6.68929C65.5084 6.68929 65.5383 6.38929 65.735 6.38929ZM66.355 6.36393C66.355 6.36393 66.3892 6.37239 66.4063 6.37661C66.526 6.40196 66.5474 6.57098 66.4148 6.60056C66.3977 6.60056 66.3806 6.60901 66.3635 6.61323C66.1754 6.65549 66.1797 6.33014 66.355 6.36816V6.36393ZM66.5987 5.3963C66.5517 5.3963 66.5602 5.32448 66.6072 5.32448C67.0519 5.32025 67.5137 5.27377 67.9541 5.32448C68.0012 5.3287 68.0054 5.40053 67.9541 5.40898C67.5094 5.45546 67.0434 5.40897 66.5944 5.40475L66.5987 5.3963ZM66.8852 6.28365C66.8852 6.28365 66.898 6.25407 66.9065 6.24139C66.945 6.15266 67.0861 6.13154 67.1289 6.23295C67.1332 6.24562 67.1417 6.26253 67.146 6.2752C67.2614 6.53718 66.7783 6.52028 66.8852 6.28788V6.28365ZM63.9734 9.77388C64.1658 9.77388 64.1358 10.0697 63.9434 10.0697C63.751 10.0697 63.7809 9.77388 63.9734 9.77388ZM63.922 7.61044C64.1316 7.61044 64.0974 7.92735 63.8921 7.92735C63.6869 7.92735 63.7168 7.61044 63.922 7.61044ZM63.4603 8.52314C63.4603 8.52314 63.4688 8.48934 63.4731 8.47243C63.503 8.33722 63.6911 8.3161 63.7211 8.46399C63.7211 8.48089 63.7296 8.49779 63.7339 8.51469C63.7809 8.72174 63.4175 8.71329 63.4603 8.52737V8.52314ZM63.5158 9.5288C63.5158 9.5288 63.4816 9.53725 63.4645 9.54147C63.2678 9.59218 63.2507 9.22034 63.4902 9.28373C63.5073 9.28373 63.5201 9.29218 63.5372 9.2964C63.6655 9.33021 63.6227 9.50344 63.5158 9.5288ZM63.1738 10.1838C63.0284 10.1838 63.0498 9.96402 63.1952 9.96402C63.3405 9.96402 63.3192 10.1838 63.1738 10.1838ZM59.3341 11.5359C59.6676 10.4753 60.262 9.33442 61.1727 8.64145C61.2368 8.59497 61.3266 8.67103 61.2796 8.73441C60.5655 9.65556 59.89 10.4795 59.4367 11.5697C59.4111 11.6331 59.3127 11.5993 59.3341 11.5317V11.5359ZM60.7494 11.3669C60.6938 11.4429 60.6254 11.4514 60.5527 11.5063C60.4501 11.5781 60.3988 11.6796 60.3517 11.7894C60.3303 11.8443 60.232 11.8486 60.2277 11.7767C60.2149 11.5528 60.4458 11.1472 60.7152 11.2528C60.7579 11.2697 60.7793 11.3246 60.7494 11.3626V11.3669ZM70.3956 7.21747C68.6596 7.4541 68.6639 8.26116 67.9114 9.49922C67.6206 9.98092 67.146 10.264 66.6585 10.5302C64.619 11.6373 62.216 12.3091 59.9199 12.6092C59.8558 12.6176 59.8386 12.5246 59.9028 12.512C61.4848 12.1359 63.054 11.7345 64.572 11.1472C66.154 10.5345 67.1631 10.0612 68.0012 8.54849C68.5998 7.471 69.0145 7.14987 70.3742 7.09071C70.4555 7.09071 70.4811 7.2048 70.3956 7.21747ZM74.4875 5.37518C74.3807 5.44279 74.2695 5.44278 74.1455 5.46391C73.936 5.49349 73.8804 5.1808 74.0899 5.14277C74.231 5.11742 74.3379 5.09208 74.479 5.12588C74.6116 5.15546 74.5773 5.32447 74.4918 5.3794L74.4875 5.37518ZM75.6976 5.13433C75.5822 5.147 75.4582 5.15546 75.3598 5.21884C75.2016 5.32025 75.0092 5.10475 75.1674 4.99489C75.3384 4.87235 75.518 4.81319 75.7233 4.8808C75.843 4.91882 75.8302 5.11742 75.7019 5.13433H75.6976ZM76.5314 4.53854C76.6982 4.47093 76.8521 4.39064 77.0317 4.39064C77.1642 4.39064 77.2027 4.57234 77.1129 4.6484C76.9889 4.75404 76.8264 4.78784 76.6768 4.84277C76.4758 4.91038 76.3262 4.62305 76.5314 4.54276V4.53854ZM77.2326 5.21884C77.1215 5.25687 77.0103 5.27798 76.8905 5.29911C76.7067 5.33292 76.6554 5.04137 76.8392 5.01601C76.9547 4.99911 77.0701 4.9822 77.1856 4.9822C77.3096 4.9822 77.3481 5.1808 77.2284 5.22306L77.2326 5.21884ZM78.075 4.28501C78.2759 4.28501 78.246 4.58924 78.045 4.58924C77.8441 4.58924 77.874 4.28501 78.075 4.28501ZM78.8403 5.06249C78.665 5.15545 78.494 5.15545 78.2973 5.17235C78.0664 5.18926 77.998 4.84699 78.2332 4.81742C78.4427 4.79206 78.6265 4.75826 78.8318 4.81742C78.9472 4.85122 78.9387 5.01178 78.8446 5.06249H78.8403ZM79.2252 4.14134C79.3577 4.12021 79.4902 4.09909 79.6228 4.10331C79.7382 4.10331 79.781 4.3019 79.6656 4.33571C79.5373 4.37796 79.409 4.39487 79.2722 4.41178C79.0969 4.4329 79.0456 4.16669 79.2252 4.14134ZM79.687 5.02024C79.6057 5.03292 79.5287 5.03292 79.4475 5.03292C79.2722 5.03292 79.3021 4.77094 79.4732 4.76671C79.5458 4.76671 79.61 4.76671 79.6784 4.77939C79.8109 4.80052 79.8323 4.99489 79.687 5.02024ZM80.7217 5.01178C80.6875 5.01178 80.6533 5.02023 80.6191 5.02446C80.4309 5.04559 80.4309 4.75826 80.6105 4.77939C80.6447 4.77939 80.6789 4.78784 80.7131 4.79206C80.8371 4.80474 80.8542 5.00334 80.7217 5.01601V5.01178ZM80.8799 4.36529C80.7345 4.40754 80.5763 4.39064 80.4267 4.39064C80.2257 4.39064 80.2556 4.08219 80.4566 4.08219C80.6105 4.08219 80.7559 4.06951 80.9013 4.11176C81.0424 4.15401 80.9911 4.33571 80.8799 4.36529ZM81.6923 4.25121C81.6196 4.27656 81.5854 4.28924 81.5084 4.29346C81.2647 4.30614 81.2604 3.95542 81.4956 3.9681C81.5768 3.9681 81.6068 3.98077 81.6837 4.00612C81.7864 4.04415 81.8078 4.20895 81.6966 4.25121H81.6923ZM82.68 4.40755C82.68 4.40755 82.6543 4.42022 82.6372 4.42867C82.3636 4.57233 82.3294 3.98077 82.6586 4.15402C82.6715 4.16247 82.6843 4.1667 82.6971 4.17515C82.7954 4.22586 82.757 4.36529 82.6757 4.40755H82.68ZM69.6901 6.13999C69.6089 6.16956 69.549 6.05125 69.6302 6.01744C75.7489 3.5371 82.4406 2.38355 88.7645 4.87657C94.3401 7.0738 99.0221 11.8232 100.579 17.6036C100.596 17.6755 100.489 17.6882 100.467 17.6248C98.5646 11.7007 93.9895 6.92592 88.0462 4.82165C81.7864 2.60751 75.719 4.02302 69.6858 6.1442L69.6901 6.13999ZM97.1493 16.6783C97.5342 17.5656 97.8078 18.4192 97.9703 19.1755C98.0002 19.315 98.0216 19.4586 98.0473 19.6023C97.5299 19.56 96.9612 19.7248 96.5122 19.9572C96.5122 19.9361 96.5122 19.9107 96.5122 19.8896L96.4781 19.1248C96.4695 18.9473 96.4481 18.7825 96.4267 18.6262C96.4139 18.5332 96.4011 18.4403 96.3925 18.36C96.3754 18.1318 96.3241 17.9205 96.2771 17.7135C96.2643 17.6586 96.2514 17.5994 96.2343 17.5276C96.213 17.4431 96.1958 17.3543 96.1745 17.2656C96.1616 17.2149 96.1531 17.16 96.1403 17.105C96.307 16.9614 96.4781 16.8304 96.6918 16.7501C96.8458 16.6909 96.9954 16.6783 97.1451 16.674L97.1493 16.6783ZM97.2006 12.1232C97.4016 12.1232 97.3717 12.4275 97.1707 12.4275C96.9698 12.4275 96.9997 12.1232 97.2006 12.1232ZM97.9617 13.0613C98.0173 13.1416 98.0729 13.2218 98.1199 13.3064C98.1926 13.4458 98.0045 13.5388 97.9062 13.4458C97.8463 13.3866 97.795 13.319 97.7394 13.2514C97.6197 13.1035 97.8591 12.9092 97.966 13.0613H97.9617ZM96.508 20.1347C96.803 20.0122 97.1109 19.9234 97.4315 19.8896C97.6582 19.8643 97.8762 19.8896 98.0943 19.9107C98.2226 20.8741 98.2311 21.9728 98.0943 23.1348C97.4829 22.8855 96.7731 22.8263 96.1445 22.9911C96.3669 22.0446 96.4866 21.0854 96.5122 20.1347H96.508ZM98.167 28.987C98.1542 29.1265 98.0815 29.2194 98.0088 29.3335C97.8762 29.5406 97.5769 29.3251 97.6966 29.118C97.7565 29.0166 97.8035 28.9194 97.9062 28.8518C98.0131 28.78 98.1798 28.8391 98.1627 28.987H98.167ZM97.8634 30.1871C97.9318 30.1025 97.996 30.0138 98.0729 29.9335C98.1713 29.8279 98.3466 29.9377 98.2611 30.0645C98.2012 30.1575 98.1285 30.2378 98.0601 30.3265C97.966 30.4448 97.7693 30.3096 97.8634 30.1913V30.1871ZM98.2824 27.694C98.3594 27.5166 98.415 27.3306 98.5475 27.187C98.6288 27.0982 98.7784 27.1954 98.7699 27.3011C98.7528 27.4785 98.6501 27.6433 98.5732 27.8039C98.4919 27.9814 98.2012 27.8799 98.2824 27.6983V27.694ZM99.0948 24.2883C99.1633 24.1827 99.3129 24.2376 99.3385 24.3432C99.3685 24.4658 99.3385 24.5672 99.3172 24.6897C99.2787 24.8926 98.9623 24.8672 98.9922 24.6602C99.0136 24.5207 99.0179 24.4066 99.0948 24.2925V24.2883ZM99.0906 15.4191C99.1291 15.474 99.1633 15.5289 99.1932 15.5881C99.2146 15.6304 99.1547 15.6684 99.1248 15.6304C99.082 15.5839 99.0521 15.5332 99.0136 15.4825C98.9794 15.4318 99.0521 15.3684 99.0863 15.4191H99.0906ZM99.1034 25.7714C99.1504 25.9193 99.0863 26.0334 99.0307 26.1729C98.9366 26.4095 98.5946 26.2785 98.6587 26.0377C98.6972 25.8898 98.7186 25.7714 98.8468 25.6785C98.9495 25.6024 99.0649 25.6531 99.1034 25.7714ZM98.663 14.8233C98.5304 14.7303 98.415 14.5909 98.3466 14.443C98.3295 14.4092 98.368 14.3796 98.3979 14.3965C98.5347 14.4853 98.6544 14.6205 98.7271 14.7641C98.7485 14.8022 98.6972 14.8444 98.6587 14.8191L98.663 14.8233ZM98.5091 28.7546C98.5817 28.5687 98.6373 28.3616 98.8298 28.2645C98.9238 28.218 99.0393 28.2814 99.0606 28.3828C99.0991 28.5898 98.958 28.7631 98.8511 28.9279C98.7357 29.1138 98.4363 28.949 98.5133 28.7504L98.5091 28.7546ZM98.9837 27.3264C99.0478 27.1743 99.0905 27.0349 99.206 26.9165C99.3043 26.8194 99.454 26.925 99.4497 27.0433C99.4454 27.1912 99.3728 27.3137 99.3086 27.449C99.2188 27.6476 98.8982 27.5377 98.9837 27.3306V27.3264ZM99.2188 23.4263C99.2445 23.2615 99.2445 23.1474 99.3642 23.0249C99.4326 22.9573 99.5523 22.9953 99.5908 23.0714C99.655 23.2066 99.6208 23.3165 99.5908 23.4559C99.5438 23.6883 99.1804 23.6587 99.2188 23.4221V23.4263ZM99.5566 25.1545C99.6379 25.0531 99.7875 25.0911 99.8217 25.2137C99.8516 25.3193 99.8217 25.4038 99.7961 25.5095C99.749 25.7165 99.4155 25.6954 99.454 25.4757C99.4754 25.3573 99.4839 25.2517 99.5566 25.1545ZM99.6934 16.7586C99.5865 16.6149 99.5096 16.4459 99.4241 16.2895C99.3941 16.2346 99.4797 16.1966 99.5096 16.2473C99.5951 16.3994 99.6977 16.5473 99.7619 16.7121C99.779 16.7543 99.7191 16.7966 99.6892 16.7586H99.6934ZM96.5379 11.8951C96.5721 12.0134 96.4182 12.081 96.3327 12.026C96.2429 11.9711 96.1873 11.9035 96.1232 11.8232C95.9863 11.65 96.2557 11.4303 96.384 11.6077C96.4524 11.7049 96.508 11.7852 96.5422 11.8993L96.5379 11.8951ZM96.0804 11.0246C96.1146 11.1514 95.9564 11.2105 95.8623 11.1598C95.7469 11.1007 95.6827 11.0035 95.6015 10.9021C95.4604 10.7288 95.7255 10.5091 95.8666 10.6824C95.9607 10.7964 96.0376 10.8852 96.0804 11.0246ZM94.9088 10.357C94.9473 10.4795 95.0286 10.5556 95.1141 10.6528C95.191 10.7415 95.1141 10.8809 94.9986 10.8725C94.7891 10.8556 94.648 10.7035 94.5838 10.5133C94.5112 10.2978 94.8361 10.1457 94.9088 10.3612V10.357ZM94.2504 9.67669C94.1178 9.5119 94.3188 9.32597 94.4898 9.41893C94.648 9.50344 94.7891 9.62176 94.8404 9.795C94.8661 9.88374 94.772 9.96825 94.6865 9.9598C94.5069 9.9429 94.3615 9.8119 94.2546 9.67669H94.2504ZM93.237 9.12316C93.3653 9.23302 93.5106 9.33443 93.6047 9.47809C93.6688 9.57105 93.5919 9.74007 93.4636 9.67669C93.3054 9.60486 93.1857 9.49077 93.0531 9.3809C92.8949 9.24991 93.0831 8.98794 93.237 9.12316ZM92.6213 8.27807C92.4417 8.1175 92.6213 7.85975 92.8351 7.97806C92.989 8.06257 93.1472 8.16397 93.2199 8.32454C93.2669 8.42173 93.1857 8.53582 93.0745 8.52737C92.8949 8.51046 92.7495 8.39638 92.617 8.2823L92.6213 8.27807ZM91.9927 8.45553C91.8302 8.45975 91.7447 8.3499 91.7105 8.20201C91.6763 8.04989 91.9286 7.96961 91.9756 8.1175C91.9927 8.1682 92.0269 8.20623 92.0782 8.22736C92.198 8.30342 92.1082 8.4513 91.9927 8.45553ZM91.0734 7.18367C90.9623 7.14565 90.8853 7.07381 90.7998 6.99775C90.6672 6.87522 90.8639 6.69774 91.0007 6.77802C91.0905 6.82873 91.1675 6.87943 91.2273 6.96394C91.3043 7.0738 91.2103 7.23015 91.0691 7.18367H91.0734ZM90.4278 7.60622C90.2995 7.58509 90.1926 7.52171 90.0729 7.46256C89.8976 7.37805 90.0002 7.09071 90.1798 7.17944C90.308 7.2386 90.4363 7.2893 90.5432 7.38649C90.6287 7.46677 90.5389 7.62312 90.4278 7.60622ZM88.5678 6.05126C88.3925 6.0428 88.23 5.96251 88.0632 5.89913C87.8922 5.83575 87.9906 5.59068 88.1616 5.64139C88.3284 5.69209 88.5036 5.72166 88.6533 5.81885C88.7645 5.89068 88.6918 6.05548 88.5678 6.04703V6.05126ZM89.0381 6.97662C88.927 6.96817 88.85 6.92592 88.7517 6.87521C88.5892 6.78648 88.7346 6.51605 88.9013 6.59211C88.9996 6.63859 89.0809 6.68085 89.1536 6.76113C89.2348 6.84986 89.1536 6.9893 89.0381 6.98085V6.97662ZM89.7308 6.02167C89.8463 6.06815 89.9446 6.10195 90.0344 6.19069C90.1242 6.2752 90.0258 6.40619 89.9232 6.40196C89.8121 6.40196 89.7265 6.35549 89.6239 6.31323C89.4358 6.23717 89.547 5.94562 89.7351 6.02167H89.7308ZM91.2915 9.87106C90.7656 9.43584 90.214 9.03019 89.6325 8.65412C90.2568 8.97948 90.8425 9.33021 91.3898 9.70627C91.3556 9.7612 91.3214 9.81613 91.2915 9.87106ZM91.4112 9.97248C91.4497 9.91332 91.4882 9.85838 91.5267 9.80345C92.0227 10.1499 92.4844 10.5175 92.9163 10.8978C92.8479 10.995 92.7795 11.0922 92.7153 11.1936C92.3048 10.7669 91.8687 10.3612 91.4112 9.97248ZM92.8222 11.3035C92.8992 11.2063 92.9762 11.1049 93.0531 11.0077C93.5192 11.426 93.9468 11.857 94.3401 12.3007C94.2247 12.4528 94.1306 12.6176 94.0665 12.7993C93.6902 12.2796 93.2712 11.781 92.8222 11.3077V11.3035ZM94.725 13.7754C94.5497 13.4881 94.3615 13.205 94.1648 12.9303C94.2632 12.7697 94.3658 12.6134 94.4812 12.4655C94.943 12.9979 95.3535 13.5388 95.7212 14.0881C95.6827 14.1134 95.6443 14.143 95.6101 14.1684C95.4476 14.2909 95.2936 14.4388 95.1739 14.6036C95.0371 14.3331 94.8874 14.0585 94.725 13.7754ZM96.0889 16.9022C96.0761 16.8515 96.0633 16.805 96.0462 16.7543C95.8623 16.1205 95.5972 15.4656 95.2551 14.781C95.4134 14.6205 95.563 14.4641 95.7469 14.3289C95.7768 14.3078 95.811 14.2867 95.8409 14.2698C96.3156 14.9923 96.7089 15.7191 97.0296 16.4205C96.6747 16.467 96.3156 16.6529 96.0889 16.9022ZM96.106 23.1517C96.8158 23.0925 97.4273 23.1643 98.0515 23.4136C97.9104 24.4362 97.6539 25.4968 97.2733 26.5574C96.6833 26.0884 95.9307 25.763 95.2338 25.6869C95.6015 24.863 95.8922 24.0137 96.106 23.1517ZM97.0082 31.5519C97.098 31.4336 97.175 31.3068 97.3033 31.2265C97.4102 31.1589 97.5855 31.2392 97.5256 31.3829C97.4615 31.535 97.346 31.6406 97.2349 31.7589C97.1151 31.8857 96.9056 31.6913 97.0082 31.5561V31.5519ZM96.9227 30.6434C97.0125 30.5124 97.098 30.3814 97.2092 30.2673C97.2904 30.1828 97.4572 30.2927 97.4016 30.4025C97.3289 30.542 97.2306 30.6645 97.1365 30.7955C97.0382 30.9307 96.8244 30.7828 96.9227 30.6476V30.6434ZM93.9681 28.0321C94.0323 27.9391 94.0921 27.8419 94.1563 27.749L94.1734 27.7194C94.2375 27.6095 94.2931 27.5123 94.3487 27.4194C94.5625 27.0433 94.7891 26.6588 94.9687 26.2616C95.0328 26.1306 95.0927 25.9954 95.1525 25.8602C95.6528 25.9996 96.136 26.1391 96.5978 26.4095C96.8073 26.532 96.9911 26.6799 97.1707 26.8363C96.8415 27.6982 96.4182 28.556 95.9051 29.3842C95.3193 28.8095 94.5582 28.3447 93.8527 28.2011C93.8912 28.1462 93.9296 28.087 93.9681 28.0321ZM96.7945 32.304C96.756 32.397 96.6961 32.4688 96.6363 32.5491C96.5251 32.7012 96.2814 32.5322 96.3968 32.3801C96.4567 32.304 96.5122 32.2237 96.5892 32.1603C96.6875 32.0843 96.8458 32.1772 96.7945 32.304ZM93.207 29.0969C93.3995 28.8603 93.5705 28.6152 93.7372 28.3701C94.2461 28.6321 94.772 28.8434 95.2381 29.2025C95.4219 29.3462 95.5801 29.5025 95.7298 29.6631C95.5545 29.9293 95.3749 30.1955 95.1782 30.4533C94.6437 31.1631 94.0451 31.8139 93.3909 32.4054C93.2455 32.211 93.0916 32.0336 92.9462 31.8646C92.6298 31.5012 92.1766 30.9941 91.702 30.7744C92.198 30.3011 92.694 29.7518 93.207 29.1011V29.0969ZM93.485 33.4026C93.438 33.4829 93.3824 33.5463 93.3182 33.6139C93.2755 33.6604 93.1985 33.5885 93.237 33.5421C93.2968 33.4702 93.3482 33.4068 93.4251 33.3477C93.4636 33.3181 93.5106 33.3646 93.4892 33.4026H93.485ZM90.9409 31.4462C91.1504 31.2814 91.3556 31.0997 91.5651 30.9054C91.9029 31.311 92.3946 31.6322 92.741 32.0378C92.8949 32.2195 93.0275 32.4139 93.1557 32.6125C92.2151 33.4237 91.1632 34.121 90.0045 34.6914C89.7821 33.9857 89.3546 33.2505 88.8885 32.8111C89.6282 32.4096 90.3166 31.9575 90.9366 31.4505L90.9409 31.4462ZM92.4032 34.2308C91.8987 34.7928 91.082 35.1604 90.3508 35.3379C90.2867 35.3548 90.2567 35.2576 90.3166 35.2322C90.6715 35.0886 91.0264 34.9449 91.3685 34.7632C91.7062 34.5815 92.0098 34.3491 92.3476 34.1674C92.3861 34.1463 92.4374 34.2012 92.4075 34.235L92.4032 34.2308ZM88.7901 32.8618C88.9954 33.3012 89.2861 33.7026 89.4785 34.1547C89.5726 34.3745 89.6453 34.5984 89.718 34.8266C88.6234 35.3379 87.4433 35.7435 86.1819 36.0309C85.9553 35.4013 85.7158 34.7759 85.502 34.1463C86.6693 33.8336 87.7725 33.3984 88.7859 32.8618H88.7901ZM89.641 35.7393C89.5726 35.7646 89.547 35.7731 89.4743 35.7985C89.4187 35.8154 89.4016 35.7224 89.4572 35.7055C89.5085 35.6886 89.564 35.6759 89.6154 35.6675C89.6581 35.659 89.6795 35.7224 89.641 35.7393ZM88.8073 36.1323C88.7346 36.1618 88.6661 36.183 88.5892 36.1957C88.5208 36.2083 88.5079 36.1111 88.5721 36.0942C88.6448 36.0731 88.7046 36.0604 88.7816 36.052C88.8244 36.052 88.8543 36.1111 88.8073 36.128V36.1323ZM88.2557 36.352C88.0718 36.4745 87.8495 36.5126 87.6399 36.5759C87.3791 36.652 87.1097 36.7534 86.8361 36.783C86.7805 36.7872 86.7548 36.7154 86.8062 36.69C87.0242 36.5759 87.2765 36.5168 87.5117 36.445C87.7426 36.3731 87.982 36.2675 88.23 36.2675C88.2728 36.2675 88.2941 36.3309 88.2599 36.3562L88.2557 36.352ZM85.0916 34.2562C85.1771 34.235 85.254 34.2097 85.3396 34.1886C85.4593 34.8097 85.6218 35.4731 85.8527 36.1027C84.9761 36.2886 84.0611 36.4238 83.1076 36.5041C82.8168 36.5295 82.5261 36.5421 82.2311 36.5506C82.1199 35.9548 82.0515 35.3463 81.9317 34.7505C83.0007 34.6787 84.0654 34.5139 85.0958 34.2519L85.0916 34.2562ZM81.9873 36.9689C81.966 36.9689 81.9446 36.9689 81.9189 36.9689C81.9403 36.9689 81.966 36.9689 81.9873 36.9689ZM78.4726 34.7167C79.0669 34.7801 79.6827 34.8139 80.3454 34.8139C80.7858 34.8139 81.2562 34.8012 81.735 34.7717C81.7522 34.7717 81.765 34.7717 81.7821 34.7717C81.765 35.3379 81.8077 35.9506 81.9061 36.5633C81.8334 36.5633 81.765 36.5675 81.6923 36.5675C80.7003 36.5675 79.6057 36.4745 78.4213 36.2464C78.4213 36.2126 78.4213 36.1787 78.4213 36.1407C78.4213 35.6675 78.4641 35.1942 78.4726 34.721V34.7167ZM75.3085 34.1252C76.2706 34.3871 77.2797 34.5858 78.3187 34.7041C78.1904 35.1562 78.122 35.6675 78.122 36.183C77.1685 35.9802 76.1637 35.6886 75.1075 35.2787C75.1418 34.89 75.223 34.5097 75.3085 34.1294V34.1252ZM77.8911 39.3943C77.8013 39.3901 77.7158 39.369 77.6303 39.3563C77.4593 39.3225 77.4849 39.052 77.6559 39.0901C77.7543 39.1112 77.8526 39.1281 77.9467 39.1577C78.0835 39.2042 78.0279 39.407 77.8911 39.3943ZM76.7666 38.976C76.7666 38.976 76.7366 38.9844 76.7195 38.9887C76.4502 39.0732 76.4672 38.6464 76.7067 38.7267C76.7238 38.7309 76.7366 38.7351 76.7537 38.7436C76.8521 38.7732 76.8692 38.9422 76.7666 38.976ZM74.278 36.9182C74.4491 36.99 74.6158 37.0576 74.7612 37.1675C74.8553 37.2393 74.8125 37.4295 74.6714 37.4041C74.4876 37.3703 74.3294 37.2985 74.1583 37.2224C73.9702 37.1379 74.0771 36.8337 74.2738 36.9182H74.278ZM73.9531 36.3055C73.9488 36.1787 74.107 36.0773 74.2139 36.1661C74.2267 36.1745 74.2353 36.183 74.2481 36.1914C74.3122 36.2421 74.3294 36.3435 74.2567 36.4027C74.2481 36.4111 74.2353 36.4196 74.2267 36.428C74.1198 36.5126 73.9574 36.4449 73.9531 36.3097V36.3055ZM75.0006 38.1605C75.2187 38.245 75.4496 38.3168 75.642 38.452C75.7404 38.5196 75.6848 38.6971 75.5608 38.676C75.3299 38.6337 75.1161 38.5239 74.898 38.4351C74.7227 38.3633 74.8253 38.0929 75.0006 38.1605ZM75.0434 34.0533C75.0776 34.0618 75.1118 34.0702 75.1418 34.0787C74.9964 34.4083 74.8895 34.7801 74.8339 35.1604C73.9744 34.8139 73.0894 34.3914 72.1743 33.8759C72.2342 33.5801 72.3283 33.3054 72.4095 33.0181C73.3245 33.4575 74.2096 33.804 75.0391 34.0491L75.0434 34.0533ZM68.6596 34.9998C68.8264 35.0844 69.0145 35.1562 69.1428 35.2914C69.2198 35.3717 69.1428 35.5322 69.0274 35.5111C68.8307 35.4731 68.6596 35.3463 68.4886 35.2449C68.3176 35.1477 68.4929 34.9153 68.6596 34.9998ZM68.0182 33.9646C67.8686 33.8463 68.0354 33.6054 68.1893 33.7238C68.3689 33.8632 68.5869 33.99 68.7195 34.1717C68.7879 34.2646 68.7024 34.421 68.5784 34.3703C68.3646 34.2815 68.1936 34.1083 68.0182 33.9646ZM69.1428 33.9393C68.9589 33.8209 69.1514 33.5505 69.3395 33.6646C69.4891 33.7533 69.6473 33.8378 69.7585 33.9731C69.8483 34.0829 69.7371 34.2097 69.6131 34.1801C69.4421 34.1421 69.2967 34.0322 69.1471 33.9393H69.1428ZM69.254 32.5026C69.3181 32.5491 69.3822 32.5956 69.4507 32.642C69.3865 32.5956 69.3224 32.5491 69.254 32.5026ZM69.5362 32.7097C69.5661 32.7266 69.5918 32.7477 69.6174 32.7646C69.5918 32.7477 69.5618 32.7266 69.5362 32.7097ZM69.8697 34.8773C70.0535 34.9449 70.246 35.0505 70.3828 35.1942C70.4597 35.2745 70.3828 35.4308 70.2673 35.4097C70.0706 35.3717 69.8825 35.2703 69.7243 35.1477C69.5875 35.0421 69.6986 34.8139 69.8654 34.8773H69.8697ZM70.1262 35.9083C70.3358 36.0182 70.5709 36.1027 70.742 36.2759C70.8147 36.352 70.742 36.5041 70.6351 36.483C70.3999 36.4365 70.1947 36.2928 69.9894 36.1745C69.8398 36.09 69.9766 35.8323 70.1305 35.9125L70.1262 35.9083ZM70.7548 34.9069C70.588 34.7886 70.7291 34.5435 70.9173 34.5984C71.0626 34.6407 71.1781 34.7125 71.2764 34.8224C71.362 34.9196 71.2764 35.0675 71.1524 35.059C71.0028 35.0463 70.8745 34.9914 70.7548 34.9069ZM71.409 35.6675C71.5843 35.7731 71.8109 35.8618 71.9349 36.0224C72.0033 36.1111 71.9434 36.2675 71.8152 36.2464C71.5971 36.2083 71.4047 36.0477 71.2166 35.9337C71.037 35.8238 71.2251 35.5618 71.4047 35.6675H71.409ZM71.9392 36.9393C72.0846 37.0112 72.2513 37.0703 72.3796 37.1717C72.495 37.2647 72.401 37.4253 72.2642 37.3914C72.1188 37.3534 71.9819 37.2689 71.8451 37.2013C71.6869 37.121 71.781 36.859 71.9435 36.9393H71.9392ZM72.0675 35.4984C71.9007 35.397 72.076 35.1604 72.2385 35.2534C72.4224 35.3548 72.6233 35.4435 72.773 35.5956C72.8713 35.697 72.743 35.8323 72.6276 35.8027C72.4223 35.7477 72.2428 35.6083 72.0675 35.4984ZM72.9312 36.4111C73.0851 36.4703 73.2262 36.521 73.363 36.614C73.4656 36.6858 73.4058 36.859 73.2775 36.8421C73.1108 36.8252 72.9739 36.7703 72.8157 36.7154C72.6148 36.6435 72.7302 36.3309 72.9312 36.4111ZM73.239 37.3872C73.4571 37.4591 73.7094 37.5182 73.8676 37.6915C73.9574 37.7929 73.8633 37.9323 73.7436 37.9323C73.5127 37.9323 73.2903 37.7675 73.0979 37.6577C72.9397 37.5689 73.0808 37.3323 73.239 37.3872ZM71.9349 32.7942C72.0504 32.8533 72.1658 32.904 72.2812 32.9632C72.1444 33.1702 72.0161 33.4449 71.9221 33.7407C71.2123 33.3308 70.4854 32.866 69.75 32.342C69.7799 32.2786 69.8098 32.2153 69.844 32.1519C69.9253 32.0124 70.0193 31.8772 70.1091 31.7378C70.712 32.1223 71.3192 32.4815 71.9392 32.7899L71.9349 32.7942ZM69.9552 31.6448C69.7927 31.7885 69.6388 31.9871 69.5447 32.1984C68.9333 31.7589 68.3133 31.273 67.6848 30.7448C67.6976 30.7279 67.7061 30.7152 67.719 30.6983C67.8259 30.5631 67.9328 30.4279 68.0396 30.2885C68.6725 30.7702 69.3138 31.2265 69.9595 31.6448H69.9552ZM67.2101 33.3054C67.2443 33.4153 67.1118 33.4913 67.0177 33.466C66.8723 33.4237 66.7612 33.3054 66.6714 33.1913C66.5517 33.0392 66.7441 32.8068 66.9108 32.9336C67.0477 33.035 67.1588 33.1449 67.2101 33.3097V33.3054ZM67.0049 30.7195C67.0904 30.7913 67.1759 30.8674 67.2615 30.9392C67.1717 30.8674 67.0904 30.7913 67.0049 30.7195ZM67.3555 34.0871C67.471 34.159 67.5907 34.2224 67.6848 34.3238C67.7745 34.4167 67.6591 34.5688 67.5436 34.5224C67.4154 34.4717 67.3085 34.3871 67.1973 34.3111C67.0476 34.2097 67.2058 33.99 67.3555 34.0871ZM67.8814 30.1744C67.7318 30.2842 67.595 30.4237 67.4752 30.5758C66.9023 30.0856 66.3165 29.5532 65.7307 28.987C65.7948 28.856 65.8675 28.725 65.9445 28.6025C66.5859 29.1518 67.2315 29.6758 67.8814 30.1744ZM66.2908 33.4576C66.3293 33.5759 66.1839 33.6604 66.0856 33.6266C65.9573 33.5885 65.8761 33.4956 65.7949 33.3942C65.6709 33.2378 65.8675 33.0012 66.0386 33.1322C66.1626 33.2252 66.2481 33.3097 66.2951 33.4576H66.2908ZM65.8077 28.48C65.7221 28.5898 65.6452 28.7081 65.5725 28.8307C65.1535 28.425 64.7344 27.994 64.3111 27.5419C64.3667 27.4701 64.4266 27.3982 64.4907 27.3264C64.9311 27.7152 65.3715 28.0997 65.8077 28.4757V28.48ZM65.3544 32.9547C65.1791 32.8913 65.038 32.7646 64.8926 32.6505C64.7259 32.5195 64.9097 32.2617 65.0808 32.3843C65.2304 32.4899 65.3972 32.5871 65.5084 32.735C65.5896 32.8449 65.4912 33.0054 65.3502 32.9547H65.3544ZM63.007 26.0123C63.4645 26.4222 63.9135 26.8236 64.3624 27.225C64.294 27.2715 64.2256 27.3306 64.1615 27.394C63.6569 26.8532 63.1524 26.2869 62.6436 25.6869C62.7633 25.7968 62.8873 25.9024 63.007 26.0123ZM64.0631 31.5012C64.1615 31.6279 64.0118 31.7674 63.8836 31.6955C63.7425 31.6195 63.6313 31.5054 63.5073 31.404C63.3576 31.2772 63.533 31.0237 63.6869 31.1505C63.8152 31.2603 63.9562 31.3617 64.0631 31.4969V31.5012ZM63.7938 27.6138C63.8323 27.656 63.875 27.6983 63.9135 27.7405C63.8707 27.6983 63.8323 27.656 63.7938 27.6138ZM60.6168 24.432C60.7365 24.5165 60.8606 24.5968 60.976 24.694C61.0102 24.7235 60.976 24.7785 60.9333 24.7531C60.805 24.6813 60.6852 24.5883 60.5655 24.5038C60.5185 24.47 60.5698 24.394 60.6168 24.4278V24.432ZM59.5821 23.5066C59.7232 23.6249 59.8771 23.739 60.0011 23.8784C60.0353 23.9122 59.984 23.963 59.9455 23.9376C59.7959 23.8362 59.6633 23.7052 59.5265 23.5827C59.4837 23.5446 59.5351 23.4644 59.5821 23.5066ZM58.7056 22.6784C58.8552 22.7925 58.992 22.9193 59.116 23.0587C59.146 23.0925 59.0989 23.1432 59.0605 23.1179C58.9022 23.0122 58.7569 22.8939 58.6243 22.7629C58.5773 22.7164 58.65 22.6362 58.7013 22.6784H58.7056ZM55.9092 22.8136C55.9562 22.9319 55.8493 23.0714 55.7168 23.0207C55.4859 22.9319 55.3234 22.7122 55.1524 22.5432C54.9728 22.3615 55.2764 22.1164 55.4517 22.2897C55.6142 22.446 55.8237 22.5981 55.9049 22.8136H55.9092ZM55.751 24.3644C55.5842 24.2249 55.4474 24.0517 55.3063 23.8911C55.1908 23.7601 55.3961 23.5911 55.5115 23.7179C55.6526 23.87 55.8023 24.0137 55.9177 24.1869C55.9861 24.2925 55.8707 24.4616 55.7552 24.3644H55.751ZM55.3319 20.8741C55.4132 20.9713 55.4944 21.0601 55.5329 21.1826C55.5757 21.3136 55.4517 21.4319 55.3234 21.3558C55.2122 21.2882 55.1438 21.1953 55.0626 21.0981C54.9215 20.9249 55.1866 20.7009 55.3277 20.8741H55.3319ZM54.4468 23.046C54.1903 22.9108 53.9851 22.6235 53.7884 22.4164C53.6473 22.2685 53.8824 22.0826 54.0235 22.2178C54.2373 22.4164 54.5153 22.615 54.6564 22.8728C54.729 23.008 54.5623 23.1052 54.4468 23.046ZM54.3058 21.5925C54.0578 21.415 53.8269 21.153 53.6558 20.9079C53.5789 20.7981 53.7071 20.6248 53.8269 20.722C54.0749 20.9164 54.3271 21.1657 54.4939 21.4361C54.5623 21.546 54.4041 21.6643 54.3058 21.5925ZM53.8397 19.4248C54.0022 19.5643 54.1946 19.6952 54.3186 19.8769C54.3827 19.9699 54.3058 20.1474 54.1732 20.084C53.9637 19.9784 53.8055 19.8051 53.6345 19.653C53.5019 19.5347 53.7114 19.3149 53.844 19.429L53.8397 19.4248ZM53.0016 19.8347C53.023 19.9445 52.8862 20.0375 52.7921 19.9657C52.6553 19.86 52.5569 19.729 52.3987 19.6488C52.2192 19.5558 52.309 19.2769 52.5099 19.3487C52.728 19.429 52.9546 19.5938 53.0016 19.8347ZM52.7921 21.4488C52.6168 21.3178 52.4843 21.1361 52.3432 20.9756C52.2192 20.8361 52.4372 20.6544 52.5612 20.7896C52.7066 20.9502 52.8734 21.1023 52.9845 21.2882C53.0529 21.4023 52.8904 21.5249 52.7921 21.4488ZM52.2876 18.136C52.4629 18.2797 52.6724 18.4192 52.7921 18.6178C52.8562 18.7234 52.7194 18.8628 52.6082 18.8164C52.3945 18.7234 52.2363 18.5332 52.0695 18.3769C51.9327 18.2501 52.1465 18.022 52.2876 18.1403V18.136ZM51.7445 20.0037C51.8044 20.1136 51.6804 20.2234 51.5735 20.1854C51.3212 20.1051 51.1032 19.8474 50.9065 19.6783C50.7526 19.5474 50.9279 19.2896 51.0903 19.4206C51.3084 19.5896 51.6077 19.7586 51.7445 20.0037ZM51.3341 18.5713C51.3939 18.6727 51.2656 18.8079 51.163 18.7572C50.8894 18.6304 50.6799 18.3727 50.4618 18.1741C50.325 18.0473 50.543 17.8107 50.6841 17.9332C50.9065 18.1276 51.1844 18.3177 51.3341 18.5713ZM50.6115 16.6783C50.7568 16.8219 50.9279 16.9529 51.0305 17.1346C51.1117 17.2741 50.9279 17.3797 50.8124 17.3163C50.6371 17.2149 50.496 17.0374 50.3549 16.8938C50.201 16.7416 50.4575 16.5346 50.6072 16.6825L50.6115 16.6783ZM50.0342 18.4699C50.0812 18.5713 49.9786 18.7023 49.8632 18.6516C49.6024 18.5375 49.4057 18.267 49.2133 18.0684C49.0593 17.9121 49.3159 17.7051 49.4698 17.8529C49.6622 18.0346 49.923 18.2248 50.0342 18.4656V18.4699ZM48.9653 16.3529C49.1748 16.5177 49.457 16.6783 49.6066 16.9022C49.675 17.0079 49.5938 17.1853 49.4484 17.1219C49.2004 17.0163 48.9909 16.7797 48.7857 16.6064C48.636 16.4797 48.807 16.2304 48.9653 16.3529ZM47.7467 16.2092C48.0417 16.3445 48.3966 16.5684 48.4479 16.9149C48.465 17.0417 48.3324 17.1177 48.2255 17.0543C47.9861 16.9107 47.8236 16.6698 47.5842 16.5219C47.4131 16.4163 47.5671 16.1247 47.7509 16.2092H47.7467ZM46.635 15.1698C46.853 15.3473 47.1267 15.5036 47.1951 15.7909C47.225 15.905 47.101 15.9642 47.0112 15.943C46.7419 15.8797 46.5794 15.6092 46.4126 15.4106C46.2929 15.2712 46.4853 15.0472 46.635 15.1698ZM46.0919 14.2698C46.3014 14.2698 46.2672 14.5867 46.062 14.5867C45.8568 14.5867 45.8867 14.2698 46.0919 14.2698ZM45.4206 13.8557C45.4762 13.8557 45.5061 13.8641 45.5574 13.8895C45.6601 13.9402 45.6814 14.0838 45.5703 14.1388C45.519 14.1641 45.4933 14.1726 45.4377 14.1768C45.194 14.1937 45.1897 13.843 45.4249 13.8557H45.4206ZM45.3266 14.574C45.4035 14.6331 45.4805 14.6881 45.5532 14.7599C45.6643 14.8698 45.4976 15.005 45.3822 14.9416C45.3052 14.8993 45.2368 14.8486 45.1684 14.7979C45.0273 14.6923 45.1855 14.4684 45.3266 14.574ZM44.202 13.7331C44.3645 13.8388 44.5569 13.9317 44.6809 14.0838C44.7707 14.1937 44.6595 14.3331 44.5312 14.2951C44.3431 14.2444 44.1806 14.1007 44.0182 13.9909C43.8471 13.8726 44.031 13.619 44.202 13.7289V13.7331ZM42.7867 9.26682C42.9962 9.41894 43.21 9.56682 43.4025 9.73584C43.4409 9.76964 43.4024 9.82881 43.3554 9.79923C43.1373 9.65979 42.9364 9.49922 42.7269 9.34711C42.6756 9.30908 42.7311 9.23302 42.7825 9.26682H42.7867ZM42.9791 12.5373C43.0946 12.6514 43.2058 12.7528 43.2913 12.888C43.364 13.0064 43.1972 13.112 43.0989 13.0486C42.962 12.9641 42.8594 12.8458 42.744 12.7317C42.6029 12.5923 42.838 12.3979 42.9791 12.5331V12.5373ZM41.9059 8.5992C41.9786 8.65414 42.0513 8.70484 42.1154 8.76822C42.1496 8.80202 42.0983 8.8485 42.0641 8.82737C41.9872 8.78512 41.923 8.73441 41.8503 8.68371C41.799 8.64568 41.8546 8.56539 41.9059 8.60342V8.5992ZM39.7252 7.32311C40.2298 7.60199 40.76 7.85975 41.2389 8.17666C41.2988 8.21469 41.2474 8.32454 41.179 8.29074C40.6574 8.02876 40.1699 7.69495 39.6739 7.39495C39.6226 7.36537 39.6739 7.29353 39.7252 7.32311ZM29.9165 2.25256C29.9764 2.27791 29.9764 2.27369 30.0277 2.31594C30.0576 2.33707 30.0448 2.40046 29.9978 2.39201C29.9336 2.37933 29.9379 2.38356 29.8781 2.35398C29.8182 2.3244 29.8481 2.22721 29.9165 2.25256ZM27.8984 1.52578C28.125 1.59762 28.3473 1.67368 28.5697 1.75396C28.7663 1.82579 28.9801 1.8765 29.1512 1.99059C29.1939 2.02016 29.1683 2.092 29.117 2.08355C28.9117 2.05397 28.715 1.95678 28.5184 1.88072C28.296 1.79621 28.0779 1.70749 27.8599 1.61453C27.8043 1.58917 27.8342 1.50466 27.8941 1.52578H27.8984ZM26.9064 1.30183C27.0346 1.31029 27.1586 1.32296 27.2784 1.36944C27.3126 1.38212 27.3126 1.4455 27.2698 1.44973C27.1373 1.45818 27.009 1.43705 26.8807 1.4117C26.8166 1.39902 26.8465 1.30184 26.9064 1.30606V1.30183ZM24.7642 0.908871C25.1832 0.824361 25.8075 0.921552 26.188 1.1117C26.2351 1.13705 26.2265 1.21311 26.1667 1.20466C25.9315 1.18353 25.7049 1.10746 25.474 1.07366C25.2431 1.03985 24.9994 1.04408 24.7685 0.997602C24.7172 0.984925 24.7086 0.917317 24.7685 0.904641L24.7642 0.908871ZM14.8657 2.6244C14.9811 2.58638 15.0923 2.53989 15.2163 2.52721C15.3574 2.51031 15.4087 2.68779 15.289 2.75539C15.1949 2.81032 15.088 2.83567 14.9854 2.86947C14.8187 2.92441 14.6989 2.67934 14.8657 2.6244ZM13.4547 3.01315C13.6172 2.95822 13.7882 2.88216 13.9635 2.86526C14.1174 2.84836 14.173 3.0385 14.0447 3.11456C13.8951 3.19907 13.7112 3.2371 13.5445 3.2878C13.3863 3.33851 13.3007 3.06386 13.4547 3.01315ZM12.3344 2.43848C12.4499 2.40045 12.561 2.3582 12.6765 2.32862C12.8048 2.29904 12.8646 2.49342 12.7492 2.54835C12.638 2.59483 12.5226 2.62863 12.4071 2.66243C12.2788 2.70046 12.2104 2.48496 12.3344 2.43848ZM12.3558 3.35963C12.5439 3.3047 12.7192 3.2371 12.9159 3.23287C13.0656 3.23287 13.057 3.42724 12.963 3.4864C12.7962 3.58781 12.5995 3.62584 12.4157 3.68077C12.2104 3.73992 12.1634 3.42302 12.3601 3.36386L12.3558 3.35963ZM11.4793 4.0188C11.2484 4.17514 10.9747 4.2681 10.7224 4.39064C10.5899 4.45402 10.4915 4.25121 10.6241 4.1836C10.8593 4.06106 11.0944 3.90049 11.3467 3.8202C11.4664 3.78217 11.599 3.93429 11.4793 4.0188ZM10.607 3.33006C10.7695 3.2371 10.9277 3.11878 11.1158 3.08075C11.2569 3.04694 11.3168 3.22865 11.227 3.31739C11.0944 3.44837 10.902 3.5202 10.7395 3.60893C10.5642 3.70189 10.4402 3.43146 10.607 3.33428V3.33006ZM9.58507 4.12867C9.63638 4.09486 9.69197 4.06106 9.74327 4.02726C9.85445 3.95965 9.97417 4.14556 9.86728 4.2174C9.81597 4.2512 9.76465 4.28923 9.71334 4.32303C9.57224 4.42022 9.44397 4.2174 9.58507 4.12867ZM9.23873 5.15545C9.43542 5.01178 9.63211 4.8639 9.84162 4.74136C9.96135 4.67375 10.064 4.85122 9.96563 4.93573C9.79032 5.08785 9.59791 5.21883 9.4055 5.35827C9.26867 5.45546 9.09763 5.26109 9.23445 5.15968L9.23873 5.15545ZM8.42205 4.89347C8.51184 4.84699 8.57598 4.81319 8.6786 4.80474C8.78977 4.79629 8.91805 4.92728 8.82398 5.02869C8.74701 5.1132 8.6786 5.15123 8.57171 5.20193C8.37074 5.29912 8.22536 4.99066 8.42205 4.89347ZM7.91323 6.14843C8.03723 6.02167 8.13985 5.89491 8.31516 5.83998C8.42633 5.80618 8.49475 5.93294 8.46909 6.02167C8.41778 6.18647 8.26385 6.30055 8.14413 6.41464C7.97737 6.57521 7.75075 6.30477 7.91323 6.1442V6.14843ZM6.90841 6.07661C7.02813 5.95407 7.19062 5.84843 7.37021 5.86533C7.48138 5.87379 7.54123 5.98787 7.5113 6.08505C7.45999 6.24985 7.29323 6.35971 7.13503 6.41887C6.90414 6.5076 6.74593 6.2414 6.90841 6.07661ZM7.36165 6.9724C7.30179 7.05691 7.23337 7.11184 7.14786 7.171C6.98538 7.29354 6.77587 7.05268 6.93835 6.93014C7.01959 6.87099 7.09655 6.81183 7.19062 6.77802C7.31034 6.73999 7.43862 6.85409 7.35738 6.9724H7.36165ZM6.27132 7.60199C6.36966 7.52171 6.45945 7.44988 6.5749 7.39495C6.69035 7.34002 6.8229 7.48368 6.74166 7.58931C6.6647 7.6865 6.5749 7.75833 6.47228 7.83439C6.31408 7.9527 6.12167 7.72875 6.27132 7.60199ZM5.6043 8.35835C5.77105 8.35835 5.7454 8.61188 5.57864 8.61188C5.41189 8.61188 5.43754 8.35835 5.6043 8.35835ZM16.6188 2.73004C25.6407 1.14972 33.8332 5.40053 40.1828 11.4345C40.2212 11.4725 40.1571 11.5401 40.1186 11.5063C33.8332 5.94138 26.466 1.6103 17.6963 2.73427C9.34563 3.80331 3.25687 10.0316 2.16654 18.2755C2.15799 18.3304 2.07676 18.322 2.08103 18.267C2.72668 10.3992 8.8924 4.08642 16.6188 2.73427V2.73004ZM33.2517 9.15695C32.9224 8.99639 32.6188 8.77667 32.311 8.57807C32.2554 8.54427 32.311 8.46399 32.3709 8.49357C32.6873 8.67104 33.0165 8.83583 33.3115 9.0471C33.3671 9.08513 33.3201 9.18654 33.256 9.15274L33.2517 9.15695ZM31.5499 8.1682C31.4729 8.14707 31.4088 8.11327 31.3361 8.07947C31.2677 8.04566 31.3104 7.94003 31.3746 7.97383C31.4473 8.01186 31.52 8.04567 31.5884 8.09637C31.6311 8.12595 31.5969 8.18511 31.5499 8.17243V8.1682ZM30.7888 7.79636C30.2843 7.6865 29.7754 7.39917 29.3222 7.15832C29.2752 7.13297 29.3179 7.06114 29.365 7.07804C29.8439 7.24706 30.404 7.42452 30.8187 7.71607C30.8529 7.74143 30.8358 7.80903 30.7888 7.79636ZM20.1592 5.66674C20.0608 5.66674 19.9582 5.66673 19.8598 5.67095C19.9582 5.67095 20.0608 5.66673 20.1592 5.66251V5.66674ZM17.025 3.17371C17.1404 3.15258 17.2516 3.13146 17.3713 3.13991C17.4953 3.14414 17.5295 3.33428 17.4141 3.37653C17.3029 3.41879 17.1917 3.43569 17.0763 3.45682C16.8924 3.4864 16.8411 3.20752 17.025 3.17794V3.17371ZM17.0421 6.009C16.995 6.01745 16.9437 6.02589 16.8967 6.03857C16.9437 6.03012 16.9908 6.01744 17.0378 6.00477L17.0421 6.009ZM15.9346 4.2174C16.1271 4.15401 16.3408 4.04839 16.5461 4.06952C16.6786 4.08219 16.7428 4.25966 16.6359 4.34417C16.4734 4.47093 16.2425 4.49628 16.0458 4.54698C15.8534 4.59769 15.7508 4.27655 15.9389 4.2174H15.9346ZM15.7294 3.7357C15.5071 3.76528 15.46 3.45682 15.6696 3.40189C15.8491 3.35541 16.0458 3.27935 16.2297 3.3216C16.3409 3.34695 16.4306 3.49908 16.3109 3.57936C16.1399 3.7019 15.9304 3.71035 15.7251 3.7357H15.7294ZM13.5616 5.83575C13.7198 5.75124 13.8694 5.66251 14.0405 5.60757C14.1687 5.56532 14.2927 5.71743 14.1773 5.81462C14.0319 5.93716 13.8652 6.02167 13.6984 6.11463C13.5231 6.21182 13.3863 5.92871 13.5616 5.83575ZM13.6086 7.06958C13.5402 7.09916 13.4675 7.13296 13.3991 7.16254C13.4675 7.12874 13.5402 7.09916 13.6086 7.06958ZM14.1816 4.99911C14.0191 5.14277 13.7967 5.21884 13.6001 5.30757C13.3991 5.39631 13.2537 5.0963 13.4547 5.00334C13.6514 4.9146 13.8566 4.79628 14.0747 4.77093C14.2029 4.75403 14.2842 4.91037 14.1816 4.99911ZM12.9843 4.42445C13.0827 4.2005 13.3392 4.02725 13.5487 4.23007C13.6172 4.29768 13.5872 4.39909 13.5316 4.45825C13.4718 4.52163 13.3692 4.52586 13.3179 4.59347C13.1939 4.76249 12.8988 4.61882 12.9843 4.42022V4.42445ZM13.2452 7.23015C13.2452 7.23015 13.2281 7.2386 13.2195 7.24282C13.2281 7.24282 13.2366 7.23437 13.2452 7.23015ZM14.2756 3.83289C14.4125 3.79909 14.5493 3.74837 14.6947 3.74415C14.8358 3.73992 14.9213 3.92584 14.7759 3.99345C14.6348 4.06105 14.4809 4.08642 14.3312 4.12022C14.1431 4.1667 14.0961 3.87514 14.2799 3.82866L14.2756 3.83289ZM14.8572 5.21884C14.9769 5.18081 15.0966 5.14277 15.212 5.10474C15.4515 5.02869 15.5541 5.36673 15.3147 5.42588C15.1949 5.45546 15.0709 5.48504 14.9512 5.51461C14.7802 5.55687 14.6861 5.27377 14.8572 5.21884ZM15.3617 4.66108C15.242 4.69911 15.1222 4.70755 15.0025 4.72023C14.8358 4.74135 14.7887 4.48783 14.9555 4.46248C15.088 4.44135 15.2163 4.416 15.3531 4.42022C15.5071 4.42022 15.4814 4.62305 15.3617 4.66108ZM12.4627 5.04559C12.3729 5.11743 12.2788 5.17236 12.1805 5.22729C12.0308 5.31602 11.9154 5.07094 12.065 4.9822C12.1506 4.9315 12.2361 4.88079 12.3301 4.83854C12.4541 4.78361 12.5739 4.95263 12.4627 5.04137V5.04559ZM12.5952 5.51461C12.7363 5.45968 12.8176 5.6456 12.6936 5.72166C12.561 5.80194 12.4199 5.86532 12.2831 5.93293C12.142 6.00476 12.0351 5.78082 12.1762 5.71321C12.313 5.6456 12.4499 5.57377 12.5952 5.51461ZM12.1121 6.65971C12.3088 6.53295 12.4884 6.40196 12.7192 6.34703C12.8347 6.31745 12.9459 6.47802 12.8603 6.57098C12.7021 6.74422 12.5055 6.84563 12.3002 6.9555C12.1249 7.05268 11.941 6.76957 12.1078 6.66394L12.1121 6.65971ZM10.684 6.98085C10.5001 7.10761 10.2692 6.84563 10.4573 6.71464C10.6412 6.58365 10.8165 6.44845 11.0303 6.36816C11.1415 6.32591 11.2997 6.45689 11.2013 6.56675C11.0517 6.73577 10.8721 6.85408 10.684 6.98085ZM10.9747 7.51326C10.8678 7.61467 10.7267 7.65693 10.5899 7.71186C10.3804 7.79637 10.235 7.49212 10.4402 7.39916C10.5728 7.34001 10.7053 7.26396 10.8507 7.25973C10.9918 7.25128 11.0859 7.40762 10.9704 7.51326H10.9747ZM11.2184 5.65828C11.1415 5.73434 11.0517 5.80194 10.9662 5.86955C10.8336 5.97519 10.6583 5.77236 10.7951 5.67095C10.8892 5.5949 10.9833 5.52306 11.0902 5.45968C11.2142 5.38362 11.3082 5.56954 11.2227 5.65828H11.2184ZM9.3328 6.97662C9.15322 7.09071 8.93088 6.85409 9.11046 6.71887C9.34991 6.53295 9.61501 6.25829 9.92286 6.19914C10.0511 6.17378 10.1195 6.31745 10.064 6.41464C9.91858 6.66817 9.57652 6.82028 9.3328 6.97662ZM10.0084 9.08935C9.98699 9.10625 9.96563 9.12316 9.93997 9.14006C9.96135 9.12316 9.98272 9.10625 10.0084 9.08935ZM9.79886 9.2457C9.71335 9.30908 9.62784 9.37245 9.53804 9.43584C9.62356 9.37245 9.70907 9.30486 9.79886 9.2457ZM9.51666 7.61467C9.43114 7.6865 9.34135 7.71608 9.23445 7.75411C9.05059 7.8175 8.91804 7.55973 9.1019 7.47945C9.20025 7.43719 9.29432 7.39072 9.4055 7.38227C9.52949 7.37382 9.62783 7.52593 9.51666 7.61467ZM8.37929 7.53438C8.4477 7.58931 8.46908 7.67383 8.41777 7.74988C8.34936 7.85552 8.22109 7.88087 8.15267 7.98651C8.02868 8.17665 7.708 8.01186 7.79779 7.80059C7.8833 7.59777 8.15695 7.34002 8.38357 7.53016L8.37929 7.53438ZM7.52841 8.77244C7.4942 8.81469 7.39586 8.8654 7.37875 8.90765C7.28469 9.12315 6.95545 9.00484 7.03241 8.7809C7.09655 8.5992 7.31462 8.41751 7.49421 8.56962C7.54979 8.62033 7.57972 8.70484 7.52841 8.76822V8.77244ZM6.72456 9.46119C6.69462 9.5457 6.66041 9.58796 6.60055 9.65134C6.43807 9.82458 6.17726 9.53302 6.35684 9.36823C6.4167 9.3133 6.43808 9.2964 6.51505 9.27105C6.63904 9.2288 6.76731 9.32597 6.72456 9.46119ZM6.04042 13.0486C6.08746 12.9726 6.22002 13.0402 6.18153 13.1204C6.06609 13.3486 5.93781 13.581 5.78815 13.7881C5.75395 13.8388 5.66416 13.7965 5.68982 13.7373C5.78389 13.5007 5.91215 13.2683 6.0447 13.0486H6.04042ZM5.73256 10.319C5.78387 10.2133 5.82664 10.1288 5.94209 10.0908C6.0276 10.0612 6.15587 10.0908 6.16015 10.2049C6.1687 10.3316 6.13877 10.395 6.05325 10.488C5.92498 10.6316 5.62995 10.5218 5.7283 10.319H5.73256ZM5.59575 14.181C5.58292 14.2824 5.54444 14.3627 5.50168 14.4514C5.46747 14.5191 5.36485 14.4853 5.39051 14.4092C5.42471 14.3162 5.45464 14.2275 5.51877 14.1514C5.54443 14.1176 5.60429 14.1345 5.60002 14.181H5.59575ZM4.97147 15.2458C5.03561 15.0979 5.11258 14.8909 5.24941 14.7979C5.28362 14.7768 5.34347 14.7937 5.33492 14.8444C5.30071 15.0092 5.18527 15.1487 5.11258 15.3008C5.03562 15.474 4.97147 15.6515 4.90734 15.829C4.89023 15.8754 4.81755 15.8585 4.82183 15.8078C4.84321 15.6135 4.89024 15.4275 4.96721 15.2458H4.97147ZM4.76196 14.6796C4.77906 14.3669 4.93727 13.9148 5.20237 13.7289C5.24085 13.7035 5.29643 13.7331 5.27933 13.7838C5.22374 13.9444 5.11258 14.0754 5.03989 14.2275C4.9672 14.3838 4.92444 14.5444 4.86458 14.705C4.8432 14.7599 4.75769 14.7388 4.76196 14.6839V14.6796ZM3.70584 24.9813C3.61177 24.8968 3.59894 24.7785 3.57329 24.6602C3.5177 24.4024 3.92818 24.3306 3.97949 24.5883C4.00087 24.7109 4.0308 24.8165 3.97949 24.9348C3.92818 25.0489 3.79991 25.0658 3.71012 24.9813H3.70584ZM3.79562 25.8813C3.83411 26.0165 3.62888 26.0672 3.56474 25.9531C3.47922 25.7926 3.42363 25.6109 3.3595 25.4419C3.30819 25.3024 3.51343 25.1968 3.57757 25.3405C3.65453 25.5179 3.74431 25.6954 3.79562 25.8813ZM3.84267 19.3319C3.85977 19.2812 3.87687 19.2304 3.89825 19.1797C3.91536 19.1333 3.98376 19.1586 3.97093 19.2051C3.95811 19.2558 3.94101 19.3107 3.92391 19.3614C3.9068 19.4164 3.82128 19.3868 3.83839 19.3319H3.84267ZM4.28307 27.1701C4.37286 27.3644 4.49686 27.563 4.53534 27.7743C4.55672 27.9011 4.38996 27.9856 4.30445 27.8799C4.16334 27.7109 4.09493 27.4912 4.00942 27.2968C3.92817 27.1194 4.20184 26.9884 4.28735 27.1658L4.28307 27.1701ZM4.40707 26.5489C4.25742 26.3968 4.19328 26.1602 4.10776 25.9658C4.0308 25.7883 4.30018 25.6616 4.38142 25.8348C4.47121 26.025 4.61231 26.2278 4.62941 26.4391C4.63796 26.5658 4.49686 26.6377 4.40279 26.5447L4.40707 26.5489ZM4.37714 23.0418C4.27025 22.2052 4.23603 21.3727 4.27879 20.5446C4.72775 20.4685 5.19381 20.4558 5.70691 20.5234C5.61284 21.0812 5.55298 21.6347 5.53588 22.184L5.51877 22.8136C5.12968 22.839 4.74058 22.915 4.37286 23.046L4.37714 23.0418ZM3.27826 24.432C3.26115 24.5503 3.07301 24.6094 3.0217 24.4785C2.95757 24.3052 2.94047 24.1277 2.9362 23.946C2.9362 23.7644 3.2184 23.7686 3.2526 23.9334C3.28253 24.0982 3.30391 24.2672 3.27826 24.4362V24.432ZM1.96986 12.2584C2.08531 12.0176 2.19648 11.7767 2.3162 11.5359C2.35468 11.4598 2.48295 11.5063 2.44447 11.5824C2.32047 11.8275 2.1922 12.0641 2.05965 12.3049C2.02972 12.3556 1.93992 12.3091 1.96558 12.2584H1.96986ZM1.54656 13.1796C1.59359 13.0486 1.63208 12.9261 1.72187 12.8162C1.74752 12.7824 1.80737 12.7993 1.8031 12.8458C1.78172 12.981 1.72186 13.0993 1.65772 13.2218C1.62351 13.2852 1.52517 13.2556 1.55083 13.1838L1.54656 13.1796ZM1.64489 24.3686C1.60641 24.2587 1.59359 24.1489 1.57221 24.0306C1.54656 23.8573 1.80738 23.8151 1.84159 23.9841C1.86297 24.0982 1.88434 24.208 1.88434 24.3263C1.88434 24.4447 1.68338 24.4827 1.64489 24.3686ZM2.02117 27.4701C1.88862 27.3222 1.81593 27.1151 1.72614 26.9377C1.64062 26.7687 1.90572 26.6461 1.99123 26.8109C2.08102 26.9884 2.20503 27.1658 2.24352 27.3644C2.26917 27.4912 2.09813 27.563 2.01689 27.4701H2.02117ZM2.2093 26.4179C2.0853 26.2151 2.04254 25.9489 1.97841 25.7207C1.93565 25.5686 2.19647 25.4883 2.24778 25.6362C2.32475 25.8602 2.44448 26.1053 2.45731 26.3419C2.46586 26.4898 2.28627 26.5489 2.2093 26.4179ZM2.92337 29.549C2.76516 29.4265 2.69247 29.2194 2.5984 29.0462C2.50006 28.8645 2.79081 28.7335 2.88916 28.9067C2.97895 29.0631 3.11578 29.2321 3.13716 29.4138C3.14999 29.5236 3.02171 29.6251 2.92337 29.549ZM3.18419 28.218C3.17564 28.3279 3.02171 28.3785 2.94902 28.2898C2.82075 28.125 2.70529 27.8884 2.7395 27.6771C2.76088 27.5461 2.92337 27.487 3.01744 27.5926C3.16281 27.7532 3.20129 28.0109 3.18419 28.218ZM3.6417 30.8927C3.55191 30.7575 3.48349 30.6054 3.4108 30.4617C3.34239 30.3223 3.56046 30.2209 3.62887 30.3603C3.69729 30.4955 3.77853 30.6307 3.82984 30.7744C3.86832 30.8842 3.71439 31.011 3.63742 30.8969L3.6417 30.8927ZM3.71866 29.6842C3.56901 29.5406 3.48349 29.3251 3.38087 29.1476C3.2868 28.9828 3.54336 28.8729 3.6417 29.0251C3.75287 29.2025 3.89398 29.3758 3.94956 29.5786C3.98804 29.718 3.7999 29.7687 3.71866 29.6842ZM4.50969 32.173C4.4199 32.1308 4.34721 32.0758 4.26597 32.0167C4.12059 31.911 4.28307 31.6829 4.42417 31.7927C4.50113 31.8519 4.58237 31.9068 4.65079 31.9786C4.73203 32.0674 4.62514 32.2322 4.50969 32.1772V32.173ZM4.79616 31.4336C4.62941 31.2857 4.53534 31.0702 4.42417 30.88C4.32583 30.7152 4.5952 30.5969 4.69355 30.7533C4.80472 30.9307 4.94582 31.104 4.99713 31.3068C5.02278 31.4082 4.8774 31.5054 4.79616 31.4336ZM5.21948 33.0012C5.04417 33.0012 5.06982 32.735 5.24513 32.735C5.42044 32.735 5.39478 33.0012 5.21948 33.0012ZM5.6556 32.7434C5.57436 32.6674 5.51023 32.5787 5.44181 32.4941C5.33492 32.3589 5.53588 32.1941 5.64278 32.3251C5.71974 32.4181 5.79671 32.511 5.86085 32.6125C5.94209 32.7435 5.74539 32.8322 5.65132 32.7434H5.6556ZM6.55353 33.9519C6.46801 33.8843 6.39532 33.8083 6.31408 33.728C6.19008 33.6012 6.39959 33.428 6.52359 33.5505C6.59201 33.6181 6.66469 33.6857 6.72028 33.7618C6.80579 33.8716 6.66897 34.0407 6.54925 33.9477L6.55353 33.9519ZM7.6011 34.9111C7.54979 34.8773 7.4942 34.8477 7.44289 34.8139C7.30606 34.7294 7.45573 34.5139 7.58828 34.6111C7.63959 34.6491 7.69089 34.6829 7.73792 34.721C7.86192 34.8097 7.73365 34.9914 7.6011 34.9111ZM15.8278 40.0577C15.7935 40.0662 15.7593 40.0704 15.7294 40.0788C15.5156 40.1211 15.5199 39.7619 15.7166 39.8C15.7508 39.8042 15.785 39.8126 15.8192 39.8211C15.9475 39.8507 15.9689 40.0281 15.8278 40.0577ZM16.4691 40.3577C16.3195 40.3577 16.3451 40.1295 16.4905 40.1295C16.6359 40.1295 16.6145 40.3577 16.4691 40.3577ZM17.1362 40.5901C17.0506 40.5859 17.0207 40.5774 16.9395 40.5521C16.7513 40.4887 16.8582 40.2056 17.0464 40.269C17.1276 40.2943 17.1532 40.307 17.2259 40.3535C17.3414 40.4296 17.2644 40.5986 17.1362 40.5901ZM17.9699 40.9831C17.8759 40.9662 17.8075 40.9366 17.7219 40.8944C17.5509 40.8098 17.6535 40.5352 17.8245 40.6197C17.9229 40.6662 17.9956 40.7042 18.0768 40.7803C18.1538 40.8563 18.0726 41 17.9699 40.9831ZM19.2142 41.3C19.1415 41.2915 19.0774 41.2789 19.0047 41.262C18.8165 41.2197 18.8807 40.9662 19.0645 41.0127C19.133 41.0296 19.2014 41.0465 19.2698 41.0676C19.398 41.1141 19.351 41.3127 19.2185 41.3H19.2142ZM23.1907 41.5578C23.0924 41.5831 23.0111 41.5789 22.9128 41.5493C22.7674 41.507 22.8187 41.3211 22.9384 41.2873C23.0368 41.2577 23.118 41.2704 23.2164 41.2958C23.3617 41.3296 23.3104 41.5282 23.1907 41.5578ZM24.4093 41.4268C24.3452 41.4563 24.2896 41.4732 24.2212 41.4944C24.0801 41.5366 24.0031 41.2958 24.1442 41.2493C24.2126 41.2282 24.2639 41.2113 24.3366 41.1944C24.4734 41.1648 24.5376 41.3718 24.4136 41.4268H24.4093ZM26.2351 40.7972C26.3847 40.7972 26.3591 41.0253 26.2137 41.0253C26.0683 41.0253 26.0897 40.7972 26.2351 40.7972ZM25.7391 40.1549C25.7947 40.1295 25.8246 40.1169 25.8845 40.1084C26.0256 40.0873 26.0897 40.2521 25.9956 40.345C25.9529 40.3873 25.9229 40.4042 25.8716 40.4338C25.6963 40.5267 25.5595 40.2436 25.7391 40.1549ZM25.5125 40.8056C25.5894 40.8056 25.6279 40.8141 25.7006 40.831C25.846 40.8648 25.7947 41.0634 25.6749 41.093C25.598 41.1099 25.5595 41.1141 25.4783 41.1141C25.2773 41.1141 25.3029 40.8014 25.5082 40.8056H25.5125ZM24.6316 40.1591C24.683 40.1591 24.7172 40.1676 24.7642 40.1803C24.8967 40.2141 24.8497 40.3915 24.7428 40.4169C24.6915 40.4296 24.6573 40.4296 24.606 40.4296C24.4307 40.4296 24.4563 40.1591 24.6316 40.1591ZM24.2682 39.5676C24.3366 39.5718 24.3751 39.5887 24.435 39.6183C24.5333 39.669 24.4948 39.8084 24.4136 39.8549C24.3665 39.8802 24.3366 39.8887 24.281 39.8929C24.033 39.9141 24.033 39.5464 24.2682 39.5676ZM23.5798 40.2605C23.738 40.3028 23.6824 40.5141 23.5541 40.5479C23.4686 40.569 23.3959 40.569 23.3061 40.5605C23.1308 40.5436 23.1095 40.2648 23.2933 40.2479C23.3959 40.2394 23.4815 40.2394 23.5798 40.2648V40.2605ZM23.0881 39.745C23.0881 39.745 23.1266 39.7154 23.1437 39.6985C23.242 39.6225 23.3917 39.745 23.3104 39.8464C23.2933 39.8633 23.2805 39.8845 23.2634 39.9014C23.1479 40.0408 22.9513 39.8464 23.0838 39.7408L23.0881 39.745ZM22.2628 40.1591C22.3826 40.1295 22.4852 40.1042 22.6092 40.1169C22.7332 40.1296 22.7717 40.307 22.6519 40.3619C22.5408 40.4126 22.4339 40.4253 22.3099 40.4338C22.1303 40.4465 22.0875 40.2056 22.2628 40.1633V40.1591ZM21.9037 39.3521C21.9721 39.3943 22.0234 39.4323 22.0747 39.4873C22.1688 39.5887 22.0491 39.7366 21.9293 39.6943C21.8566 39.669 21.7968 39.6352 21.7326 39.5887C21.5744 39.4831 21.7412 39.2464 21.9037 39.3478V39.3521ZM21.5616 40.7211C22.7631 40.8183 23.9261 40.8141 25.1276 40.7211C25.1789 40.7211 25.1918 40.7887 25.1405 40.7972C23.9689 40.9915 22.7246 40.9915 21.5531 40.8056C21.5017 40.7972 21.506 40.7211 21.5616 40.7253V40.7211ZM21.7113 41.2451C21.8139 41.2873 21.8353 41.4521 21.7241 41.4944C21.6129 41.5408 21.5103 41.5324 21.3906 41.5239C21.2196 41.5113 21.2024 41.2324 21.3778 41.2197C21.4975 41.2113 21.6001 41.1986 21.7113 41.2451ZM20.9972 39.9774C21.0955 39.9943 21.1939 40.0028 21.288 40.0408C21.4291 40.0915 21.3692 40.2817 21.2324 40.2774C21.1426 40.2774 21.0571 40.2563 20.9716 40.2394C20.8048 40.2056 20.8262 39.9521 20.9972 39.9774ZM20.4841 39.1746C20.5867 39.1957 20.668 39.2126 20.7578 39.2676C20.8604 39.3309 20.8219 39.5126 20.7022 39.5253C20.5953 39.5337 20.5183 39.5169 20.4114 39.4915C20.2318 39.4492 20.3045 39.1366 20.4841 39.1746ZM20.7107 41.1014C20.7962 41.1732 20.8005 41.3127 20.6893 41.3592C20.5397 41.4268 20.4029 41.3887 20.2447 41.3676C19.9924 41.3338 20.0309 40.9451 20.2831 40.9789C20.4328 41 20.5953 41 20.715 41.1014H20.7107ZM19.8427 39.8211C19.971 39.8718 19.9496 40.0493 19.8214 40.0788C19.6076 40.1253 19.3724 40.0873 19.1629 40.0408C19.0218 40.0112 18.9747 39.7704 19.1501 39.7577C19.3809 39.745 19.6289 39.7366 19.8427 39.8211ZM18.8294 38.9042C18.9705 38.8999 19.0945 38.9126 19.2099 38.9971C19.2869 39.0563 19.2997 39.2126 19.1885 39.2464C19.0303 39.2971 18.9106 39.276 18.7567 39.2169C18.5686 39.145 18.6541 38.9084 18.8294 38.8999V38.9042ZM17.9486 39.3098C18.0854 39.3056 18.2136 39.3267 18.3205 39.4112C18.4232 39.4873 18.3761 39.6183 18.265 39.6521C18.1324 39.6943 18.0041 39.669 17.8759 39.6183C17.692 39.5464 17.7732 39.3183 17.9486 39.314V39.3098ZM16.9694 39.1661C17.0036 39.183 17.0378 39.1999 17.0677 39.2253C17.1875 39.3098 17.0848 39.4873 16.9523 39.445C16.9138 39.4366 16.8796 39.4197 16.8454 39.4028C16.6658 39.3183 16.7984 39.0774 16.9694 39.1661ZM16.2169 38.9464C16.2895 38.9633 16.3537 38.976 16.4221 39.0056C16.5589 39.069 16.5162 39.2591 16.3622 39.2549C16.2767 39.2549 16.1997 39.2337 16.1142 39.2126C15.9304 39.1704 16.033 38.8999 16.2169 38.9422V38.9464ZM15.4387 38.5239C15.4729 38.5577 15.5071 38.5915 15.537 38.6295C15.6225 38.7309 15.4857 38.8957 15.3745 38.807C15.3275 38.769 15.2847 38.7309 15.242 38.6887C15.1222 38.5746 15.3232 38.4056 15.4387 38.5239ZM20.2147 40.5605C20.266 40.569 20.2618 40.6493 20.2062 40.6408C10.1538 39.3774 2.93191 31.049 1.9271 21.3009C1.92282 21.2587 1.98696 21.246 1.99551 21.2882C2.68819 25.8771 4.22749 30.28 7.38731 33.804C10.731 37.5309 15.2933 39.7408 20.2147 40.5605ZM5.08693 28.8687C5.17672 29.0377 5.27506 29.2067 5.3392 29.3842C5.38196 29.5025 5.21947 29.6335 5.13823 29.5152C5.02706 29.3462 4.94155 29.1645 4.85603 28.9786C4.78334 28.8307 5.01423 28.7208 5.09119 28.8687H5.08693ZM5.27506 27.7278C5.34775 27.8715 5.45036 28.0194 5.46747 28.1842C5.48029 28.3236 5.32637 28.3828 5.22802 28.294C5.1083 28.1842 5.04844 28.0109 4.97575 27.8673C4.88168 27.6771 5.17672 27.5419 5.27078 27.7278H5.27506ZM5.80098 30.2208C5.87794 30.3307 5.96774 30.4363 6.01477 30.5631C6.06608 30.6983 5.90788 30.7913 5.80526 30.6941C5.71547 30.6096 5.6556 30.4997 5.58719 30.3941C5.49312 30.2504 5.69837 30.073 5.79671 30.2166L5.80098 30.2208ZM5.86085 29.0884C5.92071 29.1687 5.98057 29.2406 6.02333 29.3293C6.07036 29.4349 5.9378 29.5659 5.83946 29.4814C5.7625 29.418 5.71118 29.342 5.65132 29.2659C5.54443 29.1222 5.75822 28.9448 5.86511 29.0884H5.86085ZM6.3825 30.5378C6.31836 30.4702 6.28415 30.3983 6.24139 30.3138C6.1516 30.1448 6.42525 30.018 6.51077 30.1871C6.55352 30.2716 6.58773 30.3434 6.60483 30.4321C6.63049 30.5589 6.46801 30.6223 6.3825 30.5335V30.5378ZM6.73738 31.8434C6.78869 31.9448 6.65614 32.0674 6.56207 31.9913C6.46373 31.9153 6.39533 31.8223 6.31836 31.7251C6.20719 31.5899 6.4167 31.4124 6.52787 31.5476C6.60484 31.6406 6.6818 31.7293 6.73738 31.8392V31.8434ZM7.13076 31.3195C7.13076 31.3195 7.15214 31.3617 7.1607 31.3829C7.20773 31.4758 7.10511 31.6068 6.99821 31.5561C6.97683 31.5476 6.95972 31.5392 6.93835 31.5265C6.66897 31.3955 7.01532 31.0786 7.13076 31.3195ZM7.45572 32.7308C7.55406 32.8153 7.64386 32.8913 7.69517 33.0097C7.73793 33.1153 7.63959 33.2463 7.51986 33.1998C7.40014 33.1491 7.3189 33.0688 7.23766 32.9716C7.11794 32.8322 7.31462 32.6082 7.46 32.7308H7.45572ZM8.68288 34.3956C8.7513 34.4632 8.8026 34.5097 8.84109 34.5984C8.88812 34.7083 8.78122 34.8519 8.65295 34.8012C8.55033 34.759 8.49474 34.6998 8.41777 34.6196C8.25957 34.4548 8.52468 34.2435 8.68288 34.3956ZM9.46963 32.6167C9.82025 33.0308 10.1922 33.4364 10.5813 33.8252C10.1794 33.4871 9.79886 33.128 9.42687 32.7604C9.44397 32.7139 9.4568 32.6674 9.46963 32.6209V32.6167ZM9.39266 32.5237C9.36273 32.5702 9.34563 32.6125 9.32425 32.6547C9.05488 32.3843 8.79833 32.1096 8.54605 31.8265C8.55888 31.8139 8.56316 31.8012 8.57599 31.7885C8.62302 31.7462 8.67433 31.7124 8.72136 31.6744C8.93515 31.9617 9.1575 32.2448 9.38839 32.5195L9.39266 32.5237ZM8.61874 31.535C8.55032 31.5772 8.48619 31.6321 8.43488 31.6955C8.10564 31.3195 7.79351 30.9307 7.49848 30.5293C7.55834 30.4744 7.62248 30.4195 7.68661 30.373C7.72082 30.3476 7.75931 30.3307 7.79779 30.3138C8.05434 30.7279 8.32798 31.1378 8.61874 31.5392V31.535ZM7.02387 28.911C7.22911 29.3251 7.45145 29.7349 7.69089 30.1406C7.57972 30.2082 7.48138 30.3011 7.39586 30.3983C7.09655 29.9842 6.81008 29.5617 6.54498 29.1265C6.59629 29.0884 6.6476 29.0504 6.70318 29.0208C6.8058 28.9659 6.91269 28.9405 7.01959 28.911H7.02387ZM6.02333 26.2658L6.0447 26.3334L6.28415 27.1405C6.34401 27.3264 6.4167 27.4997 6.48511 27.6645C6.52359 27.7574 6.56208 27.8504 6.60483 27.9645C6.64332 28.0532 6.67752 28.1419 6.71173 28.2307C6.77159 28.3912 6.84 28.556 6.92552 28.7208C6.75876 28.7546 6.59628 28.8433 6.45518 28.9617C5.99339 28.1757 5.60002 27.3644 5.27933 26.5236C5.35202 26.4771 5.42471 26.4306 5.50595 26.3968C5.6727 26.3292 5.84802 26.3081 6.01905 26.2616L6.02333 26.2658ZM5.98485 26.1391C5.74113 26.101 5.44182 26.1813 5.20665 26.3334C5.15106 26.1855 5.08692 26.0419 5.03989 25.894C4.74486 25.0193 4.5439 24.1446 4.41562 23.2658C4.76196 23.1263 5.12968 23.0249 5.52733 22.97C5.51878 23.1812 5.54016 23.3672 5.55727 23.5446C5.56582 23.6376 5.57865 23.7263 5.58292 23.8193C5.59575 23.9376 5.6043 24.0306 5.60858 24.1235C5.6214 24.301 5.63423 24.4827 5.67271 24.6771L5.83519 25.4883L5.91215 25.8813C5.91643 25.9024 5.92071 25.9278 5.92926 25.9489L5.98485 26.1348V26.1391ZM5.74113 20.3671C5.28361 20.2445 4.78762 20.215 4.30018 20.2784C4.36004 19.4459 4.48831 18.6178 4.69355 17.798C5.2323 17.8529 5.73257 18.0346 6.25849 18.3769C6.03188 19.0403 5.86085 19.7079 5.74113 20.3671ZM6.31408 18.2037C5.89505 17.8445 5.3392 17.6121 4.76624 17.5403C4.97576 16.7797 5.25368 16.0233 5.59147 15.2839C6.23712 15.3937 6.74594 15.6346 7.23766 16.0909C6.87421 16.7881 6.5578 17.4938 6.3098 18.2079L6.31408 18.2037ZM7.40869 15.7613C7.38303 15.812 7.35738 15.8628 7.33173 15.9135C6.9469 15.4233 6.31836 15.0937 5.68982 15.0684C6.16871 14.0669 6.76732 13.0866 7.48138 12.1401C7.78496 12.2204 8.07143 12.2922 8.35364 12.4782C8.68715 12.6979 8.85818 12.9979 9.07625 13.3064C8.46481 14.0585 7.90041 14.8782 7.41297 15.7613H7.40869ZM9.1746 13.188C9.01212 12.588 8.31944 12.0176 7.66524 11.912C8.04579 11.426 8.44771 10.9443 8.88811 10.4753C9.31142 10.1246 9.739 9.79501 10.1709 9.48232C10.7139 9.88374 11.0944 10.4246 11.3382 11.0626C10.5642 11.6753 9.83735 12.3894 9.1746 13.188ZM11.8042 10.7035C11.6973 10.7795 11.5947 10.864 11.4921 10.9443C11.3595 10.2809 10.932 9.70627 10.3633 9.34711C11.3895 8.633 12.4456 8.03299 13.5359 7.55129C13.7069 7.73721 13.8737 7.92313 14.0063 8.14708C14.1944 8.46821 14.3269 8.82314 14.421 9.18231C13.5145 9.58795 12.6337 10.095 11.8085 10.7035H11.8042ZM17.7262 8.20623C16.6615 8.36257 15.6011 8.67104 14.5749 9.11471C14.5151 8.52315 14.2372 7.87242 13.7839 7.44565C14.9127 6.96817 16.0715 6.61323 17.2644 6.38506C17.2901 6.43576 17.32 6.48224 17.3457 6.53295C17.5937 7.06958 17.6835 7.62735 17.8288 8.18933C17.7989 8.19779 17.7647 8.202 17.7305 8.20623H17.7262ZM20.1249 8.04566C19.3938 8.04566 18.6754 8.09637 17.9742 8.18088C18.0127 7.59776 17.8502 6.93014 17.5595 6.33012C18.4659 6.17378 19.3938 6.08928 20.3345 6.07661C20.3943 6.22872 20.4456 6.38506 20.4841 6.54986C20.5996 7.05268 20.5825 7.55128 20.5867 8.06256C20.4328 8.06256 20.2789 8.04989 20.1249 8.04989V8.04566ZM20.7321 8.06256C20.8946 7.46677 20.8647 6.72732 20.6551 6.07238C21.6215 6.0766 22.6006 6.16534 23.5926 6.32168C23.7337 6.99775 23.8363 7.67383 23.8834 8.40061C22.8101 8.21046 21.754 8.09637 20.7321 8.06256ZM26.7311 9.0809C25.9956 8.86118 25.273 8.67526 24.5675 8.52737C24.3965 8.49356 24.2254 8.46398 24.0544 8.43441C24.1314 7.77101 24.0929 7.06114 23.9432 6.38084C24.8412 6.53718 25.7476 6.7569 26.6627 7.03578C26.7909 7.69073 26.7995 8.33299 26.7311 9.0809ZM26.8422 9.11471C27.1031 8.51047 27.1287 7.80059 26.9833 7.13297C27.9497 7.44143 28.9203 7.82594 29.8994 8.27384C29.8952 8.3668 29.8909 8.46399 29.8781 8.55695C29.8011 9.0809 29.613 9.53725 29.3992 10.0105C28.5226 9.66402 27.6717 9.36401 26.8422 9.11471ZM31.3532 10.8429C30.7204 10.5556 30.1047 10.2894 29.5018 10.0485C29.8353 9.61331 30.0876 9.00907 30.1731 8.40061C30.4553 8.5316 30.7375 8.66258 31.024 8.80625C31.6012 9.07668 32.1656 9.37246 32.7215 9.68092C32.6488 10.2429 32.4521 10.75 32.2768 11.2781C31.9775 11.1303 31.6696 10.9866 31.3575 10.8429H31.3532ZM34.6712 12.5162L33.0079 11.6415C32.8155 11.5443 32.6103 11.4429 32.4093 11.3458C32.6958 10.9232 32.8968 10.3866 32.9823 9.8288C33.722 10.2513 34.4403 10.7077 35.1416 11.1852C35.1159 11.6796 34.9877 12.1444 34.8594 12.6218C34.7952 12.588 34.7354 12.5542 34.6712 12.5162ZM34.9834 12.6894C35.2014 12.3007 35.3383 11.8359 35.3896 11.3584C36.2276 11.9415 37.0358 12.5542 37.8225 13.1923C37.7541 13.5219 37.6472 13.8345 37.536 14.1557C36.7365 13.6782 35.8984 13.1965 34.9834 12.6937V12.6894ZM37.938 14.3965C37.8482 14.3416 37.7584 14.2909 37.6686 14.236C37.8225 13.9698 37.9422 13.674 38.0192 13.3571C38.6093 13.843 39.1865 14.3374 39.7466 14.8402C39.6782 15.0219 39.597 15.1994 39.5029 15.3726C38.9813 15.0388 38.4596 14.7134 37.938 14.3965ZM39.644 15.4613C39.7423 15.3177 39.8321 15.1571 39.9134 14.9881C40.7172 15.7149 41.4911 16.4501 42.2351 17.1811C41.3629 16.5769 40.5034 16.0064 39.644 15.4571V15.4613ZM41.7263 13.1458C41.8289 13.2303 41.8931 13.2979 41.923 13.4247C41.9529 13.5472 41.8247 13.6148 41.722 13.5937C41.6109 13.5683 41.5467 13.5049 41.4741 13.4204C41.3372 13.2599 41.5596 13.0063 41.7263 13.1458ZM42.2779 13.019C41.8076 12.7275 41.3287 12.3599 40.9225 11.9838C40.884 11.9458 40.9396 11.8951 40.9823 11.9204C41.4569 12.212 41.9358 12.5711 42.3463 12.9472C42.3933 12.9894 42.3249 13.0486 42.2779 13.0233V13.019ZM42.5772 14.2824C42.4489 14.1683 42.5986 13.9486 42.7311 14.0627C42.8594 14.1684 43.0048 14.2698 43.1117 14.3965C43.21 14.5106 43.0604 14.6543 42.9407 14.5824C42.8081 14.5022 42.6927 14.3838 42.5729 14.2824H42.5772ZM43.2571 15.812C43.1758 15.7698 43.116 15.7191 43.0518 15.6557C42.9022 15.5163 43.1544 15.2965 43.2998 15.4487C43.3597 15.512 43.4067 15.5712 43.4495 15.6515C43.5179 15.7782 43.3597 15.867 43.2571 15.812ZM43.6376 14.1641C44.4329 14.8275 45.1684 15.5543 45.9893 16.1923C46.0406 16.2346 45.985 16.3191 45.9294 16.2768C45.1085 15.6726 44.2405 15.0008 43.582 14.2233C43.5521 14.1895 43.5991 14.1345 43.6376 14.1641ZM44.2918 15.7613C44.1678 15.698 44.0737 15.6135 43.9668 15.5247C43.8129 15.398 43.9925 15.1444 44.1464 15.2712C44.2619 15.3641 44.3731 15.4529 44.4671 15.5712C44.5655 15.6937 44.4158 15.8289 44.2918 15.7613ZM44.0737 17.2572C44.031 17.236 43.9882 17.2107 43.9497 17.1853C43.7317 17.0501 44.0395 16.7205 44.202 16.974C44.2277 17.0121 44.249 17.0501 44.2704 17.0924C44.3388 17.2191 44.1806 17.3121 44.0737 17.2572ZM44.2148 16.5515C44.0609 16.5008 43.9369 16.3867 43.8086 16.298C43.6461 16.1797 43.8215 15.9304 43.9882 16.0445C44.1165 16.1332 44.2662 16.2135 44.3645 16.3402C44.4457 16.4459 44.3474 16.598 44.2148 16.5515ZM44.5997 17.7642C44.5056 17.705 44.4372 17.6248 44.3602 17.5445C44.232 17.4093 44.4457 17.2403 44.5783 17.3628C44.6595 17.4389 44.7365 17.5065 44.7963 17.6036C44.8733 17.722 44.7023 17.8318 44.5997 17.7684V17.7642ZM45.3864 16.4543C45.5788 16.6191 45.8097 16.7712 45.9423 16.9867C46.0064 17.0924 45.8696 17.2318 45.7584 17.1853C45.5232 17.0839 45.3437 16.8684 45.1598 16.6994C45.0187 16.5726 45.241 16.3318 45.3864 16.4543ZM45.318 18.1825C45.1769 18.0304 45.3992 17.798 45.5617 17.9206C45.7841 18.0854 46.0492 18.2586 46.1689 18.5121C46.2287 18.6347 46.1005 18.7699 45.9722 18.7234C45.7071 18.6262 45.5061 18.3811 45.318 18.1825ZM46.3784 20.0121C46.2159 19.9657 46.0748 19.8093 45.985 19.6741C45.8739 19.5093 46.0449 19.2981 46.2245 19.4121C46.3827 19.5136 46.5366 19.653 46.5922 19.8347C46.6307 19.9615 46.481 20.0417 46.3784 20.0121ZM46.5708 18.0684C46.4297 17.9543 46.5708 17.7558 46.7333 17.8403C46.8573 17.9079 46.9727 17.967 47.0668 18.0769C47.1566 18.1825 47.0411 18.3347 46.9172 18.2882C46.7846 18.2417 46.682 18.1572 46.5751 18.0684H46.5708ZM47.3276 19.56C47.4303 19.6657 47.5372 19.7629 47.6184 19.8854C47.6911 19.991 47.5799 20.1347 47.4602 20.0586C47.3276 19.9699 47.2207 19.86 47.1053 19.7502C46.9727 19.6234 47.1951 19.429 47.3276 19.5643V19.56ZM47.6355 21.2629C47.4559 21.1911 47.3276 21.022 47.1908 20.8868C47.0412 20.7347 47.2934 20.5277 47.4473 20.6755C47.5756 20.7981 47.7381 20.9164 47.8065 21.0812C47.8493 21.1826 47.7509 21.3136 47.6355 21.2629ZM48.2255 19.1375C48.3581 19.26 48.5206 19.3741 48.5975 19.5389C48.6488 19.653 48.5334 19.8009 48.4051 19.7459C48.2213 19.6657 48.0973 19.4966 47.9647 19.3572C47.8108 19.1924 48.0716 18.9938 48.2255 19.1375ZM48.6275 22.1207C48.5719 22.0911 48.5206 22.0657 48.465 22.0361C48.2726 21.939 48.4479 21.6685 48.5933 21.7911C48.6403 21.8291 48.6873 21.8714 48.7387 21.9094C48.837 21.9897 48.7557 22.184 48.6275 22.1164V22.1207ZM48.6275 21.0643C48.4137 20.9967 48.2726 20.7896 48.1272 20.6291C47.9904 20.4812 48.217 20.2319 48.3709 20.3671C48.5334 20.5065 48.7515 20.6502 48.8199 20.8572C48.8626 20.9798 48.7686 21.1066 48.6275 21.0643ZM49.6921 23.2235C49.4997 23.1897 49.3501 23.0798 49.1876 22.9742C48.9909 22.8517 49.1962 22.5601 49.3971 22.6784C49.5468 22.7714 49.7093 22.8474 49.8162 22.9911C49.8803 23.0798 49.8247 23.2446 49.6964 23.2193L49.6921 23.2235ZM49.6366 20.4093C49.7948 20.5657 50.0043 20.7178 50.0941 20.9248C50.1411 21.0305 50.0342 21.1699 49.9145 21.115C49.6922 21.0178 49.5297 20.8065 49.3586 20.6375C49.1962 20.4727 49.4698 20.2488 49.6323 20.4093H49.6366ZM49.9701 22.2854C49.8375 22.2178 49.7306 22.1249 49.6152 22.0319C49.4613 21.9052 49.6408 21.6516 49.7948 21.7784C49.9059 21.8713 50.0257 21.9601 50.1197 22.0742C50.1924 22.1671 50.0984 22.3488 49.9744 22.2812L49.9701 22.2854ZM51.0262 24.6306C50.9108 24.5672 50.821 24.4573 50.7226 24.3644C50.5773 24.2207 50.8253 24.0137 50.9664 24.1616C51.0604 24.2587 51.1588 24.3432 51.2272 24.4616C51.2999 24.5925 51.1331 24.6897 51.0219 24.6306H51.0262ZM51.1288 23.5573C50.9578 23.4601 50.8423 23.2911 50.7141 23.1432C50.5687 22.9742 50.8295 22.7629 50.9749 22.9235C51.1032 23.0672 51.2614 23.2024 51.3341 23.3841C51.3854 23.5193 51.2485 23.6249 51.1288 23.5573ZM51.2614 22.4502C51.0561 22.3657 50.9065 22.1925 50.744 22.0488C50.5772 21.9009 50.7739 21.6136 50.945 21.7615C51.1203 21.9136 51.3212 22.0531 51.441 22.2516C51.5051 22.3573 51.3726 22.4925 51.2614 22.446V22.4502ZM52.3218 24.6813C52.1593 24.5799 52.0438 24.4024 51.9156 24.263C51.783 24.1108 52.0225 23.9123 52.155 24.0601C52.2833 24.1996 52.4415 24.339 52.5227 24.5123C52.5783 24.639 52.4372 24.7489 52.3218 24.6813ZM52.604 23.7348C52.3688 23.6376 52.1892 23.4179 52.0097 23.2446C51.8728 23.1136 52.0909 22.8812 52.2363 22.9995C52.4287 23.1601 52.6638 23.3122 52.7878 23.5362C52.8477 23.646 52.7194 23.777 52.6082 23.7306L52.604 23.7348ZM52.9974 25.3954C52.9247 25.3447 52.8691 25.2897 52.8049 25.2306C52.6724 25.0996 52.8947 24.9137 53.0273 25.0447C53.0786 25.0996 53.1299 25.1461 53.1727 25.2095C53.2539 25.3278 53.1256 25.4883 52.9974 25.3996V25.3954ZM53.7499 24.9052C53.5275 24.7996 53.3736 24.5968 53.2154 24.4109C53.1042 24.2841 53.2838 24.077 53.4207 24.1911C53.6045 24.3475 53.8183 24.4954 53.9252 24.7151C53.9765 24.8165 53.8611 24.9602 53.7499 24.9052ZM57.1492 29.8913C56.961 29.8025 56.8114 29.6589 56.6532 29.5279C56.495 29.3969 56.3325 29.2659 56.1871 29.118C56.1401 29.0715 56.2127 28.9997 56.2641 29.0335C56.4436 29.1518 56.6104 29.2912 56.7729 29.4265C56.9225 29.549 57.085 29.6589 57.2005 29.8194C57.2261 29.8532 57.1962 29.9124 57.1492 29.8913ZM57.8718 30.4913C57.7649 30.4364 57.6794 30.3687 57.5939 30.2885C57.5511 30.2462 57.6152 30.1828 57.6665 30.2124C57.7649 30.2758 57.8504 30.3476 57.9274 30.4364C57.9573 30.4744 57.9103 30.5124 57.876 30.4913H57.8718ZM59.2229 31.5857C59.0647 31.5265 58.9322 31.4082 58.7954 31.3068C58.6371 31.1927 58.4832 31.0786 58.3336 30.9603C58.2865 30.9223 58.3336 30.8504 58.3891 30.8843C58.5516 30.9899 58.7141 31.0913 58.8723 31.2012C59.0134 31.2941 59.1716 31.3786 59.2785 31.5054C59.3127 31.5434 59.27 31.6068 59.2229 31.5857ZM62.7163 32.3336C62.4854 32.2195 62.2929 32.0505 62.092 31.8899C61.9167 31.7462 62.1219 31.4589 62.293 31.6026C62.4897 31.7674 62.7034 31.9195 62.8574 32.1265C62.9301 32.2195 62.8403 32.3927 62.712 32.3336H62.7163ZM63.8579 34.2308C63.7211 34.1928 63.6099 34.121 63.4902 34.0449C63.2935 33.9181 63.5073 33.6181 63.6997 33.7491C63.8194 33.8294 63.922 33.9012 64.0118 34.0111C64.1016 34.1252 63.9904 34.2688 63.8536 34.2308H63.8579ZM64.1658 33.5167C63.9178 33.4449 63.7082 33.1956 63.5158 33.035C63.3876 32.9294 63.5244 32.7308 63.6655 32.8237C63.8921 32.9716 64.1914 33.0984 64.3411 33.3308C64.4138 33.4407 64.2684 33.5463 64.1658 33.5209V33.5167ZM64.7857 35.0674C64.619 34.9829 64.7131 34.7083 64.8884 34.7928C65.0338 34.8604 65.2091 34.9196 65.3288 35.0294C65.4143 35.1055 65.3886 35.2956 65.239 35.266C65.0765 35.2365 64.9311 35.1435 64.7857 35.0674ZM65.0637 33.9519C65.1321 34.0533 65.2219 34.0998 65.3288 34.1547C65.4186 34.2055 65.3844 34.3745 65.2775 34.3787C65.0851 34.3871 64.9397 34.2984 64.8328 34.1421C64.7302 33.9857 64.9525 33.7914 65.0594 33.9519H65.0637ZM65.7136 36.3266C65.5853 36.3055 65.4742 36.2506 65.3544 36.1999C65.1278 36.0985 65.2946 35.7858 65.5126 35.9041C65.6281 35.9675 65.7307 36.0224 65.829 36.1111C65.9146 36.1914 65.8248 36.3478 65.7136 36.3309V36.3266ZM65.7521 35.1773C65.6024 35.021 65.8547 34.8181 66.0086 34.9618C66.1241 35.0717 66.2566 35.1689 66.3208 35.3167C66.3721 35.4224 66.2609 35.566 66.1412 35.5111C65.983 35.4393 65.8718 35.2999 65.7521 35.1773ZM66.5859 36.7957C66.4319 36.7661 66.3208 36.6816 66.1925 36.5928C66.0172 36.4745 66.2053 36.2083 66.3806 36.3266C66.4961 36.4027 66.6201 36.4661 66.697 36.5802C66.7526 36.6647 66.7099 36.821 66.5816 36.7957H66.5859ZM67.518 38.2239C67.3769 38.1985 67.2529 38.1351 67.1203 38.076C66.9536 38.0041 67.0519 37.7379 67.2187 37.8098C67.3469 37.8689 67.4881 37.9154 67.5992 37.9999C67.689 38.0675 67.6463 38.245 67.518 38.2196V38.2239ZM67.4282 36.1238C67.5736 36.1956 67.7403 36.2548 67.8643 36.3604C67.9456 36.4323 67.9199 36.614 67.7788 36.5886C67.6163 36.5548 67.4752 36.4703 67.3256 36.3942C67.1631 36.3097 67.2572 36.0435 67.4282 36.1238ZM68.0396 37.6238C67.967 37.5774 67.8986 37.5267 67.8259 37.476C67.6976 37.383 67.8429 37.1802 67.9669 37.2774C68.0354 37.3281 68.1038 37.3788 68.1679 37.4379C68.2748 37.5351 68.1679 37.7041 68.0354 37.6238H68.0396ZM68.8392 38.8788C68.7281 38.845 68.6254 38.7858 68.5228 38.7351C68.3689 38.6549 68.4587 38.4013 68.6169 38.4816C68.7323 38.5366 68.852 38.583 68.9547 38.6591C69.0744 38.7478 68.976 38.9211 68.8349 38.883L68.8392 38.8788ZM69.3822 38.3929C69.1599 38.376 68.9718 38.2408 68.7794 38.1394C68.604 38.0464 68.7623 37.7548 68.9376 37.8393C69.13 37.9323 69.3523 38.0084 69.4977 38.1732C69.5747 38.2619 69.4977 38.4013 69.3822 38.3929ZM69.4122 37.4379C69.2497 37.3915 69.0958 37.3154 68.9418 37.2478C68.7836 37.176 68.8734 36.9266 69.0359 36.9943C69.2027 37.0661 69.3694 37.1337 69.5233 37.2267C69.6473 37.3027 69.5362 37.4717 69.4122 37.4379ZM70.6351 38.9887C70.4769 38.9675 70.3315 38.8957 70.1818 38.8408C70.0108 38.7774 70.1091 38.5196 70.2802 38.5788C70.4298 38.6337 70.5837 38.676 70.7206 38.7605C70.8275 38.8281 70.7591 39.0098 70.6351 38.9887ZM71.4646 38.4774C71.1995 38.4394 70.9557 38.2788 70.7206 38.1563C70.5752 38.0802 70.7035 37.852 70.8531 37.907C71.084 37.9999 71.3619 38.0718 71.5544 38.2408C71.6441 38.3211 71.61 38.4943 71.4646 38.4774ZM71.9349 39.5887C71.8665 39.576 71.8109 39.5633 71.7425 39.5422C71.58 39.4957 71.6741 39.238 71.8366 39.2971C71.8879 39.314 71.9392 39.3352 71.9862 39.3605C72.1017 39.4112 72.076 39.6183 71.9349 39.5887ZM72.7772 39.0816C72.6874 39.0563 72.6019 39.0225 72.5121 38.9887C72.3539 38.9295 72.448 38.676 72.6062 38.7436C72.7046 38.7816 72.7986 38.8197 72.8884 38.8704C73.0167 38.9422 72.8969 39.1154 72.7772 39.0816ZM73.9702 39.2338C73.9018 39.2084 73.8376 39.1746 73.7735 39.1323C73.611 39.0351 73.7863 38.7858 73.9445 38.8915C74.0044 38.9337 74.06 38.9802 74.1113 39.0309C74.2011 39.1239 74.0856 39.2718 73.9702 39.2295V39.2338ZM75.6463 39.9098C75.4368 39.9563 75.2444 39.8718 75.0391 39.8338C74.8425 39.8 74.8681 39.5126 75.0691 39.5295C75.27 39.5422 75.4881 39.576 75.6677 39.6647C75.7788 39.7197 75.7789 39.8802 75.6463 39.9098ZM78.3272 41.5113C78.0365 41.5239 77.7072 41.4775 77.425 41.4056C77.3737 41.393 77.3994 41.3253 77.4421 41.3253C77.7243 41.3211 78.0579 41.3549 78.3315 41.4352C78.37 41.4479 78.3657 41.5113 78.323 41.5155L78.3272 41.5113ZM79.6228 41.4606C79.5501 41.4648 79.5287 41.469 79.456 41.4648C79.3962 41.4648 79.409 41.376 79.4646 41.376C79.5159 41.376 79.5672 41.3761 79.6185 41.3803C79.6613 41.3803 79.6656 41.4521 79.6185 41.4563L79.6228 41.4606ZM98.3423 31.9406C98.2696 32.1054 98.0344 31.9829 98.1242 31.8265C98.1413 31.7927 98.1627 31.7589 98.1841 31.7293C98.2568 31.6195 98.4321 31.7124 98.385 31.835C98.3722 31.8688 98.3594 31.9068 98.3423 31.9406ZM98.8383 31.0786C98.7442 31.2772 98.462 31.1293 98.5689 30.9392C98.5988 30.8885 98.6202 30.8631 98.663 30.8251C98.7485 30.7448 98.8939 30.8251 98.8811 30.9392C98.8725 30.9983 98.8639 31.0279 98.8426 31.0828L98.8383 31.0786ZM89.7052 38.8704C84.5443 41.1437 78.7719 40.531 73.6196 38.545C68.4373 36.5464 64.0289 32.9463 59.8942 29.3546C55.6996 25.7123 51.6761 21.8629 47.6783 18.0135C47.6056 17.9459 47.7253 17.8487 47.798 17.9163C55.0155 24.4362 61.7585 32.1772 70.4341 36.8759C75.7617 39.7619 82.4577 41.3 88.3412 39.2295C93.9724 37.252 97.8933 32.6632 99.7918 27.1658C99.8132 27.1025 99.9158 27.1363 99.8944 27.2039C98.2953 32.3082 94.695 36.6773 89.7094 38.8704H89.7052ZM99.2231 30.1828C99.1419 30.3265 98.9067 30.1997 98.9708 30.0518C99.0093 29.9673 99.0392 29.8913 99.0991 29.8194C99.2017 29.6969 99.3685 29.7983 99.3343 29.942C99.3129 30.0349 99.2701 30.1025 99.2231 30.1828ZM99.9628 28.6574C99.8602 28.8222 99.5994 28.6786 99.6678 28.5053C99.7063 28.3997 99.749 28.3236 99.8345 28.2518C99.9329 28.1715 100.074 28.2518 100.07 28.3743C100.065 28.4884 100.023 28.5645 99.9628 28.6617V28.6574ZM100.031 24.47C99.9757 24.639 99.702 24.5756 99.7234 24.4024C99.7576 24.1573 99.7619 23.87 99.9158 23.6672C99.9928 23.5658 100.16 23.5996 100.185 23.7263C100.232 23.9799 100.112 24.2376 100.031 24.47ZM100.523 26.8701C100.45 27.0518 100.177 26.9123 100.279 26.7433C100.318 26.6799 100.36 26.6165 100.399 26.5489C100.472 26.4348 100.656 26.5363 100.608 26.6546C100.579 26.7264 100.553 26.794 100.523 26.8658V26.8701ZM100.895 25.7461C100.827 25.9193 100.544 25.8179 100.617 25.6447C100.656 25.5475 100.694 25.4545 100.754 25.3658C100.822 25.2602 101.019 25.3235 100.993 25.4503C100.972 25.5559 100.938 25.6447 100.895 25.7461ZM101.275 24.1742C101.246 24.3559 100.955 24.3306 100.985 24.1489C101.002 24.0348 101.019 23.9207 101.057 23.8108C101.113 23.663 101.31 23.7306 101.31 23.87C101.31 23.9756 101.288 24.077 101.271 24.1785L101.275 24.1742ZM101.489 22.9953C101.489 23.1981 101.177 23.1643 101.173 22.9658C101.173 22.8474 101.16 22.7418 101.203 22.6277C101.241 22.5263 101.408 22.5052 101.451 22.615C101.498 22.7418 101.489 22.8601 101.489 22.9953ZM80.4737 35.1308C80.6789 35.1604 80.8884 35.1984 81.0937 35.2111C81.1749 35.2111 81.1835 35.1055 81.1065 35.0928C80.9013 35.0548 80.6918 35.0421 80.4822 35.0252C80.4096 35.021 80.401 35.1224 80.4737 35.1351V35.1308ZM15.6054 7.04846C16.0202 6.95972 16.4392 6.86677 16.8497 6.74845C16.9181 6.73155 16.901 6.62169 16.8283 6.63859C16.4093 6.72732 15.9988 6.84141 15.584 6.9555C15.5284 6.9724 15.5413 7.0569 15.6011 7.04423L15.6054 7.04846ZM79.0926 35.0759C79.3748 35.1139 79.6827 35.1646 79.9691 35.1477C80.0119 35.1477 80.0205 35.0717 79.9777 35.0632C79.6998 34.9998 79.3876 34.9956 79.1012 34.9872C79.0456 34.9872 79.037 35.0674 79.0926 35.0759ZM77.4464 34.9153C77.4935 34.9069 77.4935 34.835 77.4464 34.8308C76.9846 34.797 76.5571 34.797 76.1081 34.6576C76.0611 34.6407 76.0311 34.7125 76.0824 34.7294C76.5058 34.8858 77.0017 34.9998 77.4507 34.9153H77.4464ZM18.5429 7.80903C18.483 7.82171 18.5001 7.90622 18.56 7.90199C18.6541 7.89354 18.7396 7.88088 18.8294 7.84707C18.8678 7.8344 18.855 7.77101 18.8165 7.77101C18.7225 7.77101 18.637 7.78791 18.5429 7.80903ZM19.9026 7.66537C19.7444 7.66537 19.5819 7.69917 19.4237 7.71607C19.3681 7.72452 19.3852 7.80058 19.4365 7.79636C19.5905 7.78368 19.7529 7.77946 19.9026 7.74565C19.9454 7.7372 19.9496 7.66115 19.9026 7.66115V7.66537ZM18.7011 6.2921C18.5942 6.30055 18.4916 6.32168 18.389 6.33858C18.3377 6.34703 18.3505 6.42309 18.4018 6.41464C18.5044 6.39774 18.6113 6.38506 18.7139 6.36393C18.761 6.35548 18.7481 6.2921 18.7011 6.2921ZM15.6396 8.3837C15.5541 8.4006 15.5498 8.40482 15.4686 8.43018C15.4087 8.4513 15.4515 8.53582 15.5113 8.51892C15.5627 8.50624 15.614 8.48511 15.661 8.45976C15.7037 8.44286 15.6824 8.37525 15.6353 8.3837H15.6396ZM16.3537 8.18511C16.3024 8.21891 16.3408 8.30341 16.3964 8.27384C16.5461 8.19355 16.7043 8.13863 16.8711 8.10905C17.0207 8.07947 17.1704 8.09638 17.3157 8.07102C17.3585 8.06257 17.367 7.99918 17.3243 7.98651C17.0164 7.87665 16.6188 8.02877 16.3537 8.18933V8.18511ZM23.4387 7.9358C23.1736 7.85975 22.87 7.85974 22.5964 7.83439C22.5408 7.83016 22.5365 7.91045 22.5878 7.9189C22.8572 7.95693 23.1437 8.03721 23.4173 8.02454C23.4643 8.02454 23.4943 7.95271 23.4387 7.9358ZM26.0298 8.61188C25.94 8.58653 25.8503 8.57385 25.7605 8.55695C25.7049 8.5485 25.7006 8.62877 25.7519 8.64145C25.8374 8.65835 25.9229 8.67948 26.0127 8.68794C26.0555 8.68794 26.0726 8.62877 26.0298 8.6161V8.61188ZM24.9865 8.28651C24.9267 8.28651 24.9181 8.37947 24.978 8.37947C25.025 8.37947 25.0464 8.37948 25.0934 8.37103C25.1405 8.3668 25.1319 8.2992 25.0934 8.29497C25.0592 8.29075 25.025 8.28651 24.9908 8.28651H24.9865ZM28.9844 9.43162C28.745 9.32598 28.4542 9.26682 28.1977 9.21612C28.1506 9.20767 28.1335 9.28372 28.1806 9.30062C28.4286 9.38513 28.7065 9.48231 28.9673 9.51189C29.0144 9.51612 29.0272 9.45274 28.9844 9.43584V9.43162ZM31.8449 9.3809C31.366 9.12738 30.8401 8.94569 30.3398 8.74287C30.2928 8.72174 30.2629 8.7978 30.3099 8.81892C30.8016 9.03442 31.2933 9.28795 31.8022 9.45697C31.8449 9.46965 31.8877 9.40626 31.8406 9.3809H31.8449Z" fill="#FFEEDB"/>
</svg>
